<svg xmlns="http://www.w3.org/2000/svg" viewBox="0 0 500 500"><defs><style>.cls-1{isolation:isolate;}.cls-2{fill:#fff;}.cls-3{fill:#e5e7ea;}.cls-4{fill:#d0d3d8;}.cls-12,.cls-5,.cls-6,.cls-7{fill:#2a3554;}.cls-12,.cls-5{opacity:0.2;}.cls-11,.cls-13,.cls-6{opacity:0.5;}.cls-12,.cls-6{mix-blend-mode:multiply;}.cls-8{fill:#16162f;}.cls-11,.cls-9{fill:#d9243a;}.cls-10{fill:#ff4e5a;}.cls-14{fill:#fba691;}.cls-15{fill:#fb876b;}.cls-16{fill:#d45c48;}.cls-17{fill:#9a1529;}.cls-18{fill:#445279;}.cls-19{fill:#a91a21;}.cls-20{fill:#112129;}</style></defs><g class="cls-1"><g id="BACKGROUND"><rect class="cls-2" width="500" height="500"/></g><g id="OBJECTS"><path class="cls-3" d="M451.66,107.71a4.37,4.37,0,0,1-4.35,4.36H354.06a4.38,4.38,0,0,1-4.36-4.36,4.31,4.31,0,0,1,1.29-3.08,4.26,4.26,0,0,1,3.07-1.28h4.41A11.36,11.36,0,0,1,377,99.82,15.76,15.76,0,0,1,390.58,92a16.05,16.05,0,0,1,4.58.67,18.05,18.05,0,0,1,33.34,3.65,11.22,11.22,0,0,1,5.08-1.21,11.37,11.37,0,0,1,10.92,8.2h2.81A4.37,4.37,0,0,1,451.66,107.71Z"/><path class="cls-3" d="M159.47,101.21a4.37,4.37,0,0,1-4.35,4.36H61.87a4.37,4.37,0,0,1-4.35-4.36,4.37,4.37,0,0,1,4.35-4.36h4.41a11.36,11.36,0,0,1,18.5-3.53A15.79,15.79,0,0,1,103,86.22a18.05,18.05,0,0,1,33.34,3.64,11.22,11.22,0,0,1,5.08-1.2,11.36,11.36,0,0,1,10.92,8.19h2.81A4.37,4.37,0,0,1,159.47,101.21Z"/><path class="cls-3" d="M300.26,63.57a3.76,3.76,0,0,1-1.13,2.69,3.71,3.71,0,0,1-2.68,1.12H215a3.81,3.81,0,0,1,0-7.62h3.85A9.92,9.92,0,0,1,235,56.69a13.8,13.8,0,0,1,11.89-6.81,13.49,13.49,0,0,1,4,.6A15.76,15.76,0,0,1,280,53.66a9.93,9.93,0,0,1,14,6.1h2.45A3.83,3.83,0,0,1,300.26,63.57Z"/><path class="cls-4" d="M75.41,429.13H60.23c-2.06,0-3.89-2.34-4.53-5.79l-6.44-34.87c-.26-1.43.3-2.91,1.15-3a127.29,127.29,0,0,1,34.82,0c.85.12,1.41,1.6,1.15,3l-6.44,34.87C79.31,426.79,77.48,429.13,75.41,429.13Z"/><path class="cls-3" d="M96.67,340.85c-9.12-2.4-23,16.53-27.28,35V349A55.46,55.46,0,0,1,82.93,333.5c11.45-9.32,22-21.29,12.86-23.7-8.56-2.25-21.36,14.29-26.4,31.6V306.87a36.35,36.35,0,0,1,7.75-8.44C84.36,292.55,91,285,85.25,283.49,80.25,282.18,73,291,69.39,301V289.8a53.15,53.15,0,0,1,3.71-13.46c5.31-11.71,8.18-23.77,1.18-22.88s-11.54,21.76-7.71,37.77V297C64,285.27,55.1,273.14,49.31,274.66s.88,9.06,8.1,14.94a33.39,33.39,0,0,1,9.16,10.91v27.2C62.42,309.17,48.39,290,39.22,292.44s1.4,14.37,12.85,23.7c8.66,7,12.74,13.65,14.5,17.24V366c-4.44-18.2-18.11-36.58-27.1-34.21S38.17,342.93,51,353.51a60.86,60.86,0,0,1,15.54,18.9v15.36a4.67,4.67,0,0,0,2.82,0v-6.11c1.79-3.62,5.88-10.15,14.43-17.11C95.27,355.23,105.81,343.26,96.67,340.85Z"/><path class="cls-4" d="M462.37,429.13h-20a6.27,6.27,0,0,1-6-4.35l-8.5-26.16a1.73,1.73,0,0,1,1.52-2.27,294,294,0,0,1,46,0,1.74,1.74,0,0,1,1.52,2.27l-8.5,26.16A6.29,6.29,0,0,1,462.37,429.13Z"/><path class="cls-4" d="M451.29,350.57V398.1a3.64,3.64,0,0,0,2.12,0V350.57a1.05,1.05,0,0,0-1.06-1.06h0A1.06,1.06,0,0,0,451.29,350.57Z"/><path class="cls-3" d="M452.07,364s10.81,10.24,23.18-9.71C475.25,354.27,453.83,350,452.07,364Z"/><path class="cls-3" d="M453.07,355.39s12.1-8.68-5.16-24.59C447.91,330.8,439.65,351,453.07,355.39Z"/><path class="cls-3" d="M452.82,381.84s12.07,8.72,21.68-12.7C474.5,369.14,452.71,367.73,452.82,381.84Z"/><path class="cls-3" d="M452.35,389.51s-.42-14.88-23.27-9.49C429.08,380,441.22,398.18,452.35,389.51Z"/><path class="cls-3" d="M453.45,368.3s-.06-14.89-23-10.05C430.42,358.25,442.11,376.7,453.45,368.3Z"/><path class="cls-3" d="M451.35,198.14a10.67,10.67,0,0,0,2.36,1.66l-.93,4.24,4.64,1,.89-4.05a10.71,10.71,0,0,0,3.1-.37l2.62,4.08,4-2.56-2.42-3.77a10.34,10.34,0,0,0,2.48-3.15l4.24.92,1-4.64-4-.88a10.65,10.65,0,0,0-.54-3.66l3.39-2.17-2.57-4-3.27,2.1a10.77,10.77,0,0,0-3.51-2.41l.88-4.05-4.64-1-.92,4.24a10.73,10.73,0,0,0-2.84.53l-2.48-3.86-4,2.56,2.4,3.75a10.67,10.67,0,0,0-2.41,3.51l-4-.89-1,4.65,4.24.92a10.75,10.75,0,0,0,.72,3.39l-3.75,2.4,2.56,4Zm3-8.75a4.36,4.36,0,1,1,3.32,5.19A4.36,4.36,0,0,1,454.36,189.39Z"/><path class="cls-3" d="M462.35,222.65a4.63,4.63,0,0,0,1.06.75l-.41,1.9,2.08.45.4-1.82a4.64,4.64,0,0,0,1.39-.16L468,225.6l1.79-1.15-1.08-1.69a5,5,0,0,0,1.12-1.41l1.9.41.45-2.08-1.82-.4a4.76,4.76,0,0,0-.24-1.64l1.52-1-1.15-1.8-1.47.95a4.75,4.75,0,0,0-1.58-1.09l.4-1.81-2.08-.46-.42,1.9a4.6,4.6,0,0,0-1.27.24L463,212.87,461.21,214l1.07,1.68a4.94,4.94,0,0,0-1.08,1.57l-1.82-.39-.45,2.08,1.9.41a4.59,4.59,0,0,0,.32,1.52L459.47,222l1.15,1.79Zm1.35-3.92a2,2,0,1,1,1.5,2.32A2,2,0,0,1,463.7,218.73Z"/><path class="cls-3" d="M18.88,262l.66,4.71,4.4-.62a10.52,10.52,0,0,0,1.67,3L23,272.61l3.8,2.86,2.49-3.31a10.61,10.61,0,0,0,4.12,1.09l.62,4.41,4.7-.66-.63-4.54a10.79,10.79,0,0,0,2.5-1.45l3.46,2.61,2.86-3.79-3.31-2.5a10.61,10.61,0,0,0,1.09-4.12l3.85-.54-.65-4.7-4,.56a10.4,10.4,0,0,0-2-3.13l2.5-3.31-3.79-2.86L38,252.69a10.39,10.39,0,0,0-3.94-.77l-.62-4.44-4.71.66.67,4.81a10.75,10.75,0,0,0-2.59,1.73l-3.31-2.5L20.67,256l3.46,2.61a10.67,10.67,0,0,0-.71,2.8ZM30.55,260a4.36,4.36,0,1,1,.86,6.1A4.36,4.36,0,0,1,30.55,260Z"/><path class="cls-3" d="M43.54,240.78l.3,2.11,2-.27a4.79,4.79,0,0,0,.75,1.36l-1.17,1.55,1.7,1.28,1.12-1.48a4.85,4.85,0,0,0,1.85.49l.27,2,2.11-.3-.28-2a4.67,4.67,0,0,0,1.12-.65L54.83,246l1.28-1.71-1.48-1.12a4.8,4.8,0,0,0,.49-1.84l1.73-.25-.3-2.11-1.79.25a4.71,4.71,0,0,0-.88-1.4L55,236.33,53.3,235l-1.17,1.56a4.73,4.73,0,0,0-1.77-.35l-.28-2-2.11.29.31,2.16a5,5,0,0,0-1.17.78l-1.48-1.12-1.29,1.7,1.56,1.17a4.67,4.67,0,0,0-.32,1.26Zm5.24-.92a2,2,0,1,1,.38,2.73A1.95,1.95,0,0,1,48.78,239.86Z"/><path class="cls-5" d="M332,145.7a71.61,71.61,0,0,1-9.61,36c-10.87,18.83-21.24,37.93-30.69,57.51l-5.32,11H233.49l-7.78-16.07c-8.6-17.77-18.08-35.1-28-52.15A72.07,72.07,0,0,1,258.16,73.67c.69,0,1.38,0,2.08,0A72,72,0,0,1,332,145.7Z"/><path class="cls-6" d="M284.32,196.65a1.13,1.13,0,0,1-1-.6L281,191.5l-2.37,4.55a1.11,1.11,0,0,1-1,.6,1.13,1.13,0,0,1-1-.6l-2.36-4.55-2.37,4.55a1.13,1.13,0,0,1-1,.6h0a1.11,1.11,0,0,1-1-.6l-2.37-4.55-2.37,4.55a1.11,1.11,0,0,1-1,.6h0a1.11,1.11,0,0,1-1-.6l-2.37-4.55-2.36,4.55a1.13,1.13,0,0,1-2,0l-2.36-4.55-2.37,4.55a1.12,1.12,0,0,1-1,.6h0a1.11,1.11,0,0,1-1-.6l-2.37-4.55L245,196.05a1.11,1.11,0,0,1-1,.6,1.12,1.12,0,0,1-1-.6l-2.36-4.55-2.37,4.55a1.12,1.12,0,0,1-1,.6h0a1.11,1.11,0,0,1-1-.6L233,189.6a1.13,1.13,0,0,1,.48-1.51,1.11,1.11,0,0,1,1.5.48l2.37,4.55,2.36-4.55a1.13,1.13,0,0,1,2,0l2.36,4.55,2.37-4.55a1.12,1.12,0,0,1,2,0l2.37,4.55,2.37-4.55a1.11,1.11,0,0,1,1-.6,1.13,1.13,0,0,1,1,.6l2.36,4.55,2.37-4.55a1.12,1.12,0,0,1,1-.6,1.11,1.11,0,0,1,1,.6l2.37,4.55,2.37-4.55a1.11,1.11,0,0,1,1-.6h0a1.11,1.11,0,0,1,1,.6l2.37,4.55,2.36-4.55a1.13,1.13,0,0,1,2,0l2.36,4.55,2.37-4.55a1.12,1.12,0,0,1,1-.6,1.11,1.11,0,0,1,1,.6l2.37,4.55,2.37-4.55a1.13,1.13,0,0,1,1.51-.48,1.11,1.11,0,0,1,.47,1.51l-3.36,6.45A1.11,1.11,0,0,1,284.32,196.65Z"/><path class="cls-7" d="M247.94,250.22l-2.29,0L235,195.84h0l-1.8-9.15a5.39,5.39,0,0,1,.93-.39,5,5,0,0,1,.86-.16l.39.05,1.75,8.9.09.46Z"/><path class="cls-7" d="M240.35,191a4.88,4.88,0,0,1-2.23,4.1,4.65,4.65,0,0,1-.92.46,4.46,4.46,0,0,1-1.21.29,4.41,4.41,0,0,1-.52,0,3.91,3.91,0,0,1-.49,0,4.87,4.87,0,0,1-1.8-9.15,5.39,5.39,0,0,1,.93-.39,5,5,0,0,1,.86-.16,4.07,4.07,0,0,1,.5,0,5.29,5.29,0,0,1,.9.08A4.89,4.89,0,0,1,240.35,191Z"/><path class="cls-7" d="M292,191a4.88,4.88,0,0,1-4.81,4.88h-.07a4.88,4.88,0,0,1-.29-9.75h.29A4.88,4.88,0,0,1,292,191Z"/><path class="cls-7" d="M289.06,186.5l-1.84,9.37L276.55,250.2h-2.28L285,195.39l1.82-9.27h.29A4.83,4.83,0,0,1,289.06,186.5Z"/><rect class="cls-7" x="229.97" y="250.22" width="58.92" height="15.05" rx="3.63"/><path class="cls-8" d="M288.89,257v4.6a3.64,3.64,0,0,1-3.63,3.63H233.61a3.64,3.64,0,0,1-3.64-3.63V257Z"/><path class="cls-7" d="M288.89,268.9v7.78a3.63,3.63,0,0,1-3,3.58,3.08,3.08,0,0,1-.61.06H233.61a3.08,3.08,0,0,1-.61-.06,3.63,3.63,0,0,1-3-3.58V268.9a3.63,3.63,0,0,1,3.64-3.63h51.65A3.63,3.63,0,0,1,288.89,268.9Z"/><path class="cls-8" d="M288.89,272v4.65a3.63,3.63,0,0,1-3,3.58H233a3.63,3.63,0,0,1-3-3.58V272Z"/><path class="cls-7" d="M288.89,283.94v7.79a3.62,3.62,0,0,1-3,3.58,3.81,3.81,0,0,1-.59.05H233.61a3.83,3.83,0,0,1-.6-.05,3.63,3.63,0,0,1-3-3.58v-7.79a3.63,3.63,0,0,1,3.64-3.62h51.65A3.63,3.63,0,0,1,288.89,283.94Z"/><path class="cls-8" d="M288.89,287.08v4.65a3.62,3.62,0,0,1-3,3.58H233a3.63,3.63,0,0,1-3-3.58v-4.65Z"/><path class="cls-8" d="M245.35,295.36a14.47,14.47,0,0,0,28.93,0Z"/><path class="cls-9" d="M267.65,168.33s-.7,4.43,2.11,5.67a8.67,8.67,0,0,0,5.8.19s4.43,3.63,13.41.65,14.47-12.37,14.47-12.37l-7.31-.49Z"/><path class="cls-10" d="M320.28,138.73a37.47,37.47,0,0,1-.43,5.79c-.18,1.14-.39,2.21-.64,3.21-.18.72-.37,1.4-.58,2.05a25.67,25.67,0,0,1-1.2,3c-.3.61-.61,1.19-.94,1.73-6.74,11.16-19.9,7.46-19.9,7.46l-12,2.68h0l-5.17,1.15h0l-28.65,6.39h0a30.34,30.34,0,0,1-7.79.61h0a22.61,22.61,0,0,1-11.46-3.46c-5.66-3.77-6.82-12.2-4.86-16.32a5.36,5.36,0,0,1,.89-1.35h-3.77a25.06,25.06,0,0,1-20.32-10.32,25.81,25.81,0,0,1-1.72-2.67,24.52,24.52,0,0,1-2.3-18.26c.17-.63.36-1.27.59-1.9l.09-.27c.12-.34.25-.66.39-1,3.37-8.09,6.83-11.4,8.93-12.73a6.56,6.56,0,0,1,1.77-.85l.23,0s2.66-5.23,10.72-10.07h0a46.12,46.12,0,0,1,4.3-2.27,56,56,0,0,1,9.11-3.26c.86-.23,1.76-.45,2.69-.66l.23-.05A79.55,79.55,0,0,1,263.33,86c.71.07,1.39.15,2.05.24a70.75,70.75,0,0,1,8,1.47c1.85.46,2.87.81,2.87.81h.46c2.19.06,11.83.7,19.81,7.13a27.75,27.75,0,0,1,7,8.38c.4.72.77,1.48,1.12,2.27,0,0,.22.17.59.5a49.69,49.69,0,0,1,11,14.69c.48,1,.93,2,1.36,3.1s.7,1.91,1,2.91h0a38,38,0,0,1,1.64,8.87C320.26,137.14,320.28,137.93,320.28,138.73Z"/><path class="cls-9" d="M225.57,109.64a1,1,0,0,1-.63.23,1,1,0,0,1-.75-.35,7,7,0,0,0-1.35-1.26,5,5,0,0,0-3.86-.61l-.59.08a11.89,11.89,0,0,1-4.47,0l-.65-.16h0a6.85,6.85,0,0,1-2.63-1.35,4.5,4.5,0,0,1-1.23-1.7,6.56,6.56,0,0,1,1.77-.85c.22.63.93,1.67,3.16,2.16a9.1,9.1,0,0,0,3.25,0l.52-.07c.52-.08,1-.15,1.6-.19a6.39,6.39,0,0,1,3.66.69h0l.17.1a8.32,8.32,0,0,1,2.13,1.85A1,1,0,0,1,225.57,109.64Z"/><path class="cls-9" d="M226.63,122a1,1,0,0,1-1-.8,2.27,2.27,0,0,0-1-1.56c-1.4-.94-3.88-.61-5.23-.33a4.92,4.92,0,0,1-4.44-1.37,5.55,5.55,0,0,1-1.27-5.21c1-4.23,8.16-6.24,9-6.46a1,1,0,0,1,.5,1.89c-1.91.5-7,2.39-7.57,5a3.63,3.63,0,0,0,.75,3.42,2.93,2.93,0,0,0,2.66.81c2-.41,4.82-.64,6.7.63a4.2,4.2,0,0,1,1.81,2.82,1,1,0,0,1-.78,1.14Z"/><path class="cls-9" d="M214.35,106.54a1,1,0,0,1-.87,1l-.21,0h0c-1,.14-5.48,1-6,4.18s-2.37,6.4-4.67,7.83a5.34,5.34,0,0,1-2.81.85,2.42,2.42,0,0,1-.38,0c.17-.63.36-1.27.59-1.9a3.51,3.51,0,0,0,1.58-.56c1.82-1.13,3.35-3.75,3.79-6.51.5-3.06,3.16-4.53,5.27-5.22a13.23,13.23,0,0,1,2.67-.59A1,1,0,0,1,214.35,106.54Z"/><path class="cls-9" d="M218.42,107.71h-.12a1,1,0,0,1-.85-1.08,10.43,10.43,0,0,1,6.52-8c5.52-2.31,8.62-2.13,8.75-2.12a1,1,0,0,1,.91,1,1,1,0,0,1-1,.91s-2.83-.13-7.86,2a8.51,8.51,0,0,0-5.34,6.4A1,1,0,0,1,218.42,107.71Z"/><path class="cls-9" d="M223.44,98.9a7.22,7.22,0,0,0,.36,1,1,1,0,0,1-.37,1.21l-.08,0-.07,0a.84.84,0,0,1-.38.08,1,1,0,0,1-.9-.59,8,8,0,0,1-.29-.77,8.21,8.21,0,0,1,.42-6.32,46.12,46.12,0,0,1,4.3-2.27C225.3,92.22,222.39,95,223.44,98.9Z"/><path class="cls-9" d="M264.69,90.89l-.06,0c-1.53,1.54-2.35,2.17-7.45,2.27a1.92,1.92,0,0,0-1.41.44c-.5.54-.39,1.9-.29,3.21.13,1.67.28,3.56-.61,5.06a3.59,3.59,0,0,1-3.09,1.94,3.64,3.64,0,0,1-.56,0c-2-.33-3.92-2.39-4.49-4.92s-4.83-2.67-5.07-2.67h0a1,1,0,0,1,0-2c.25,0,6.08,0,7,4.2.43,1.91,1.81,3.24,2.89,3.41a1.6,1.6,0,0,0,1.67-1c.57-1,.45-2.46.34-3.9-.14-1.73-.28-3.51.78-4.68a3.69,3.69,0,0,1,2.82-1.08c4.51-.09,4.92-.49,6.1-1.69l.06-.06c.5-.5.36-2.14,0-3.53.71.07,1.39.15,2.05.24C265.67,87.73,265.79,89.78,264.69,90.89Z"/><path class="cls-9" d="M249.58,94.64a1,1,0,0,1-.52.15,1,1,0,0,1-.83-.45c-1.79-2.82-6.21-2.61-9.14-2.46a10.79,10.79,0,0,1-2.78-.06,1.74,1.74,0,0,1-1.24-1.12,3.71,3.71,0,0,1,.47-2.64c.86-.23,1.76-.45,2.69-.66A7.53,7.53,0,0,0,236.92,90a14.57,14.57,0,0,0,2.07,0c3.18-.16,8.5-.42,10.89,3.36A1,1,0,0,1,249.58,94.64Z"/><path class="cls-9" d="M276.71,88.51a1,1,0,0,1-.38.19c-.1,0-5.65,1.41-5.12,4.55.37,2.21.46,3.26.13,4.09-.42,1-1.34,1.31-2.5,1.69l-.29.09-.51.17c-7.59,2.4-11,5-10.24,7.64.39,1.31.77,2.31,1.07,3.12.57,1.53.91,2.46.43,3.31a3.19,3.19,0,0,1-2.41,1.22c-1.85.36-11,2.66-10.18,13.31a1,1,0,0,1-.9,1h-.08a1,1,0,0,1-1-.9c-.4-4.88,1.1-9,4.34-11.8a16.54,16.54,0,0,1,7.43-3.59,4.37,4.37,0,0,0,1-.28,11.28,11.28,0,0,0-.53-1.65c-.31-.83-.7-1.87-1.11-3.25-1.74-5.85,8.24-9,11.52-10.06l.49-.15.3-.1c.68-.22,1.22-.39,1.29-.57a9.56,9.56,0,0,0-.25-3c-.51-3.06,2-4.9,4.1-5.88,1.85.46,2.87.81,2.87.81Z"/><path class="cls-9" d="M241.34,114a4.57,4.57,0,0,1-3-1.23c-3.64-3.11-1.72-13.52-1.49-14.7a1,1,0,1,1,1.91.38c-.78,4-1.25,11,.85,12.84a2.52,2.52,0,0,0,2,.73,4.28,4.28,0,0,0,2.37-1.82,1,1,0,1,1,1.67,1A6.18,6.18,0,0,1,242,114,4.44,4.44,0,0,1,241.34,114Z"/><path class="cls-9" d="M233.92,116.87c-.2,0-.41,0-.61,0-3.61-.46-5.57-5.62-5.78-6.21a1,1,0,0,1,1.84-.66c.47,1.29,2.12,4.67,4.18,4.93s4.91-2,5.78-2.85a1,1,0,1,1,1.39,1.37C240.57,113.57,237.28,116.87,233.92,116.87Z"/><path class="cls-9" d="M237.28,125.77c-1.33,3.65-7.95,5.11-13.27,6.29-1.76.39-3.44.76-4.51,1.13a3.39,3.39,0,0,0-1.35.87,9.56,9.56,0,0,0-1.64,2.84c-.93,2.08-2,4.44-5,5.11a11.41,11.41,0,0,1-2.54.26,19.68,19.68,0,0,1-5.51-.89,25.81,25.81,0,0,1-1.72-2.67c1.76.71,5.9,2.15,9.35,1.4,2.09-.46,2.82-2.1,3.66-4,.19-.43.39-.87.61-1.31a8.06,8.06,0,0,1,1.56-2.24,5.34,5.34,0,0,1,2-1.21,46.91,46.91,0,0,1,4.73-1.2c4.34-1,10.9-2.41,11.85-5.05a1,1,0,0,1,1.26-.58A1,1,0,0,1,237.28,125.77Z"/><path class="cls-9" d="M215.47,134.8a7.26,7.26,0,0,1-3.6-1,5.24,5.24,0,0,1-2.75-4.62,2.62,2.62,0,0,0-.72-2,3.55,3.55,0,0,0-2.3-.78,1,1,0,0,1-1-.92,1,1,0,0,1,.93-1,5.56,5.56,0,0,1,3.75,1.31,4.52,4.52,0,0,1,1.32,3.42,3.34,3.34,0,0,0,1.8,2.94,4.62,4.62,0,0,0,4.12.38,1,1,0,1,1,.95,1.71A5.09,5.09,0,0,1,215.47,134.8Z"/><path class="cls-9" d="M202.19,135.08a1.06,1.06,0,0,1-.31-.05,1,1,0,0,1-.6-1.22c.09-.27,2.38-6.77,8.23-7.54a1,1,0,1,1,.26,1.9c-4.67.62-6.66,6.21-6.68,6.26A1,1,0,0,1,202.19,135.08Z"/><path class="cls-9" d="M298.62,97.51h0a13.09,13.09,0,0,1-1.7.09,25.62,25.62,0,0,1-8.24-1.43c-3-1-5.27-1.62-6.38-1-.31.16-.76.52-1.08,1.72a1,1,0,0,1-1.19.69,1,1,0,0,1-.7-1.19,4.37,4.37,0,0,1,2.05-3c1.75-.93,4.23-.37,7.94.9a24,24,0,0,0,7.21,1.32A28.11,28.11,0,0,1,298.62,97.51Z"/><path class="cls-9" d="M306,127.41a1,1,0,0,1-1.15.76c-.36-.07-.83-.13-1,0-.54.4-.69,2.54-.88,5.26l0,.73c-.24,3.47-3.55,6-6.57,7.19a13.46,13.46,0,0,1-4.91,1,7.82,7.82,0,0,1-5.41-1.85,5.94,5.94,0,0,1-1.86-3.22,11.59,11.59,0,0,1,.23-4.76c.17-.85.39-1.72.62-2.6a24.59,24.59,0,0,0,1.12-8.18c0-.44-.08-.86-.12-1.27-.39-4.26-.65-7.08.84-8.87.88-1.06,2.3-1.65,4.46-1.84a5,5,0,0,0,1.95-.5,2.47,2.47,0,0,0,1.14-1.72c0-.12.07-.24.1-.36a4.57,4.57,0,0,1,2.46-3.46c2.24-1.08,4.86-.42,6.62.29.4.72.77,1.48,1.12,2.27,0,0,.22.17.59.5a.92.92,0,0,1-.75-.12c-.05,0-4-2.49-6.73-1.18-.92.44-1.13,1.09-1.42,2.2a5.89,5.89,0,0,1-1,2.34l-.09.12,0,0a5.51,5.51,0,0,1-3.76,1.54c-1.6.15-2.6.51-3.13,1.15-1,1.17-.74,3.66-.39,7.44,0,.41.07.83.11,1.28a26.37,26.37,0,0,1-1.17,8.83c-1,4.15-1.6,6.79.44,8.67,1.73,1.6,5,1.79,8.28.48,3.1-1.23,5.2-3.39,5.35-5.51l0-.73c.26-3.82.39-5.73,1.64-6.68a3.15,3.15,0,0,1,2.6-.38A1,1,0,0,1,306,127.41Z"/><path class="cls-9" d="M317.55,124.58c-.64,2.1-1.94,4.15-4.27,4.15H313c-2.77-.18-3.29-3.27-3.76-6-.11-.64-.22-1.29-.36-1.9a6.52,6.52,0,0,0-1.17-2.88h0c-3-3.41-7-4.11-11.83-2.07a1,1,0,0,1-.76-1.8c5.64-2.37,10.5-1.47,14.07,2.6,1.25,1.42,1.62,3.61,2,5.73.45,2.6.82,4.31,2,4.38h.11c2.38,0,2.83-4.86,2.83-4.91a1,1,0,0,1,.11-.38C316.67,122.48,317.12,123.51,317.55,124.58Z"/><path class="cls-9" d="M296.35,129a3.7,3.7,0,0,1-3.14-1.41c-1.55-2.05-.58-5.51-.47-5.9A1,1,0,0,1,294,121a1,1,0,0,1,.65,1.21c-.21.74-.65,3.09.16,4.17a1.86,1.86,0,0,0,1.63.62c2.19,0,3.08-1.78,4.18-4.45a10,10,0,0,1,1.89-3.35c2.26-2.17,5.16-2,7.94.34a1,1,0,0,1,.1,1.38,1,1,0,0,1-1.37.11c-3-2.61-4.75-1-5.32-.42a8.94,8.94,0,0,0-1.43,2.69c-1,2.36-2.32,5.61-6,5.66Z"/><path class="cls-9" d="M265.57,134.68a22.87,22.87,0,0,1-3.69-.35c-5.58-.92-5.51-9.25-5.5-9.61a1,1,0,1,1,1.95,0c0,.1-.05,7,3.87,7.64,2.46.41,5.53.69,7.37-.76,1.12-.88,1.75-2.35,1.91-4.5.13-1.65.19-3.08.24-4.35.16-4.1.25-6.57,2.59-7.94a1,1,0,0,1,1,1.68c-1.36.8-1.48,2.42-1.63,6.34-.05,1.28-.11,2.73-.24,4.42-.2,2.68-1.1,4.67-2.66,5.89A8.2,8.2,0,0,1,265.57,134.68Z"/><path class="cls-9" d="M261.06,133.77l-.59.12c-3.59.83-5.61,3.19-7.94,5.89a38.69,38.69,0,0,1-4,4.22c-3.27,2.8-5.92,1.93-8.47,1.09a12.09,12.09,0,0,0-5.1-.86c-4.78.43-7.47,8.09-7.5,8.17a1,1,0,0,1-.79.65,5.36,5.36,0,0,1,.89-1.35H225.6c.3-.84,3.31-8.88,9.14-9.42a13.89,13.89,0,0,1,5.89.95c2.41.8,4.15,1.37,6.59-.72a36.85,36.85,0,0,0,3.83-4c2.16-2.5,4.22-4.9,7.55-6.09a11.94,11.94,0,0,1,2.12-.56l.11,0a1,1,0,0,1,.88.45.93.93,0,0,1,.14.36A1,1,0,0,1,261.06,133.77Z"/><path class="cls-9" d="M263,126.41a1,1,0,0,1-1-.81c-.48-2.74-1.5-4.61-3-5.55a5.32,5.32,0,0,0-4-.5,1,1,0,1,1-.6-1.86,7.37,7.37,0,0,1,5.64.69c2,1.24,3.38,3.56,4,6.89a1,1,0,0,1-.8,1.13Z"/><path class="cls-9" d="M261.52,121.72a1,1,0,0,1-.49-.13,1,1,0,0,1-.35-1.34c.4-.7,10.12-17.36,20-18.34A15.13,15.13,0,0,1,295.35,109a1,1,0,0,1-1.71,1h0a13.15,13.15,0,0,0-12.75-6.1c-8.91.89-18.43,17.22-18.52,17.38A1,1,0,0,1,261.52,121.72Z"/><path class="cls-9" d="M256.7,150.19a1,1,0,0,1-.59-1.75c2.76-2.15,5.82-2.5,9.36-2.9a40.06,40.06,0,0,0,8.38-1.62c7-2.28,10.47-11.36,10.5-11.45a1,1,0,1,1,1.83.68c-.15.41-3.82,10.06-11.73,12.63a42.37,42.37,0,0,1-8.76,1.7c-3.38.38-6.06.69-8.39,2.5A1,1,0,0,1,256.7,150.19Z"/><path class="cls-9" d="M270.24,153.32a1,1,0,0,1-.19-1.94c.06,0,6-1.22,8.21-3.57,1.38-1.46,4-1,7-.55,3.84.63,8.19,1.34,11.19-1.28a1,1,0,0,1,1.38.09,1,1,0,0,1-.09,1.38c-3.7,3.22-8.74,2.4-12.8,1.74-2.24-.37-4.56-.75-5.24,0-2.65,2.8-9,4.1-9.23,4.15Z"/><path class="cls-9" d="M279,149.46a.76.76,0,0,1-.21,0,1,1,0,0,1-.75-1.16,7.69,7.69,0,0,0-.84-5,1,1,0,0,1,.34-1.34,1,1,0,0,1,1.33.33,9.52,9.52,0,0,1,1.08,6.39A1,1,0,0,1,279,149.46Z"/><path class="cls-9" d="M320.28,138.73A10.15,10.15,0,0,1,315,140a21.27,21.27,0,0,1-7.41-1.52,1,1,0,1,1,.76-1.8,20,20,0,0,0,6.67,1.36,7.37,7.37,0,0,0,5.15-1.7C320.26,137.14,320.28,137.93,320.28,138.73Z"/><path class="cls-9" d="M250.75,172.21h0a30.34,30.34,0,0,1-7.79.61h0a15,15,0,0,1-4.65-2.93,16.51,16.51,0,0,1-3.71-5.16l-.07-.14h0a16.56,16.56,0,0,1-1.25-4.17c-1.06-6.79,4.25-11.07,4.47-11.24a1,1,0,1,1,1.21,1.53c-.2.16-4.63,3.77-3.75,9.41a15.34,15.34,0,0,0,.52,2.18,14.13,14.13,0,0,0,.82,2A13.64,13.64,0,0,0,250.07,172,1,1,0,0,1,250.75,172.21Z"/><path class="cls-9" d="M284.57,164.67l-5.17,1.15h0a6.29,6.29,0,0,1-1.62-1,11.92,11.92,0,0,0-2.12-1.39c-3.36-1.73-7.26-.45-9.8,1.32s-5.15.67-7.08-.11a6.24,6.24,0,0,0-2-.62,6.26,6.26,0,0,0-2.07,1.29c-1.56,1.22-3.69,2.89-5.71,1.46-1.74-1.22-4.73.62-4.76.64a1,1,0,0,1-.52.15,1,1,0,0,1-.54-1.79c.17-.11,4.1-2.6,7-.59.77.55,1.84-.2,3.38-1.41a6.34,6.34,0,0,1,3.16-1.7,7,7,0,0,1,2.86.76c1.77.71,3.59,1.45,5.23.32,3.83-2.68,8.36-3.23,11.81-1.46a15,15,0,0,1,2.43,1.59c1.06.83,1.46,1.14,4.55.75A1,1,0,0,1,284.57,164.67Z"/><path class="cls-9" d="M270.32,159.18c-6.66,0-11.81-5.41-12.05-5.67a1,1,0,0,1,1.42-1.34h0c.06.07,6,6.33,12.82,4.82a41.75,41.75,0,0,0,7.32-2.52c3.59-1.51,6.69-2.8,10.42-2a1,1,0,1,1-.43,1.9c-3.12-.7-5.82.43-9.23,1.86a44,44,0,0,1-7.66,2.63A11.9,11.9,0,0,1,270.32,159.18Z"/><path class="cls-9" d="M286.18,158.92a.94.94,0,0,1-.74-.34s-2.16-2.44-4.94-2.34a1,1,0,1,1-.07-2c3.74-.13,6.38,2.89,6.49,3a1,1,0,0,1-.11,1.38A1,1,0,0,1,286.18,158.92Z"/><path class="cls-9" d="M296.41,155.69a1,1,0,0,1-.37-.08c-3-1.23-4-6.22-4.14-6.79a1,1,0,1,1,1.91-.37c.23,1.17,1.25,4.65,3,5.35a1,1,0,0,1-.37,1.89Z"/><path class="cls-9" d="M317.43,152.8c-.3.61-.61,1.19-.94,1.73a7.54,7.54,0,0,0-6.88.86l-.05,0c-.77.55-1.47,1.07-2.15,1.51h0a9.81,9.81,0,0,1-5.71,2,13.58,13.58,0,0,1-3.46-.52,1,1,0,1,1,.51-1.89,7.9,7.9,0,0,0,5.63-.11,13.82,13.82,0,0,0,2.18-1.25c.57-.39,1.19-.83,1.87-1.32l.05,0A9.57,9.57,0,0,1,317.43,152.8Z"/><path class="cls-9" d="M306.53,157.12c-2.94,0-4.34-3.31-4.7-5.36a1,1,0,0,1,.79-1.13,1,1,0,0,1,1.13.78c0,.05.76,4,3,3.75a1,1,0,1,1,.22,1.94A3.54,3.54,0,0,1,306.53,157.12Z"/><path class="cls-9" d="M319.21,147.73c-.18.72-.37,1.4-.58,2.05a13.41,13.41,0,0,1-1.39.08A14,14,0,0,1,307,145.09a1,1,0,0,1,1.52-1.23A11.82,11.82,0,0,0,319.21,147.73Z"/><path class="cls-9" d="M235.44,165.23a.92.92,0,0,1-.4-.08,1,1,0,0,1-.49-1.29c.07-.17,2-4.26,10.94-6a1,1,0,0,1,.37,1.92c-7.84,1.5-9.52,4.82-9.53,4.85A1,1,0,0,1,235.44,165.23Z"/><path class="cls-11" d="M320.28,138.73a37.47,37.47,0,0,1-.43,5.79c-.18,1.14-.39,2.21-.64,3.21-.18.72-.37,1.4-.58,2.05a25.67,25.67,0,0,1-1.2,3c-.3.61-.61,1.19-.94,1.73-6.74,11.16-19.9,7.46-19.9,7.46l-12,2.68h0l-5.17,1.15h0l-28.65,6.39h0a30.34,30.34,0,0,1-7.79.61h0a22.61,22.61,0,0,1-11.46-3.46c-5.66-3.77-6.82-12.2-4.86-16.32a5.36,5.36,0,0,1,.89-1.35h-3.77a25.06,25.06,0,0,1-20.32-10.32,25.81,25.81,0,0,1-1.72-2.67,24.52,24.52,0,0,1-2.3-18.26c.17-.63.36-1.27.59-1.9l.09-.27c.12-.34.25-.66.39-1,3.37-8.09,6.83-11.4,8.93-12.73a6.56,6.56,0,0,1,1.77-.85l.23,0s2.66-5.23,10.72-10.07c-.19.26-16.5,22.51-4.69,37.08s28.39,8.21,28.39,8.21-1.08,17.71,16,21.05,58.8-9.39,56.69-32.44a38,38,0,0,1,1.64,8.87C320.26,137.14,320.28,137.93,320.28,138.73Z"/><path class="cls-12" d="M332,145.7a71.61,71.61,0,0,1-9.61,36c-10.87,18.83-21.24,37.93-30.69,57.51l-5.32,11H238.7c30.7-3.08,65.22-58.92,60.29-112-5.06-54.59-38.5-64-40.83-64.52.69,0,1.38,0,2.08,0A72,72,0,0,1,332,145.7Z"/><g class="cls-13"><path class="cls-2" d="M202.11,171.81a6.62,6.62,0,0,1-7.65-4.73c-.27-1-6.52-24.46,6-52.28,12.8-28.5,42.09-36.76,43.33-37.1a6.62,6.62,0,1,1,3.48,12.78c-.22.07-24.55,7.08-34.73,29.74-10.46,23.29-5.34,43.17-5.28,43.37a6.64,6.64,0,0,1-4.66,8.11Z"/></g><path class="cls-9" d="M343.35,99.65c-1.7-4.14-5.75-7.06-12-8.68-5.71-1.47-13.1-1.84-22-1.1-1.13.1-2.28.2-3.45.33,1.31,1.09,2.58,2.23,3.82,3.4,2.85-.24,5.53-.35,8-.35a46,46,0,0,1,14.85,2c3.76,1.31,6.26,3.27,7.3,5.81,2.17,5.3-2,13.25-11.46,22.23-1.49,1.41-3.11,2.85-4.85,4.3-13.61,11.33-33.31,22.57-55.47,31.65S224,174.13,206.37,175.6a87,87,0,0,1-11.9.26c-10-.52-16.48-3.19-18.34-7.72-2.19-5.36,2.06-13.4,11.74-22.49,0-1.76.06-3.5.19-5.23-5.84,5.09-10.17,10-12.9,14.51-3.35,5.57-4.19,10.49-2.5,14.63s5.75,7.06,12.05,8.68a52.09,52.09,0,0,0,11.66,1.45l1.92,0q3.94,0,8.39-.37c18-1.5,40.34-7.4,62.84-16.62s42.55-20.67,56.44-32.24c1.28-1.06,2.5-2.12,3.65-3.16a60.53,60.53,0,0,0,11.25-13c2.22-3.7,3.34-7.12,3.34-10.21A11.48,11.48,0,0,0,343.35,99.65Z"/><path class="cls-9" d="M344.72,154.93c-2.74-4.56-7.09-9.44-12.94-14.53.13,1.72.19,3.46.19,5.22,9.7,9.1,14,17.16,11.77,22.52-1.86,4.54-8.36,7.2-18.37,7.72-1.21.07-2.47.1-3.78.1q-3.78,0-8.09-.36c-17.65-1.47-39.57-7.28-61.73-16.35-20-8.2-38-18.16-51.34-28.36-1.43-1.1-2.81-2.19-4.12-3.29-1.75-1.46-3.37-2.89-4.86-4.31-7.83-7.41-12-14.12-12-19.22a8,8,0,0,1,.56-3c2.08-5.08,10-7.82,22.15-7.82q3.78,0,8.09.36l0,0,.87-.81.09-.08c.24-.23.48-.45.73-.66.4-.37.81-.72,1.22-1.07l.81-.68.06-.06c-1.18-.13-2.35-.24-3.5-.34-8.88-.74-16.27-.37-22,1.1-6.3,1.62-10.35,4.54-12,8.68s-.85,9.06,2.5,14.63a59.92,59.92,0,0,0,11.24,13c1.15,1.05,2.36,2.1,3.65,3.17,1.07.89,2.17,1.79,3.32,2.67,13.67,10.65,32.35,21.06,53.12,29.57,22.51,9.22,44.82,15.12,62.84,16.62q4.46.38,8.39.37l1.89,0a52.38,52.38,0,0,0,11.69-1.45c6.3-1.62,10.35-4.54,12-8.68S348.06,160.5,344.72,154.93Z"/><path class="cls-10" d="M188.59,175.33a5.92,5.92,0,1,1-5.92-5.92A5.92,5.92,0,0,1,188.59,175.33Z"/><circle class="cls-10" cx="326.2" cy="92.96" r="5.92"/><circle class="cls-10" cx="336.93" cy="176.02" r="5.92"/><path class="cls-10" d="M204.5,91.32a5.92,5.92,0,1,1-5.92-5.92A5.92,5.92,0,0,1,204.5,91.32Z"/><polygon class="cls-14" points="79.42 409.62 78.96 419.18 86.71 419.29 87.58 409.25 79.42 409.62"/><path class="cls-10" d="M82,417.81a36.6,36.6,0,0,1,5.07-.88c1.09.06,8.16,8.46,10.61,9,4.44,1,4.23,8,1.5,8.25-7.89.76-21.24-3-21.24-3s-1-9-.34-11.78S79.8,418.57,82,417.81Z"/><path class="cls-2" d="M88.31,425.65a.57.57,0,0,1-.42-.1.54.54,0,0,1-.13-.76,8.42,8.42,0,0,1,3.13-2.64,3.73,3.73,0,0,1,3.81.58.54.54,0,0,1,0,.77.55.55,0,0,1-.77,0,2.68,2.68,0,0,0-2.69-.36,7.24,7.24,0,0,0-2.63,2.26A.58.58,0,0,1,88.31,425.65Z"/><path class="cls-2" d="M86.85,424a.54.54,0,0,1-.42-.09.54.54,0,0,1-.12-.76,8.35,8.35,0,0,1,3.12-2.65,3.76,3.76,0,0,1,3.82.58.55.55,0,0,1,0,.77.54.54,0,0,1-.77,0,2.7,2.7,0,0,0-2.69-.36,7.44,7.44,0,0,0-2.63,2.26A.51.51,0,0,1,86.85,424Z"/><path class="cls-2" d="M90.37,427.11A.53.53,0,0,1,90,427a.54.54,0,0,1-.13-.76A8.51,8.51,0,0,1,93,423.61a3.78,3.78,0,0,1,3.82.58.55.55,0,0,1,0,.77.54.54,0,0,1-.77,0,2.7,2.7,0,0,0-2.69-.36,7.32,7.32,0,0,0-2.63,2.27A.56.56,0,0,1,90.37,427.11Z"/><path class="cls-7" d="M107,293.05s-.14,2.24-.41,6c-.07,1-.14,2.07-.23,3.26-.9,12.49-2.67,35.07-4.66,51.1-2.8,22.46-11.87,59.42-11.87,59.42l-9.66-.26-1,0-2.29-.05s1.43-23.35,3.32-43.62c1.25-13.38,1.81-45,2-65,.12-10.3.16-17.5.16-17.5Z"/><path class="cls-8" d="M107,293.05s-.14,2.24-.41,6c-.07,1-.14,2.07-.23,3.26-4.45.87-16.7,1.54-24.08,1.6.12-10.3.16-17.5.16-17.5Z"/><path class="cls-8" d="M87.74,299c0,.76-.32,73.51-7.57,113.53l-1,0C86.47,372.6,86.79,299.75,86.8,299Z"/><polygon class="cls-14" points="136.85 411.01 136.6 419.63 128.72 419.27 128.47 410.13 136.85 411.01"/><path class="cls-10" d="M134.59,419.25s1.7-2.25,3-2.15,11.59,8.38,15.12,9.08,2.82,3.3,2.16,4.62-28.17-.7-28.17-.7-.69-8.2.22-10.7S131.82,419.82,134.59,419.25Z"/><path class="cls-2" d="M140.25,425a.53.53,0,0,1-.39-.05.49.49,0,0,1-.18-.68,7.68,7.68,0,0,1,2.59-2.66,3.42,3.42,0,0,1,3.5.18.5.5,0,0,1,.1.7.48.48,0,0,1-.69.09,2.45,2.45,0,0,0-2.47-.09,6.75,6.75,0,0,0-2.17,2.28A.59.59,0,0,1,140.25,425Z"/><path class="cls-2" d="M138.78,423.6a.47.47,0,0,1-.38,0,.49.49,0,0,1-.18-.68,7.48,7.48,0,0,1,2.59-2.67,3.4,3.4,0,0,1,3.5.19.5.5,0,1,1-.6.79,2.43,2.43,0,0,0-2.46-.09,6.81,6.81,0,0,0-2.18,2.27A.44.44,0,0,1,138.78,423.6Z"/><path class="cls-2" d="M142.24,426.15a.5.5,0,0,1-.57-.72,7.65,7.65,0,0,1,2.6-2.67,3.41,3.41,0,0,1,3.5.19.5.5,0,0,1-.6.79,2.42,2.42,0,0,0-2.47-.09,6.74,6.74,0,0,0-2.17,2.27A.47.47,0,0,1,142.24,426.15Z"/><path class="cls-7" d="M138.3,413.25l-8-.54-.95-.06-2-.13s-5.28-46.75-6.9-59.21c-1.42-10.82-7.82-35.1-12-50.21-1.18-4.29-2.18-7.84-2.83-10.13-.5-1.8-.8-2.83-.8-2.83l26.74-2.8s.08.59.21,1.65c.28,2.16.81,6.3,1.46,11.51,1.78,14.18,4.49,36.25,5.56,47.48C141.63,376.91,138.3,413.25,138.3,413.25Z"/><path class="cls-8" d="M133.31,300.5l-24.78,2.6c-1.18-4.29-2.18-7.84-2.83-10.13l26.15-4C132.13,291.15,132.66,295.29,133.31,300.5Z"/><path class="cls-8" d="M130.29,412.71l-.95-.06c-.58-14.46-2.28-50.59-5.3-65.89-3.79-19.29-12.39-47.35-12.48-47.63l.91-.28c.09.29,8.7,28.39,12.5,47.73C128,362,129.72,398.27,130.29,412.71Z"/><path class="cls-9" d="M129.58,229.89c3.51,11.83,12.76,20.34,12.76,20.34,5.26,2.49,19.28,7.65,24.15,6.7a40.12,40.12,0,0,1,.59-9.75c-6.65-.26-18.6-7.65-18.6-7.65-10.52-19.46-12.15-41.32-12.15-41.32C129.4,205.46,129.58,229.89,129.58,229.89Z"/><path class="cls-10" d="M78.36,274.07c0,.39,0,.76-.07,1.13-.4,6.77-.69,12-.81,14.6a108.56,108.56,0,0,0,19.41,4.62l.88.12.48.06,1,.13,1.16.13a102.82,102.82,0,0,0,13.37.57c.9,0,1.8-.05,2.7-.1h.18l.69,0,.42,0a108,108,0,0,0,15.71-2.09c.08-1.16.19-2.9.33-5.08,0-.41,0-.83.07-1.26h0c.18-3.12.4-7,.63-11.42q0-.56.06-1.14c.15-2.93.31-6.07.47-9.34l.06-1.14c.16-3.36.32-6.85.47-10.39.09-2.16.19-4.34.27-6.53s.18-4.43.26-6.63c0-.48,0-1,0-1.44.75-20.83,1-40-.3-42.22-.92-1.54-3.11-3.41-5.72-5.32l-1-.71c-1.11-.79-10.34-4.56-11.5-5.33l-9.92-1.3c-.06,0-9.78,2.67-9.84,2.7l-1.28.63a57,57,0,0,0-9.38,5.49c-.3.25-.58.49-.82.73a6.18,6.18,0,0,0-.5.57,3,3,0,0,0-.4.86c-1.47,4.3-3.14,21.48-4.58,40.18-.11,1.34-.21,2.69-.31,4,0,.6-.09,1.19-.13,1.79,0,.41-.07.82-.09,1.23,0,.2,0,.41,0,.61-.07,1-.15,2-.22,3,0,.75-.1,1.5-.16,2.24C79.38,257.45,78.8,266.61,78.36,274.07Z"/><path class="cls-9" d="M113.62,200.42c-5.3-.32-9.86-6.26-10.05-6.52a.36.36,0,0,1,.07-.52.37.37,0,0,1,.52.07c0,.06,4.82,6.28,10,6.23a.37.37,0,0,1,.38.37.38.38,0,0,1-.37.38Z"/><path class="cls-9" d="M105.2,263.53a.38.38,0,0,1,0-.75c13.79-.75,20.9-24.12,21-24.36a.37.37,0,0,1,.46-.25.38.38,0,0,1,.26.47c-.3,1-7.33,24.11-21.65,24.89Z"/><path class="cls-9" d="M111.09,256.68a.37.37,0,0,1-.31-.2.36.36,0,0,1,.15-.5c7.56-4.06,9-10.61,9-10.68a.38.38,0,0,1,.74.16c-.06.28-1.56,6.95-9.43,11.18A.38.38,0,0,1,111.09,256.68Z"/><path class="cls-7" d="M100,162.34s-1.79-1.13-.71-5.24-1.44-5.39.25-7.66,3.23-2.32,4.32-5.19,7.26-4.78,11.12-3.06,9.85-1,11.86,2.05c3.65,5.51,1.27,7.52,2.65,8.75,1.92,1.72.88,13.12-2.73,13.51S100,162.34,100,162.34Z"/><path class="cls-15" d="M125.93,164.27s2.53-3,4.11-.29-1.33,10.14-5.47,8Z"/><path class="cls-16" d="M125.64,169.71a.36.36,0,0,0,.36-.24,5.52,5.52,0,0,1,3.32-3.12.35.35,0,0,0,.23-.45.36.36,0,0,0-.45-.24,6.17,6.17,0,0,0-3.78,3.57.35.35,0,0,0,.22.46Z"/><path class="cls-16" d="M128.17,168.68a.34.34,0,0,0,.19-.05.35.35,0,0,0,.14-.49,3.36,3.36,0,0,0-1.28-1.17.36.36,0,1,0-.34.64,2.58,2.58,0,0,1,1,.88A.38.38,0,0,0,128.17,168.68Z"/><path class="cls-15" d="M101.84,162.82s-2.15-3.26-4-.79.11,10.24,4.47,8.63Z"/><path class="cls-16" d="M101.49,168.26a.36.36,0,0,1-.33-.29,5.59,5.59,0,0,0-2.92-3.5.36.36,0,1,1,.29-.65,6.21,6.21,0,0,1,3.33,4,.36.36,0,0,1-.28.43Z"/><path class="cls-16" d="M99.1,166.92a.33.33,0,0,1-.19-.06.37.37,0,0,1-.08-.51,3.28,3.28,0,0,1,1.42-1,.35.35,0,0,1,.46.21.35.35,0,0,1-.21.46,2.58,2.58,0,0,0-1.09.76A.34.34,0,0,1,99.1,166.92Z"/><path class="cls-14" d="M107.28,177.45l-.46,7.57s2,4,5.06,4.43,6-3,6-3l.47-7.83Z"/><path class="cls-15" d="M107.28,177.45l-.21,3.36c1.91,2.39,5.52,3.18,11,2.71l.29-4.87Z"/><path class="cls-14" d="M100.47,157.53a73.94,73.94,0,0,0,.4,9.62h0a0,0,0,0,0,0,0h0c.09.72.21,1.41.34,2,.08.36.17.74.27,1.13,1.46,5.74,5.12,14.13,15.79,11,4.5-1.31,7.06-5.71,8.53-10.57.08-.29.17-.58.24-.86s.1-.36.14-.53l.07-.26a.84.84,0,0,0,0-.1v0a54.21,54.21,0,0,0,1.36-10.31,7.91,7.91,0,0,0-3.6-7c-6.36-4.13-13.39-3.15-18.07-1.67A7.89,7.89,0,0,0,100.47,157.53Z"/><path class="cls-7" d="M107.89,163.47c0,.8.33,1.49.84,1.52s1-.6,1-1.41-.33-1.49-.84-1.52S107.94,162.66,107.89,163.47Z"/><path class="cls-7" d="M119.19,164.15c0,.81.33,1.49.84,1.52s1-.6,1-1.41-.33-1.49-.84-1.52S119.24,163.34,119.19,164.15Z"/><path class="cls-7" d="M105.18,158.72s3.76-1.72,6.79-.6l-.21,1.67s-4.36-.14-6.51.86A2.84,2.84,0,0,1,105.18,158.72Z"/><path class="cls-7" d="M123.57,159.67s-3.67-2-6.79-1.07l.1,1.68s4.39.16,6.48,1.32A2.91,2.91,0,0,0,123.57,159.67Z"/><path class="cls-15" d="M113.42,170.36a3.8,3.8,0,0,1-1.29-.35.37.37,0,0,1-.17-.48.38.38,0,0,1,.49-.17c.31.15,1.08.41,1.43.22.07,0,.16-.1.2-.32.2-1.25.11-5.48.11-5.52a.37.37,0,0,1,.35-.37.36.36,0,0,1,.37.35,53.35,53.35,0,0,1-.12,5.66,1.08,1.08,0,0,1-.58.84A1.43,1.43,0,0,1,113.42,170.36Z"/><path class="cls-2" d="M117.77,173.38c-.35,1.35-1.41,3.82-4.47,3.64s-3.78-2.55-4-4.15Z"/><path class="cls-7" d="M100.47,157.52a74.09,74.09,0,0,0,.4,9.63l1.62,0s-.24-2.51-.33-4.14-.2-4.67,1.2-5,.8-3.8,2.81-5.18,6.32-1.53,9,.38,6,.23,7.3.61,2.95,2.28,2.37,3.93.8,2.76,1,4.52-1.15,6.36-1.15,6.36l1.52.4a54.31,54.31,0,0,0,1.36-10.31,7.91,7.91,0,0,0-3.6-7c-6.36-4.13-13.39-3.15-18.07-1.67A7.88,7.88,0,0,0,100.47,157.52Z"/><rect class="cls-9" x="54.77" y="250.23" width="169.22" height="21.09" transform="translate(-112.11 105.26) rotate(-30.15)"/><rect class="cls-17" x="51.65" y="254.7" width="169.22" height="1.41" transform="translate(-109.84 102.97) rotate(-30.15)"/><rect class="cls-17" x="54.77" y="260.08" width="169.22" height="1.41" transform="translate(-112.11 105.26) rotate(-30.15)"/><rect class="cls-17" x="57.89" y="265.45" width="169.22" height="1.41" transform="translate(-114.39 107.55) rotate(-30.15)"/><rect class="cls-7" x="65.61" y="290.5" width="8.85" height="21.09" transform="translate(-141.71 75.88) rotate(-30.14)"/><path class="cls-10" d="M60.91,294.15l-2.17,1.26a10.55,10.55,0,0,0-3.83,14.42h0a10.54,10.54,0,0,0,14.42,3.82l2.18-1.26Z"/><polygon class="cls-14" points="217.84 227.41 207.24 209.17 222.64 207.47 225.84 207.12 234.88 206.13 229.07 213.39 226.81 216.21 217.84 227.41"/><path class="cls-7" d="M229.07,213.39a11,11,0,0,1-2.11-2.66,7.57,7.57,0,0,1-1.12-3.61l9-1Z"/><path class="cls-14" d="M115.15,269.33l1.59.67a3.78,3.78,0,0,0,4-.79,21.76,21.76,0,0,1,1.75-1.55c1.16-.68,3.9-1.49,4.68-1.22s.05,1.63-.75,2a13.34,13.34,0,0,0-2.81,1.51c-.83.68,2.6,4.23,4.13,5.36s4.88,1.47,4.58,3-2.63.8-2.63.8.12,1.54-2.18,1.81a1.86,1.86,0,0,1-1.67,1.54,2.07,2.07,0,0,1-2.09,1.45c-1.57-.17-6.45-.74-12.8-9.52Z"/><path class="cls-9" d="M115.62,268.46s-22.91-17.64-30.35-27.08c0,0,.94-11.53,2.06-20.76a84.27,84.27,0,0,0,.3-18A32.52,32.52,0,0,0,86,194s-6.43,2.1-10,23.83a222.4,222.4,0,0,0-2.8,26,9.83,9.83,0,0,0,2.29,6.75c4.92,5.86,17.2,18.65,34.78,24.33C110.23,275,114.75,271.26,115.62,268.46Z"/><path class="cls-14" d="M180.49,248.84s-3.51-2.67-5.58-2.49,2.11,4.52,2.11,4.52-5.07-5.22-6.55-4.24,3.31,6.18,3.31,6.18-4-3-5.18-2.38,2.13,4.58,2.13,4.58-3.39-2.07-4.36-1.69,1.45,4,3.3,5.4,3.11-1.45,3.11-1.45,2.5-1.09,2.62-2.36c0,0,2.45-.71,3-2.06C178.44,252.85,182.09,251.26,180.49,248.84Z"/><path class="cls-14" d="M377.25,310.25s-1.18,33.47-1.18,51.92c0,25.72,1.59,55.25,1.59,55.25,2.41,2.45,4.81,2,7.67,1.13L394.69,328Z"/><path class="cls-14" d="M418.39,311.38s2.11,40.42,3,56-.82,49.3-.82,49.3l-7,1-10.86-88.5Z"/><path class="cls-7" d="M431.88,337.14a3.46,3.46,0,0,1-.35.71c-.9,1.51-3.84,4.67-11.82,2.22l-.74-.21a13,13,0,0,0-4.28-.43c-4.69.36-7.5,3.34-17,.26-8.52-2.76-10.82-.64-14.86.43a14.85,14.85,0,0,1-2.65.46,9.62,9.62,0,0,1-1.42,0c-3.75-.21-7.28-2.35-9.4-3.91a22.9,22.9,0,0,1-2-1.65c.21-.7.42-1.46.63-2.26.82-3.09,1.68-6.84,2.54-10.94.26-1.22.52-2.49.77-3.77.63-3.11,1.25-6.35,1.84-9.59h0a.09.09,0,0,0,0-.05c.25-1.34.49-2.68.73-4l0-.18c.76-4.28,1.48-8.46,2.11-12.24l.69-4.14c1.18-7.21,1.93-12.19,1.93-12.19l22.87,1.61,22.85-.12s.22,2.53.6,6.61c.13,1.28.26,2.72.41,4.27.4,4.09.91,9,1.48,14.22.15,1.37.31,2.75.46,4.14,1.12,9.75,2.44,20,3.8,27.19C431.4,334.86,431.64,336.06,431.88,337.14Z"/><path class="cls-18" d="M383.73,282.68a2.15,2.15,0,1,1-2.08-2.22A2.15,2.15,0,0,1,383.73,282.68Z"/><path class="cls-18" d="M388.79,291.19a2.15,2.15,0,1,1-2.08-2.22A2.14,2.14,0,0,1,388.79,291.19Z"/><path class="cls-18" d="M399.44,287.23a2.15,2.15,0,1,1-2.08-2.23A2.16,2.16,0,0,1,399.44,287.23Z"/><path class="cls-18" d="M382.43,299.84a2.15,2.15,0,1,1-2.08-2.22A2.14,2.14,0,0,1,382.43,299.84Z"/><path class="cls-18" d="M395.59,299.35a2.15,2.15,0,1,1-2.08-2.22A2.16,2.16,0,0,1,395.59,299.35Z"/><path class="cls-18" d="M378.09,289.9a2.16,2.16,0,0,1-2,2.08l.69-4.14A2.15,2.15,0,0,1,378.09,289.9Z"/><path class="cls-18" d="M416.56,312.68a2.15,2.15,0,1,1-2.08-2.22A2.15,2.15,0,0,1,416.56,312.68Z"/><path class="cls-18" d="M415.93,300.93a2.15,2.15,0,1,1-2.08-2.22A2.15,2.15,0,0,1,415.93,300.93Z"/><path class="cls-18" d="M427.36,306.38a2.15,2.15,0,1,1-.71-4.16l.25,0C427.05,303.61,427.21,305,427.36,306.38Z"/><path class="cls-18" d="M417.42,321.3a2.15,2.15,0,1,1-2.08-2.22A2.16,2.16,0,0,1,417.42,321.3Z"/><path class="cls-18" d="M426.73,318.17a2.15,2.15,0,1,1-2.08-2.22A2.15,2.15,0,0,1,426.73,318.17Z"/><path class="cls-18" d="M407.71,325.41a2.15,2.15,0,1,1-2.08-2.22A2.15,2.15,0,0,1,407.71,325.41Z"/><path class="cls-18" d="M404.85,334.86a2.16,2.16,0,1,1-2.08-2.22A2.15,2.15,0,0,1,404.85,334.86Z"/><path class="cls-18" d="M382.91,339.78a1.86,1.86,0,0,1,0,.34,14.85,14.85,0,0,1-2.65.46,9.62,9.62,0,0,1-1.42,0,2.06,2.06,0,0,1-.19-1,2.15,2.15,0,0,1,4.3.14Z"/><path class="cls-18" d="M419,339.76v.1a13,13,0,0,0-4.28-.43,2.15,2.15,0,0,1,4.28.33Z"/><path class="cls-18" d="M426.78,329.24A2.15,2.15,0,1,1,424.7,327,2.16,2.16,0,0,1,426.78,329.24Z"/><path class="cls-18" d="M431.88,337.14a3.46,3.46,0,0,1-.35.71,1.62,1.62,0,0,1-.31,0,2.15,2.15,0,0,1-.06-4.3C431.4,334.86,431.64,336.06,431.88,337.14Z"/><path class="cls-18" d="M380.58,313.38a2.16,2.16,0,1,1-2.08-2.22A2.15,2.15,0,0,1,380.58,313.38Z"/><path class="cls-18" d="M375.12,306.4a2.14,2.14,0,0,1-1.94,2.07.09.09,0,0,0,0-.05c.25-1.34.49-2.68.73-4A2.15,2.15,0,0,1,375.12,306.4Z"/><path class="cls-18" d="M372.17,319.83a2.14,2.14,0,0,1-1.6,2c.26-1.22.52-2.49.77-3.77A2.16,2.16,0,0,1,372.17,319.83Z"/><path class="cls-18" d="M385.67,321.18a2.16,2.16,0,1,1-2.08-2.22A2.15,2.15,0,0,1,385.67,321.18Z"/><path class="cls-18" d="M397.07,319.87a2.15,2.15,0,1,1-2.08-2.22A2.14,2.14,0,0,1,397.07,319.87Z"/><path class="cls-18" d="M389.32,309a2.15,2.15,0,1,1-2.08-2.22A2.15,2.15,0,0,1,389.32,309Z"/><path class="cls-18" d="M400.94,307.25a2.15,2.15,0,1,1-2.08-2.22A2.15,2.15,0,0,1,400.94,307.25Z"/><path class="cls-18" d="M406.51,296.07a2.15,2.15,0,1,1-2.08-2.22A2.15,2.15,0,0,1,406.51,296.07Z"/><path class="cls-18" d="M425.42,288a1.75,1.75,0,0,1-.46,0,2.15,2.15,0,0,1,.05-4.3C425.14,285,425.27,286.47,425.42,288Z"/><circle class="cls-18" cx="412.05" cy="287.64" r="2.15" transform="translate(-38.95 509.26) rotate(-61.09)"/><path class="cls-18" d="M421.83,295.63a2.15,2.15,0,1,1-2.08-2.22A2.14,2.14,0,0,1,421.83,295.63Z"/><path class="cls-18" d="M408.07,314.28a2.15,2.15,0,1,1-2.08-2.22A2.15,2.15,0,0,1,408.07,314.28Z"/><path class="cls-18" d="M377.94,328.13a2.15,2.15,0,1,1-2.08-2.22A2.14,2.14,0,0,1,377.94,328.13Z"/><path class="cls-18" d="M392.43,330.28a2.15,2.15,0,1,1-2.08-2.22A2.15,2.15,0,0,1,392.43,330.28Z"/><path class="cls-18" d="M370.31,335a2.13,2.13,0,0,1-.91,1.69,22.9,22.9,0,0,1-2-1.65c.21-.7.42-1.46.63-2.26h.2A2.14,2.14,0,0,1,370.31,335Z"/><path class="cls-10" d="M425.78,277.75c-12.3,7.47-34.39,6.13-48-1.56,1.59-8.23,3.61-16.44,3.59-27.46,0-1.21,0-2.41,0-3.6,0-1,0-2.06-.08-3.08-.6-18.34-3.24-33.41-1.64-35.29a14.46,14.46,0,0,1,3.25-2.59c.56-.36,1.15-.71,1.77-1.06,1.47-.84,3.1-1.67,4.74-2.48,3.88-1.92,7.82-3.68,9.81-4.91a12.5,12.5,0,0,0,5.07,1.46h.28a12.42,12.42,0,0,0,5.16-1.13c1.76,1.26,5.1,3,8.51,5a74.08,74.08,0,0,1,7,4.38,14.08,14.08,0,0,1,3,2.71c.73,1,.28,5.18-.58,11.39s-2.07,14.16-2.94,23c-.24,2.46-.45,5-.63,7.56C423.24,261.11,424.72,269.44,425.78,277.75Z"/><path class="cls-9" d="M417.61,268.86h0c-9.69-.36-17.82-5-22.94-8.9a53.09,53.09,0,0,1-8.86-8.38.47.47,0,1,1,.73-.58,52.05,52.05,0,0,0,8.72,8.23c5,3.77,12.95,8.35,22.39,8.7a.46.46,0,0,1,.45.48A.47.47,0,0,1,417.61,268.86Z"/><path class="cls-9" d="M407.39,271.83c-8.41-.28-16.64-5.34-17-5.58a.47.47,0,0,1-.15-.64.47.47,0,0,1,.65-.15c.09.06,9.78,6,18.56,5.4a.47.47,0,1,1,.07.93C408.8,271.84,408.1,271.85,407.39,271.83Z"/><path class="cls-9" d="M401.64,219.41a.47.47,0,0,1-.06-.93c11.9-1.86,15.71-9.35,15.75-9.43a.46.46,0,0,1,.62-.21.47.47,0,0,1,.21.63c-.16.32-4.06,8-16.43,9.93Z"/><path class="cls-14" d="M418.16,201c-2.52,5.27-8.27,12.35-15.73,10.81-7.22-1.49-10.74-7.17-13.1-11.22,3.88-1.92,7.82-3.68,9.81-4.91a12.5,12.5,0,0,0,5.07,1.46h.28a12.42,12.42,0,0,0,5.16-1.13C411.41,197.32,414.75,199.1,418.16,201Z"/><path class="cls-2" d="M404,204.82c7.65.25,9.25-7,9.26-7.09a.44.44,0,0,0-.33-.52.45.45,0,0,0-.52.34c-.06.27-1.48,6.62-8.39,6.39a8.32,8.32,0,0,1-8.22-6.5.44.44,0,0,0-.51-.34.43.43,0,0,0-.35.51A9.34,9.34,0,0,0,404,204.82Z"/><path class="cls-7" d="M404.48,197.37h0Z"/><path class="cls-7" d="M417.74,159.08s5.17,10.3,6.26,19.48c1.27,10.68-1.6,18.38-9.78,17.65s-23,1.24-27.32-4.74C381.87,184.6,417.74,159.08,417.74,159.08Z"/><path class="cls-15" d="M393.16,174.4s-2.17-3.09-3.93-.65.37,9.88,4.55,8.21Z"/><path class="cls-16" d="M393,179.66a.35.35,0,0,1-.32-.27,5.42,5.42,0,0,0-2.91-3.3.35.35,0,0,1-.19-.46.34.34,0,0,1,.45-.18,6,6,0,0,1,3.32,3.78.34.34,0,0,1-.25.42Z"/><path class="cls-16" d="M390.61,178.43a.32.32,0,0,1-.18-.06.34.34,0,0,1-.09-.48,3.18,3.18,0,0,1,1.34-1,.34.34,0,0,1,.45.19.33.33,0,0,1-.19.45,2.67,2.67,0,0,0-1,.76A.31.31,0,0,1,390.61,178.43Z"/><path class="cls-15" d="M416.46,175.15s2.36-2.94,4-.39-1,9.83-5.07,7.9Z"/><path class="cls-16" d="M416.32,180.42a.35.35,0,0,0,.34-.25,5.38,5.38,0,0,1,3.12-3.1.35.35,0,0,0,.22-.45.35.35,0,0,0-.44-.21A6,6,0,0,0,416,180a.34.34,0,0,0,.23.44Z"/><path class="cls-16" d="M418.73,179.35a.41.41,0,0,0,.19,0,.34.34,0,0,0,.12-.48,3.1,3.1,0,0,0-1.27-1.09.34.34,0,0,0-.3.62,2.65,2.65,0,0,1,1,.83A.37.37,0,0,0,418.73,179.35Z"/><path class="cls-14" d="M409.93,188.74l-.24,7.32s-2.31,3.66-5.27,3.82-5.47-3.39-5.47-3.39l.25-7.58Z"/><path class="cls-15" d="M409.93,188.74l-.11,3.25c-2.05,2.13-5.6,2.8-10.78,1.86l.16-4.94Z"/><path class="cls-14" d="M418.26,170.18A72.63,72.63,0,0,1,417,179.4c-.16.71-.33,1.37-.52,2-1.72,5.35-5.88,14.48-16.54,10.27-4.71-1.85-6.75-7.23-7.56-12.67a52.5,52.5,0,0,1-.4-10,7.66,7.66,0,0,1,4.1-6.38c6.48-3.4,13.16-1.84,17.53,0A7.63,7.63,0,0,1,418.26,170.18Z"/><path class="cls-7" d="M400,175.05c0,.78-.45,1.4-.94,1.39s-.88-.67-.86-1.45.45-1.4.95-1.38S400.07,174.27,400,175.05Z"/><path class="cls-7" d="M411.15,175.41c0,.78-.44,1.4-.94,1.39s-.88-.67-.86-1.45.45-1.4.95-1.38S411.18,174.63,411.15,175.41Z"/><path class="cls-7" d="M397.5,170.75a14.7,14.7,0,0,1,3.86-.45.66.66,0,0,1,.64.8h0a.67.67,0,0,1-.7.53,16.83,16.83,0,0,0-5.3.47,1,1,0,0,1,.33-.7A2.33,2.33,0,0,1,397.5,170.75Z"/><path class="cls-7" d="M412,171.25a14.68,14.68,0,0,0-3.84-.7.67.67,0,0,0-.69.76h0a.68.68,0,0,0,.68.57,16.75,16.75,0,0,1,5.25.82,1,1,0,0,0-.29-.73A2.33,2.33,0,0,0,412,171.25Z"/><path class="cls-15" d="M404.71,181.67a1.52,1.52,0,0,1-.76-.21,1.07,1.07,0,0,1-.47-.86,51.83,51.83,0,0,1,.38-5.45.35.35,0,0,1,.39-.31.34.34,0,0,1,.3.39,53.1,53.1,0,0,0-.38,5.32.4.4,0,0,0,.16.33,2.11,2.11,0,0,0,1.4-.09.35.35,0,0,1,.45.21.35.35,0,0,1-.21.44A3.47,3.47,0,0,1,404.71,181.67Z"/><path class="cls-2" d="M400.22,183.72c.22,1.33,1,3.8,4,3.89s3.85-2.1,4.18-3.63Z"/><path class="cls-15" d="M404.07,189.64a3.54,3.54,0,0,1-1.62-.53.35.35,0,1,1,.39-.58h0a2.79,2.79,0,0,0,1.25.41,2.82,2.82,0,0,0,1.35-.33.35.35,0,0,1,.47.14.34.34,0,0,1-.13.47A3.59,3.59,0,0,1,404.07,189.64Z"/><path class="cls-7" d="M419.68,169.66a1.16,1.16,0,0,1-.86.62,20.32,20.32,0,0,1-.21,2.57c-.59,5-1.89,5.85-2.14,4.6a58.88,58.88,0,0,1,.15-7.11,17.57,17.57,0,0,1-1.84-.29l-1-4.92-.57,4.81c-1.77.55-5.82-.56-5.82-.56l-1.21-4.85-1,4.6a9.77,9.77,0,0,1-5.92.23l-.59-5-1.9,4.93s-5.66,1.83-5.66-.18a38.17,38.17,0,0,1,1.77-7,10.57,10.57,0,0,1,5.3-6.29c7.06-3.5,14.34-1.28,16.81.31C420.23,159.52,419.68,169.66,419.68,169.66Z"/><path class="cls-7" d="M394.7,158.7s-4.95,5.32-6.78,15.07-4.52,17.58,1.62,20.33c5,2.25,7.3-1.75,7.27-3.7s-6.63-9.21-2.52-24.1C395.62,161.49,394.7,158.7,394.7,158.7Z"/><path class="cls-2" d="M417.93,182.91a.82.82,0,1,1-.79-.84A.82.82,0,0,1,417.93,182.91Z"/><path class="cls-2" d="M406.14,176.18a4.35,4.35,0,1,1,4.21,4.49A4.36,4.36,0,0,1,406.14,176.18Zm.68,0a3.67,3.67,0,1,0,3.79-3.55A3.67,3.67,0,0,0,406.82,176.2Z"/><path class="cls-2" d="M394.25,175.79a4.35,4.35,0,1,1,4.21,4.49A4.36,4.36,0,0,1,394.25,175.79Zm.68,0a3.67,3.67,0,1,0,3.79-3.55A3.67,3.67,0,0,0,394.93,175.81Z"/><path class="cls-2" d="M416.47,173.09a6.07,6.07,0,0,0-2.54,1.36.33.33,0,0,0,0,.48.3.3,0,0,0,.23.1.3.3,0,0,0,.24-.08,5.48,5.48,0,0,1,2.05-1.12Z"/><path class="cls-2" d="M395.16,173.79a6,6,0,0,0-2.06-1.26l-.07.85a6.76,6.76,0,0,1,1.74,1,.3.3,0,0,0,.18.06.37.37,0,0,0,.29-.14A.35.35,0,0,0,395.16,173.79Z"/><path class="cls-2" d="M402.74,175.09a2.77,2.77,0,0,1,1.91-1,2.47,2.47,0,0,1,1.75,1.16l.58-.36a3.2,3.2,0,0,0-2.31-1.48,3.39,3.39,0,0,0-2.46,1.3Z"/><path class="cls-14" d="M381.21,242.05c-.6-18.34-3.24-33.41-1.64-35.29a14.46,14.46,0,0,1,3.25-2.59C384,210.8,386.91,230.73,381.21,242.05Z"/><path class="cls-14" d="M340.93,221.77s14.48,27,21.12,30.5,19.19-21.59,19.19-21.59l-1.87-23.2s-9.05,19.94-15.24,29.33c-.12.2-.25.39-.38.58l-.71-.68c-1.22-1.15-3.89-3.7-7.09-6.83-4.77-4.65-11.29-12.41-11.29-12.41Z"/><path class="cls-15" d="M363,236.71c.32,2.11.65,4.57,1,7.34a.54.54,0,0,0,.51.46h.08a.54.54,0,0,0,.47-.59q-.48-4-.95-7.11c-.12.2-.25.39-.38.58Z"/><path class="cls-14" d="M344.9,218.2s1.51-2.59.9-4.89-1.34-6.46-3.32-7.94c-1.66-1.24,0,2.82-.54,4.85a33.73,33.73,0,0,1-4.44-2.59c-1.57-1.16-4.81-3-6.32-3.89a.46.46,0,0,0-.64.63,10.45,10.45,0,0,0,3.53,3s-5.43-3-6.33-2.34,6,4.35,6,4.35-5.53-2.22-6-1.38c-.27.51,5.16,3.69,5.16,3.69s-5.38-1.63-4.37-.36c.29.37,10.23,5,12.41,10.42C340.93,221.76,344.18,220.07,344.9,218.2Z"/><path class="cls-14" d="M427.54,219.52c-.84,6.1-2.07,14.16-2.94,23-4.35-11.62-1.06-30.53.56-37.14a14.08,14.08,0,0,1,3,2.71C428.85,209.12,428.4,213.31,427.54,219.52Z"/><path class="cls-14" d="M440.71,244.23a26.43,26.43,0,0,1,.48,14.39c-1.52,6.73-5.94,13.13-9.22,17.15v0a56.46,56.46,0,0,1-3.81,4.25l-4.28-3.8a65.14,65.14,0,0,0,4.53-9.46c2.09-5.37,4-12.31,3.31-18.81l-7.84-20.82,4.4-18.71S437.68,232.28,440.71,244.23Z"/><path class="cls-15" d="M423.87,276.24l4.28,3.8a56.46,56.46,0,0,0,3.81-4.25v0c-.16-3.54-1.55-8.28-3.57-9A65.14,65.14,0,0,1,423.87,276.24Z"/><path class="cls-14" d="M425,272.79c-.67.12-4.26.71-4-.56s3.59-3.39,3.59-3.39l0-.19,0-.33-.29-2.68a2.92,2.92,0,0,1,1.19.06c1.61.3,2.48,3.64,2.48,3.64s2,.48,2.13,1.92a1.91,1.91,0,0,1-1.46,1.84s2.27.82,1.91,2.1a3.24,3.24,0,0,1-1.95,1.82s2,1,1.44,1.94a4.91,4.91,0,0,1-2,1.54s1.48,1.59.28,2.69a5.15,5.15,0,0,1-4.43.83c-1.29-.29-1.25-1.89,1.05-3.31a3.58,3.58,0,0,1-3.41-1.21c-1.06-1.39,1.15-2.3,3.07-2.78-1.52.28-4.17.54-4.79-.87C419,274,424.22,272.94,425,272.79Z"/><path class="cls-10" d="M416.48,416.42a33.6,33.6,0,0,1,4.85-1c1,0,8.06,7.88,10.42,8.34,4.29.85,4.29,7.54,1.68,7.87-7.55,1-20.46-2.25-20.46-2.25s-1.18-8.59-.66-11.29S414.38,417.21,416.48,416.42Z"/><path class="cls-2" d="M422.73,423.76a.51.51,0,0,1-.41-.08.52.52,0,0,1-.14-.72,8,8,0,0,1,2.93-2.63,3.61,3.61,0,0,1,3.67.45.53.53,0,0,1,.06.74.52.52,0,0,1-.74.05,2.58,2.58,0,0,0-2.59-.27,7.17,7.17,0,0,0-2.46,2.24A.54.54,0,0,1,422.73,423.76Z"/><path class="cls-2" d="M421.28,422.18a.53.53,0,0,1-.54-.81,8.08,8.08,0,0,1,2.92-2.62,3.58,3.58,0,0,1,3.68.45.51.51,0,0,1,.05.73.52.52,0,0,1-.74.06,2.52,2.52,0,0,0-2.59-.27A7.08,7.08,0,0,0,421.6,422,.52.52,0,0,1,421.28,422.18Z"/><path class="cls-2" d="M424.74,425.11a.49.49,0,0,1-.4-.08.52.52,0,0,1-.14-.72,8.08,8.08,0,0,1,2.92-2.63,3.63,3.63,0,0,1,3.68.45.52.52,0,0,1,.05.74.51.51,0,0,1-.73.05,2.61,2.61,0,0,0-2.6-.27,7.1,7.1,0,0,0-2.45,2.24A.53.53,0,0,1,424.74,425.11Z"/><path class="cls-10" d="M379.43,418.47s-1.68-2.28-3-2.19-11.71,8.27-15.26,8.93-3.32,5.08-1.92,5.57c1.6.56,27.84-.21,27.84-.21s.9-9.35,0-11.86S382.19,419.07,379.43,418.47Z"/><path class="cls-2" d="M373.69,424.18a.54.54,0,0,0,.39-.05.49.49,0,0,0,.19-.67,7.67,7.67,0,0,0-2.58-2.7,3.41,3.41,0,0,0-3.51.15.49.49,0,0,0-.1.69.48.48,0,0,0,.69.1,2.44,2.44,0,0,1,2.47-.06A6.65,6.65,0,0,1,373.4,424,.55.55,0,0,0,373.69,424.18Z"/><path class="cls-2" d="M375.17,422.79a.53.53,0,0,0,.39-.05.49.49,0,0,0,.19-.67,7.53,7.53,0,0,0-2.57-2.7,3.43,3.43,0,0,0-3.51.14.51.51,0,0,0-.11.7.5.5,0,0,0,.7.1,2.43,2.43,0,0,1,2.47-.06,6.75,6.75,0,0,1,2.16,2.3A.5.5,0,0,0,375.17,422.79Z"/><path class="cls-2" d="M371.68,425.3a.48.48,0,0,0,.39,0,.51.51,0,0,0,.19-.68,7.71,7.71,0,0,0-2.57-2.7,3.39,3.39,0,0,0-3.51.15.49.49,0,0,0-.11.69.5.5,0,0,0,.69.11,2.46,2.46,0,0,1,2.48-.06,6.69,6.69,0,0,1,2.15,2.3A.47.47,0,0,0,371.68,425.3Z"/><path class="cls-9" d="M47,192.93a4.78,4.78,0,1,1-4.78-4.78A4.78,4.78,0,0,1,47,192.93Zm-1.5,0a3.28,3.28,0,1,0-3.28,3.28A3.28,3.28,0,0,0,45.47,192.93Z"/><path class="cls-10" d="M66.46,186.48a4.78,4.78,0,1,1-4.77-4.77A4.78,4.78,0,0,1,66.46,186.48Zm-1.5,0a3.28,3.28,0,1,0-3.27,3.28A3.28,3.28,0,0,0,65,186.48Z"/><path class="cls-19" d="M67.07,166a.76.76,0,0,0-.75.75V170a.75.75,0,0,0,1.5,0v-3.31A.75.75,0,0,0,67.07,166Z"/><path class="cls-19" d="M67.07,160.2a.76.76,0,0,0-.75.75v3.3a.75.75,0,0,0,1.5,0V161A.75.75,0,0,0,67.07,160.2Z"/><path class="cls-19" d="M71.71,164.74h-3a.75.75,0,0,0,0,1.5h3a.75.75,0,0,0,0-1.5Z"/><path class="cls-19" d="M65.4,164.74h-3a.75.75,0,0,0,0,1.5h3a.75.75,0,0,0,0-1.5Z"/><path class="cls-10" d="M46.83,171.27a.75.75,0,0,0-.75.75v3.31a.75.75,0,0,0,1.5,0V172A.76.76,0,0,0,46.83,171.27Z"/><path class="cls-10" d="M46.83,165.49a.75.75,0,0,0-.75.75v3.31a.75.75,0,0,0,1.5,0v-3.31A.76.76,0,0,0,46.83,165.49Z"/><path class="cls-10" d="M51.47,170h-3a.75.75,0,1,0,0,1.49h3a.75.75,0,0,0,0-1.49Z"/><path class="cls-10" d="M45.16,170h-3a.75.75,0,1,0,0,1.49h3a.75.75,0,1,0,0-1.49Z"/><path class="cls-9" d="M444.25,148.76a4.78,4.78,0,1,1-4.77,4.78A4.78,4.78,0,0,1,444.25,148.76Zm0,8.06a3.28,3.28,0,1,0-3.28-3.28A3.28,3.28,0,0,0,444.25,156.82Z"/><path class="cls-10" d="M424.76,142.32A4.78,4.78,0,1,1,420,147.1,4.78,4.78,0,0,1,424.76,142.32Zm0,8.05a3.28,3.28,0,1,0-3.28-3.27A3.28,3.28,0,0,0,424.76,150.37Z"/><path class="cls-19" d="M419.37,126.59a.76.76,0,0,1,.75.75v3.31a.75.75,0,0,1-1.5,0v-3.31A.76.76,0,0,1,419.37,126.59Z"/><path class="cls-19" d="M419.37,120.81a.76.76,0,0,1,.75.75v3.3a.75.75,0,1,1-1.5,0v-3.3A.76.76,0,0,1,419.37,120.81Z"/><path class="cls-19" d="M414.73,125.35h3a.75.75,0,0,1,0,1.5h-3a.75.75,0,0,1,0-1.5Z"/><path class="cls-19" d="M421,125.35h3a.75.75,0,0,1,0,1.5h-3a.75.75,0,0,1,0-1.5Z"/><path class="cls-10" d="M439.61,131.88a.75.75,0,0,1,.75.75v3.31a.75.75,0,1,1-1.49,0v-3.31A.75.75,0,0,1,439.61,131.88Z"/><path class="cls-10" d="M439.61,126.1a.75.75,0,0,1,.75.75v3.31a.75.75,0,0,1-1.49,0v-3.31A.75.75,0,0,1,439.61,126.1Z"/><path class="cls-10" d="M435,130.65h3a.75.75,0,0,1,0,1.49h-3a.75.75,0,1,1,0-1.49Z"/><path class="cls-10" d="M441.28,130.65h3a.75.75,0,1,1,0,1.49h-3a.75.75,0,1,1,0-1.49Z"/><path class="cls-9" d="M383.59,135.85v18.72a2.16,2.16,0,0,1-2.16,2.16H362.72a4.11,4.11,0,0,1-3.51-2.49,2.14,2.14,0,0,1-.1-.22c0-.11-.07-.22-.11-.34v0h0v0l0-14.77V134.5a2.16,2.16,0,0,1,1.93-2.15h.23l19.1.07a1.07,1.07,0,0,1,.25,0h0A3.84,3.84,0,0,1,383.59,135.85Z"/><path class="cls-10" d="M382,134.5v18.71a2.16,2.16,0,0,1-2.16,2.16H361.11a2.11,2.11,0,0,1-2-1.35c0-.11-.07-.22-.11-.34v0a.43.43,0,0,1,0,0,2.33,2.33,0,0,1,0-.38V134.5a2.16,2.16,0,0,1,1.93-2.15h18.95a1.89,1.89,0,0,1,.63.1h0A2.15,2.15,0,0,1,382,134.5Z"/><path class="cls-2" d="M370.49,135.52h-.14a4.76,4.76,0,0,0-4,7.16c.66,1.12,1.28,2.27,1.85,3.44l.51,1.06h3.5l.35-.73c.62-1.29,1.31-2.55,2-3.79a4.68,4.68,0,0,0,.64-2.38A4.76,4.76,0,0,0,370.49,135.52Z"/><path class="cls-2" d="M372.23,148.51h-3.51v1.17a1.75,1.75,0,0,0,1.75,1.76h0a1.76,1.76,0,0,0,1.76-1.76Z"/><path class="cls-9" d="M150.45,113.31V132a2.16,2.16,0,0,1-2.16,2.16H129.57a4.09,4.09,0,0,1-3.5-2.48,1.15,1.15,0,0,1-.1-.23c0-.11-.07-.22-.11-.34s0,0,0,0v0l0-14.77V112a2.17,2.17,0,0,1,1.93-2.15H128l19.09.08a1.1,1.1,0,0,1,.26,0h0A3.85,3.85,0,0,1,150.45,113.31Z"/><path class="cls-10" d="M148.84,112v18.71a2.16,2.16,0,0,1-2.16,2.16H128a2.16,2.16,0,0,1-1.9-1.12,1.15,1.15,0,0,1-.1-.23c0-.11-.07-.22-.11-.34s0,0,0,0a.43.43,0,0,0,0,0,2.56,2.56,0,0,1,0-.39V112a2.17,2.17,0,0,1,1.93-2.15h18.94a2,2,0,0,1,.64.1h0A2.15,2.15,0,0,1,148.84,112Z"/><path class="cls-10" d="M146.35,119.2A9,9,0,1,1,135.29,113,9,9,0,0,1,146.35,119.2Z"/><path class="cls-2" d="M139.62,128.45a7.09,7.09,0,1,1,4.92-8.74A7.09,7.09,0,0,1,139.62,128.45Z"/><path class="cls-10" d="M139.12,126.64a5.21,5.21,0,1,1,3.6-6.42A5.22,5.22,0,0,1,139.12,126.64Z"/><path class="cls-2" d="M138.61,124.83a3.33,3.33,0,1,1,2.3-4.1A3.34,3.34,0,0,1,138.61,124.83Z"/><path class="cls-10" d="M138.1,123a1.45,1.45,0,1,1,1-1.78A1.45,1.45,0,0,1,138.1,123Z"/><path class="cls-9" d="M335.74,432.59H288.66a8.74,8.74,0,0,1,8.74-8.75h.09s10-1.3,10-9.46V365.67h9.44v48.71c0,8.16,10,9.46,10,9.46H327A8.74,8.74,0,0,1,335.74,432.59Z"/><path class="cls-10" d="M357.48,365.67H266.92A17.33,17.33,0,0,1,284,351.43l28.18.08,28.18-.08A17.33,17.33,0,0,1,357.48,365.67Z"/><path class="cls-9" d="M293,259.85c-2.36,8.73-14.27,31.47-18.89,34.73-6,4.25-24.89,12.21-34.71,16.27-1.77.73,4.8,8.48,4.8,8.48s25.38-6.45,35.73-13.05c2.92-1.87,9.26-8.21,17.28-20.93,2.44-3.85,8.07-11.51,8.69-17C306.57,262.07,299.48,257.74,293,259.85Z"/><path class="cls-14" d="M218.26,413.45l-4.56,8.35s-2.9.3-6.64-2.92l3.49-9.8Z"/><path class="cls-10" d="M208.58,418.34s-.26-2.81-1.46-3.43-14.29,1-17.67-.25-5.47,2.62-4.53,3.76c1.08,1.31,23.93,14.24,23.93,14.24s5.61-7.53,6.15-10.15S210.63,420.29,208.58,418.34Z"/><path class="cls-2" d="M200.71,420.26a.48.48,0,0,0,.36.16.49.49,0,0,0,.51-.48,7.65,7.65,0,0,0-.8-3.64,3.44,3.44,0,0,0-3.09-1.69.5.5,0,0,0,.1,1,2.4,2.4,0,0,1,2.14,1.22,6.82,6.82,0,0,1,.66,3.09A.47.47,0,0,0,200.71,420.26Z"/><path class="cls-2" d="M202.7,419.84a.52.52,0,0,0,.36.16.5.5,0,0,0,.51-.48,7.65,7.65,0,0,0-.8-3.64,3.41,3.41,0,0,0-3.08-1.69.48.48,0,0,0-.45.54.5.5,0,0,0,.54.45,2.4,2.4,0,0,1,2.14,1.22,6.68,6.68,0,0,1,.66,3.09A.48.48,0,0,0,202.7,419.84Z"/><path class="cls-2" d="M198.41,420.18a.51.51,0,0,0,.36.17.51.51,0,0,0,.51-.48,7.69,7.69,0,0,0-.8-3.65,3.47,3.47,0,0,0-3.09-1.69.49.49,0,0,0-.44.54.49.49,0,0,0,.53.45,2.46,2.46,0,0,1,2.15,1.23,6.49,6.49,0,0,1,.65,3.09A.51.51,0,0,0,198.41,420.18Z"/><path class="cls-8" d="M259.08,331.22s-14.83.84-18.29,4.14-33.27,74.77-33.27,74.77a32.79,32.79,0,0,0,11,5.31s21.39-36.72,27.82-46.34c6.63-9.92,7.45-15.45,7.45-15.45L269,351.43Z"/><path class="cls-10" d="M322.15,248.72s10.19,3.32,15.63,8.1.9,19.06,1,27.16S337.6,339.12,326,345c-8.77,4.47-45.67-2.31-43-14.34a394.25,394.25,0,0,0,7.56-42.59c1.56-13.12.9-22.81,2.36-28.25s18.52-11.69,18.52-11.69Z"/><path class="cls-9" d="M314.55,258.41c5.31,0,10.21-5.65,10.42-5.9a.37.37,0,1,0-.56-.48c-.06.05-5.19,6-10.32,5.61a.38.38,0,0,0-.4.35.37.37,0,0,0,.35.4Z"/><path class="cls-9" d="M319.15,321.91a.38.38,0,0,0,.05-.75c-13.73-1.58-19.41-25.33-19.47-25.57a.37.37,0,0,0-.45-.28.38.38,0,0,0-.28.45c.24,1,5.87,24.51,20.11,26.15Z"/><path class="cls-9" d="M313.69,314.72a.37.37,0,0,0,.32-.17.38.38,0,0,0-.12-.52c-7.3-4.5-8.39-11.13-8.4-11.2a.36.36,0,0,0-.42-.31.37.37,0,0,0-.32.42c0,.29,1.14,7,8.74,11.73A.37.37,0,0,0,313.69,314.72Z"/><path class="cls-7" d="M298.43,226.63a15,15,0,0,0,17.42,12.19c8.17-1.45,12.84-9.15,11.39-17.33s-8.45-13.72-16.63-12.28A15,15,0,0,0,298.43,226.63Z"/><path class="cls-7" d="M299.18,221.22s-5.33-1.58-3.48-5.62-1.61-4.49.54-7.58c1.93-2.77,5.78-.08,7.46-2.35s6-3.81,8.2-1.35c2,2.27,4.61,1,7.29,1,4.46,0,2.94,4.38,4,6.82s4.51,5.14.84,7.24S299.18,221.22,299.18,221.22Z"/><path class="cls-15" d="M301.65,230.34s-2.9-2.72-4.19.18,2.53,10.09,6.47,7.47Z"/><path class="cls-16" d="M302.58,235.8a.37.37,0,0,1-.39-.2,5.61,5.61,0,0,0-3.72-2.77.37.37,0,0,1,.14-.72,6.29,6.29,0,0,1,4.24,3.17.37.37,0,0,1-.17.49Z"/><path class="cls-16" d="M299.91,235.05a.39.39,0,0,1-.21,0,.37.37,0,0,1-.2-.48,3.46,3.46,0,0,1,1.17-1.33.36.36,0,0,1,.5.1.37.37,0,0,1-.09.51,2.51,2.51,0,0,0-.9,1A.4.4,0,0,1,299.91,235.05Z"/><path class="cls-14" d="M321.18,241.62l1.34,7.6s-2.53,3.89-5.54,4.7-5.52-2.5-5.52-2.5l-1.29-7.3Z"/><path class="cls-15" d="M321.18,241.62l.6,3.37c-1.66,2.64-5.2,3.86-10.75,4l-.86-4.89Z"/><path class="cls-14" d="M326.45,230.47c0,.76-.05,1.48-.11,2.13s-.16,1.35-.28,2.09c-1,5.91-3.94,13.87-14.53,12.07-5.26-.88-8.52-6-10.53-11.4-.48-1.3-.89-2.62-1.24-3.91a59.07,59.07,0,0,1-1.34-6.35,8,8,0,0,1,2.83-7.46c5.94-4.91,13.16-4.75,18.06-3.79a8,8,0,0,1,6.43,6.85A75.52,75.52,0,0,1,326.45,230.47Z"/><path class="cls-7" d="M325,227.81l-1.91.6a22.65,22.65,0,0,1-.08,7c-2.56-2.37-9.79,1.38-9.79,1.38s-7.67-.68-8.7,2.1c-1.16-1.51-2.39-4.95-3.23-7.31l-1.52-.16c.35,1.29.76,2.61,1.24,3.91,2,5.42,5.27,10.52,10.53,11.4,10.59,1.8,13.57-6.16,14.53-12.07C325.63,231.25,325,227.81,325,227.81Zm-4.68,10.42a2.51,2.51,0,0,1-.68,3.37,11.64,11.64,0,0,1-7.25,2.14,9,9,0,0,1-2.92-.66,2.18,2.18,0,0,1-.37-3.89,10,10,0,0,1,5-1.05C317.9,236.52,319.59,237.15,320.31,238.23Z"/><path class="cls-7" d="M307.45,230.33c.14.81-.16,1.54-.68,1.63s-1-.49-1.19-1.3.16-1.54.67-1.63S307.3,229.52,307.45,230.33Z"/><path class="cls-7" d="M318.37,228.4c.15.81-.15,1.54-.67,1.63s-1.05-.49-1.19-1.3.16-1.54.67-1.63S318.23,227.59,318.37,228.4Z"/><path class="cls-7" d="M302.68,226.53s3.62-2.23,6.83-1.46v1.43a12.83,12.83,0,0,0-6.33,1.59C302.87,227.49,302.55,227.23,302.68,226.53Z"/><path class="cls-7" d="M320.46,223.38s-4.16-.84-6.92,1l.49,1.34a12.77,12.77,0,0,1,6.5-.67C320.61,224.35,320.83,224,320.46,223.38Z"/><path class="cls-15" d="M313.64,235.19a3.92,3.92,0,0,0,1.26-.5.37.37,0,0,0-.4-.62,2.19,2.19,0,0,1-1.42.39.43.43,0,0,1-.24-.3,54.52,54.52,0,0,1-.75-5.57.37.37,0,1,0-.73.07,52.68,52.68,0,0,0,.78,5.7,1.09,1.09,0,0,0,.68.78A1.52,1.52,0,0,0,313.64,235.19Z"/><path class="cls-2" d="M309.49,239.52c.56,1.43,2,4,5.32,3.41s3.8-3.25,3.81-5Z"/><path class="cls-7" d="M301.7,232.81a15.56,15.56,0,0,1-1.12-4.33c0-1.81,1.3-3.09.53-4.68s.67-3.72,1.93-4.25,4.42-.42,7.18-2.38,7.79-1.78,8.92-.08c1.38,2,.08,2.5,3.19,4.44,1.24.77.41,3.49.52,5.15a11.08,11.08,0,0,0,.27,1.92l.09.41,3.21-.57c-.09-2.58-.38-5.39-.68-7.74a8,8,0,0,0-6.43-6.85c-4.9-1-12.12-1.12-18.06,3.79a8,8,0,0,0-2.83,7.46,58.31,58.31,0,0,0,1.81,8Z"/><path class="cls-14" d="M325.24,230.08a13.61,13.61,0,0,1-.25-2.55,3,3,0,0,1,1.23-2.92,2,2,0,0,1,2.75.19c2.2,2.28,1.68,10.67-2.92,9.56Z"/><path class="cls-15" d="M326.46,231.87a.36.36,0,0,0,.23-.38,5.64,5.64,0,0,1,1.74-4.29.37.37,0,0,0-.49-.55,6.29,6.29,0,0,0-2,4.92.36.36,0,0,0,.4.32Z"/><path class="cls-15" d="M328.36,229.84a.4.4,0,0,0,.16-.13.37.37,0,0,0-.08-.51,3.39,3.39,0,0,0-1.69-.53.36.36,0,0,0-.38.34.37.37,0,0,0,.35.39,2.82,2.82,0,0,1,1.29.39A.37.37,0,0,0,328.36,229.84Z"/><path class="cls-14" d="M285.18,411.33l.32,9.5s-2.34,1.74-7.2.87l-2-10.21Z"/><path class="cls-10" d="M279.33,420.46s-1.65-2.29-3-2.21S264.54,426.4,261,427s-3.37,5.05-2,5.55c1.59.57,27.84.08,27.84.08s1-9.34.13-11.86S282.09,421.1,279.33,420.46Z"/><path class="cls-2" d="M273.54,426.11a.53.53,0,0,0,.39,0,.51.51,0,0,0,.19-.68,7.67,7.67,0,0,0-2.54-2.73,3.41,3.41,0,0,0-3.51.12.49.49,0,0,0-.12.69.51.51,0,0,0,.7.11,2.44,2.44,0,0,1,2.47,0,6.72,6.72,0,0,1,2.13,2.33A.47.47,0,0,0,273.54,426.11Z"/><path class="cls-2" d="M275,424.74a.47.47,0,0,0,.38,0,.49.49,0,0,0,.2-.67,7.59,7.59,0,0,0-2.54-2.73,3.44,3.44,0,0,0-3.52.11.5.5,0,0,0-.11.69.49.49,0,0,0,.69.12,2.44,2.44,0,0,1,2.48,0,6.72,6.72,0,0,1,2.13,2.33A.51.51,0,0,0,275,424.74Z"/><path class="cls-2" d="M271.52,427.22a.49.49,0,0,0,.58-.71,7.59,7.59,0,0,0-2.54-2.73,3.42,3.42,0,0,0-3.51.11.49.49,0,0,0-.12.69.5.5,0,0,0,.7.12,2.41,2.41,0,0,1,2.47,0,6.72,6.72,0,0,1,2.13,2.33A.55.55,0,0,0,271.52,427.22Z"/><path class="cls-7" d="M332,347.5a8.62,8.62,0,0,1-.78,1,10.18,10.18,0,0,1-8,3.19l-42.29-.21a161.45,161.45,0,0,1,4.59,28.66c3.12,26.43,1.16,31.19,1.16,31.19a6.85,6.85,0,0,1-1.26,1,7.48,7.48,0,0,1-1,.55,13.12,13.12,0,0,1-9,1s-25.74-79.68-16.32-82.66c10.94-3.47,74.7,0,74.7,0l.4,3.79C334.7,339.93,334.08,344.42,332,347.5Z"/><path class="cls-8" d="M277,349a1.43,1.43,0,0,0-.26,1.21c2.11,8.86,8.66,38.29,8.65,62.05a7.48,7.48,0,0,1-1,.55c.13-23.75-6.49-53.47-8.62-62.36a2.43,2.43,0,0,1,2.37-3H332a8.62,8.62,0,0,1-.78,1h-53A1.46,1.46,0,0,0,277,349Z"/><path class="cls-14" d="M272.36,311.71s-9.6,1.62-13.6,5-9.38,6.22-8.57,7.95,6.45-1.94,6.45-1.94,1.34,3.11,6,4.47,14.52-6.61,14.52-6.61Z"/><path class="cls-9" d="M335.62,255.15c-5.36,8.12-25.85,36.17-30.47,39.43-6,4.25-22.86,13.06-32.67,17.13-1.77.73,3.93,9.07,3.93,9.07s24.22-7.9,34.56-14.5c2.92-1.87,15.09-14.06,22.85-24.87,2.65-3.7,7-8.85,7.6-14.32C342.14,260.8,340.16,257.43,335.62,255.15Z"/><rect class="cls-9" x="234.92" y="324.27" width="53.28" height="6.94" rx="2.31"/><path class="cls-10" d="M226,331.22l-10.84-40.6a3.59,3.59,0,0,1,3.47-4.52h23.86a3.58,3.58,0,0,1,3.45,2.62l11.94,42.5Z"/><path class="cls-9" d="M245.91,288.72l11.83,42.15h2.73l-11.84-42.15a3.6,3.6,0,0,0-3.46-2.62h-2.72A3.6,3.6,0,0,1,245.91,288.72Z"/><path class="cls-9" d="M239.77,310.48a3.73,3.73,0,0,1-3.72,4.84,6.47,6.47,0,0,1-6-4.84,3.73,3.73,0,0,1,3.72-4.85A6.47,6.47,0,0,1,239.77,310.48Z"/></g><g id="DESIGNED_BY_FREEPIK" data-name="DESIGNED BY FREEPIK"><path class="cls-20" d="M726.74,469a7.75,7.75,0,0,0-1.11,1.45l-.46-.24a.61.61,0,0,0-.66-.47.6.6,0,1,0,.32,1.15l.45.23a7.56,7.56,0,0,0-.54,1.75l.75.13a6.57,6.57,0,0,1,1.79-3.47Z"/><path class="cls-20" d="M732.23,466.67h-.51l-.08-.62a.72.72,0,0,0,.27-.65.73.73,0,0,0-.8-.63.72.72,0,0,0-.22,1.36l.07.63a7.57,7.57,0,0,0-2.06.64l.33.69a6.86,6.86,0,0,1,3-.68,7.27,7.27,0,0,1,1.47.16l.16-.74A7.4,7.4,0,0,0,732.23,466.67Z"/><path class="cls-20" d="M738.83,469.21a.61.61,0,0,0,.53-.67.62.62,0,0,0-.68-.53.61.61,0,0,0-.53.61l-.41.37a7.41,7.41,0,0,0-1.41-1.14l-.4.64a6.76,6.76,0,0,1,2.56,2.92l.69-.31a7.56,7.56,0,0,0-.94-1.54l.4-.35A.6.6,0,0,0,738.83,469.21Z"/><path class="cls-20" d="M731.68,476.87c-.39,0-.78,0-1.16,0a16,16,0,0,1-2.48-.18,9.53,9.53,0,0,1-1.27-.29,6.2,6.2,0,0,0,11.34-1.38,9.66,9.66,0,0,1-2.46,1.12A16.6,16.6,0,0,1,731.68,476.87Z"/><path class="cls-20" d="M732.23,468.18a6,6,0,0,0-6,7.21c.68.48,2.71.89,5.35.73,2.88-.18,5.3-1,6.67-2.16a5.46,5.46,0,0,0,0-.58A6,6,0,0,0,732.23,468.18Zm-2.16,6.52a1.85,1.85,0,1,1,1.85-1.85A1.85,1.85,0,0,1,730.07,474.7Zm4.74-.91a1.36,1.36,0,1,1,1.36-1.36A1.36,1.36,0,0,1,734.81,473.79Z"/><path class="cls-20" d="M748.23,470.05a2.76,2.76,0,0,0-1.38-.24.87.87,0,0,0-.85,1v.86h2.23v1.72H746v5.46h-1.93V473.4h-1.34v-1.72h1.34v-.88a2.47,2.47,0,0,1,2.57-2.79,3.88,3.88,0,0,1,1.59.31Z"/><path class="cls-20" d="M752.93,473.38a3.05,3.05,0,0,0-.52-.05A1.44,1.44,0,0,0,750.9,475v3.91H749v-7.18h1.87v.79a2.27,2.27,0,0,1,2-1,1.77,1.77,0,0,1,1.09.34Z"/><path class="cls-20" d="M760.6,475.26a4.19,4.19,0,0,1,0,.65h-5.08a1.73,1.73,0,0,0,1.84,1.49,2.91,2.91,0,0,0,1.82-.69l1.13,1.24a4.35,4.35,0,0,1-3.06,1.09,3.78,3.78,0,0,1-.1-7.55A3.47,3.47,0,0,1,760.6,475.26Zm-5.11-.67h3.17a1.59,1.59,0,0,0-3.17,0Z"/><path class="cls-20" d="M768.25,475.26a6.18,6.18,0,0,1,0,.65h-5.09A1.73,1.73,0,0,0,765,477.4a2.88,2.88,0,0,0,1.81-.69l1.13,1.24a4.34,4.34,0,0,1-3.06,1.09,3.78,3.78,0,0,1-.09-7.55A3.46,3.46,0,0,1,768.25,475.26Zm-5.11-.67h3.17a1.59,1.59,0,0,0-3.17,0Z"/><path class="cls-20" d="M776.6,475.27a3.55,3.55,0,0,1-3.47,3.77,2.65,2.65,0,0,1-2.11-.93v3.71h-1.93V471.68H771v.8a2.6,2.6,0,0,1,2.14-1A3.56,3.56,0,0,1,776.6,475.27Zm-5.68,0a1.85,1.85,0,1,0,1.85-2A1.84,1.84,0,0,0,770.92,475.27Z"/><path class="cls-20" d="M779.7,469.34a1.23,1.23,0,1,1-1.23-1.25A1.22,1.22,0,0,1,779.7,469.34Zm-.26,9.52h-1.93v-7.18h1.93Z"/><path class="cls-20" d="M782.67,474.24l2.7-2.56h2.37l-3.48,3.38,3.5,3.8h-2.38L782.67,476v2.91h-1.93V468.2h1.93Z"/><path class="cls-20" d="M651.05,478.79v-1.05a3,3,0,0,1-2.39,1.23c-1.85,0-3.15-1.41-3.15-3.71s1.29-3.72,3.15-3.72a3,3,0,0,1,2.39,1.25V469h1.1v9.77Zm0-1.92v-3.21a2.68,2.68,0,0,0-2.13-1.14c-1.42,0-2.27,1.17-2.27,2.74s.85,2.73,2.27,2.73A2.64,2.64,0,0,0,651.05,476.87Z"/><path class="cls-20" d="M653.57,475.25a3.54,3.54,0,0,1,3.48-3.71c2.14,0,3.4,1.67,3.4,3.79v.28h-5.73a2.5,2.5,0,0,0,2.55,2.45,3.11,3.11,0,0,0,2.19-.89l.52.71a3.8,3.8,0,0,1-2.81,1.09A3.51,3.51,0,0,1,653.57,475.25Zm3.47-2.8a2.36,2.36,0,0,0-2.32,2.36h4.65A2.3,2.3,0,0,0,657,472.45Z"/><path class="cls-20" d="M661.24,477.85l.57-.79a3.23,3.23,0,0,0,2.33,1c1.09,0,1.67-.51,1.67-1.21,0-1.72-4.38-.66-4.38-3.28,0-1.1,1-2,2.64-2a3.54,3.54,0,0,1,2.62,1l-.51.76a2.74,2.74,0,0,0-2.11-.9c-1,0-1.57.49-1.57,1.12,0,1.55,4.38.52,4.38,3.28,0,1.18-1,2.14-2.78,2.14A3.75,3.75,0,0,1,661.24,477.85Z"/><path class="cls-20" d="M668.11,470a.74.74,0,1,1,.73.74A.74.74,0,0,1,668.11,470Zm.19,8.82v-7.07h1.1v7.07Z"/><path class="cls-20" d="M671.22,480.61l.55-.82a2.71,2.71,0,0,0,2.3,1,2,2,0,0,0,2.27-2.12v-1a2.93,2.93,0,0,1-2.37,1.26c-1.84,0-3.15-1.38-3.15-3.66s1.29-3.68,3.15-3.68a2.92,2.92,0,0,1,2.37,1.25v-1.07h1.1v6.87c0,2.34-1.64,3.07-3.37,3.07A3.59,3.59,0,0,1,671.22,480.61Zm5.12-3.85v-3.1a2.62,2.62,0,0,0-2.11-1.14c-1.42,0-2.27,1.13-2.27,2.7s.85,2.69,2.27,2.69A2.62,2.62,0,0,0,676.34,476.76Z"/><path class="cls-20" d="M684.05,478.79v-4.63c0-1.24-.63-1.64-1.58-1.64a2.74,2.74,0,0,0-2.1,1.1v5.17h-1.1v-7.07h1.1v1a3.54,3.54,0,0,1,2.52-1.2,2,2,0,0,1,2.26,2.29v5Z"/><path class="cls-20" d="M686.57,475.25a3.54,3.54,0,0,1,3.48-3.71c2.14,0,3.4,1.67,3.4,3.79v.28h-5.72a2.48,2.48,0,0,0,2.54,2.45,3.11,3.11,0,0,0,2.19-.89l.52.71a3.8,3.8,0,0,1-2.81,1.09A3.51,3.51,0,0,1,686.57,475.25Zm3.47-2.8a2.35,2.35,0,0,0-2.31,2.36h4.64A2.3,2.3,0,0,0,690,472.45Z"/><path class="cls-20" d="M700,478.79v-1.05A3,3,0,0,1,697.6,479c-1.85,0-3.15-1.41-3.15-3.71s1.29-3.72,3.15-3.72a3,3,0,0,1,2.39,1.25V469h1.09v9.77Zm0-1.92v-3.21a2.68,2.68,0,0,0-2.13-1.14c-1.42,0-2.27,1.17-2.27,2.74s.85,2.73,2.27,2.73A2.64,2.64,0,0,0,700,476.87Z"/><path class="cls-20" d="M706.33,478.79V469h1.1v3.77a2.93,2.93,0,0,1,2.38-1.25c1.85,0,3.15,1.47,3.15,3.72s-1.3,3.71-3.15,3.71a3,3,0,0,1-2.38-1.23v1.05Zm3.21-.8c1.43,0,2.28-1.16,2.28-2.73s-.85-2.74-2.28-2.74a2.63,2.63,0,0,0-2.11,1.14v3.21A2.59,2.59,0,0,0,709.54,478Z"/><path class="cls-20" d="M714.16,480.56a1.61,1.61,0,0,0,.6.12,1,1,0,0,0,1.06-.75l.47-1.07-3-7.14h1.19l2.35,5.8,2.35-5.8h1.2l-3.55,8.51a2.09,2.09,0,0,1-2.08,1.43,3.44,3.44,0,0,1-.8-.1Z"/></g></g></svg>