<svg xmlns="http://www.w3.org/2000/svg" xmlns:xlink="http://www.w3.org/1999/xlink" viewBox="0 0 450 450"><defs><style>.cls-1{isolation:isolate;}.cls-2{fill:#999daa;}.cls-3{fill:#e2e2e2;}.cls-4{fill:#0d2263;}.cls-5{fill:#cc9483;}.cls-6{fill:#4a75dd;}.cls-7{fill:#6597ef;}.cls-8{fill:#fff;}.cls-9{fill:#1f3e93;}.cls-10{fill:#26282d;}.cls-11,.cls-13{mix-blend-mode:multiply;}.cls-11{fill:url(#linear-gradient);}.cls-12{fill:#e0ac9b;}.cls-13{fill:url(#linear-gradient-2);}.cls-14{fill:#212121;}.cls-15{fill:#d19780;}.cls-16{fill:#afb3bc;}.cls-17{fill:#5b250e;}.cls-18{fill:#d4d5d6;}.cls-19{fill:#873f26;}</style><linearGradient id="linear-gradient" x1="487.2" y1="138.4" x2="522.42" y2="114.1" gradientTransform="matrix(-1, 0, 0, 1, 749.8, 0)" gradientUnits="userSpaceOnUse"><stop offset="0" stop-color="#fff"/><stop offset="0.52" stop-color="#c6c0b9"/></linearGradient><linearGradient id="linear-gradient-2" x1="502.33" y1="162.76" x2="498.32" y2="138.08" gradientTransform="matrix(-1, 0, 0, 1, 749.8, 0)" gradientUnits="userSpaceOnUse"><stop offset="0" stop-color="#fff"/><stop offset="0.24" stop-color="#fcfcfc"/><stop offset="0.43" stop-color="#f2f2f2"/><stop offset="0.61" stop-color="#e1e1e1"/><stop offset="0.78" stop-color="#c9c9c9"/><stop offset="0.91" stop-color="#b0b0b0"/></linearGradient></defs><g class="cls-1"><g id="Layer_6" data-name="Layer 6"><path class="cls-2" d="M242.28,317.24c0,.38-.58.67-1.3.67h0c-.72,0-1.29-.29-1.29-.67V213.39c0-.37.57-.67,1.29-.67h0c.72,0,1.3.3,1.3.67Z"/><path class="cls-2" d="M197.8,329.18c-.07.41-.7.58-1.41.38h0c-.68-.21-1.18-.7-1.1-1.11l22-112.08c.08-.41.71-.56,1.4-.37h0c.69.21,1.2.7,1.13,1.11Z"/><path class="cls-2" d="M281.61,326.82c.08.39.7.56,1.4.36h0c.69-.2,1.19-.68,1.11-1.09L262.13,214c-.07-.4-.71-.57-1.4-.37h0c-.7.2-1.2.7-1.12,1.11Z"/><rect class="cls-3" x="144.03" y="65.66" width="191.14" height="158.88"/><path class="cls-2" d="M338.14,65.69c0,.66-.9,1.2-2,1.2H143.29c-1.12,0-2-.54-2-1.2V63.3c0-.66.9-1.19,2-1.19H336.12c1.12,0,2,.53,2,1.19Z"/><path class="cls-2" d="M338.14,223.61c0,.66-.9,1.2-2,1.2H143.29c-1.12,0-2-.54-2-1.2v-2.38c0-.66.9-1.2,2-1.2H336.12c1.12,0,2,.54,2,1.2Z"/><path d="M111.37,364.06c-.51,2.79-2.79,5.57-.51,7.34s4.56,1.77,7.34,1,3.79-2.27,5.31-3.53,6.9-2.68,8.16-4.45,3.36-7.49,1.15-8.22c-1.3-.44-4.19.47-12,2.64Z"/><path class="cls-4" d="M115.22,307.92s-7.42,46.35-6.84,57.2c14.56,1.24,21.63-4.32,21.47-7.54s8.06-46.55,8.33-49,4.15-18.06-2.39-21.39C114.07,276.18,115.22,307.92,115.22,307.92Z"/><path d="M136.86,360.57c-1.34,4.14-3.75,8.89-2.48,11.51s5.86,2.34,9.46.62c2.14-1,10.24-2.32,12.59-3.14,6.15-2.16,7.93-7.7,4-8-4.35-.38-10.51-.59-12.48-2.22S136.86,360.57,136.86,360.57Z"/><path class="cls-4" d="M134.32,295c26-9,28.29,1.58,23.73,18.4-2.33,8.54-3.73,43.54-1.49,48.86-10.63,5.57-23.54,5.82-23.54,5.82s1.84-41.9,4.82-50.81C139.24,313.08,134.32,295,134.32,295Z"/><path class="cls-5" d="M100.13,197.48c.29,2.92-1.78,13-3.69,17.08s-8.16,8.79-8.16,8.79l23,9.24s1.13-16.55,6.19-18.74C120.54,212.5,100.13,197.48,100.13,197.48Z"/><path class="cls-5" d="M124.26,192.88c.12,1.36-.4,4.12-.35,5.54,0,1.14.92,2.28.91,3.43-.13,7.66-1.83,13.35-4.57,13.7-1.62.2-6.09,2.09-8.91,1.13-4.86-1.63-9.48-7.52-11.33-12.67-2.9-8.13.16-17.26,8.49-18.86C117.58,183.37,123.42,184.28,124.26,192.88Z"/><polygon class="cls-6" points="59.11 386.06 56.52 386.04 64.68 316.56 65.87 307.89 110.06 315.19 107.35 393.2 104.05 392.94 102.44 323.82 70.93 318.76 59.11 386.06"/><path class="cls-6" d="M149.31,301l-27.23-1.91-57.36,5.07-.18,8.69A4.17,4.17,0,0,0,68,318s35.73,7.72,40,6.37l43.5-13Z"/><path class="cls-7" d="M112,311.57c-6.09,1.35-6.11.07-11.34-.48l-29-4.84c-11-1.15-7.83-1.57-2.59-3.67l4.33-.94c4.34-1.72,25.79-4.61,31.52-4l41.61,1.23c6.13.61,2.91,2.74,2.06,2.91Z"/><polygon class="cls-6" points="148.75 308.92 155.59 381.96 153.57 381.7 142.69 313.74 148.75 308.92"/><path class="cls-8" d="M95.14,214.63c10-1.14,14.61,1,20.21,3.32,1.11,1.4,1.48,6.27,1.48,6.27s-21.41-6.64-22-7.54S95.14,214.63,95.14,214.63Z"/><path d="M126.53,184.35c.17,1.62-.49,1.86-.94,1.88,1.19-1.65.26-5,.26-5-4,4.54-15.76-7.53-27.29.73-1.15.82.26,1.33-.68,2-7.92,6-8.16,9.76-6.18,15.39,2.22,6.3,3.2,8.81,2.52,12C93.66,214,110.43,214,110.43,214s3.52-1.55,4.57-4.11c.71-1.73,2.77-4.91,2.51-5.48-2.51-5.71,1.16-7.38,2.32-4.85a4.82,4.82,0,0,1,.53,3.14l2-1s-1.38-6.19,0-8.9c.33-.66,1.56-2.43,2.84-4.23C127.67,187.9,126.3,182.16,126.53,184.35Z"/><path class="cls-4" d="M113.35,306.72c3.42.17,23.8-6.68,23.8-6.68l8.68-2.3s-6.62-9.35-10.27-10.71-17.36,7.53-17.36,7.53Z"/><path class="cls-4" d="M134.86,237.47c-1.3-2.39-5-8.68-5-8.68s1.54,1.44-12.68-5.41c-4.81-2.33-9-4.18-9-4.18L94.45,216a37.22,37.22,0,0,1-17.36,7.3s-3.15.17-3.69,1.44c-7.17,17.22,7.77,30.78,7,37.57-3.15,27.72,5.27,37.47,6.23,41,.45,1.73,9,3.41,19,3.58,5.42,1.7,31.5-6.26,33.34-7.76.88-2.34-7.31-2.06-11.19-24.9a42.88,42.88,0,0,1,.91-14.61C130.3,242.26,141.26,247.06,134.86,237.47Z"/><path class="cls-6" d="M110.94,303.35c.07,4-3.73,6.54-10.52,6l-30.75-4.86c-7.78-1-6.67-1.74-7.57-5.82l-6.05-58c-1.39-6.29,2.71-11.33,11.68-10.49l28,2.48c8.85.82,9.86,5.42,10,11.53Z"/><path class="cls-7" d="M100.16,234.62c2.74-.17,7.41,2.62,7.87,7.18s8.8,60.41,6.51,64.06-7.78,4.22-7.53,2.63c2.28-14.85-4.34-65.77-5.94-68.74A7,7,0,0,1,100.16,234.62Z"/><path class="cls-4" d="M93.76,215.55l-4,3.77a33.1,33.1,0,0,1,8.85.56c7.78,2,21.19,6.17,21.19,6.17l-2-4.82a115.24,115.24,0,0,0-17.24-5.34A26,26,0,0,0,93.76,215.55Z"/><path class="cls-9" d="M119.17,224.34l-1.32-3.11s-10.61-4.88-17.24-5.34c13.42,4.85,12.7,7.18,14.09,7.74A21.12,21.12,0,0,0,119.17,224.34Z"/><path d="M226.72,144.44c-2.05-.68-4.68-.77-6.51,3.33s-6.85,11.31-9.59,15.43c0,0-12.48,16.19-6.79,22.2,6.16,6.51,18-2.28,22.61-5.25s2-9.15,3.42-12.11C233.52,160.28,226.72,144.44,226.72,144.44Z"/><path d="M249.93,337.72c.18-2.56-1.32-4.18-.19-17.34.15-1.6-11.78-2.14-11.78-2.14.53,6.47,2.23,10.52-4,18.28-1.36,1.71-5.32,4.85-6.69,6.21-1,1-2.14,5.51,3.75,5.51,7.41,0,13.07-2.24,14.95-5.74.16-.29.63-.18.63-.18S249.45,344.38,249.93,337.72Z"/><path d="M267.83,327.72l11.23-1.52s.15,1.08,1,5c1.63,7.18,5.77,11.11,7.52,13.06a5.94,5.94,0,0,1,1.44,5.41l0,.86s-.65,3.38-2.93,3.38-11.71-1.53-12.86-3.16a3.44,3.44,0,0,1-.61-2,1.58,1.58,0,0,1-.15-.24s-1-3.93-2.28-3.6a5.63,5.63,0,0,1-.93-5.83C270.6,335.4,267.83,327.72,267.83,327.72Z"/><path d="M230,204.69c-.06,1.17-2.16,5.63-2.19,6.75-.34,12.12,0,16.86,0,20,0,3.48,2.24,43.33,4.85,52s2.82,39.59,1.09,42.19-1,10.07-1,10.07,11.21-4,19.89,2.31c0,0,.29-1.62.57-9.25.7-19-.92-31.21-2.87-45.41-.71-5.18.77-34.53.77-39.75,0-3.9,7.26,36.77,10.74,49,0,0,5.76,25.8,4.3,37-1.3,10.12,1.81,12.73,1.81,12.73s10.89-5.61,17-2.12a35.05,35.05,0,0,0-.18-10.19c-1-7.84-2.34-26.11-3.31-37.14-1.16-13-4.87-44.51-5.74-60.19s-5.61-23.23-7.41-26.36S230,204.69,230,204.69Z"/><path class="cls-10" d="M230,232.35c.65,17.86,6,45.2,7.94,53s-.65,4.9.33,9.47,1.78,27.47,1.78,29.1,8.12,6.13,5.79,5.8c-1.62-.24-6.36-2.6-6.36-1.62s5.9,4.51,5.9,4.51-9.25-2.55-12.72-.35c-.62.4.61-4.6,1-8.09s1-27.08-.57-35.83c-1.62-9.26-5.87-49.17-4.88-54.73S230,232.35,230,232.35Z"/><path class="cls-10" d="M250.38,238.35c3.59,7.19,11,43.85,12.6,49.07A41.23,41.23,0,0,0,268.65,299c1.3,1.63,8.66,27.77,7.67,32.35-3.27.31-6.53-.32-6.86,1.31s8.5,1,8.5,1l-11.12,5.89s-.65-5.56-.65-9.8-.7-24.3-4-34.76A168.22,168.22,0,0,1,256,266.87C254.73,257.72,250.38,238.35,250.38,238.35Z"/><path class="cls-5" d="M242.86,130.38a14.66,14.66,0,0,1-.12,9.36c-1.1,2.91,3.56,7.78,5.32,7.65S259.85,138,259.85,138s-1.73-9.94-1.39-14.11C258.68,121.3,242.86,130.38,242.86,130.38Z"/><path class="cls-11" d="M251.46,126.13h-.09l-5.76.81c0,.48-2,4.93-2.09,6.86,1.64,2.05,10.23,11.83,13,11.6,2.34-.21,2.3-3.62,3.65-5.32-.51-2.34-2.17-10.29-.7-15.66Z"/><path class="cls-8" d="M241.45,136.9c.79,1,6.17,5.51,8.57,5.27,2.15-1.07,8.61-5.47,9.4-7.17.65.7,6.55,5.92,6.55,5.92L267.36,200h-20.1v.17L233.37,200l-.32-53.67Z"/><path d="M264.53,116.75c-.19,2.3-3.26,10.3-3.23,10.74s0,2.06.44,1.94-3.71,1-4.38.19-.61-11.24-.17-11.8S264.53,116.75,264.53,116.75Z"/><path class="cls-12" d="M258.51,117.93c.85-6.28,3-12.15-6.62-13.6a22.67,22.67,0,0,0-4.07-.28,16.57,16.57,0,0,0-3-.61c-2.27,0-3.13,1.92-4.72,4.62-2.41,4.24-2.56,10.7-2,15,0,.29.08.56.13.84a19.32,19.32,0,0,0,1.33,6,6.78,6.78,0,0,0,2.42,3.38,6.26,6.26,0,0,0,3.32,1.71c6.89.3,11-3.72,12.58-9,1.37-.44,2.68-2.45,3.08-4.33C261.49,119.24,260.89,117,258.51,117.93Z"/><path class="cls-10" d="M248.42,104.17l.3-.54s2.71-1.15,2.23-1.21c-.27,0-1.1-1-1.82.25l1.41-2-6.06,1.14a3.36,3.36,0,0,0-2.31.27c-1,.6-1.83,1.09-1.83,1.09s.08,1,.39-.34c-1.34.24-2.53,3.17-2.77,5.39-.19.66-.37,1.37-.53,2.17a27.55,27.55,0,0,0-.3,7l.94.74s.69-7.38,4-9.3,8.73,0,8.73,0Z"/><path d="M264.36,111.07c-.77-2.07-1.35-4.83-2.76-5.67-.57-1.65-5.29-2.65-10.25-5,0,0,4,2.59,4,3.81h0c.26-2.25-7.16-4.81-6.86-4.18,1.74,3.55,0,.83-.71,2.22-.15,0,1-.61.85-.64.36-1.42-1-2-2.12-2.46.79,2.64-1.82,1.85-3.55,3.81-2.06,1.57-3.39,4.59-1.6,6.23,4.12,3.81,9.05.79,11.93,1.25,2.61.41,3.23,2.64,3.67,3.67.6,1.4.47,7.64.47,7.64l1.4-.41,1.72-1.86,3,1.15S265.9,115.22,264.36,111.07Z"/><path class="cls-13" d="M237.52,140.18l.56,15.76S260,160.15,263,150.09s-2.25-14.4-2.25-14.4-6.42,4.34-8,4.86a12.26,12.26,0,0,1-11.56-2.45C239.87,137,237.52,140.18,237.52,140.18Z"/><polygon class="cls-7" points="249.94 144.51 247.37 144.48 248.26 139.91 251.73 139.97 252.91 141.59 249.94 144.51"/><polygon class="cls-7" points="250.18 143.82 250.91 187.94 244.51 192.02 247.51 143.76 250.18 143.82"/><polygon class="cls-6" points="246.25 144.34 247.71 144.37 248.39 139.92 244.84 139.86 243.72 141.24 246.25 144.34"/><polygon class="cls-6" points="246.17 143.52 240.05 187.57 244.61 191.84 247.87 143.54 246.17 143.52"/><polygon class="cls-8" points="245.63 139.86 241.12 145.58 240.37 138.35 243.09 134.08 245.63 139.86"/><path class="cls-8" d="M259.26,132.8c-.17,1.64-4.87,4.81-9.64,7.06a6.13,6.13,0,0,1,1.73,2c1.15,2.06,2.49,4.49,2.49,4.49s7.82-7,7.9-9S259.26,132.8,259.26,132.8Z"/><path class="cls-14" d="M242.4,228.19l1.95-.93,1.28-49.95s-6.69-11.73-7.19-32.77l1.81-6.93c-3.86,2.31-4.69,4.18-14.89,6.44-1.05.23-.35,6.46-.35,6.46s1.9,15.16,2.58,17.21,1.49,13.35,1.36,18.13c-.08,2.73-4.94,29.1-5.33,39.79,0,.39.27,1.15,1.43,1.5Z"/><path d="M241.45,136.47c-.59.2-7.54,5-7.54,5l-1.55,3.91L237,146l-4.73,2.44,13.06,29s-6.59-26.47-6.12-33.53A19.09,19.09,0,0,1,241.45,136.47Z"/><path d="M234.88,196.85c-1.39.87-6.94,1.68-7.63,1.86s-2.15,5.89-1.45,6.41,7-.12,7.69-1S234.88,196.85,234.88,196.85Z"/><path d="M244.35,227.26s.71,1.5,2.08,1.41c6.93-.47,29.38.18,30.18.09a2.27,2.27,0,0,0,2-1.62c-.21-13.51-4.86-34.88-5-40.87-.13-4.79,2.16-15.45,2.84-17.51a28.13,28.13,0,0,1,3.27-5.51s2.08-1.13,1.14-5.71c-.41-2,2.63-11.95.68-12.33-5.51-1.08-10.73-3.65-18-8.47,0,0,.7,9.36-5.21,20.11-1.81,3.32-11.61,18-12.77,21.39S244.35,227.26,244.35,227.26Z"/><path class="cls-14" d="M260.2,134.08c0-.26,6.35,5,6.35,5l1.86,5.3-4.59,1.3,4.18,5.39-21.86,25.33s14.76-29.72,15.52-33.59A13.62,13.62,0,0,0,260.2,134.08Z"/><path class="cls-14" d="M275.89,201.77c-1.47-.36-11.88-3.22-12.05-3s-.41,6.68.29,7.3,12.32,2.94,13.09,2.94S275.89,201.77,275.89,201.77Z"/><path class="cls-12" d="M290,220.42c1.47,5.94,1.93,8.22.65,10.26a18.22,18.22,0,0,1-2.79,3.71c-.7.47-3.85,2.57-4.33,1.87s3.16-3.29,3.16-3.29a7.21,7.21,0,0,0,1.25-2.39c0-.69-2.22-5.18-2.22-3.53s.11,5-.46,5c-1.27,0-1.53-3.06-1.76-4.46s-1.66-3.52,0-7.75l.23-2.35,4.68-1.64Z"/><path class="cls-12" d="M285,234.84c-.85.17-2.22,0-1.62-.69s3-1.63,3.25-2l2-2.65s-.61,3.85-1.38,4.37A10.56,10.56,0,0,1,285,234.84Z"/><path class="cls-12" d="M288.21,228.58c-1.45,1.54-3.06,2.68-3,3.09s.94,0,.94,0-2.48,1.11-2.13,1.54,2.51-.05,3.16-.77A3.78,3.78,0,0,0,288.21,228.58Z"/><path d="M279.13,145.21c4.47.67,4,2.56,5.78,11.48s3.61,26.84,4.21,31.59,4.34,32.2,4.34,32.2-6.8,3.87-12.18,1.89c-1.68-4.43-5.45-27.3-5.68-28.64-.53-3.14-1.43-18.68-2.61-22.25S278.31,145.09,279.13,145.21Z"/><path class="cls-8" d="M217.19,185a1.23,1.23,0,0,0,1.4,1l20.07-3a1.23,1.23,0,0,0,1-1.41l-4.91-32.24c-.1-.68.18-1.17-.5-1.07l-22,3.36c-.68.11-.09.46,0,1.14Z"/><path class="cls-12" d="M224.44,169c-.08-.57-1.51-.94-3.07-1.19s-3.73.05-4.49-.05l2.36-1.51c1.42-.89,3-2,3-2.47,0-1.09-3.14.39-4.68,1a17.7,17.7,0,0,0-3.17,1.75,2.09,2.09,0,0,0-.43.38c-1.79,1.39-4.87,6.62-4.87,6.62s-.52,4.28,1,4.62a8.44,8.44,0,0,0,4-.8,6.94,6.94,0,0,0,3.66-2.34c2-.69,4.51-.75,4.68-2,.06-.42-3-.41-4.62-.3a1,1,0,0,0,.17-.27c2.79-1.09,5.69,0,5.87-1,.08-.42-1-1.2-3.13-1.49-1.69-.08-2.67.15-2.63.07a17.7,17.7,0,0,1,3.18-.67C223,169.36,224.56,169.89,224.44,169Z"/><path class="cls-15" d="M293.91,285.26c1,5.56-5.56,18.37-3.3,20.16s16.34,33.31,16.77,35.67c1.43,7.81-2.37,15.64-6.68,20.61,4.08,1,8.05-.84,12.73-8.25,1.92-3,4.77-5.51,4.78-7.72,0-5.05-1.26-1.69-3.48-8.5s-3.42-28.29-11.66-37.34c-5-5.52-6.62-15.15-8.12-17.19S293.91,285.26,293.91,285.26Z"/><path class="cls-10" d="M316.63,341.25c1.66.7,3.47,3.45,3.43,6.4s-1.85,5,.14,11.59c-1.35.75-1.48.44-1.48.44s-2-8.21-3.17-7.28-2.1,5.17-3.77,8.57-10.79,5.14-11.55,4.48-2.08-3.08-.16-4.52,2.24-2.25,2.24-2.25a6.14,6.14,0,0,0,6.62-2.55C312,351.47,316.63,341.25,316.63,341.25Z"/><polygon class="cls-7" points="299.81 359.62 297.81 359.62 303.47 293.68 307.71 293.93 354.41 294.49 354.41 306.46 354.29 306.46 360.89 359.97 358.89 359.97 347.42 306.46 310.42 306.46 299.81 359.62"/><path class="cls-6" d="M352,227.26c1.92-8.15,12.84-6.53,22.43-5.58,6.9.68,8.57,3.49,8.23,10.42l-8.24,60.2c-.34,6.92-6,11.5-12.54,10.16s-20-5.74-19.53-12.66Z"/><polygon class="cls-6" points="308.87 371.68 307.24 371.68 313.48 310.88 303.07 301.47 333.64 301.27 369.62 300.89 369.48 310.88 376.66 372.04 375.32 372.04 362.86 310.88 320.4 310.88 308.87 371.68"/><path class="cls-7" d="M367.59,301.63c2.45,0,2.63-.86.41-1.88l-18.06-7a23.66,23.66,0,0,0-8.51-1.84L305,291.1c-2.45,0-4.58,1.44-2.65,3l7.49,4.36a15.29,15.29,0,0,0,8,2.73Z"/><path class="cls-12" d="M292.67,287c-.7,5.6-4.07,15.71-2.42,18.07s7.34,41.37,7.06,43.74c-.9,7.89-6.81,14.28-12.38,17.78,3.61,2.16,7.94,1.54,14.59-4.19,2.69-2.32,6.15-3.88,6.81-6,1.5-4.82-.72-2-.86-9.15s5-28.06-.28-39.12c-3.22-6.75-1.91-16.43-2.77-18.79S292.67,287,292.67,287Z"/><path d="M306.12,351.62c1.39,1.14,2.3,4.3,1.42,7.11s-3.23,4.28-3.25,11.13c-1.5.33-1.54,0-1.54,0s.53-8.44-.9-7.89-3.52,4.32-6.11,7.1-11.81,1.77-12.36.92-1.1-3.55,1.17-4.37,2.79-1.49,2.79-1.49a6.15,6.15,0,0,0,7.08-.54C298.71,360,306.12,351.62,306.12,351.62Z"/><path class="cls-10" d="M329.54,271.12c0,4.33-5.78,4.61-13,5.44-4.49.52-15.29,0-22.31,3.14-4,1.76-5.3,2.42-9.47,18.06-3.54,13.22-3.3,14.31-3.3,14.31l23.12,12.55s-6.28-27.41,11.23-27.75c7.34-.14,34.64-1.88,34-9.92s1-18.31,1-18.31Z"/><path d="M345.35,300.33c-12.54,1.59-31.34-2.12-32.71,6.78-.5,5.45-1.92,20.59-1.92,20.59l-21.36-11.12c.57-9.82,4.87-27.09,8.37-28.95,10.21-5.41,41.59-1.45,42.67-6.12,1.24-5.35,0-7,0-7l8.45-4.88C354,280.32,361.05,298.35,345.35,300.33Z"/><path class="cls-5" d="M316.16,219.43c6.1,2.86,9.56,7,8.17,17.7-.41,3.16,3.13-6.71,7.34-9.92,3.71-2.84,4.05-3.52,6.64-4.69-2.24-1.74-9.4-8.21-9.22-14.93S316.16,219.43,316.16,219.43Z"/><polygon class="cls-8" points="339.68 223.65 337.72 219.2 325.82 226.83 325.26 234.99 339.68 223.65"/><path d="M352.25,274.77c-.89-4.31-3.59-18.74-3.76-21.28-1-14-1.38-15-8.56-30.78a10.55,10.55,0,0,1-2,.81c-12.58,6.24-14.93,16-14.93,16-1.55,3.25-3.91,8.49-4.27,11-.5,3.44,1.14,9.11,2.5,10.56s2.52,7.11,2.88,9.29S325,283,325,283l31.26,2.52C357.25,285,354.73,282.49,352.25,274.77Z"/><path class="cls-5" d="M316.79,196.3c3.79-5.12,9.5-6.8,15.06-4,7.06,3.51,11.16,8.89,6.74,17.76s-16.58,11.76-23.9,8.8c-2.41-1-3.09-3.62-2.39-8.48-.94-.69-1.72-1.49-1.3-2.19a20.94,20.94,0,0,0,2.85-2.87c.47-1.14-.39-1.84,0-3.06A30.11,30.11,0,0,1,316.79,196.3Z"/><path d="M331.52,226.24l-8.29,6.11A52.59,52.59,0,0,1,321,244.94C320.52,246.56,331.52,226.24,331.52,226.24Z"/><rect class="cls-16" x="136.26" y="290.91" width="10.22" height="106.26"/><rect class="cls-16" x="322.56" y="291.77" width="10.22" height="106.25"/><polygon class="cls-16" points="356.37 286.33 356.37 291.13 107.7 291.13 107.7 286.33 148.12 253.09 312.98 253.09 356.37 286.33"/><rect class="cls-2" x="107.47" y="286.34" width="248.91" height="9.44"/><path d="M340.25,223.9l-.54-2.93a24.52,24.52,0,0,0-7.26,2.93,55,55,0,0,0-5.17,4.1l-2,6.13s6.89-6.65,9.81-7.73A31.42,31.42,0,0,0,340.25,223.9Z"/><path class="cls-17" d="M316.24,194.41c-1.95.62-1.2,3.56,1.32,5.9s1.35,6.9,1.35,6.9,1.88-.63,1.29,1.73a6.76,6.76,0,0,1-1.94,2.94s-.49,11.3-6.77,11.62c1.44,1.58,20.07,6.13,30.9-1.78,0,0,1.26-18.85-2.87-24.79-1.69-2.44-5.61-3.44-5.61-3.44a12.17,12.17,0,0,0-6-3.08C322.4,189.72,316.24,194.41,316.24,194.41Z"/><path class="cls-4" d="M122.54,252.09c2.28,7.76,14.16,17.58,16.44,18s8.48,3,10.73,1.37c1.6-1.14,2-2.59,2.28-6.62s-1.75-9.41-2.34-10.73c-.91-2.06-4.62-4.63-4.62-4.63s-11.59-16.32-13.88-18.15S122.54,252.09,122.54,252.09Z"/><path class="cls-9" d="M130.07,230.17a5.41,5.41,0,0,0-6.39,4.56c-.69,3.42,4.11,3,7.54,6.85s13.47,18.72,17.12,21,4.57-4.8,4.11-6.62-2.28-2.06-3.65-2.74-6.62-7.31-9.59-11S131.9,230.61,130.07,230.17Z"/><polygon class="cls-8" points="175.53 277.53 226.91 277.49 233.65 268.44 187.5 268.35 175.53 277.53"/><path d="M176.23,324.07s.05,39.5.63,50.43c14.67,1.24,25.92,1.68,25.74-1.56s-2-37.33-1.74-39.78,5.94-20.5-.65-23.85C178.34,298.19,176.23,324.07,176.23,324.07Z"/><path d="M183.59,310.83c8.41-2.92,31.55-10,37.19-10.71,11.91-1.57,17.87,4.91,15.39,16.56-2.78,13.06-31.31,51.83-29,57.19-10.7,5.6-23.2,3.44-23.2,3.44s17-44.49,18-48.83S183.59,310.83,183.59,310.83Z"/><path class="cls-5" d="M168.08,220.46c.86,2.83.8,13.22-.3,17.59s-6.32,10.29-6.32,10.29l26,4.71s-3.6-16.67,1-19.82C191.19,231.29,168.08,220.46,168.08,220.46Z"/><path d="M164.67,239.18c-4.1,2.3-10.39,6.39-18.27,10.16,0,0-3.4,1.45-3.94,2.74-7.23,17.35,9.12,24.81,8.35,31.65-3.17,27.91,8,37.2,9,40.74.46,1.75,10.3,3.87,20.37,4,5.45,1.71,28.23-5.05,30.08-6.56.88-2.34,1.43-5.47,0-11.4-3.55-14.76-3.94-16.46-3.31-24.09.45-5.59,6.32-6.19,8-9.34S207.44,249,207.44,249a76.09,76.09,0,0,1-19-7.69c-2.53-1.42-11.08-.23-11.08-.23Z"/><path class="cls-18" d="M166.41,234.71c.77.38,12.88,4,20.22,3.3,1.11,1.41-.21,4.89-.21,4.89s-21.89-2.89-22.54-3.78S166.41,234.71,166.41,234.71Z"/><path d="M164.54,236.78l-4.43,5.83s8.85.16,12.55,1c7.91,1.79,17.81-.11,17.81-.11l-1.88-4.36a56.3,56.3,0,0,1-16.1-.8C169.28,237.75,164.54,236.78,164.54,236.78Z"/><polygon class="cls-6" points="143.2 410.33 145.7 410.33 157.85 333.95 151.38 333.95 143.2 410.33"/><polygon class="cls-6" points="218.24 409.91 220.72 409.91 210.68 333.53 204.29 333.53 218.24 409.91"/><polygon class="cls-6" points="160.61 397.28 161.97 397.28 172.15 335.76 166.25 335.76 160.61 397.28"/><polygon class="cls-6" points="229.79 396.02 231.17 396.02 223.62 327.22 218.48 334.5 229.79 396.02"/><path class="cls-6" d="M152.7,330a32.68,32.68,0,0,1,5-4.2c.78-.52,8.83-8,8.83-8l53.74,3.15a25.34,25.34,0,0,1,3.31.94c1.14.41,1.72,3.56,1.58,6.15-.16,2.83-5,8-9.46,10.87-6.27,4-23.86,3.23-26.37,3.23h-3.32c-2.51,0-28.13.62-34.41-3.33C149.36,337.34,150.7,331.87,152.7,330Z"/><path d="M226.24,316.71c-5,4.63-16.39,11.77-21,13s-22.68-4.61-25.21-10.08,21.44-12.6,29-12.6S226.24,316.71,226.24,316.71Z"/><path d="M207.07,248.89c4.57-.16,5.45,9.74,8.46,19.27,3.25,10.33,7.77,21.47,7.77,23.76,0,4.42,2.22,16.8-3.36,16-8.4-1.26-12.4-9.24-18.07-19.34S207.07,248.89,207.07,248.89Z"/><path class="cls-10" d="M190.28,216.13l1.21,4.7s2.2.56,3.38-.52.88-3.2.73-4.26S191.34,215.32,190.28,216.13Zm4.26,4c-1,1-3,.47-3,.47l-1.06-4.16c.92-.72,4.56-1,4.69-.07S195.6,219.15,194.54,220.09Z"/><path class="cls-5" d="M193,214.19c.6,2.28-.17,2.29.14,4.6.09.77.71,1.57.77,2.33.57,6.53.11,12.55-2.59,14-3.92,2.16-17.57-.66-21.82-8.27s.46-19.22,8.46-22.2C186.68,201.43,190.75,205.79,193,214.19Z"/><path class="cls-17" d="M192,200.34c-1.93,4.2-20.48-9-28.62,3.48-.77,1.18-.28,2-.52,2.19s-.83.43-1.59,1c-4.75,3.41-3.32,12-.75,16.73,3.25,5.9,5.53,8.78,4.49,11.38-1,2.45,19.67,2.31,19.67,2.31s3.15-10.72,2.27-12c-3.42-5-1.46-8.7.12-6.38,1.2,1.77,1.35,1.93,1.35,1.93l.88.34s-1.9-7.4.52-9.29C193.6,209,192,200.34,192,200.34Z"/><path class="cls-19" d="M179.73,198.82c3,.56,8.18,2.86,9.89,1.27a6.66,6.66,0,0,1-3.31,1.25s3.88.28,4.93-1.3a3,3,0,0,1-2.27,2.5s3.19-.83,3.69-3.25c-.21,4.13-.09,4-2.36,4-3.32.07-9.5-4.14-15.11-4.83C173.72,198.3,176.3,198.17,179.73,198.82Z"/><path class="cls-19" d="M186.71,204.76c2.49.76,7,1.09,7.21-3.2-.83,1.42-5.72,3.89-9.21,1.77S186.71,204.76,186.71,204.76Z"/><path class="cls-10" d="M186,218.17s8.34-.91,9.29-1.53c.63-.4,0,2,0,2L187,219Z"/><path d="M192.07,368.48c-.69-4.34-6.87-5.25-9.08-4-2.84,1.62-3.77,7.5-3.16,11.93.37,2.63-3.19,7.15-4,9.82-.62,2.15-.87,6,2.14,7.29,1.71.74,2.93,1.74,9.67,2.86,1.75.29,3.5.86,3.88-1.15.52-2.73.49-6.65.63-13C192.26,379.35,192.07,368.48,192.07,368.48Z"/><polygon class="cls-10" points="180.08 373.39 189.71 374.88 189.23 376.77 179.78 375.67 180.08 373.39"/><path class="cls-10" d="M181.11,368.34c1.71-1.39,9.76-.51,9.93,2.19,1-2.81-1.17-5.41-5.16-5.82S181.11,368.34,181.11,368.34Z"/><path class="cls-10" d="M192,368.61c-3.78-2.2-8.4,2-8.82,4.53-.54,3.21,3.41,7.67,7.23,10,2.26,1.39,3.52,7,5.1,9.29,3.37,4.9,19.37,3.13,19-1.74-.34-4.15-3.35-6.23-11.77-13.45C200.54,375.36,192,368.61,192,368.61Z"/><polygon points="188.21 381.02 195.47 374.5 196.62 376.08 189.79 382.7 188.21 381.02"/><path d="M185,377c0-2.21,5.78-7.88,8-6.31-1.57-2.52-4.94-2.52-7.78.32S185,377,185,377Z"/><path class="cls-7" d="M189.32,259.45c3.47,1.05,11.8,3.14,12.49,11.52s5.61,57.23,4.22,60.47c-1.74,4.07-6.59,4.18-8.32,2.08s-11.86-70.59-10.82-71.63Z"/><path class="cls-6" d="M203,330c0,4.47-4.8,7.92-10.74,7.79L159.58,337c-5.88-.14-10.92-3.82-11.27-8.27l-6.84-61.2c-.41-5.3,4.54-9.57,11.08-9.47l34,1.08c6.59.11,11.94,4.57,11.94,9.91Z"/><polygon class="cls-8" points="263.68 275.6 265.92 267.81 309.17 267.65 317.76 275.37 263.68 275.6"/><path class="cls-5" d="M279.52,271.24c.57-.3,4.18-1.76,4.57-1.91a10.75,10.75,0,0,0-1.75.3c-.89.26-1.21.38-1.71.53-.92.28-1.73,0-.59-.53a16.58,16.58,0,0,1,2.09-1.07,15.52,15.52,0,0,1,3-.36,34.53,34.53,0,0,0,4.73.13,44.84,44.84,0,0,0,6.79-1.93c3.93-2.32,5.68,4.37,1.55,4.6-.29.07-4.67,1.43-4.7,1.44a8.06,8.06,0,0,1-4.26.84,13.49,13.49,0,0,0-5.66.38c-1.86.6-2.24.56-2.41.27s1-.72,2-1.27,3.27-.86,2.85-1-4.51,1.28-5.15,1.41-2.16.12-1.52-.34,4.56-2.09,5.11-2.33-4.9,1.64-5.3,1.7S278.68,271.68,279.52,271.24Z"/><polygon class="cls-8" points="297.89 265.68 293.84 267.16 295.65 275.1 301.72 273.18 297.89 265.68"/><path d="M335.94,231c3.17-.86,3.6,7.18.9,15.71-3.92,12.39-10.14,18.5-13.08,20.43-4.26,2.81-24.08,7.41-24.08,7.41l-3.14-8.76S315.43,257,316,256c1.75-2.83,10.43-17.58,12.52-21.22S335.94,231,335.94,231Z"/><path class="cls-14" d="M332.35,233.46c-2.24,0-4.58,1.65-6.74,5.62C321.35,246.94,316,256,316,256l-19.47,9.76,1.24,3.14s19.25-9.23,20.53-9.65c2.14-.67,2.48-3.36,4.06-5.61s5.49-13.69,8.19-16.39S332.35,233.46,332.35,233.46Z"/></g></g></svg>