<svg xmlns="http://www.w3.org/2000/svg" xmlns:xlink="http://www.w3.org/1999/xlink" viewBox="0 0 450 450"><defs><style>.cls-1{isolation:isolate;}.cls-2{fill:#999daa;}.cls-20,.cls-3{fill:#afb3bc;}.cls-4{fill:#4a75dd;}.cls-5{fill:#6597ef;}.cls-6{fill:#cc9483;}.cls-26,.cls-27,.cls-32,.cls-33,.cls-34,.cls-35,.cls-40,.cls-43,.cls-7{fill:#fff;}.cls-8{fill:#26282d;}.cls-9{fill:#e0ac9b;}.cls-10{fill:#ba784a;}.cls-11{fill:#a0593a;}.cls-12{fill:#a380b7;}.cls-13{fill:#5b250e;}.cls-14{fill:#0d2263;}.cls-15{fill:#1f3e93;}.cls-16,.cls-36{fill:#d4d5d6;}.cls-17,.cls-20,.cls-21,.cls-23,.cls-36,.cls-37,.cls-41,.cls-42{mix-blend-mode:multiply;}.cls-17{fill:url(#linear-gradient);}.cls-18{fill:#900;}.cls-19{fill:#700000;}.cls-21,.cls-30,.cls-32,.cls-39{opacity:0.8;}.cls-22{fill:#d19780;}.cls-23{fill:url(#linear-gradient-2);}.cls-24{fill:#7aa7d6;}.cls-25{fill:#96c3f2;}.cls-26{opacity:0.67;}.cls-27{opacity:0.57;}.cls-28{opacity:0.73;}.cls-29{opacity:0.6;}.cls-31{fill:#b0b3b7;}.cls-33,.cls-37,.cls-42{opacity:0.4;}.cls-34{opacity:0.5;}.cls-35{opacity:0.7;}.cls-37{fill:url(#linear-gradient-3);}.cls-38{fill:#cde3e8;}.cls-39,.cls-41{fill:#42b7a1;}.cls-40,.cls-41{opacity:0.3;}.cls-42{fill:url(#linear-gradient-4);}.cls-43{mix-blend-mode:soft-light;}</style><linearGradient id="linear-gradient" x1="236.55" y1="197.76" x2="265.91" y2="177.49" gradientTransform="matrix(-0.96, -0.29, -0.29, 0.96, 679.05, 78.68)" gradientUnits="userSpaceOnUse"><stop offset="0" stop-color="#fff"/><stop offset="0.52" stop-color="#c6c0b9"/></linearGradient><linearGradient id="linear-gradient-2" x1="74.8" y1="200.32" x2="76.75" y2="187.14" gradientUnits="userSpaceOnUse"><stop offset="0" stop-color="#fff"/><stop offset="0.13" stop-color="#fbfafa"/><stop offset="0.29" stop-color="#eeebea"/><stop offset="0.47" stop-color="#d9d2d0"/><stop offset="0.66" stop-color="#bcb0ac"/><stop offset="0.71" stop-color="#b3a6a1"/></linearGradient><linearGradient id="linear-gradient-3" x1="308.23" y1="247.1" x2="308.31" y2="244.35" gradientUnits="userSpaceOnUse"><stop offset="0.1" stop-color="#fff"/><stop offset="0.17" stop-color="#efefef"/><stop offset="0.31" stop-color="#c6c6c6"/><stop offset="0.49" stop-color="#838383"/><stop offset="0.72" stop-color="#272727"/><stop offset="0.81"/></linearGradient><linearGradient id="linear-gradient-4" x1="149.85" y1="248.53" x2="149.92" y2="245.78" xlink:href="#linear-gradient-3"/></defs><g class="cls-1"><g id="Layer_6" data-name="Layer 6"><path class="cls-2" d="M314.59,299.7c0-3.38-2.4-57.29-3.29-65.21h0c-.38-3.54-.36-7-.94-9.35h0c-.73-2.34-1.18-3.11-3.63-3.24h0c-6.12,0-8.86,1.19-13.8,2.49h0l-.78-2.94c4.69-1.24,8-2.6,14.58-2.59h0c3.82-.12,6,2.66,6.58,5.57h0c.7,2.93.64,6.42,1,9.72h0c.92,8.32,3.3,61.84,3.31,65.55h-3Z"/><path class="cls-2" d="M243,299.7c0-3.71,2.39-57.23,3.31-65.55h0c.37-3.3.3-6.79,1-9.72h0c.56-2.91,2.77-5.69,6.59-5.57h0c6.55,0,9.89,1.36,14.58,2.59h0l-.78,2.93c-4.95-1.3-7.68-2.47-13.8-2.48h0c-2.45.13-2.9.9-3.63,3.24h0c-.58,2.33-.56,5.81-.94,9.35h0c-.89,7.93-3.3,61.83-3.29,65.21h-3Z"/><path class="cls-3" d="M302,230.26c0-.08,0-.18-.06-.29h0a6,6,0,0,0-.52-1.26h0a3.77,3.77,0,0,0-3-2h0l.26-2.42a6.24,6.24,0,0,1,4.88,3.17h0a8.3,8.3,0,0,1,.85,2.21h0a0,0,0,0,0,0,0h0a.7.7,0,0,1,0,.14h0c0,.05,0,.08,0,.11h0a1.91,1.91,0,0,0,0,.2h0v.17h0s0,.1,0,.16h0c.19,2.68,1.36,17.46,2.52,32h0c1.27,16,2.55,31.81,2.55,31.85h0l-2.43.19c0-.05-4.87-60.63-5.1-64.3Z"/><path class="cls-3" d="M252.13,295.38c0-.06,4.66-58.24,5.06-63.84h0a.86.86,0,0,1,0-.16h0a1.24,1.24,0,0,1,0-.27h0a0,0,0,0,1,0,0h0V231h0c0-.05,0-.1,0-.15h0a.63.63,0,0,1,0-.12h0a8.23,8.23,0,0,1,.86-2.25h0a6.28,6.28,0,0,1,4.88-3.16h0l.27,2.42a4.18,4.18,0,0,0-3.64,3.6h0c-.29,4.41-5.08,64.17-5.08,64.22h0l-2.43-.2Z"/><path class="cls-4" d="M303.44,225c-1-6.85-.26-20.28,1.27-25.6s-.26-8.87-.26-8.87c-2.71-3.83-14.7-4.24-23.76-3.83-9.06-.41-21,0-23.76,3.83,0,0-1.77,3.55-.25,8.87S259,218.1,257.94,225s-6.08,13.68-4.31,16.21c1,1.36,10.74,2,19.64,2.28h14.84c8.9-.29,18.69-.92,19.64-2.28C309.52,238.63,304.45,231.79,303.44,225Z"/><path class="cls-4" d="M247.94,246a7.21,7.21,0,0,0,2.79,4.56c3.29,0,59.55.25,60.56-.51s1.52-3,1.78-4.81,0-6.84-2.28-7.35a33.31,33.31,0,0,0-8.28-.34c-2.54.17-45.11-.17-45.11-.17s-6.66-.76-8.28,1.86A11.59,11.59,0,0,0,247.94,246Z"/><path class="cls-5" d="M248.83,240.15a5.09,5.09,0,0,1,4.81-2.66c1.27.25,55-.89,56.51-.13s2.41,1.52,2,1.9c-1.48,1.48-22.43.64-32.31.89S248.83,240.15,248.83,240.15Z"/><path class="cls-6" d="M280.25,178.32c-.25,1.52,1.73,5.62.13,7.22s-6.84,2.92-7.77,3.34,8.53,5.83,11.57,6.42,11.49-5.07,11.49-5.07-2.75-2.46-3.89-3.8-.51-4.73-.34-6.67S280.25,178.32,280.25,178.32Z"/><path d="M291.82,225.92c5.6,4.56,8.9,11.68,8.33,14.82-.42,2.28.16,7.44.16,8.28,0,2.37-29.73,2.87-31.42-1.35-.83-2.08-.39-4.65-2.53-6.42-1.65-1.36-4.09-1.37-4.4-1.52-8.1-3.89-.16-12.17,3-13.24S291.82,225.92,291.82,225.92Z"/><path class="cls-7" d="M293.76,188.11c-1.37,1.87-8,4.74-8.06,5.16-1.47-.79-6.78-3-7.69-6.08,0,0-5.4,3.21-8.78,3,4,9,2.18,25.17-1.13,29.8-2.92,4.08-1.77,6.11-1.77,6.11l8.69.14,12.45-2.43s6.91,3,5.91-.37,6-27.17,8.28-29.2Z"/><path class="cls-8" d="M294.57,188.07c3.55,1.89,7.22,1.91,8.11,2.92,0,0-1.83,13.48-2.54,15.08-.29.67,0,4.36-.88,6.46-1.21,2.88-3.35,6.34-3.17,8.24.29,3.27,5.32,10,4.43,14.44-.25,1.26-5.1-5.24-10.51-6.08-3.3-.52-11.81,1.35-11.45-.73S283,212.34,283,212.34s7.53-14.84,9.13-16.7S294.57,188.07,294.57,188.07Z"/><path d="M292.54,186.09l4.39,1.86v5.15l-2.78-.76,1.6,2.71a32.82,32.82,0,0,1-4.9,7.85c-1.4,1.69-6.92,13-6.92,13s1.28-8.93,3.45-13.08a123.16,123.16,0,0,0,5.33-12A7.17,7.17,0,0,0,292.54,186.09Z"/><path d="M275.65,187.36c-5.92,2.7-9.64,3-10.82,3.71,0,0,1.23,17.18,1.36,18.92s.5,5.15-.86,8.12-8.64,11.9-8.52,18.74c0,1.3,7.48-6.84,15.44-7.73,3.32-.37,11.34,1.44,11.34.64,0-4.71.44-6.73,2-18.75,0,0-5.62-16-6.52-18.29A24.78,24.78,0,0,0,275.65,187.36Z"/><path class="cls-8" d="M279.36,185l-5.57,3.21-.1,4.24,3.52-.31-1.8,3.94s-.59.22,2.81,4.8c1.31,1.79,7.1,13.3,7.1,13.3s.64-2.26-.38-6.84c-1.1-4.94-4.85-12.6-5.45-15A15.65,15.65,0,0,1,279.36,185Z"/><path class="cls-9" d="M294.38,170.78c.34,6.81-2.83,13.54-6,14.12-3.6.64-10.06-2.24-13-10.5-2.39-6.8-1.74-13.56,7-15.14C290.58,157.77,294,163.63,294.38,170.78Z"/><path class="cls-10" d="M283.55,159.4c-.51.4,4.2-2.31,8.87.93.08,0,2.28,1.52,3.36,6.48a2.42,2.42,0,0,0,2.72,2s-.44,2.15-1.4,2.4c.55.62,1.52,1.4,2.28-.25,1.14,4.69,2,6.68-1.14,9.88a7.55,7.55,0,0,1-7.22,2.29,10.38,10.38,0,0,0,.82-1.34c-.25.56,3.23-4.64,1-12.24-1-3.31-3.49-3-8-4.17C284.81,165.39,283.91,159.11,283.55,159.4Z"/><path class="cls-11" d="M268.05,174.78a2.71,2.71,0,0,0,2.82,0,5.11,5.11,0,0,1-2.5-.9s2.8-.14,2.92-4.89c.06-2,1.41-4,3.4-6.47a8,8,0,0,1,1.12-1.32,6.05,6.05,0,0,1,1.24-.9s0,0,0,0l.1,0c4.3-2.48,8.08-1.16,8.05.12,0,.44,1.14,4.47,1.14,4.47-.9,2.8-6.72,2.7-7.61,6.69-1.54,6.43,0,7.1,1.65,7.9a2.51,2.51,0,0,1-1.57.45,6.45,6.45,0,0,0,3.09,1.1c-.92,1.32-1.46,2.35-1.89,1.93.35.37,2.13.43,2.13.43s-2.1,3.74-7.12,1.86C271.25,183.73,268.42,181.1,268.05,174.78Z"/><path class="cls-9" d="M274.2,230c.14.17,6.79.16,7,.31,1.43,1.1,3.76,1.37,5.18,1.59,2,.28,1.28.07,3,1.1s2.05,1.07,2.3.83-.8-.94-1.67-1.71-3-1.58-2.56-1.6,4.11,2.29,4.7,2.57,2.07.61,1.56,0-3.52-2.68-4-3,3.94,2.35,4.32,2.48.56-.33-.16-.94c-.49-.44-3.66-2.71-4-2.94a11.74,11.74,0,0,1,1.62.71l1.56.9c.83.5,1.68.43.69-.38s-1.36-1.33-1.78-1.54a18.47,18.47,0,0,0-2.82-1c-.46-.11-5.57-.74-6.83-1-3.74-.73-6.07-.93-6.62-1Z"/><polygon class="cls-7" points="276.77 224.23 280.12 225.71 278.52 231.7 275.23 231.71 276.63 225 276.77 224.23"/><path d="M266.69,190.9c-1.58,0-3.5-.29-5.4,7.94-1.45,6.28-5.47,23.52-4.22,25.85,2.15,4.06,16.81,9,19.13,8.49a42.9,42.9,0,0,0,2.09-7.35l-9.57-5.06c-.37-1.24,1.08-12.45.25-15.21C268.49,203.94,266.69,190.9,266.69,190.9Z"/><path class="cls-9" d="M304.46,219.76c-.12.18-6.75.72-6.92.88-1.34,1.21-3.64,1.68-5,2-1.94.44-1.28.18-2.88,1.34s-2,1.24-2.22,1,.71-1,1.53-1.84,2.85-1.83,2.42-1.8-3.92,2.61-4.48,2.94-2,.77-1.55.14,3.29-3,3.73-3.36-3.74,2.66-4.1,2.82-.6-.28.07-1c.45-.46,3.43-3,3.75-3.25a10.56,10.56,0,0,0-1.56.84c-.77.52-1.05.74-1.48,1-.78.56-1.64.55-.72-.33a21.19,21.19,0,0,1,1.66-1.67,16.49,16.49,0,0,1,2.72-1.25c.44-.16,5.49-1.2,6.72-1.55,3.68-1,6-1.42,6.52-1.55Z"/><polygon class="cls-7" points="298.28 215.93 296.56 216.44 297.79 223.21 300.86 222.93 298.65 216.43 298.28 215.93"/><path d="M301.92,190.48c1.52-.46,2.71,2,5.32,8.36,2.78,6.85,9.42,18.49,7.73,20.53s-10.68,6.8-13.05,7c-.53-2.14-2.52-5.73-3.64-10.41l6.55-1.5c0-1.29-2.15-3-4.81-6.59C299,206.49,301.92,190.48,301.92,190.48Z"/><path class="cls-8" d="M268.85,200.62c0,3.38-.85,14.7-.26,18.24.11.61,10.27,5.71,10.27,5.71l-1.33,3.73s-12.27-5.76-13.12-6.77a1.68,1.68,0,0,1-.06-2.05l-1.18-.85,2.7-.59L263.5,218l2-1.78Z"/><path class="cls-9" d="M295.39,234.22c-8.5-2.54-7,4.82-9.43,8.88-8.55,14.41-4.52,37.93-9.13,47.71-1.86,3.94-2.87,6.25-2.7,7.91a3.27,3.27,0,0,0,3.13,3c4.68,0,4.65-2.17,5.11-7a46.13,46.13,0,0,1,1-6.09c2-9.92,13.76-28,13.5-36.52s1.72-5.09,2.5-10.79S295.39,234.22,295.39,234.22Z"/><path class="cls-6" d="M285.79,243.44c-8.55,14.41-4.53,37.93-9.13,47.71-.52,1.11-1,2.07-1.35,2.94,0,1.49-.07,2.94-.12,4.1,1-2.82,3.47-7,4.85-9.64,1.85-3.55,3.54-27.87,4.73-32.77s3.89-8.36,3.72-10.56,0-9.17,3.59-11.16C287.09,234.14,287.84,240,285.79,243.44Z"/><path d="M282.22,296.19c-1.94,2.71-6.56,2.79-7.68-1.5-3,6.84.46,9.75,2.35,9.6a6.8,6.8,0,0,0,5.3-4.66C282.72,297.42,282.54,295.75,282.22,296.19Z"/><path class="cls-9" d="M281.06,233.74c-8.16-1.07-6.61,5.38-8.66,9.63-7.31,15.08-1.62,37.86-5.39,48-3.44,9.21-2.21,9.5,1,10.34,2.61.68,4.95.32,5.27-4.52.15-2.36.65-5.67.85-8.6.62-9.18,9.58-29.69,9.58-38.18,0-6.46,1.63-4.19,1.94-9.93S281.06,233.74,281.06,233.74Z"/><path class="cls-6" d="M272.4,243.54c-7.31,15.08-1.62,37.86-5.39,48a36.24,36.24,0,0,0-2,6.46c.77,1.52,1.31,2.55,1.31,2.55s2.87-8.79,3.54-10.82.85-14.19,1.52-27.53,3-14,3.55-16.39-.8-9.55,3.93-12.08l-.22-.09C273.15,233.94,274.24,239.73,272.4,243.54Z"/><path d="M273.31,295.94c-1.76,2.83-6.36,3.21-7.76-1-2.56,7,1.1,9.7,3,9.43a6.79,6.79,0,0,0,5-5C273.89,297.13,273.6,295.47,273.31,295.94Z"/><rect class="cls-7" x="293.3" y="200.11" width="3.8" height="5.83" transform="translate(48.44 462.78) rotate(-80.99)"/><rect class="cls-12" x="295.01" y="199.22" width="0.75" height="5.32" transform="translate(49.61 461.88) rotate(-80.96)"/><path class="cls-2" d="M226.74,301.73c0-3.39-2.4-57.29-3.29-65.22h0c-.39-3.51-.52-7.81-1.28-11.09h0c-.86-3.39-1.93-5-4-4.95h0c-6.13,0-8.86,1.18-13.81,2.48h0l-.77-2.94c4.68-1.23,8-2.59,14.58-2.58h0c4.23,0,6.15,3.71,6.92,7.31h0c.86,3.72,1,8.11,1.34,11.44h0c.92,8.32,3.3,61.84,3.31,65.55h-3Z"/><path class="cls-2" d="M154.18,301.73c0-3.69,1.79-57,2.71-65.38h0c.37-3.36.57-7.57,1.53-11.12h0c.86-3.45,3-6.88,7.08-6.87h0c6.61,0,9.33,1.64,13.9,2.83h0l-.78,2.94c-5.06-1.34-7.07-2.73-13.12-2.73h0c-2.14,0-3.22,1.47-4.15,4.63h0c-.84,3.06-1.06,7.17-1.43,10.65h0c-.89,7.91-2.71,61.64-2.7,65.05h-3Z"/><path class="cls-3" d="M212.15,232.32a3.22,3.22,0,0,0-.07-.32h0a5.82,5.82,0,0,0-.52-1.26h0a3.77,3.77,0,0,0-3-2h0l.27-2.42a6.24,6.24,0,0,1,4.87,3.17h0a8.12,8.12,0,0,1,.85,2.22h0a.9.9,0,0,1,0,.15h0c0,.05,0,.08,0,.11h0a1.76,1.76,0,0,0,0,.19h0l0,.13v.06h0a.76.76,0,0,1,0,.15h0c.19,2.69,1.36,17.47,2.52,32h0c1.28,16,2.55,31.82,2.55,31.86h0l-2.42.19s-4.85-60.25-5.1-64.27Z"/><path class="cls-3" d="M164.28,297.41c0-.07,4.68-58.41,5.06-63.87h0s0-.09,0-.14h0a1,1,0,0,1,0-.24h0s0-.08,0-.11h0q0-.11,0-.18h0a.06.06,0,0,1,0,0h0a.19.19,0,0,1,0-.08h0a8.09,8.09,0,0,1,.86-2.22h0a6.24,6.24,0,0,1,4.87-3.16h0l.27,2.42a4.2,4.2,0,0,0-3.64,3.59h0c-.28,4.41-5.08,64.17-5.08,64.22h0l-2.43-.19Z"/><path class="cls-4" d="M213,226.21c-3.88-9.37-1.18-22-.17-28.55.84-5.47-1.18-8.78-1.18-8.78-2.72-3.84-16.45-5.48-25.51-5.07-9.06-.41-22.37,1.57-25.09,5.41,0,0-1.77,3.54-.25,8.87s6.84,22,5.83,28.88-2.79,12.16-1,14.7c.95,1.36,8.91,3.51,17.81,3.8h14.85c8.9-.29,18.68-.93,19.63-2.28C219.64,240.66,215.62,232.6,213,226.21Z"/><path class="cls-4" d="M158.07,248a7.17,7.17,0,0,0,2.78,4.57c3.3,0,59.55.25,60.57-.51s1.52-3,1.77-4.82,0-6.84-2.28-7.34-5.4-3.47-7.94-3.3-45.36,0-45.36,0-6.75,2-8.36,4.65A11.55,11.55,0,0,0,158.07,248Z"/><path class="cls-5" d="M159,242.18a4.38,4.38,0,0,1,4.78-2c1.26.26,55-.89,56.51-.12s2.44.84,2.06,1.22c-1.47,1.47-22.42.63-32.31.89S159,242.18,159,242.18Z"/><path class="cls-13" d="M176.67,166.4c-1.13,5.23,1,9.85,2.07,10.82.27.26,1.22,3.8.82,3.74s2.43-1.18,3-1.89.91-10.87.51-11.31S176.67,166.4,176.67,166.4Z"/><path class="cls-6" d="M192.83,172.44c-.5,2.63,1,5.32,2,7.53s-1.93,9.23-3.33,9.26-11.12-6.78-11.12-6.78,1.72,1.05,1.68-12.88C182.1,167.5,192.83,172.44,192.83,172.44Z"/><path class="cls-7" d="M181.36,182.92l-7.85,7.35,16.67,40.58,16.37-5.06-6.87-38.91-4-2.95s-2.17,3-4,3.39C188.8,188,181.36,182.92,181.36,182.92Z"/><path d="M191.57,232.4c2.52-.5-24.9,7.25-24.72,6.48,2.23-9.29,6.3-14.37,6.59-17.4.51-5.23-1-11.68-1-13.51-.08-4.62-5.52-19.84-4.94-20.4,2.85-2.73,8-.66,12.61-5.77,0,0-.63,5.81.78,8.6s10.18,26.16,11.58,27.7C195.51,224.13,191.57,232.4,191.57,232.4Z"/><path class="cls-8" d="M181.31,181.72a19.88,19.88,0,0,0-2.89,1.71l-3.31,3.46,4.61,2.89-3.05,4,16.15,25.17s-7.13-21.87-8.19-25A76.13,76.13,0,0,1,181.31,181.72Z"/><path d="M174.62,225.71c-2.53,4.9-4.18,7.71-4,11.14.3,4.82,16,9.3,16,9.3s8.17-6.25,12-6.25,17.57,3.88,17.74,2.53,7.7-10,7-11.53-11.18-4.94-12.75-5a9.4,9.4,0,0,1-3.72-1.06c-.8-.8-2.23-3.45-1.9-2.53C205.22,222.91,204,220,174.62,225.71Z"/><path d="M212,285.35c-.39,2.86-.34,9.62,1.43,11.85a4.74,4.74,0,0,0,3.28.61c1.75-.42,2.05.27,3.08,1.48s7.4,2.3,10.37,1.73c3.52-.66,4.53-2.42,0-5.26-5.38-3.35-8.55-6.46-9.78-9.7S212,285.35,212,285.35Z"/><path d="M213,229.42c4.73.17,8.79.15,11.32,1.86,2.23,1.05,3.21,6.42,2.37,10.47-1.07,5.09-.68,49.84-.68,49.84s-16.72.36-16.72-.34.35-47.1.16-48.32C208.92,239.7,206.6,232.39,213,229.42Z"/><path class="cls-14" d="M199.06,226.06c-.23-1-7.27-37.59-7.27-37.59l-.25,0-.68-1.9-2.68.07-1.3,2.21,3.33,1.54c.93,6.27,4.39,31.55,4.44,32.85S199.42,227.64,199.06,226.06Z"/><path class="cls-15" d="M201.43,222.31c0-1.46-7-28.42-8.35-32.76l.93-2.13-.73-1.28-2.63.49,8.41,39.43S201.39,223.83,201.43,222.31Z"/><path class="cls-16" d="M181.18,179.75c1.09,5,9,6.41,9,6.41l-3.29,8-7.34-11.82Z"/><path class="cls-16" d="M192.37,186.16l4.81,6.19s-.54-7.14-1.06-8.24A17.89,17.89,0,0,1,195,180.9a5.24,5.24,0,0,1-.59,3.53C193.1,186.63,192.37,186.16,192.37,186.16Z"/><path class="cls-9" d="M199.87,174.73c.12-.57-.57-1.8-1.42-3.88.09-.51.58-1,.56-1.66a13.41,13.41,0,0,0-3-8.55c-1.59-2.1-8.47-3.65-10.27-3.16-7.92,2.16-3.88,7-2.55,12.14-2.09-.57-2.29,1.72-1.59,3.73.53,1.54.92,2,2.12,2.27,1.05,2.49,3,5.15,4.73,6,1.51.78,4.67,1,7.08.75,2.11-.22,1.52-1.35,2.16-2.38a19.57,19.57,0,0,0,1-4.33C199.09,175.57,199.75,175.39,199.87,174.73Z"/><path class="cls-13" d="M176.47,164.68c.19-1.8,1-4.75,3.14-5,0-1.87,5.94-4.56,10.59-3.17,2.12-.15,6.65,2.48,6.51,3-.21.78-2.6-.89-2.91-.28.11-.06-.18.15-.07.11-.42-1.13,4.07-.39,5,3.8.11,1.1.91.67.73,1.11a1.8,1.8,0,0,1-1.28,1c-4,.87-6.85-1.5-9.17-.85-1.14-.41-2.43-1.71-5.24-2.21-.37-.06,5.6,1.57,4.92,3.27-.54,1.36-1.23,3.16-1.41,3.77a15.87,15.87,0,0,1-2.13,3.46l-1.16-.29-1.35-3-2.86,1.64S175.83,170.61,176.47,164.68Z"/><path class="cls-8" d="M205.71,225.29l-2.24-8.2s-2.66-8-4.82-23.44l-.88-8.74c2.6.91,5.23,2.84,10.58,3.82,1.19.21-.6,9.73-.6,9.73a45.41,45.41,0,0,0-1.37,6.63c-.07,3.13.55,12,2.71,14.7s3.87,3.68,6.46,8.43Z"/><path d="M195.15,182a24,24,0,0,1,2.87,2.55l3.94,2.52-3.41,2.81,4.88.82L203.6,218s-6.47-30.11-7.42-33.31A8.42,8.42,0,0,0,195.15,182Z"/><path class="cls-9" d="M181.54,221.49c.08-.94,2.34-1.77,3.83-2.79,0,0,5.21.69,8.3,2.57.74.44,1,1,2.24,2.32.9,1,.54,1.72-.58,1a9.93,9.93,0,0,1-1.78-1.52l-1.73-.8s1.29.8,1.64,1,1.73,1.85,2.16,2.21c.61.5.44,1.47-.65.9a14.3,14.3,0,0,1-2.08-1.5c-.75-.48-2.12-1.2-2.12-1.2,1.47,1.06,3.7,2.35,4,3.07s-.39,1.28-1.39.36A9.83,9.83,0,0,0,190,225l2.81,1.82s.62,1.2-.83.49c-3.7-1.8-6.88-2.66-7.88-3.59C183.24,223,181.48,222.17,181.54,221.49Z"/><path class="cls-7" d="M180.19,224.91c.19-1.25,2.85-7.09,4.89-7.47a6.6,6.6,0,0,0,1.89,1s-3.37,6.38-3.56,8.49Z"/><path d="M168.54,186.85c-2.33-1.56-5.14,6.27-5.74,9.13s-6.79,19.6-4.4,24c2,3.72,22.43,6.76,22.43,6.76l5.45-9.38s-16.13-3.29-15.88-4.3c.2-.79,3.11-10.22,2.37-11.32S168.54,186.85,168.54,186.85Z"/><path d="M208.35,188.73c1.69,0,2.8,6.23,3.82,8.93s4.23,15.93,5.05,17.53c1.64,3.23,3.18,10.52,3,11.19s-.51,3.89-1.19,4.06-9-5.87-9-5.87-.68-3.42-1-6c-.63-4.81-2-7.64-2.66-12.33C205.37,199.1,208.35,188.73,208.35,188.73Z"/><path class="cls-6" d="M214.27,223.84c-1.78.93-3.16.87-3.61,1.18s-1,3.28-.46,3.53c.91.45,1.32-2.2,2-2.62A11.42,11.42,0,0,0,214.27,223.84Z"/><path class="cls-9" d="M211.77,224.4c-.55.6-1.93,3.42-1.23,4s1.66-1.05,1.66-1.05l.57-1s-2.37,2.43-1.28,3.23c.8.58,2.65-1.27,2.65-1.27s-1.91.92-1.31,1.81,2.62-1,2.62-1-2.14,1.16-1.42,1.65,3.08-.93,3.74-1.72.85-.82.52-1.77a1.59,1.59,0,0,0-.25-.49,4.93,4.93,0,0,0-.48-1.24c-.28-.37-1.06-.6-1.16-.84-.4-1.08-1.64-.94-1.92-1C214,223.52,213.52,222.49,211.77,224.4Z"/><path d="M184.09,283.57c-.38,2.78-1.32,12,1.55,14.12,1,.72,2.46,0,3.37,1a11.62,11.62,0,0,0,12.88,3.07c1.9-.88.06-3.63-2.43-6.12-2.73-2.76-4.55-2.32-5.33-7.71-.28-1.95-.86-5.05-.86-5.05Z"/><path d="M200.47,243.1c.84-5.4-1-10.47-3-10.81,0,0-5.26-5.6-12.08,1.78-3,3.29-.59,6-1.61,11.57s-1,46.12-1,46.12,6.42,1.86,11,1.52a16.29,16.29,0,0,0,5.24-1.86s.4-25,1-39.27l.47-8.23C200.41,243.6,200.44,243.32,200.47,243.1Z"/><path class="cls-8" d="M196.75,230.77c1.78.26,3.55,3,3.55,6.08s.17,6.25.17,6.25L199,291.42s-4.73,2.79-5.24,1.86-.67-1.35-.67-1.35,3.63-48.65,3.37-52.2-1.68-7.94-2.95-8.2S196.75,230.77,196.75,230.77Z"/><path class="cls-3" d="M415.79,271c-2.05-15.06-4.19-30.49-4.62-33.21h0a1.79,1.79,0,0,1-.09-.46h0a2.55,2.55,0,0,0-.09-.4h0a5.57,5.57,0,0,0-.51-1.23h0a3.69,3.69,0,0,0-3-1.91h0l.3-2.62a6.34,6.34,0,0,1,4.94,3.22h0a8,8,0,0,1,.86,2.22h0l0,.07h0c0,.06,0,.1,0,.13h0l0,.19h0c0,.15.06.34.1.58h0c.08.5.18,1.21.31,2.12h0c.27,1.83.63,4.42,1.06,7.53h0c.87,6.23,2,14.53,3.14,22.83h0c2.26,16.6,4.51,33.2,4.51,33.2h0l-2.61.35S418,287.38,415.79,271Zm-4.7-33.6v0h0v0Z"/><path class="cls-2" d="M331.91,300.79h0Zm-3.2-.3c.34-3.69,7.32-52.17,9.1-60.29h0c.86-3.87,1.77-7.57,3.34-10.49h0c1.51-2.9,4.11-5.18,7.74-5.14h.56a65.42,65.42,0,0,1,14.09,2h0l-.72,3.15a61.77,61.77,0,0,0-13.58-1.91h-.35c-2.26,0-3.56,1.1-4.91,3.46h0c-1.28,2.34-2.18,5.83-3,9.65h0c-1.7,7.67-8.75,56.58-9,59.89h0l-3.2-.3Z"/><path class="cls-4" d="M416.33,190.23c2.22.59,3.45,2.17,2.41,5.83-1.38,4.82-5.79,18.29-6.59,25.34-.84,7.43-3,15.2-2.7,24.32.17,5.92-3.13,5.33-3.13,5.33l-44.85-8.87a149.11,149.11,0,0,0,3-28.13c.06-10,4.39-20.37,6.84-24.07a6,6,0,0,1,3.6-2.31C378.27,187.26,407.79,188,416.33,190.23Z"/><path class="cls-5" d="M417.13,191.67c-3.29.5-6.25,7.94-8,16s-3.9,33.29-2.41,37.76c.68,2,2.41,5.66,2.58,3s1.34-21,2.7-27.71c2.37-11.65,7.22-23.83,7.27-25.68C419.33,191.67,417.13,191.67,417.13,191.67Z"/><path class="cls-4" d="M335,250.79c-1.72,3.1,3,3.64,3,3.64s50.84,8.27,53.38,6.75,3.72-6.75,6.76-6.75,4.9,2.7,8.28,1c0,0,2.87-3.72.33-6.76s-40.88-5.4-44.43-5.4-17.95-.2-22.13,2.19C336.63,247.5,336.3,248.34,335,250.79Z"/><path class="cls-5" d="M390.69,251.47c1.95-1.44,5.72-3.51,9.8-2.62,5.13,1.12,7.22,1.25,7.52,3s-.16,3.46-2.87,4.14-6.27-3.55-8.64-1.69-3.78,5.32-5.13,5.32S389.05,252.68,390.69,251.47Z"/><path d="M390.87,229.42s-25-6.08-28.39-6.08c-1.25,0-3.21,2.54-3.21,2.54-2.36,3-13.47,14-10.47,19.42a16.91,16.91,0,0,0,7.77,6.59c1.88,1.59,3.05,1.59,5.74,3,6.86,3.47,20.62-3.47,27.54-4.18C394.75,250.16,394.66,240.15,390.87,229.42Z"/><path class="cls-8" d="M362.31,292.61c-1.18,4.56-1,11.82-.17,14.86s-12.33-1.86-12.33-1.86-.68-1.35.51-3.71,1.9-10.39,2.24-11.58S362.31,292.61,362.31,292.61Z"/><path class="cls-7" d="M383.69,233.28l12.07-39.38s-10.91,2-12.75,1.9-3.79-4.45-3.79-4.45l-3.48,2.78-13.12,34.53C368.77,227.65,377.68,227,383.69,233.28Z"/><path class="cls-6" d="M380.42,186.71c0,2.59.71,5.79-.74,7.67s.26,5.49,1.57,5.78,12.25-5,12.25-5-.34-7.68-.06-9.65S380.42,186.71,380.42,186.71Z"/><path class="cls-17" d="M388.51,185.43h-.06l-4.4-.69c-.07.35-3.42,2.64-3.9,4,.74,1.86,6.9,12.38,9,12.84,1.74.38,2.34-2.6,3.71-3.54.15-1.83.61-12.61.7-13Z"/><path class="cls-18" d="M379,196.22c.17,1.64,1.38,2.6,1.38,3.42s-9.12,20.68-12.19,28.06c1.55,2.71,1.89,2.83,1.89,2.83l13.19-33.65-2.79-2.3Z"/><path class="cls-19" d="M387,198.84c-1.64,1-3.28,1.6-3.77,2s-7.14,20.49-7.46,28.86l-5.76.77s11-31.43,12.91-33.81a7.91,7.91,0,0,0,2.68-1.31Z"/><path class="cls-16" d="M393.47,189c-.69,2.12-9.82,7.39-9.82,7.39l4.43,5.29,8-9Z"/><path class="cls-7" d="M382.17,196.14l-4.83,3.36s.46-7.1,1.15-8c0,0,.73-.11,1.94-1.65,0,0,.11,1,.19,2.89A6.5,6.5,0,0,0,382.17,196.14Z"/><path d="M396.51,175.77c.1,1.82-1.44,8.42-1.37,8.76s.21,1.61.57,1.48-2.3,1.45-2.92.89-1.7-8.76-1.42-9.24S396.51,175.77,396.51,175.77Z"/><path class="cls-9" d="M392.43,177.61c0-5,1-9.87-6.68-10a15.16,15.16,0,0,0-4.28.47,11.57,11.57,0,0,0-1.35-.41c-1.76.29-2.78,1.45-3.73,3.74-1.43,3.58-.07,8.25.49,12.31.5,3.55,1.89,7,4.57,7.9a4.33,4.33,0,0,0,2.33.43c5.45-.51,8.37-3.75,9-8.06,1-.49,1.84-2.21,2-3.73C394.91,178.31,394.19,176.6,392.43,177.61Z"/><path class="cls-8" d="M383.05,167.28l.17-.45s2-1.2,1.63-1.2c-.22,0-1-.63-1.41.4l.89-1.73-4.63,1.55a2.65,2.65,0,0,0-1.78.46l-1.31,1.05s.16.74.27-.3c-1,.33-1.65,2.76-1.6,4.52a17.46,17.46,0,0,0-.17,1.77,22.08,22.08,0,0,0,.51,5.5l.52.31s-1.17-6.22,1.2-8.08,8.06-.41,8.06-.41Z"/><path d="M395.87,170.52c-.83-1.53-2-3.8-3.16-4.32-.63-1.22-4.68-1.12-8.82-2.44,0,0,3.67,1.22,3.75,2.19h0c-.54-.75-6.61-2.55-6.3-2.1,1.75,2.61,1.34.84,1,2-.12,0,.2.1.09.09.12-1.15-1.2-2.22-2.1-2.43.41,1.52-1.4,1.48-2.54,3.2-1.44,1.46-2.48,4.15-.9,5.25,3.65,2.54,6.41.24,8.72.3a4.38,4.38,0,0,1,3.76,2c.62,1,1.15,6,1.15,6l1.45-1,1.43-2.07,2.8,1.15S397.53,173.61,395.87,170.52Z"/><path d="M378.53,245.22s24.72,4.52,23.61,1.77c-2-4.9-3.51-8.93-3-11.82.7-3.84,1.29-10,2.2-11.49s5.57-16.3,5.57-16.3,5.11-6.57.42-9.29-7.74-2.1-12.11-6.32c0,0-2.78,9-4.59,14.1-1,2.9-5.87,17.17-7.54,18.36C379.71,230.27,378.53,245.22,378.53,245.22Z"/><path class="cls-8" d="M395.51,190.84c0-.2,2.92,3.86,2.92,3.86l.88,4.4-5.2-.89,3.51,4.18L381,229.8s10.67-31.47,12.37-34.18C395.43,192.28,395.51,190.84,395.51,190.84Z"/><path d="M369.65,194.12c-4.29-.6-9.87,9.67-17.47,15.79-3.33,2.68-5.4,8.18-5.28,9.21.71,6.57,5.61,6.17,13.56,7.18,1.6.2,6.25-9,6.25-9l6.91-13.85Z"/><path d="M353.53,242.34l13.09-19.76s6.49-10.39,9.12-20.44l1.62-10.57c-2.71.35-3.87,1.18-8.71,2.21-1.18.25-1.52,5.19-1.52,5.19s-4,16.76-4.65,18.37c-2.27,5.42-15.36,17.31-17.57,27.71Z"/><path class="cls-8" d="M379.77,190.79a12,12,0,0,0-2.41.78l-5.44,3,2.56,1.91-4.22,3.33-3.64,22.78S378.4,201,379.29,198C380,195.46,379.77,190.79,379.77,190.79Z"/><path d="M376,249c-1.52,5.07-2.54,6.59-4.06,11.15,0,0-6.58,34.46-6.58,38.52-5.58,2-13.18.5-16.23-2.54s3.56-29.9,3.56-33.45A17.87,17.87,0,0,1,357.75,250C361.81,246,376,249,376,249Z"/><path class="cls-8" d="M371.5,313.69a6.63,6.63,0,0,1,.05,2.16,6.28,6.28,0,0,1-3.69,3.5c-1.93.52-9-.24-11.64-2.26s-2.16-4.3-3-4.89-2.23-1.32-2.23-1.32-1.39-2.15-.86-2.71S371.5,313.69,371.5,313.69Z"/><path d="M361.32,302.24c.59,2.15,4.68,5.93,6.12,7.41s4.28,2.81,3.9,4.76-3.36,3.76-5.84,3.93-8.39-.3-10.21-3.82-3.4-5.24-4.71-5.86-.75-8.61.25-7.34.94,3.11,2.67,3.38,2-1.78,3.61-2.57A4.39,4.39,0,0,1,361.32,302.24Z"/><path class="cls-2" d="M382.06,194.06a3.54,3.54,0,1,1-1.46-4.69A3.48,3.48,0,0,1,382.06,194.06Z"/><path class="cls-3" d="M381.69,192.92c-.49.39-1.4.05-2-.75s-.72-1.77-.22-2.15,1.4,0,2,.75S382.19,192.54,381.69,192.92Z"/><path class="cls-3" d="M378.25,193.78a3.2,3.2,0,0,0-2.22-.38s-6.31,12.84-7.54,15.08c-.05.61,1.49,1.75,2.23,1.23,1.23-2.23,9-14.26,9-14.26C379.8,194.84,378.71,193.94,378.25,193.78Z"/><path class="cls-20" d="M370.7,209.52c-.13.23-.7.16-1.28-.16s-.94-.77-.81-1,.7-.16,1.28.16S370.83,209.29,370.7,209.52Z"/><g class="cls-21"><path class="cls-3" d="M368.77,208.24a1.12,1.12,0,0,1,1.1.15l8-14.7a2.71,2.71,0,0,0-1.64-.13S370,206,368.77,208.24Z"/></g><path class="cls-6" d="M370.29,199.58c-1.07.1-2.63,1.75-4.76,3.7-.54.48-2.08,1.48-2.54,1.9-.27.24.11,6.12,1.14,5.7,1.66-.68,3.07-2.82,3.48-2.72,2.39.56,4.47-1.87,4.83-2.59C372.9,204.67,370.29,199.58,370.29,199.58Z"/><path class="cls-6" d="M372.53,199.48a3.92,3.92,0,0,1,2.37.8c1.15,1.07,2.25,2.25,2.09,2.81-.25.9-2.61-1.51-2.61-1.51l-1.68-.1a8.27,8.27,0,0,1,2.47,1.29,2.62,2.62,0,0,1,1.2,2.59c-.18.59-1-.69-2-1.25-.8-.45-1.11-.36-1.11-.36a11.5,11.5,0,0,1,1.24.79c.71.53,1.49.83,1.52,1.48s-1.3-.09-2.49-.61a2.82,2.82,0,0,0-1.75-.16,4.74,4.74,0,0,1,1.76.35c.91.39,1.81.92,1.65,1.4s-1.23,0-2.39-.24c-.87-.19-1.89.24-2.39.12-.95-.23-1.39,0-1.73-1.07a4.5,4.5,0,0,1,0-.82,4.69,4.69,0,0,1-.4-1.46c0-.56.59-1.2.49-1.56-.36-1.27.53-1.31.74-1.56C369.8,200,369.76,198.9,372.53,199.48Z"/><path class="cls-7" d="M364.59,203.69c-.3,1.11-.42,6.94,1,8.76a5.38,5.38,0,0,1-3.52,1.43s-.39-8.09.29-8.57C363.43,204.55,364.59,203.69,364.59,203.69Z"/><path class="cls-2" d="M388.73,311.36c0-3.71,1.77-55.94,2.8-64.32h0c.52-4.09,1.13-8.13,2.53-11.38h0c1.32-3.22,3.89-5.91,7.77-6h0c1.36,0,2.53-.07,3.55-.07h0a61.86,61.86,0,0,1,10.28,1h0l-.43,3.21a58.75,58.75,0,0,0-9.85-.94h0c-1,0-2.1,0-3.44.07h0c-2.39.12-3.68,1.37-4.91,4h0c-1.15,2.64-1.78,6.48-2.28,10.5h0c-1,7.84-2.78,60.51-2.77,63.91h-3.25Z"/><path d="M374.65,284.33c-1.09,1.71-.43,2.7,5.32-.93,4.35-2.75,12.58-5.75,10.56-7.94S376.67,281.12,374.65,284.33Z"/><path class="cls-8" d="M374.84,272.36a174.58,174.58,0,0,1,4.37,17.79s13.17-.59,12.66-1.39a69.48,69.48,0,0,1-7.42-15.92C383.43,270.18,374.84,272.36,374.84,272.36Z"/><path class="cls-8" d="M378.78,230.27c2.79,2,3.2,7.5,4.06,9.37,4.05,8.87,8,36.41,8,36.41s-5.91,1.52-7.26,2.87-9.29,6.84-9.29,6.84-8.11-28-9.46-37.42.84-16.38,4.56-19.09S378.78,230.27,378.78,230.27Z"/><path class="cls-8" d="M402,291.1a6.71,6.71,0,0,1,.72,2c.05.81-1.35,2.94-3,4s-7.7,2.38-10.81,1.26-3.74-2.8-4.76-3.09-2.53-.57-2.53-.57-2-1.62-1.65-2.31S402,291.1,402,291.1Z"/><path d="M388.83,283.36c1.23,1.86,6.28,4.19,8.1,5.15s4.94,1.36,5.18,3.33-1.26,3-3.56,3.89-8.68,3.12-11.49.34a10,10,0,0,0-6.47-3.29c-1.43-.18-3.37-8-2-7.07s1.86,2.67,3.59,2.4,1.3-2.3,2.64-3.56A4.37,4.37,0,0,1,388.83,283.36Z"/><path d="M369,229.13c4.56,1.26,7.28,7.22,7.53,9.75s10.65,38,10,38.86c-.33.42-11,6.25-11,6.25S363.75,248.76,364,241.92,365.17,228.07,369,229.13Z"/><path class="cls-9" d="M388.27,218c-.77-.46-2.11-1.34-3.29-2a9.19,9.19,0,0,1-3.79-2.38c-.37-.44-1.34-.37-1,.25A14.68,14.68,0,0,0,381.8,216c.72.86-2.76.55-3.58.47s-4.9.39-5,1.08c-.11,1,4.82.09,4.75.48s-5.39,0-5.23.6c.33,1.22,4.59.76,5.08,1.36l-2.16.06c-1,0-2.26-.4-2.4-.09-.68,1.54,5.53,1.26,5.27,2.08-.19.64-3.52.28-3.29,1.05.12.39,4.41.37,4.41.37s2.41,1,7.41.47a27.07,27.07,0,0,1,5.21.91l.82-5.35A24.37,24.37,0,0,1,388.27,218Z"/><path class="cls-7" d="M388.07,217.43a76.18,76.18,0,0,1-.94,10.38c-.14.36,4.75-.08,4.75-.08l-.14-9.1Z"/><path class="cls-8" d="M406.53,197.7c2.66.64,3.73,3.63,3.93,5.83s3.89,22.18-1.35,26.74c-1.17,1-15.1,1.46-19.64.38,2.06-6.44.68-12.55,1.27-12.42,3.65.82,9.91,2,10.6,1.48s.24-8.82.42-13C402.14,198,406.53,197.7,406.53,197.7Z"/><path class="cls-3" d="M39.37,304.58s8.29-56.13,9.08-60.18h0c.07-.21,0-.08.13-.45h0a8.4,8.4,0,0,1,.85-2.15h0a6.33,6.33,0,0,1,4.94-3.21h0l.3,2.61a4.11,4.11,0,0,0-3.56,3.55h0v0h0l0,.1V245a.09.09,0,0,0,0,.05h0l0,.06h0a.92.92,0,0,1-.09.23h0v0h0c-.08.43-.18,1.08-.31,1.89h0c-.26,1.65-.63,4-1.06,6.83h0c-.87,5.66-2,13.2-3.13,20.74h0C44.21,289.88,42,304.94,42,305h0l-2.6-.38Zm9.51-58.89,0,0h0l0,0Z"/><path class="cls-2" d="M124.88,244.91c-.84-3.82-1.75-7.32-3-9.7h0c-1.36-2.39-2.74-3.52-5.09-3.56h0l-.38,0h0a61.52,61.52,0,0,0-13.58,1.9h0l-.63-2.77a65.06,65.06,0,0,1,14-2h.57c3.55,0,6.08,2.17,7.58,5h0c1.56,2.88,2.46,6.56,3.32,10.44h0c1.78,8.14,6.74,52.61,7.07,56.21h0l-2.83.26c-.3-3.4-5.33-48.21-7-55.86Z"/><path class="cls-4" d="M43,197.83c-2.22.59-3.45,2.18-2.41,5.83C42,208.49,46.39,222,47.2,229c.84,7.44,5,15.2,4.7,24.33-.17,5.91,3.13,5.32,3.13,5.32l44.85-8.87s-1.28-13.29-3-28.13c-1.28-10.81-5.93-21.64-8.37-25.34-.83-1.23-4.06-2.41-5.07-2.53C80.08,193.36,51.56,195.57,43,197.83Z"/><path class="cls-5" d="M42.22,199.27c3.29.5,6.25,7.94,8,16s5.9,33.28,4.41,37.76c-.68,2-2.4,5.65-2.58,2.95s-3.34-21-4.7-27.7c-2.37-11.66-7.22-23.84-7.27-25.68C40,199.27,42.22,199.27,42.22,199.27Z"/><path class="cls-4" d="M128.5,254.25c1.71,3.1-3,3.64-3,3.64s-40.2,10.05-42.74,8.53-5.07-4.73-14.7-5.32c-3-.19-8.26,3.21-11.64,1.52,0,0-2.87-3.72-.34-6.76s41.21-9.46,44.76-9.46,18.29.14,22.47,2.53C126.81,251,127.15,251.8,128.5,254.25Z"/><path class="cls-5" d="M82.5,259.92C80,258.48,71.8,255.36,64.32,256c-6.61.6-9.15,1.25-9.52,3s.21,3.46,3.63,4.14,11.88-2.78,15.29-1.44c5.57,2.2,6.43,5.41,8.14,5.41C86.57,267.18,84.58,261.13,82.5,259.92Z"/><path class="cls-22" d="M101.47,237.37c7.51-.6,21.16-.64,23.48,1.68,3.55,3.55,4.8,6.54,3,11.49-.89,2.49-7.15,35.49-6.47,39.5.82,5,3.78,10.32,9.74,12.54-3.08,2.3-10.09,4-13.26-3.51-1.27-3-2.44-3.94-3.62-5.61-2-2.85,1.78-1.81,1.23-8.36s-2.44-17.23,2.87-33.22c.45-1.33-23,5-30.58-4.24C86.44,245.87,101.47,237.37,101.47,237.37Z"/><path class="cls-8" d="M114.35,290.45c-1.15.92-1.87,4-1.18,6.29s2.33,7.21,1.89,9c1.22.28,1.25,0,1.25,0s-.93-7.36-1.09-7.84c-.39-1.18,3,5.38,5.11,7.67s5.91,2.55,10.22,1.28c.79-.24,3.3-3.39,1.45-4.07a17.37,17.37,0,0,1-3.45-1.82s-6.46,2.47-8.54-.5S114.35,290.45,114.35,290.45Z"/><path class="cls-9" d="M96.15,239.9c9.63-.51,23.63-1.15,25.85,1.26,1.59,1.72,2.44,3.67.76,10.14-.67,2.56-13,36.16-12.34,40.17.82,5,2.55,11.13,8.51,13.35a8.94,8.94,0,0,1-12.45-2.52c-1.9-2.66-2.34-4.55-3.52-6.21-2-2.85,1-4,1-9.48,0-6.58-2.79-21.48,4.07-33.29.7-1.21-8.84,3.56-18.47-2.53C87.62,249.56,96.15,239.9,96.15,239.9Z"/><path d="M102.21,292.44c-1.14.93-1.86,4-1.17,6.29s2.32,7.21,1.89,9c1.22.29,1.25,0,1.25,0s-.93-7.35-1.1-7.83c-.39-1.18,3,5.38,5.11,7.66s5.92,2.56,10.23,1.28c.79-.23,3.3-3.38,1.45-4.06a18,18,0,0,1-3.45-1.82s-6.46,2.47-8.54-.51S102.21,292.44,102.21,292.44Z"/><path class="cls-14" d="M66,234.49c-1.86,11.49.57,16.94,5.23,19.09,6.85,3.15,15.79-1.45,24.42.13,2.48.45,6.2,9,6.5,11.87.48,4.7,5.4-15,18.08-22.9,1.2-.74-20.11-6.67-28-10.72C84.66,228.11,67.13,227.49,66,234.49Z"/><path class="cls-15" d="M96.57,231.28c1.07,1.88,3.24,4.83,4.73,4.56,18.59-3.29,21.63-.67,24.16,1.69a9.76,9.76,0,0,1,2.88,4.77c.38.58-4.74-1.56-7.61.3s-6.59,4.9-7.1,5.91-.16-7.94-6.58-7.94-23.49,3.38-26.86,0c-5.28-5.28-2.88-8.61-2.88-8.61Z"/><path class="cls-9" d="M85.68,204.13c-.41-2.06-.34-5.22-2.62-8.24-.71-4.83,2.11-5.83,3.88-6.17,0,0-13-14.39-13.6-8.44-.75,7.6-2.61,11.91-4.45,14.08A37.34,37.34,0,0,1,62.22,199C59.6,202.87,86.55,208.41,85.68,204.13Z"/><path class="cls-23" d="M84,193.1,71.92,207.23l-4.58-11.35a41.63,41.63,0,0,0,3.08-3.38c2.88-3.59,4.9-11.76,4.9-11.76S79.22,190.22,84,193.1Z"/><path class="cls-9" d="M104.68,230.13a11.6,11.6,0,0,1,7.55-1.21,18.79,18.79,0,0,1,4.24,2.45c.51.42-8.34,1.76-8.69,1.46S104.68,230.13,104.68,230.13Z"/><path class="cls-8" d="M87.08,197.86c3.07,1.89,8.84,23.5,10.46,25.95s7.2,3.89,8.83,4.43-4.81,6.23-6.16,6.5-10.69-16.75-12-23A65.94,65.94,0,0,1,87.08,197.86Z"/><path d="M82.55,171.29h0Z"/><path class="cls-7" d="M72.52,195.63c1.3.87,8,5.69,9.69,5.7,0,0,3.19-2.85,1.06-5.86-.78-1.1,1.25,1.66,2,1.66s11.3,32.43,8.47,35.17-9.91.58-12.15-1.37-14.73-35-14.73-35Z"/><path d="M69.46,192.43c1-1,6.34,9.12,13.55,23.67.43.87,2.75,5.38,2.92,14.51.06,3.06,3.91,14.76-1.69,16.38-4.51,1.31-19,3.52-23.14,1.35-1.94-1,3.46-10.14,2-17.9s-3.9-11.34-5.4-15.21a28.66,28.66,0,0,1-1.18-14.87C58.82,198,63,198.76,69.46,192.43Z"/><path d="M83.27,195.47c1.27,1.08,1.37.49,3,1.39s5.51,13.1,5.88,16.53,1.63,8.7,3.25,11.14,5.5,4.57,6.31,5.65-1.89,2.71-4.06,3-5.78-1.35-6-3,.32-10.65-.76-15.79S83.27,195.47,83.27,195.47Z"/><path class="cls-7" d="M81.43,191.87c.35.46,5.35,7.38,6.08,8-1.4.22-2.17-1.6-2.86-.05-.43,1-1.12.18-1.12.18a40.65,40.65,0,0,0-.92-5.19C82.24,194,81.43,191.87,81.43,191.87Z"/><path class="cls-7" d="M81,201.54c-2.52-1.17-8.31-.35-9.57.64,0,0-4.46-6.6-3.93-7.32.21-.27,3.12-4.69,3.12-4.69a12.79,12.79,0,0,0,3,5.33C76.11,198.09,75.81,197.93,81,201.54Z"/><polygon class="cls-2" points="78.16 238.63 102.78 239.94 119.08 230.48 94.12 231.41 78.16 238.63"/><polygon class="cls-7" points="83.48 236.98 102.95 237.57 114.1 231.58 94.25 232.67 83.48 236.98"/><path class="cls-7" d="M91.68,225a1.16,1.16,0,0,0-.19.57.89.89,0,0,0,.31.63,11,11,0,0,0,2.7,2.29c.1,0,.15-.06.13-.14a1.86,1.86,0,0,0-.49-.68.69.69,0,0,1-.36,0A16.15,16.15,0,0,1,92.29,226c-.06-.1,0-.17.13-.21A5.69,5.69,0,0,1,91.68,225Z"/><path d="M101.44,234.39s.1.28.06.32-.32-.09-.32-.09Z"/><path class="cls-24" d="M101.45,234.39a7.86,7.86,0,0,0-.79-1.24l-.64.59a9.45,9.45,0,0,0,1.17.9A3.51,3.51,0,0,0,101.45,234.39Z"/><path class="cls-19" d="M100.68,233.17c-.24-.38-4.47-5.24-4.47-5.24l-1.07,1s4.54,4.58,4.91,4.84C100.43,233.42,100.62,233.24,100.68,233.17Z"/><path class="cls-25" d="M92.18,224.63h0l.5-.53s-.59-.72-1.17-.2h0c-.57.54.06,1.14.1,1.18l.57-.45h0Z"/><path class="cls-19" d="M95.53,228.27l.17-.11,0,0,.38-.38s-3.26-3.62-3.46-3.75a6.41,6.41,0,0,0-.54.49c-.12.1-.29.26-.54.5.12.2,3.42,3.67,3.45,3.71l.41-.3,0,0Z"/><path class="cls-18" d="M96.21,227.93l-.51.48,4.67,5.06c.17-.15.27-.26.31-.3C100.44,232.79,96.21,227.93,96.21,227.93Z"/><path class="cls-18" d="M95.67,228.13l.38-.38s-3.27-3.63-3.47-3.77l-.51.49,3.49,3.79.14-.1Z"/><path class="cls-7" d="M91.53,223.88l.54.58.51-.49A.77.77,0,0,0,91.53,223.88Z"/><path class="cls-7" d="M96.3,227.9l-.25-.27h0l-.55.51.28.31.56-.51Z"/><path class="cls-9" d="M82.83,229.49c1.29.29,4.9-.39,6.23-.42,2.27,0,6.43-1.29,7.21-1.06A16.06,16.06,0,0,1,99,229c1,.58,1,1.18.52,1.64a.89.89,0,0,1-.71.12s.82.54.81,1c0,.88-.49.75-1.14.83.77.37.84,1.43-.32,1.44.72.8.19,1-1.71,1.32a43.59,43.59,0,0,1-8.2-.76,36.75,36.75,0,0,0-5.66-.19Z"/><polygon class="cls-7" points="87.72 227.72 90.25 228.64 88.62 236.91 84.44 236.01 87.72 227.72"/><path class="cls-8" d="M58,199.63c-3.07.83-4,5.47-3.24,9.26s3.29,20.17,6.17,22.77c3.93,3.55,26.18,7.48,26.18,7.48s.67-10.3,1.49-10.84-17.07-2.89-18.15-5.06-4.29-17.56-6.31-20.17C62.74,201.26,62.06,198.55,58,199.63Z"/><path class="cls-9" d="M106.36,230.09c.32.64,2,1.14,3.26.87a7.14,7.14,0,0,1,2.82.17c.65.06,1.62-.21.77-.66a14.67,14.67,0,0,0-2.62-1s-2.44-.79-3.89.06Z"/><path class="cls-9" d="M73.47,178.19c1-8,3.84-12.47,10.17-11.7S92,172.73,91,180.68c-.15,1.18-1.23,9.93-6.37,13.86-1.24.94-2.16.13-3.5-.29C75.08,192.38,72.51,186.14,73.47,178.19Z"/><path class="cls-8" d="M87.15,175.66c2.49,0,3.8,2.28,4.18,4.81,3.3-6.59-2.69-13.68-7.34-13.93-3.52-.2-5.75-.09-5.67,1.08S87.15,175.66,87.15,175.66Z"/><path d="M88.42,175.53c-1.5.41-9.43-.34-11.53,5.83,0,0-1.61-2.94-2.56-1.54a4.19,4.19,0,0,0,.53,5.25l-1.24,3.82s-5.1-3.27-5.34-11.51c-.28-9.36,9.8-14,16.3-11.14C87.72,167.61,88.42,175.53,88.42,175.53Z"/><path d="M75.07,185.19c-.58,2.25,1.79,9.31,2.26,10-3,.08-9.11-6-9.63-7.47s-1.24-12.56,2.11-16.1c2.33-2.48,1.28,4.6,1.59,7S75.07,185.19,75.07,185.19Z"/><path class="cls-2" d="M80.59,313.64c0-3.4-1.53-50.75-2.53-58.59h0c-.5-4.13-.78-8.55-2-11.72h0c-1.28-3.17-2.84-5-7-5.19h0c-.66,0-1.36,0-2.11,0h0a199,199,0,0,0-21.86,1.63h0l-.43-3.22A204.51,204.51,0,0,1,67,234.86h0c.78,0,1.53,0,2.23,0h0a10.26,10.26,0,0,1,9.87,7.31h0c1.42,3.88,1.65,8.47,2.16,12.45h0c1,8.37,2.53,55.29,2.54,59H80.59Z"/><rect class="cls-7" x="391.98" y="206.01" width="4.86" height="7.46" transform="translate(78.92 525.99) rotate(-73.07)"/><polygon class="cls-12" points="397.96 209.78 391.45 207.79 391.72 206.86 398.24 208.85 397.96 209.78"/><rect class="cls-16" x="200.3" y="194.15" width="5.83" height="3.8" transform="translate(-33.72 42.44) rotate(-11.02)"/><rect class="cls-12" x="200.33" y="194.54" width="5.32" height="0.75" transform="translate(-33.53 42.42) rotate(-11.02)"/><path class="cls-14" d="M157.52,308.46a.64.64,0,0,1-.59.68h-4.71a.65.65,0,0,1-.6-.68V269.84a.65.65,0,0,1,.6-.68h4.71a.64.64,0,0,1,.59.68Z"/><path class="cls-14" d="M318.69,308.46a.66.66,0,0,1-.62.68h-4.93a.65.65,0,0,1-.61-.68V269.84a.65.65,0,0,1,.61-.68h4.93a.66.66,0,0,1,.62.68Z"/><path class="cls-15" d="M332.58,269.46c.62.4-.37.87-.94.87H138.25c-.57,0-.86-.62-.15-1l11.84-8.24a4.47,4.47,0,0,1,1.77-.51h169a3.61,3.61,0,0,1,1.64.51Z"/><path class="cls-14" d="M332.9,281a1,1,0,0,1-.88,1.16H138.1c-.48,0-.87-.52-.87-1.16V270.48c0-.64.39-1.16.87-1.16H332a1,1,0,0,1,.88,1.16Z"/><path class="cls-14" d="M144.28,322.64a.77.77,0,0,1-.71.81h-5.64a.76.76,0,0,1-.7-.81V276.42a.77.77,0,0,1,.7-.82h5.64a.77.77,0,0,1,.71.82Z"/><path class="cls-14" d="M332.9,322.64a.78.78,0,0,1-.74.81h-5.9a.78.78,0,0,1-.74-.81V276.42a.78.78,0,0,1,.74-.82h5.9a.78.78,0,0,1,.74.82Z"/><path class="cls-26" d="M169.13,253.12c0,.3-1.8.55-4,.57s-4-.2-4-.5,1.8-.53,4-.56S169.13,252.84,169.13,253.12Z"/><path class="cls-27" d="M169.12,253.09h0s0,0,0,0Zm-8.07.07v0l0,0Zm4,.54c-2.12,0-3.85-.18-4-.45l1.47,11.66,0,0c0,.19,1.56.38,3.06.36s2.29-.2,2.36-.39h0l1.16-11.76C169.09,253.44,167.3,253.68,165.08,253.7Zm-4.05-.49,0,0,0-.07S161,253.2,161,253.21Zm8.09-.07Z"/><g class="cls-28"><g class="cls-29"><path class="cls-7" d="M162.54,264.91c0,.2,1.25.42,3.06.37,1.44,0,2.28-.2,2.36-.4h0l.89-9.19a18.24,18.24,0,0,1-7.46.12l1.15,9.07S162.54,264.9,162.54,264.91Z"/></g><g class="cls-30"><path class="cls-7" d="M168,264.89h0l.89-9.18a17.26,17.26,0,0,1-3.81.44l.21,9.13h.33C167,265.27,167.88,265.08,168,264.89Z"/></g></g><path class="cls-26" d="M219.81,251.77c0,.29-1.8.55-4,.57s-4.05-.21-4.05-.5,1.81-.53,4-.56S219.81,251.48,219.81,251.77Z"/><path class="cls-27" d="M219.8,251.74h0l0,0Zm-8.06.07h0Zm4,.54c-2.12,0-3.84-.18-4-.45l1.47,11.66h0c0,.2,1.56.39,3.06.37s2.28-.21,2.37-.39h0l1.16-11.76C219.78,252.08,218,252.33,215.76,252.35Zm-4-.49s0,0,0,0v-.08S211.71,251.84,211.71,251.86Zm8.09-.07Z"/><g class="cls-28"><g class="cls-29"><path class="cls-7" d="M213.22,263.56c0,.2,1.25.42,3.06.37,1.45,0,2.28-.21,2.36-.4h0l.9-9.19a18.29,18.29,0,0,1-7.47.12l1.15,9.07Z"/></g><g class="cls-30"><path class="cls-7" d="M218.64,263.54h0l.9-9.19a17.94,17.94,0,0,1-3.81.45l.2,9.13h.33C217.73,263.92,218.56,263.72,218.64,263.54Z"/></g></g><polygon class="cls-31" points="203.68 256.96 205.37 263.89 197.26 263.89 203.68 256.96"/><polygon class="cls-7" points="201.65 266.08 178 266.08 180.03 256.96 203.68 256.96 201.65 266.08"/><polygon class="cls-16" points="203.44 257.24 180 257.16 180.09 256.96 203.6 256.96 203.44 257.24"/><polygon class="cls-16" points="199.51 260.13 182.72 260.13 183.07 258.99 199.84 258.99 199.51 260.13"/><polygon class="cls-16" points="196.45 262.62 184.81 262.62 185.14 261.4 196.59 261.4 196.45 262.62"/><polygon class="cls-31" points="258.75 256.45 257.06 263.38 265.17 263.38 258.75 256.45"/><polygon class="cls-7" points="260.78 265.57 284.43 265.57 282.4 256.45 258.75 256.45 260.78 265.57"/><polygon class="cls-16" points="259 256.74 282.44 256.65 282.34 256.45 258.84 256.45 259 256.74"/><polygon class="cls-16" points="262.93 259.63 279.71 259.63 279.36 258.48 262.6 258.48 262.93 259.63"/><polygon class="cls-16" points="265.98 262.12 277.63 262.12 277.3 260.89 265.84 260.89 265.98 262.12"/><polygon class="cls-31" points="245.24 256.96 246.93 263.89 238.82 263.89 245.24 256.96"/><polygon class="cls-7" points="246.17 266.08 219.56 266.08 221.59 256.96 245.24 256.96 246.17 266.08"/><polygon class="cls-16" points="245 257.24 221.56 257.16 221.65 256.96 245.16 256.96 245 257.24"/><polygon class="cls-16" points="241.9 260.26 224.7 260.26 225.05 259.11 241.82 259.11 241.9 260.26"/><polygon class="cls-16" points="238.95 262.75 227 262.75 227.33 261.52 238.79 261.52 238.95 262.75"/><path class="cls-32" d="M305.71,264.1c-.65,0-1-.84-1-1.77h0V249.26a4.17,4.17,0,0,1,1.74-2.62h0c.16-.22.19-.12.2-.59h0c0-.13,0-.28,0-.47h0v-.14h.14c1,0,1.35-.05,1.38.08h0l.14-.14h.06c.05,0,.05,0,.19.14h0l-.14-.14,1.52.06h.17l-.05.17a2.33,2.33,0,0,0-.07.5h0c0,.32.11.33.27.52h0a4.32,4.32,0,0,1,1.74,2.63h0v13.07c0,.93-.39,1.74-1,1.77h-5.21Zm1.19-18.05a.9.9,0,0,1-.3.79h0a4,4,0,0,0-1.64,2.42h0v13.07c0,.88.41,1.49.75,1.49h5.21c.34,0,.75-.61.75-1.49h0V249.26a4.17,4.17,0,0,0-1.65-2.43h0l.09-.11-.12.08a.87.87,0,0,1-.32-.69h0a2.25,2.25,0,0,1,0-.41h0a4.73,4.73,0,0,1-1.37-.14h0l0,0,.05.06h-.05s-.05,0,0,0h0l0,0-1.37,0h0c0,.14,0,.25,0,.35Zm1.42-.46,0,0h0l-.1,0h0l.08.07Z"/><path class="cls-33" d="M310.12,246.75c-.17-.22-.43-.29-.22-1.15l-1.51-.06h-.12l-1.51.06c.07,1,0,.93-.22,1.14a4.05,4.05,0,0,0-1.7,2.54v13.08c0,.9.39,1.63.89,1.63h5.21c.49,0,.89-.73.89-1.63V249.28A4,4,0,0,0,310.12,246.75Z"/><path class="cls-34" d="M311.45,251.94l0,10.19c0,.84-.36,1.52-.8,1.52H306c-.44,0-.8-.68-.8-1.52l-.1-10.23A31.5,31.5,0,0,0,311.45,251.94Z"/><path class="cls-35" d="M311.43,251.87a26.62,26.62,0,0,1-6.35,0,26.62,26.62,0,0,1,6.35,0Z"/><path class="cls-36" d="M307,261.94V249.06a4,4,0,0,1,1.69-2.5c.15-.2.25-.2.23-.89h-.56l-1.49.05c.07.95,0,.92-.21,1.13a4,4,0,0,0-1.68,2.5v12.89c0,.89.39,1.6.87,1.6H311a.66.66,0,0,0,.47-.28h-3.58C307.36,263.55,307,262.83,307,261.94Z"/><polygon class="cls-37" points="309.95 245.7 308.84 248.39 306.54 247.8 306.88 245.65 309.95 245.7"/><path class="cls-38" d="M310.1,245.92v-1.21c0-.42-.21-.76-.47-.76h-2.72c-.26,0-.46.34-.46.76v1.21Z"/><path class="cls-7" d="M309.85,245.56a.1.1,0,0,1-.09.09h0a.1.1,0,0,1-.08-.09v-1.07a.09.09,0,0,1,.08-.09h0a.09.09,0,0,1,.09.09Z"/><path class="cls-7" d="M309.51,245.56a.09.09,0,0,1-.08.09h0a.1.1,0,0,1-.08-.09v-1.07a.09.09,0,0,1,.08-.09h0a.08.08,0,0,1,.08.09Z"/><path class="cls-7" d="M309.18,245.56a.1.1,0,0,1-.08.09h0a.1.1,0,0,1-.08-.09v-1.07a.09.09,0,0,1,.08-.09h0a.09.09,0,0,1,.08.09Z"/><path class="cls-7" d="M308.85,245.56a.09.09,0,0,1-.08.09h0a.1.1,0,0,1-.08-.09v-1.07a.09.09,0,0,1,.08-.09h0a.08.08,0,0,1,.08.09Z"/><path class="cls-7" d="M308.52,245.56a.1.1,0,0,1-.08.09h0a.09.09,0,0,1-.08-.09v-1.07a.08.08,0,0,1,.08-.09h0a.09.09,0,0,1,.08.09Z"/><path class="cls-7" d="M308.18,245.56a.09.09,0,0,1-.08.09h0a.1.1,0,0,1-.08-.09v-1.07a.09.09,0,0,1,.08-.09h0a.08.08,0,0,1,.08.09Z"/><path class="cls-7" d="M307.85,245.56a.1.1,0,0,1-.08.09h0a.1.1,0,0,1-.08-.09v-1.07a.09.09,0,0,1,.08-.09h0a.09.09,0,0,1,.08.09Z"/><path class="cls-7" d="M307.52,245.56a.1.1,0,0,1-.08.09h0a.1.1,0,0,1-.08-.09v-1.07a.09.09,0,0,1,.08-.09h0a.09.09,0,0,1,.08.09Z"/><path class="cls-7" d="M307.19,245.56a.09.09,0,0,1-.08.09h0a.09.09,0,0,1-.08-.09v-1.07a.08.08,0,0,1,.08-.09h0a.08.08,0,0,1,.08.09Z"/><path class="cls-7" d="M306.86,245.56a.1.1,0,0,1-.08.09h0a.1.1,0,0,1-.09-.09v-1.07a.09.09,0,0,1,.09-.09h0a.09.09,0,0,1,.08.09Z"/><path class="cls-39" d="M151.73,248.15c-.18-.21-.43-.27-.23-1.14L150,247h-.13l-1.5.06c.06,1-.05.93-.23,1.14a4.2,4.2,0,0,0-1.7,2.54v13.08c0,.9.4,1.63.89,1.63h5.21c.49,0,.89-.73.89-1.63V250.69A4.34,4.34,0,0,0,151.73,248.15Z"/><path class="cls-40" d="M153.08,253.37v10.2c0,.84-.36,1.52-.8,1.52h-4.72c-.44,0-.8-.68-.8-1.52l-.1-10.24A30.72,30.72,0,0,0,153.08,253.37Z"/><path class="cls-34" d="M153,253.3a13.08,13.08,0,0,1-3.17.19,13.08,13.08,0,0,1-3.17-.19,13.71,13.71,0,0,1,3.17-.19A13.71,13.71,0,0,1,153,253.3Z"/><path class="cls-41" d="M148.59,263.38V250.5a4,4,0,0,1,1.69-2.51c.15-.19.25-.19.22-.88l-.43,0H150l-1.48.06c.06.94-.05.91-.22,1.13a4,4,0,0,0-1.68,2.5v12.88c0,.89.39,1.61.87,1.61h5.14a.64.64,0,0,0,.47-.29h-3.58C149,265,148.59,264.27,148.59,263.38Z"/><polygon class="cls-42" points="151.56 247.14 150.46 249.83 148.16 249.23 148.5 247.09 151.56 247.14"/><path class="cls-15" d="M151.72,247.35v-1.2c0-.42-.21-.77-.47-.77h-2.72c-.26,0-.47.35-.47.77v1.2Z"/><path class="cls-43" d="M151.46,247a.09.09,0,0,1-.08.1h0a.1.1,0,0,1-.08-.1v-1.06a.09.09,0,0,1,.08-.1h0c.05,0,.08,0,.08.1Z"/><path class="cls-43" d="M151.13,247a.09.09,0,0,1-.08.1h0a.1.1,0,0,1-.08-.1v-1.06a.09.09,0,0,1,.08-.1h0s.08,0,.08.1Z"/><path class="cls-43" d="M150.8,247a.1.1,0,0,1-.08.1h0a.1.1,0,0,1-.08-.1v-1.06a.09.09,0,0,1,.08-.1h0a.09.09,0,0,1,.08.1Z"/><path class="cls-43" d="M150.47,247a.1.1,0,0,1-.08.1h0a.09.09,0,0,1-.08-.1v-1.06c0-.06,0-.1.08-.1h0a.09.09,0,0,1,.08.1Z"/><path class="cls-43" d="M150.14,247a.1.1,0,0,1-.08.1h0a.09.09,0,0,1-.08-.1v-1.06c0-.06,0-.1.08-.1h0a.09.09,0,0,1,.08.1Z"/><path class="cls-43" d="M149.8,247a.09.09,0,0,1-.08.1h0a.1.1,0,0,1-.08-.1v-1.06a.09.09,0,0,1,.08-.1h0c.05,0,.08,0,.08.1Z"/><path class="cls-43" d="M149.47,247a.09.09,0,0,1-.08.1h0a.1.1,0,0,1-.08-.1v-1.06a.09.09,0,0,1,.08-.1h0c.05,0,.08,0,.08.1Z"/><path class="cls-43" d="M149.14,247a.1.1,0,0,1-.08.1h0a.09.09,0,0,1-.08-.1v-1.06c0-.06,0-.1.08-.1h0a.09.09,0,0,1,.08.1Z"/><path class="cls-43" d="M148.81,247a.1.1,0,0,1-.08.1h0a.1.1,0,0,1-.09-.1v-1.06a.09.09,0,0,1,.09-.1h0a.09.09,0,0,1,.08.1Z"/><path class="cls-43" d="M148.47,247a.09.09,0,0,1-.08.1h0s-.07-.05-.07-.1v-1.06c0-.06,0-.1.07-.1h0c.05,0,.08,0,.08.1Z"/></g></g></svg>