<svg width="450" height="450" xmlns="http://www.w3.org/2000/svg" xmlns:xlink="http://www.w3.org/1999/xlink">
 <defs>
  <linearGradient y2="-0.75762" x2="-0.58506" y1="0.90025" x1="1.07842" id="linear-gradient">
   <stop stop-color="#fff" offset="0"/>
   <stop stop-color="#c6c0b9" offset="0.52"/>
  </linearGradient>
  <linearGradient y2="0.2416" x2="0.56483" y1="0.73915" x1="0.44778" id="linear-gradient-2">
   <stop stop-color="#fff" offset="0"/>
   <stop stop-color="#fbfafa" offset="0.13"/>
   <stop stop-color="#eeebea" offset="0.29"/>
   <stop stop-color="#d9d2d0" offset="0.47"/>
   <stop stop-color="#bcb0ac" offset="0.66"/>
   <stop stop-color="#b3a6a1" offset="0.71"/>
  </linearGradient>
  <linearGradient y2="-0.47445" x2="0.51906" y1="0.5292" x1="0.4956" id="linear-gradient-3">
   <stop stop-color="#fff" offset="0.1"/>
   <stop stop-color="#efefef" offset="0.17"/>
   <stop stop-color="#c6c6c6" offset="0.31"/>
   <stop stop-color="#838383" offset="0.49"/>
   <stop stop-color="#272727" offset="0.72"/>
   <stop offset="0.81"/>
  </linearGradient>
  <linearGradient xlink:href="#linear-gradient-3" y2="245.78" x2="149.92" y1="248.53" x1="149.85" id="linear-gradient-4"/>
 </defs>
 <g>
  <title>Layer 1</title>
  <g id="svg_1" isolation="isolate" class="cls-1">
   <g data-name="Layer 6" id="Layer_6">
    <path id="svg_2" fill="#999daa" d="m308.59,378.7c0,-3.38 -2.4,-57.29 -3.29,-65.21l0,0c-0.38,-3.54 -0.36,-7 -0.94,-9.35l0,0c-0.73,-2.34 -1.18,-3.11 -3.63,-3.24l0,0c-6.12,0 -8.86,1.19 -13.8,2.49l0,0l-0.78,-2.94c4.69,-1.24 8,-2.6 14.58,-2.59l0,0c3.82,-0.12 6,2.66 6.58,5.57l0,0c0.7,2.93 0.64,6.42 1,9.72l0,0c0.92,8.32 3.3,61.84 3.31,65.55l-3,0l-0.03,0z" class="cls-2"/>
    <path id="svg_3" fill="#999daa" d="m237,378.7c0,-3.71 2.39,-57.23 3.31,-65.55l0,0c0.37,-3.3 0.3,-6.79 1,-9.72l0,0c0.56,-2.91 2.77,-5.69 6.59,-5.57l0,0c6.55,0 9.89,1.36 14.58,2.59l0,0l-0.78,2.93c-4.95,-1.3 -7.68,-2.47 -13.8,-2.48l0,0c-2.45,0.13 -2.9,0.9 -3.63,3.24l0,0c-0.58,2.33 -0.56,5.81 -0.94,9.35l0,0c-0.89,7.93 -3.3,61.83 -3.29,65.21l-3,0l-0.04,0z" class="cls-2"/>
    <path id="svg_4" fill="#afb3bc" d="m296,309.26c0,-0.08 0,-0.18 -0.06,-0.29l0,0a6,6 0 0 0 -0.52,-1.26l0,0a3.77,3.77 0 0 0 -3,-2l0,0l0.26,-2.42a6.24,6.24 0 0 1 4.88,3.17l0,0a8.3,8.3 0 0 1 0.85,2.21l0,0a0,0 0 0 0 0,0l0,0a0.7,0.7 0 0 1 0,0.14l0,0c0,0.05 0,0.08 0,0.11l0,0a1.91,1.91 0 0 0 0,0.2l0,0l0,0.17l0,0s0,0.1 0,0.16l0,0c0.19,2.68 1.36,17.46 2.52,32l0,0c1.27,16 2.55,31.81 2.55,31.85l0,0l-2.43,0.19c0,-0.05 -4.87,-60.63 -5.1,-64.3l0.05,0.07z" class="cls-3"/>
    <path id="svg_5" fill="#afb3bc" d="m246.13,374.38c0,-0.06 4.66,-58.24 5.06,-63.84l0,0a0.86,0.86 0 0 1 0,-0.16l0,0a1.24,1.24 0 0 1 0,-0.27l0,0a0,0 0 0 1 0,0l0,0l0,-0.11l0,0c0,-0.05 0,-0.1 0,-0.15l0,0a0.63,0.63 0 0 1 0,-0.12l0,0a8.23,8.23 0 0 1 0.86,-2.25l0,0a6.28,6.28 0 0 1 4.88,-3.16l0,0l0.27,2.42a4.18,4.18 0 0 0 -3.64,3.6l0,0c-0.29,4.41 -5.08,64.17 -5.08,64.22l0,0l-2.43,-0.2l0.08,0.02z" class="cls-3"/>
    <path id="svg_6" fill="#4a75dd" d="m297.44,304c-1,-6.85 -0.26,-20.28 1.27,-25.6s-0.26,-8.87 -0.26,-8.87c-2.71,-3.83 -14.7,-4.24 -23.76,-3.83c-9.06,-0.41 -21,0 -23.76,3.83c0,0 -1.77,3.55 -0.25,8.87s2.32,18.7 1.26,25.6s-6.08,13.68 -4.31,16.21c1,1.36 10.74,2 19.64,2.28l14.84,0c8.9,-0.29 18.69,-0.92 19.64,-2.28c1.77,-2.58 -3.3,-9.42 -4.31,-16.21z" class="cls-4"/>
    <path id="svg_7" fill="#4a75dd" d="m241.94,325a7.21,7.21 0 0 0 2.79,4.56c3.29,0 59.55,0.25 60.56,-0.51s1.52,-3 1.78,-4.81s0,-6.84 -2.28,-7.35a33.31,33.31 0 0 0 -8.28,-0.34c-2.54,0.17 -45.11,-0.17 -45.11,-0.17s-6.66,-0.76 -8.28,1.86a11.59,11.59 0 0 0 -1.18,6.76z" class="cls-4"/>
    <path id="svg_8" fill="#6597ef" d="m242.83,319.15a5.09,5.09 0 0 1 4.81,-2.66c1.27,0.25 55,-0.89 56.51,-0.13s2.41,1.52 2,1.9c-1.48,1.48 -22.43,0.64 -32.31,0.89s-31.01,0 -31.01,0z" class="cls-5"/>
    <path id="svg_9" fill="#cc9483" d="m274.25,257.32c-0.25,1.52 1.73,5.62 0.13,7.22s-6.84,2.92 -7.77,3.34s8.53,5.83 11.57,6.42s11.49,-5.07 11.49,-5.07s-2.75,-2.46 -3.89,-3.8s-0.51,-4.73 -0.34,-6.67s-11.19,-1.44 -11.19,-1.44z" class="cls-6"/>
    <path id="svg_10" d="m285.82,304.92c5.6,4.56 8.9,11.68 8.33,14.82c-0.42,2.28 0.16,7.44 0.16,8.28c0,2.37 -29.73,2.87 -31.42,-1.35c-0.83,-2.08 -0.39,-4.65 -2.53,-6.42c-1.65,-1.36 -4.09,-1.37 -4.4,-1.52c-8.1,-3.89 -0.16,-12.17 3,-13.24s26.86,-0.57 26.86,-0.57z"/>
    <path id="svg_11" fill="#fff" d="m287.76,267.11c-1.37,1.87 -8,4.74 -8.06,5.16c-1.47,-0.79 -6.78,-3 -7.69,-6.08c0,0 -5.4,3.21 -8.78,3c4,9 2.18,25.17 -1.13,29.8c-2.92,4.08 -1.77,6.11 -1.77,6.11l8.69,0.14l12.45,-2.43s6.91,3 5.91,-0.37s6,-27.17 8.28,-29.2l-7.9,-6.13z" class="cls-7"/>
    <path id="svg_12" fill="#26282d" d="m288.57,267.07c3.55,1.89 7.22,1.91 8.11,2.92c0,0 -1.83,13.48 -2.54,15.08c-0.29,0.67 0,4.36 -0.88,6.46c-1.21,2.88 -3.35,6.34 -3.17,8.24c0.29,3.27 5.32,10 4.43,14.44c-0.25,1.26 -5.1,-5.24 -10.51,-6.08c-3.3,-0.52 -11.81,1.35 -11.45,-0.73s4.44,-16.06 4.44,-16.06s7.53,-14.84 9.13,-16.7s2.44,-7.57 2.44,-7.57z" class="cls-8"/>
    <path id="svg_13" d="m286.54,265.09l4.39,1.86l0,5.15l-2.78,-0.76l1.6,2.71a32.82,32.82 0 0 1 -4.9,7.85c-1.4,1.69 -6.92,13 -6.92,13s1.28,-8.93 3.45,-13.08a123.16,123.16 0 0 0 5.33,-12a7.17,7.17 0 0 0 -0.17,-4.73z"/>
    <path id="svg_14" d="m269.65,266.36c-5.92,2.7 -9.64,3 -10.82,3.71c0,0 1.23,17.18 1.36,18.92s0.5,5.15 -0.86,8.12s-8.64,11.9 -8.52,18.74c0,1.3 7.48,-6.84 15.44,-7.73c3.32,-0.37 11.34,1.44 11.34,0.64c0,-4.71 0.44,-6.73 2,-18.75c0,0 -5.62,-16 -6.52,-18.29a24.78,24.78 0 0 0 -3.42,-5.36z"/>
    <path id="svg_15" fill="#26282d" d="m273.36,264l-5.57,3.21l-0.1,4.24l3.52,-0.31l-1.8,3.94s-0.59,0.22 2.81,4.8c1.31,1.79 7.1,13.3 7.1,13.3s0.64,-2.26 -0.38,-6.84c-1.1,-4.94 -4.85,-12.6 -5.45,-15a15.65,15.65 0 0 1 -0.13,-7.34z" class="cls-8"/>
    <path id="svg_16" fill="#e0ac9b" d="m288.38,249.78c0.34,6.81 -2.83,13.54 -6,14.12c-3.6,0.64 -10.06,-2.24 -13,-10.5c-2.39,-6.8 -1.74,-13.56 7,-15.14c8.2,-1.49 11.62,4.37 12,11.52z" class="cls-9"/>
    <path id="svg_17" fill="#ba784a" d="m277.55,238.4c-0.51,0.4 4.2,-2.31 8.87,0.93c0.08,0 2.28,1.52 3.36,6.48a2.42,2.42 0 0 0 2.72,2s-0.44,2.15 -1.4,2.4c0.55,0.62 1.52,1.4 2.28,-0.25c1.14,4.69 2,6.68 -1.14,9.88a7.55,7.55 0 0 1 -7.22,2.29a10.38,10.38 0 0 0 0.82,-1.34c-0.25,0.56 3.23,-4.64 1,-12.24c-1,-3.31 -3.49,-3 -8,-4.17c-0.03,0.01 -0.93,-6.27 -1.29,-5.98z" class="cls-10"/>
    <path id="svg_18" fill="#a0593a" d="m262.05,253.78a2.71,2.71 0 0 0 2.82,0a5.11,5.11 0 0 1 -2.5,-0.9s2.8,-0.14 2.92,-4.89c0.06,-2 1.41,-4 3.4,-6.47a8,8 0 0 1 1.12,-1.32a6.05,6.05 0 0 1 1.24,-0.9s0,0 0,0l0.1,0c4.3,-2.48 8.08,-1.16 8.05,0.12c0,0.44 1.14,4.47 1.14,4.47c-0.9,2.8 -6.72,2.7 -7.61,6.69c-1.54,6.43 0,7.1 1.65,7.9a2.51,2.51 0 0 1 -1.57,0.45a6.45,6.45 0 0 0 3.09,1.1c-0.92,1.32 -1.46,2.35 -1.89,1.93c0.35,0.37 2.13,0.43 2.13,0.43s-2.1,3.74 -7.12,1.86c-3.77,-1.52 -6.6,-4.15 -6.97,-10.47z" class="cls-11"/>
    <path id="svg_19" fill="#e0ac9b" d="m268.2,309c0.14,0.17 6.79,0.16 7,0.31c1.43,1.1 3.76,1.37 5.18,1.59c2,0.28 1.28,0.07 3,1.1s2.05,1.07 2.3,0.83s-0.8,-0.94 -1.67,-1.71s-3,-1.58 -2.56,-1.6s4.11,2.29 4.7,2.57s2.07,0.61 1.56,0s-3.52,-2.68 -4,-3s3.94,2.35 4.32,2.48s0.56,-0.33 -0.16,-0.94c-0.49,-0.44 -3.66,-2.71 -4,-2.94a11.74,11.74 0 0 1 1.62,0.71l1.56,0.9c0.83,0.5 1.68,0.43 0.69,-0.38s-1.36,-1.33 -1.78,-1.54a18.47,18.47 0 0 0 -2.82,-1c-0.46,-0.11 -5.57,-0.74 -6.83,-1c-3.74,-0.73 -6.07,-0.93 -6.62,-1l-1.49,4.62z" class="cls-9"/>
    <polygon id="svg_20" fill="#fff" points="270.7699890136719,303.22999572753906 274.1199951171875,304.7100067138672 272.5199890136719,310.6999969482422 269.2300109863281,310.7100067138672 270.6300048828125,304 270.7699890136719,303.22999572753906 " class="cls-7"/>
    <path id="svg_21" d="m260.69,269.9c-1.58,0 -3.5,-0.29 -5.4,7.94c-1.45,6.28 -5.47,23.52 -4.22,25.85c2.15,4.06 16.81,9 19.13,8.49a42.9,42.9 0 0 0 2.09,-7.35l-9.57,-5.06c-0.37,-1.24 1.08,-12.45 0.25,-15.21c-0.48,-1.62 -2.28,-14.66 -2.28,-14.66z"/>
    <path id="svg_22" fill="#e0ac9b" d="m298.46,298.76c-0.12,0.18 -6.75,0.72 -6.92,0.88c-1.34,1.21 -3.64,1.68 -5,2c-1.94,0.44 -1.28,0.18 -2.88,1.34s-2,1.24 -2.22,1s0.71,-1 1.53,-1.84s2.85,-1.83 2.42,-1.8s-3.92,2.61 -4.48,2.94s-2,0.77 -1.55,0.14s3.29,-3 3.73,-3.36s-3.74,2.66 -4.1,2.82s-0.6,-0.28 0.07,-1c0.45,-0.46 3.43,-3 3.75,-3.25a10.56,10.56 0 0 0 -1.56,0.84c-0.77,0.52 -1.05,0.74 -1.48,1c-0.78,0.56 -1.64,0.55 -0.72,-0.33a21.19,21.19 0 0 1 1.66,-1.67a16.49,16.49 0 0 1 2.72,-1.25c0.44,-0.16 5.49,-1.2 6.72,-1.55c3.68,-1 6,-1.42 6.52,-1.55l1.79,4.64z" class="cls-9"/>
    <polygon id="svg_23" fill="#fff" points="292.2799987792969,294.92999267578125 290.55999755859375,295.44000244140625 291.7900085449219,302.2100067138672 294.8599853515625,301.92999267578125 292.6499938964844,295.42999267578125 292.2799987792969,294.92999267578125 " class="cls-7"/>
    <path id="svg_24" d="m295.92,269.48c1.52,-0.46 2.71,2 5.32,8.36c2.78,6.85 9.42,18.49 7.73,20.53s-10.68,6.8 -13.05,7c-0.53,-2.14 -2.52,-5.73 -3.64,-10.41l6.55,-1.5c0,-1.29 -2.15,-3 -4.81,-6.59c-1.02,-1.38 1.9,-17.39 1.9,-17.39z"/>
    <path id="svg_25" fill="#26282d" d="m262.85,279.62c0,3.38 -0.85,14.7 -0.26,18.24c0.11,0.61 10.27,5.71 10.27,5.71l-1.33,3.73s-12.27,-5.76 -13.12,-6.77a1.68,1.68 0 0 1 -0.06,-2.05l-1.18,-0.85l2.7,-0.59l-2.37,-0.04l2,-1.78l3.35,-15.6z" class="cls-8"/>
    <path id="svg_26" fill="#e0ac9b" d="m289.39,313.22c-8.5,-2.54 -7,4.82 -9.43,8.88c-8.55,14.41 -4.52,37.93 -9.13,47.71c-1.86,3.94 -2.87,6.25 -2.7,7.91a3.27,3.27 0 0 0 3.13,3c4.68,0 4.65,-2.17 5.11,-7a46.13,46.13 0 0 1 1,-6.09c2,-9.92 13.76,-28 13.5,-36.52s1.72,-5.09 2.5,-10.79s-3.98,-7.1 -3.98,-7.1z" class="cls-9"/>
    <path id="svg_27" fill="#cc9483" d="m279.79,322.44c-8.55,14.41 -4.53,37.93 -9.13,47.71c-0.52,1.11 -1,2.07 -1.35,2.94c0,1.49 -0.07,2.94 -0.12,4.1c1,-2.82 3.47,-7 4.85,-9.64c1.85,-3.55 3.54,-27.87 4.73,-32.77s3.89,-8.36 3.72,-10.56s0,-9.17 3.59,-11.16c-4.99,0.08 -4.24,5.94 -6.29,9.38z" class="cls-6"/>
    <path id="svg_28" d="m276.22,375.19c-1.94,2.71 -6.56,2.79 -7.68,-1.5c-3,6.84 0.46,9.75 2.35,9.6a6.8,6.8 0 0 0 5.3,-4.66c0.53,-2.21 0.35,-3.88 0.03,-3.44z"/>
    <path id="svg_29" fill="#e0ac9b" d="m275.06,312.74c-8.16,-1.07 -6.61,5.38 -8.66,9.63c-7.31,15.08 -1.62,37.86 -5.39,48c-3.44,9.21 -2.21,9.5 1,10.34c2.61,0.68 4.95,0.32 5.27,-4.52c0.15,-2.36 0.65,-5.67 0.85,-8.6c0.62,-9.18 9.58,-29.69 9.58,-38.18c0,-6.46 1.63,-4.19 1.94,-9.93s-4.59,-6.74 -4.59,-6.74z" class="cls-9"/>
    <path id="svg_30" fill="#cc9483" d="m266.4,322.54c-7.31,15.08 -1.62,37.86 -5.39,48a36.24,36.24 0 0 0 -2,6.46c0.77,1.52 1.31,2.55 1.31,2.55s2.87,-8.79 3.54,-10.82s0.85,-14.19 1.52,-27.53s3,-14 3.55,-16.39s-0.8,-9.55 3.93,-12.08l-0.22,-0.09c-5.49,0.3 -4.4,6.09 -6.24,9.9z" class="cls-6"/>
    <path id="svg_31" d="m267.31,374.94c-1.76,2.83 -6.36,3.21 -7.76,-1c-2.56,7 1.1,9.7 3,9.43a6.79,6.79 0 0 0 5,-5c0.34,-2.24 0.05,-3.9 -0.24,-3.43z"/>
    <rect transform="rotate(-80.99 42.44 541.78)" id="svg_32" fill="#fff" height="5.83" width="3.8" y="741.89" x="335.74" class="cls-7"/>
    <rect transform="rotate(-80.96 43.61 540.88)" id="svg_33" fill="#a380b7" height="5.32" width="0.75" y="740.1" x="338.62" class="cls-12"/>
    <path id="svg_34" fill="#999daa" d="m220.74,380.73c0,-3.39 -2.4,-57.29 -3.29,-65.22l0,0c-0.39,-3.51 -0.52,-7.81 -1.28,-11.09l0,0c-0.86,-3.39 -1.93,-5 -4,-4.95l0,0c-6.13,0 -8.86,1.18 -13.81,2.48l0,0l-0.77,-2.94c4.68,-1.23 8,-2.59 14.58,-2.58l0,0c4.23,0 6.15,3.71 6.92,7.31l0,0c0.86,3.72 1,8.11 1.34,11.44l0,0c0.92,8.32 3.3,61.84 3.31,65.55l-3,0z" class="cls-2"/>
    <path id="svg_35" fill="#999daa" d="m148.18,380.73c0,-3.69 1.79,-57 2.71,-65.38l0,0c0.37,-3.36 0.57,-7.57 1.53,-11.12l0,0c0.86,-3.45 3,-6.88 7.08,-6.87l0,0c6.61,0 9.33,1.64 13.9,2.83l0,0l-0.78,2.94c-5.06,-1.34 -7.07,-2.73 -13.12,-2.73l0,0c-2.14,0 -3.22,1.47 -4.15,4.63l0,0c-0.84,3.06 -1.06,7.17 -1.43,10.65l0,0c-0.89,7.91 -2.71,61.64 -2.7,65.05l-3,0l-0.04,0z" class="cls-2"/>
    <path id="svg_36" fill="#afb3bc" d="m206.15,311.32a3.22,3.22 0 0 0 -0.07,-0.32l0,0a5.82,5.82 0 0 0 -0.52,-1.26l0,0a3.77,3.77 0 0 0 -3,-2l0,0l0.27,-2.42a6.24,6.24 0 0 1 4.87,3.17l0,0a8.12,8.12 0 0 1 0.85,2.22l0,0a0.9,0.9 0 0 1 0,0.15l0,0c0,0.05 0,0.08 0,0.11l0,0a1.76,1.76 0 0 0 0,0.19l0,0l0,0.13l0,0.06l0,0a0.76,0.76 0 0 1 0,0.15l0,0c0.19,2.69 1.36,17.47 2.52,32l0,0c1.28,16 2.55,31.82 2.55,31.86l0,0l-2.42,0.19s-4.85,-60.25 -5.1,-64.27l0.05,0.04z" class="cls-3"/>
    <path id="svg_37" fill="#afb3bc" d="m158.28,376.41c0,-0.07 4.68,-58.41 5.06,-63.87l0,0s0,-0.09 0,-0.14l0,0a1,1 0 0 1 0,-0.24l0,0s0,-0.08 0,-0.11l0,0q0,-0.11 0,-0.18l0,0a0.06,0.06 0 0 1 0,0l0,0a0.19,0.19 0 0 1 0,-0.08l0,0a8.09,8.09 0 0 1 0.86,-2.22l0,0a6.24,6.24 0 0 1 4.87,-3.16l0,0l0.27,2.42a4.2,4.2 0 0 0 -3.64,3.59l0,0c-0.28,4.41 -5.08,64.17 -5.08,64.22l0,0l-2.43,-0.19l0.09,-0.04z" class="cls-3"/>
    <path id="svg_38" fill="#4a75dd" d="m207,305.21c-3.88,-9.37 -1.18,-22 -0.17,-28.55c0.84,-5.47 -1.18,-8.78 -1.18,-8.78c-2.72,-3.84 -16.45,-5.48 -25.51,-5.07c-9.06,-0.41 -22.37,1.57 -25.09,5.41c0,0 -1.77,3.54 -0.25,8.87s6.84,22 5.83,28.88s-2.79,12.16 -1,14.7c0.95,1.36 8.91,3.51 17.81,3.8l14.85,0c8.9,-0.29 18.68,-0.93 19.63,-2.28c1.72,-2.53 -2.3,-10.59 -4.92,-16.98z" class="cls-4"/>
    <path id="svg_39" fill="#4a75dd" d="m152.07,327a7.17,7.17 0 0 0 2.78,4.57c3.3,0 59.55,0.25 60.57,-0.51s1.52,-3 1.77,-4.82s0,-6.84 -2.28,-7.34s-5.4,-3.47 -7.94,-3.3s-45.36,0 -45.36,0s-6.75,2 -8.36,4.65a11.55,11.55 0 0 0 -1.18,6.75z" class="cls-4"/>
    <path id="svg_40" fill="#6597ef" d="m153,321.18a4.38,4.38 0 0 1 4.78,-2c1.26,0.26 55,-0.89 56.51,-0.12s2.44,0.84 2.06,1.22c-1.47,1.47 -22.42,0.63 -32.31,0.89s-31.04,0.01 -31.04,0.01z" class="cls-5"/>
    <path id="svg_41" fill="#5b250e" d="m170.67,245.4c-1.13,5.23 1,9.85 2.07,10.82c0.27,0.26 1.22,3.8 0.82,3.74s2.43,-1.18 3,-1.89s0.91,-10.87 0.51,-11.31s-6.4,-1.36 -6.4,-1.36z" class="cls-13"/>
    <path id="svg_42" fill="#cc9483" d="m186.83,251.44c-0.5,2.63 1,5.32 2,7.53s-1.93,9.23 -3.33,9.26s-11.12,-6.78 -11.12,-6.78s1.72,1.05 1.68,-12.88c0.04,-2.07 10.77,2.87 10.77,2.87z" class="cls-6"/>
    <path id="svg_43" fill="#fff" d="m175.36,261.92l-7.85,7.35l16.67,40.58l16.37,-5.06l-6.87,-38.91l-4,-2.95s-2.17,3 -4,3.39c-2.88,0.68 -10.32,-4.4 -10.32,-4.4z" class="cls-7"/>
    <path id="svg_44" d="m185.57,311.4c2.52,-0.5 -24.9,7.25 -24.72,6.48c2.23,-9.29 6.3,-14.37 6.59,-17.4c0.51,-5.23 -1,-11.68 -1,-13.51c-0.08,-4.62 -5.52,-19.84 -4.94,-20.4c2.85,-2.73 8,-0.66 12.61,-5.77c0,0 -0.63,5.81 0.78,8.6s10.18,26.16 11.58,27.7c3.04,6.03 -0.9,14.3 -0.9,14.3z"/>
    <path id="svg_45" fill="#26282d" d="m175.31,260.72a19.88,19.88 0 0 0 -2.89,1.71l-3.31,3.46l4.61,2.89l-3.05,4l16.15,25.17s-7.13,-21.87 -8.19,-25a76.13,76.13 0 0 1 -3.32,-12.23z" class="cls-8"/>
    <path id="svg_46" d="m168.62,304.71c-2.53,4.9 -4.18,7.71 -4,11.14c0.3,4.82 16,9.3 16,9.3s8.17,-6.25 12,-6.25s17.57,3.88 17.74,2.53s7.7,-10 7,-11.53s-11.18,-4.94 -12.75,-5a9.4,9.4 0 0 1 -3.72,-1.06c-0.8,-0.8 -2.23,-3.45 -1.9,-2.53c0.23,0.6 -0.99,-2.31 -30.37,3.4z"/>
    <path id="svg_47" d="m206,364.35c-0.39,2.86 -0.34,9.62 1.43,11.85a4.74,4.74 0 0 0 3.28,0.61c1.75,-0.42 2.05,0.27 3.08,1.48s7.4,2.3 10.37,1.73c3.52,-0.66 4.53,-2.42 0,-5.26c-5.38,-3.35 -8.55,-6.46 -9.78,-9.7s-8.38,-0.71 -8.38,-0.71z"/>
    <path id="svg_48" d="m207,308.42c4.73,0.17 8.79,0.15 11.32,1.86c2.23,1.05 3.21,6.42 2.37,10.47c-1.07,5.09 -0.68,49.84 -0.68,49.84s-16.72,0.36 -16.72,-0.34s0.35,-47.1 0.16,-48.32c-0.53,-3.23 -2.85,-10.54 3.55,-13.51z"/>
    <path id="svg_49" fill="#0d2263" d="m193.06,305.06c-0.23,-1 -7.27,-37.59 -7.27,-37.59l-0.25,0l-0.68,-1.9l-2.68,0.07l-1.3,2.21l3.33,1.54c0.93,6.27 4.39,31.55 4.44,32.85s4.77,4.4 4.41,2.82z" class="cls-14"/>
    <path id="svg_50" fill="#1f3e93" d="m195.43,301.31c0,-1.46 -7,-28.42 -8.35,-32.76l0.93,-2.13l-0.73,-1.28l-2.63,0.49l8.41,39.43s2.33,-2.23 2.37,-3.75z" class="cls-15"/>
    <path id="svg_51" fill="#d4d5d6" d="m175.18,258.75c1.09,5 9,6.41 9,6.41l-3.29,8l-7.34,-11.82l1.63,-2.59z" class="cls-16"/>
    <path id="svg_52" fill="#d4d5d6" d="m186.37,265.16l4.81,6.19s-0.54,-7.14 -1.06,-8.24a17.89,17.89 0 0 1 -1.12,-3.21a5.24,5.24 0 0 1 -0.59,3.53c-1.31,2.2 -2.04,1.73 -2.04,1.73z" class="cls-16"/>
    <path id="svg_53" fill="#e0ac9b" d="m193.87,253.73c0.12,-0.57 -0.57,-1.8 -1.42,-3.88c0.09,-0.51 0.58,-1 0.56,-1.66a13.41,13.41 0 0 0 -3,-8.55c-1.59,-2.1 -8.47,-3.65 -10.27,-3.16c-7.92,2.16 -3.88,7 -2.55,12.14c-2.09,-0.57 -2.29,1.72 -1.59,3.73c0.53,1.54 0.92,2 2.12,2.27c1.05,2.49 3,5.15 4.73,6c1.51,0.78 4.67,1 7.08,0.75c2.11,-0.22 1.52,-1.35 2.16,-2.38a19.57,19.57 0 0 0 1,-4.33c0.4,-0.09 1.06,-0.27 1.18,-0.93z" class="cls-9"/>
    <path id="svg_54" fill="#5b250e" d="m170.47,243.68c0.19,-1.8 1,-4.75 3.14,-5c0,-1.87 5.94,-4.56 10.59,-3.17c2.12,-0.15 6.65,2.48 6.51,3c-0.21,0.78 -2.6,-0.89 -2.91,-0.28c0.11,-0.06 -0.18,0.15 -0.07,0.11c-0.42,-1.13 4.07,-0.39 5,3.8c0.11,1.1 0.91,0.67 0.73,1.11a1.8,1.8 0 0 1 -1.28,1c-4,0.87 -6.85,-1.5 -9.17,-0.85c-1.14,-0.41 -2.43,-1.71 -5.24,-2.21c-0.37,-0.06 5.6,1.57 4.92,3.27c-0.54,1.36 -1.23,3.16 -1.41,3.77a15.87,15.87 0 0 1 -2.13,3.46l-1.16,-0.29l-1.35,-3l-2.86,1.64s-3.95,-0.43 -3.31,-6.36z" class="cls-13"/>
    <path id="svg_55" fill="#26282d" d="m199.71,304.29l-2.24,-8.2s-2.66,-8 -4.82,-23.44l-0.88,-8.74c2.6,0.91 5.23,2.84 10.58,3.82c1.19,0.21 -0.6,9.73 -0.6,9.73a45.41,45.41 0 0 0 -1.37,6.63c-0.07,3.13 0.55,12 2.71,14.7s3.87,3.68 6.46,8.43l-9.84,-2.93z" class="cls-8"/>
    <path id="svg_56" d="m189.15,261a24,24 0 0 1 2.87,2.55l3.94,2.52l-3.41,2.81l4.88,0.82l0.17,27.3s-6.47,-30.11 -7.42,-33.31a8.42,8.42 0 0 0 -1.03,-2.69z"/>
    <path id="svg_57" fill="#e0ac9b" d="m175.54,300.49c0.08,-0.94 2.34,-1.77 3.83,-2.79c0,0 5.21,0.69 8.3,2.57c0.74,0.44 1,1 2.24,2.32c0.9,1 0.54,1.72 -0.58,1a9.93,9.93 0 0 1 -1.78,-1.52l-1.73,-0.8s1.29,0.8 1.64,1s1.73,1.85 2.16,2.21c0.61,0.5 0.44,1.47 -0.65,0.9a14.3,14.3 0 0 1 -2.08,-1.5c-0.75,-0.48 -2.12,-1.2 -2.12,-1.2c1.47,1.06 3.7,2.35 4,3.07s-0.39,1.28 -1.39,0.36a9.83,9.83 0 0 0 -3.38,-2.11l2.81,1.82s0.62,1.2 -0.83,0.49c-3.7,-1.8 -6.88,-2.66 -7.88,-3.59c-0.86,-0.72 -2.62,-1.55 -2.56,-2.23z" class="cls-9"/>
    <path id="svg_58" fill="#fff" d="m174.19,303.91c0.19,-1.25 2.85,-7.09 4.89,-7.47a6.6,6.6 0 0 0 1.89,1s-3.37,6.38 -3.56,8.49l-3.22,-2.02z" class="cls-7"/>
    <path id="svg_59" d="m162.54,265.85c-2.33,-1.56 -5.14,6.27 -5.74,9.13s-6.79,19.6 -4.4,24c2,3.72 22.43,6.76 22.43,6.76l5.45,-9.38s-16.13,-3.29 -15.88,-4.3c0.2,-0.79 3.11,-10.22 2.37,-11.32s-4.23,-14.89 -4.23,-14.89z"/>
    <path id="svg_60" d="m202.35,267.73c1.69,0 2.8,6.23 3.82,8.93s4.23,15.93 5.05,17.53c1.64,3.23 3.18,10.52 3,11.19s-0.51,3.89 -1.19,4.06s-9,-5.87 -9,-5.87s-0.68,-3.42 -1,-6c-0.63,-4.81 -2,-7.64 -2.66,-12.33c-1,-7.14 1.98,-17.51 1.98,-17.51z"/>
    <path id="svg_61" fill="#cc9483" d="m208.27,302.84c-1.78,0.93 -3.16,0.87 -3.61,1.18s-1,3.28 -0.46,3.53c0.91,0.45 1.32,-2.2 2,-2.62a11.42,11.42 0 0 0 2.07,-2.09z" class="cls-6"/>
    <path id="svg_62" fill="#e0ac9b" d="m205.77,303.4c-0.55,0.6 -1.93,3.42 -1.23,4s1.66,-1.05 1.66,-1.05l0.57,-1s-2.37,2.43 -1.28,3.23c0.8,0.58 2.65,-1.27 2.65,-1.27s-1.91,0.92 -1.31,1.81s2.62,-1 2.62,-1s-2.14,1.16 -1.42,1.65s3.08,-0.93 3.74,-1.72s0.85,-0.82 0.52,-1.77a1.59,1.59 0 0 0 -0.25,-0.49a4.93,4.93 0 0 0 -0.48,-1.24c-0.28,-0.37 -1.06,-0.6 -1.16,-0.84c-0.4,-1.08 -1.64,-0.94 -1.92,-1c-0.48,-0.19 -0.96,-1.22 -2.71,0.69z" class="cls-9"/>
    <path id="svg_63" d="m178.09,362.57c-0.38,2.78 -1.32,12 1.55,14.12c1,0.72 2.46,0 3.37,1a11.62,11.62 0 0 0 12.88,3.07c1.9,-0.88 0.06,-3.63 -2.43,-6.12c-2.73,-2.76 -4.55,-2.32 -5.33,-7.71c-0.28,-1.95 -0.86,-5.05 -0.86,-5.05l-9.18,0.69z"/>
    <path id="svg_64" d="m194.47,322.1c0.84,-5.4 -1,-10.47 -3,-10.81c0,0 -5.26,-5.6 -12.08,1.78c-3,3.29 -0.59,6 -1.61,11.57s-1,46.12 -1,46.12s6.42,1.86 11,1.52a16.29,16.29 0 0 0 5.24,-1.86s0.4,-25 1,-39.27l0.47,-8.23c-0.08,-0.32 -0.05,-0.6 -0.02,-0.82z"/>
    <path id="svg_65" fill="#26282d" d="m190.75,309.77c1.78,0.26 3.55,3 3.55,6.08s0.17,6.25 0.17,6.25l-1.47,48.32s-4.73,2.79 -5.24,1.86s-0.67,-1.35 -0.67,-1.35s3.63,-48.65 3.37,-52.2s-1.68,-7.94 -2.95,-8.2s3.24,-0.76 3.24,-0.76z" class="cls-8"/>
    <path id="svg_66" fill="#afb3bc" d="m409.79,350c-2.05,-15.06 -4.19,-30.49 -4.62,-33.21l0,0a1.79,1.79 0 0 1 -0.09,-0.46l0,0a2.55,2.55 0 0 0 -0.09,-0.4l0,0a5.57,5.57 0 0 0 -0.51,-1.23l0,0a3.69,3.69 0 0 0 -3,-1.91l0,0l0.3,-2.62a6.34,6.34 0 0 1 4.94,3.22l0,0a8,8 0 0 1 0.86,2.22l0,0l0,0.07l0,0c0,0.06 0,0.1 0,0.13l0,0l0,0.19l0,0c0,0.15 0.06,0.34 0.1,0.58l0,0c0.08,0.5 0.18,1.21 0.31,2.12l0,0c0.27,1.83 0.63,4.42 1.06,7.53l0,0c0.87,6.23 2,14.53 3.14,22.83l0,0c2.26,16.6 4.51,33.2 4.51,33.2l0,0l-2.61,0.35s-2.09,-16.23 -4.3,-32.61zm-4.7,-33.6l0,0l0,0l0,0z" class="cls-3"/>
    <path id="svg_67" fill="#999daa" d="m325.91,379.79l0,0zm-3.2,-0.3c0.34,-3.69 7.32,-52.17 9.1,-60.29l0,0c0.86,-3.87 1.77,-7.57 3.34,-10.49l0,0c1.51,-2.9 4.11,-5.18 7.74,-5.14l0.56,0a65.42,65.42 0 0 1 14.09,2l0,0l-0.72,3.15a61.77,61.77 0 0 0 -13.58,-1.91l-0.35,0c-2.26,0 -3.56,1.1 -4.91,3.46l0,0c-1.28,2.34 -2.18,5.83 -3,9.65l0,0c-1.7,7.67 -8.75,56.58 -9,59.89l0,0l-3.2,-0.3l-0.07,-0.02z" class="cls-2"/>
    <path id="svg_68" fill="#4a75dd" d="m410.33,269.23c2.22,0.59 3.45,2.17 2.41,5.83c-1.38,4.82 -5.79,18.29 -6.59,25.34c-0.84,7.43 -3,15.2 -2.7,24.32c0.17,5.92 -3.13,5.33 -3.13,5.33l-44.85,-8.87a149.11,149.11 0 0 0 3,-28.13c0.06,-10 4.39,-20.37 6.84,-24.07a6,6 0 0 1 3.6,-2.31c3.36,-0.41 32.88,0.33 41.42,2.56z" class="cls-4"/>
    <path id="svg_69" fill="#6597ef" d="m411.13,270.67c-3.29,0.5 -6.25,7.94 -8,16s-3.9,33.29 -2.41,37.76c0.68,2 2.41,5.66 2.58,3s1.34,-21 2.7,-27.71c2.37,-11.65 7.22,-23.83 7.27,-25.68c0.06,-3.37 -2.14,-3.37 -2.14,-3.37z" class="cls-5"/>
    <path id="svg_70" fill="#4a75dd" d="m329,329.79c-1.72,3.1 3,3.64 3,3.64s50.84,8.27 53.38,6.75s3.72,-6.75 6.76,-6.75s4.9,2.7 8.28,1c0,0 2.87,-3.72 0.33,-6.76s-40.88,-5.4 -44.43,-5.4s-17.95,-0.2 -22.13,2.19c-3.56,2.04 -3.89,2.88 -5.19,5.33z" class="cls-4"/>
    <path id="svg_71" fill="#6597ef" d="m384.69,330.47c1.95,-1.44 5.72,-3.51 9.8,-2.62c5.13,1.12 7.22,1.25 7.52,3s-0.16,3.46 -2.87,4.14s-6.27,-3.55 -8.64,-1.69s-3.78,5.32 -5.13,5.32s-2.32,-6.94 -0.68,-8.15z" class="cls-5"/>
    <path id="svg_72" d="m384.87,308.42s-25,-6.08 -28.39,-6.08c-1.25,0 -3.21,2.54 -3.21,2.54c-2.36,3 -13.47,14 -10.47,19.42a16.91,16.91 0 0 0 7.77,6.59c1.88,1.59 3.05,1.59 5.74,3c6.86,3.47 20.62,-3.47 27.54,-4.18c4.9,-0.55 4.81,-10.56 1.02,-21.29z"/>
    <path id="svg_73" fill="#26282d" d="m356.31,371.61c-1.18,4.56 -1,11.82 -0.17,14.86s-12.33,-1.86 -12.33,-1.86s-0.68,-1.35 0.51,-3.71s1.9,-10.39 2.24,-11.58s9.75,2.29 9.75,2.29z" class="cls-8"/>
    <path id="svg_74" fill="#fff" d="m377.69,312.28l12.07,-39.38s-10.91,2 -12.75,1.9s-3.79,-4.45 -3.79,-4.45l-3.48,2.78l-13.12,34.53c6.15,-1.01 15.06,-1.66 21.07,4.62z" class="cls-7"/>
    <path id="svg_75" fill="#cc9483" d="m374.42,265.71c0,2.59 0.71,5.79 -0.74,7.67s0.26,5.49 1.57,5.78s12.25,-5 12.25,-5s-0.34,-7.68 -0.06,-9.65s-13.02,1.2 -13.02,1.2z" class="cls-6"/>
    <path id="svg_76" fill="url(#linear-gradient)" mix-blend-mode="multiply" d="m382.51,264.43l-0.06,0l-4.4,-0.69c-0.07,0.35 -3.42,2.64 -3.9,4c0.74,1.86 6.9,12.38 9,12.84c1.74,0.38 2.34,-2.6 3.71,-3.54c0.15,-1.83 0.61,-12.61 0.7,-13l-5.05,0.39z" class="cls-17"/>
    <path id="svg_77" fill="#900" d="m373,275.22c0.17,1.64 1.38,2.6 1.38,3.42s-9.12,20.68 -12.19,28.06c1.55,2.71 1.89,2.83 1.89,2.83l13.19,-33.65l-2.79,-2.3l-1.48,1.64z" class="cls-18"/>
    <path id="svg_78" fill="#700000" d="m381,277.84c-1.64,1 -3.28,1.6 -3.77,2s-7.14,20.49 -7.46,28.86l-5.76,0.77s11,-31.43 12.91,-33.81a7.91,7.91 0 0 0 2.68,-1.31l1.4,3.49z" class="cls-19"/>
    <path id="svg_79" fill="#d4d5d6" d="m387.47,268c-0.69,2.12 -9.82,7.39 -9.82,7.39l4.43,5.29l8,-9l-2.61,-3.68z" class="cls-16"/>
    <path id="svg_80" fill="#fff" d="m376.17,275.14l-4.83,3.36s0.46,-7.1 1.15,-8c0,0 0.73,-0.11 1.94,-1.65c0,0 0.11,1 0.19,2.89a6.5,6.5 0 0 0 1.55,3.4z" class="cls-7"/>
    <path id="svg_81" d="m390.51,254.77c0.1,1.82 -1.44,8.42 -1.37,8.76s0.21,1.61 0.57,1.48s-2.3,1.45 -2.92,0.89s-1.7,-8.76 -1.42,-9.24s5.14,-1.89 5.14,-1.89z"/>
    <path id="svg_82" fill="#e0ac9b" d="m386.43,256.61c0,-5 1,-9.87 -6.68,-10a15.16,15.16 0 0 0 -4.28,0.47a11.57,11.57 0 0 0 -1.35,-0.41c-1.76,0.29 -2.78,1.45 -3.73,3.74c-1.43,3.58 -0.07,8.25 0.49,12.31c0.5,3.55 1.89,7 4.57,7.9a4.33,4.33 0 0 0 2.33,0.43c5.45,-0.51 8.37,-3.75 9,-8.06c1,-0.49 1.84,-2.21 2,-3.73c0.13,-1.95 -0.59,-3.66 -2.35,-2.65z" class="cls-9"/>
    <path id="svg_83" fill="#26282d" d="m377.05,246.28l0.17,-0.45s2,-1.2 1.63,-1.2c-0.22,0 -1,-0.63 -1.41,0.4l0.89,-1.73l-4.63,1.55a2.65,2.65 0 0 0 -1.78,0.46l-1.31,1.05s0.16,0.74 0.27,-0.3c-1,0.33 -1.65,2.76 -1.6,4.52a17.46,17.46 0 0 0 -0.17,1.77a22.08,22.08 0 0 0 0.51,5.5l0.52,0.31s-1.17,-6.22 1.2,-8.08s8.06,-0.41 8.06,-0.41l-2.35,-3.39z" class="cls-8"/>
    <path id="svg_84" d="m389.87,249.52c-0.83,-1.53 -2,-3.8 -3.16,-4.32c-0.63,-1.22 -4.68,-1.12 -8.82,-2.44c0,0 3.67,1.22 3.75,2.19l0,0c-0.54,-0.75 -6.61,-2.55 -6.3,-2.1c1.75,2.61 1.34,0.84 1,2c-0.12,0 0.2,0.1 0.09,0.09c0.12,-1.15 -1.2,-2.22 -2.1,-2.43c0.41,1.52 -1.4,1.48 -2.54,3.2c-1.44,1.46 -2.48,4.15 -0.9,5.25c3.65,2.54 6.41,0.24 8.72,0.3a4.38,4.38 0 0 1 3.76,2c0.62,1 1.15,6 1.15,6l1.45,-1l1.43,-2.07l2.8,1.15s1.33,-4.73 -0.33,-7.82z"/>
    <path id="svg_85" d="m372.53,324.22s24.72,4.52 23.61,1.77c-2,-4.9 -3.51,-8.93 -3,-11.82c0.7,-3.84 1.29,-10 2.2,-11.49s5.57,-16.3 5.57,-16.3s5.11,-6.57 0.42,-9.29s-7.74,-2.1 -12.11,-6.32c0,0 -2.78,9 -4.59,14.1c-1,2.9 -5.87,17.17 -7.54,18.36c-3.38,6.04 -4.56,20.99 -4.56,20.99z"/>
    <path id="svg_86" fill="#26282d" d="m389.51,269.84c0,-0.2 2.92,3.86 2.92,3.86l0.88,4.4l-5.2,-0.89l3.51,4.18l-16.62,27.41s10.67,-31.47 12.37,-34.18c2.06,-3.34 2.14,-4.78 2.14,-4.78z" class="cls-8"/>
    <path id="svg_87" d="m363.65,273.12c-4.29,-0.6 -9.87,9.67 -17.47,15.79c-3.33,2.68 -5.4,8.18 -5.28,9.21c0.71,6.57 5.61,6.17 13.56,7.18c1.6,0.2 6.25,-9 6.25,-9l6.91,-13.85l-3.97,-9.33z"/>
    <path id="svg_88" d="m347.53,321.34l13.09,-19.76s6.49,-10.39 9.12,-20.44l1.62,-10.57c-2.71,0.35 -3.87,1.18 -8.71,2.21c-1.18,0.25 -1.52,5.19 -1.52,5.19s-4,16.76 -4.65,18.37c-2.27,5.42 -15.36,17.31 -17.57,27.71l8.62,-2.71z"/>
    <path id="svg_89" fill="#26282d" d="m373.77,269.79a12,12 0 0 0 -2.41,0.78l-5.44,3l2.56,1.91l-4.22,3.33l-3.64,22.78s11.78,-21.59 12.67,-24.59c0.71,-2.54 0.48,-7.21 0.48,-7.21z" class="cls-8"/>
    <path id="svg_90" d="m370,328c-1.52,5.07 -2.54,6.59 -4.06,11.15c0,0 -6.58,34.46 -6.58,38.52c-5.58,2 -13.18,0.5 -16.23,-2.54s3.56,-29.9 3.56,-33.45a17.87,17.87 0 0 1 5.06,-12.68c4.06,-4 18.25,-1 18.25,-1z"/>
    <path id="svg_91" fill="#26282d" d="m365.5,392.69a6.63,6.63 0 0 1 0.05,2.16a6.28,6.28 0 0 1 -3.69,3.5c-1.93,0.52 -9,-0.24 -11.64,-2.26s-2.16,-4.3 -3,-4.89s-2.23,-1.32 -2.23,-1.32s-1.39,-2.15 -0.86,-2.71s21.37,5.52 21.37,5.52z" class="cls-8"/>
    <path id="svg_92" d="m355.32,381.24c0.59,2.15 4.68,5.93 6.12,7.41s4.28,2.81 3.9,4.76s-3.36,3.76 -5.84,3.93s-8.39,-0.3 -10.21,-3.82s-3.4,-5.24 -4.71,-5.86s-0.75,-8.61 0.25,-7.34s0.94,3.11 2.67,3.38s2,-1.78 3.61,-2.57a4.39,4.39 0 0 1 4.21,0.11z"/>
    <path id="svg_93" fill="#999daa" d="m376.06,273.06a3.54,3.54 0 1 1 -1.46,-4.69a3.48,3.48 0 0 1 1.46,4.69z" class="cls-2"/>
    <path id="svg_94" fill="#afb3bc" d="m375.69,271.92c-0.49,0.39 -1.4,0.05 -2,-0.75s-0.72,-1.77 -0.22,-2.15s1.4,0 2,0.75s0.72,1.77 0.22,2.15z" class="cls-3"/>
    <path id="svg_95" fill="#afb3bc" d="m372.25,272.78a3.2,3.2 0 0 0 -2.22,-0.38s-6.31,12.84 -7.54,15.08c-0.05,0.61 1.49,1.75 2.23,1.23c1.23,-2.23 9,-14.26 9,-14.26c0.08,-0.61 -1.01,-1.51 -1.47,-1.67z" class="cls-3"/>
    <path id="svg_96" mix-blend-mode="multiply" fill="#afb3bc" d="m364.7,288.52c-0.13,0.23 -0.7,0.16 -1.28,-0.16s-0.94,-0.77 -0.81,-1s0.7,-0.16 1.28,0.16s0.94,0.77 0.81,1z" class="cls-20"/>
    <g id="svg_97" opacity="0.8" mix-blend-mode="multiply" class="cls-21">
     <path id="svg_98" fill="#afb3bc" d="m362.77,287.24a1.12,1.12 0 0 1 1.1,0.15l8,-14.7a2.71,2.71 0 0 0 -1.64,-0.13s-6.23,12.44 -7.46,14.68z" class="cls-3"/>
    </g>
    <path id="svg_99" fill="#cc9483" d="m364.29,278.58c-1.07,0.1 -2.63,1.75 -4.76,3.7c-0.54,0.48 -2.08,1.48 -2.54,1.9c-0.27,0.24 0.11,6.12 1.14,5.7c1.66,-0.68 3.07,-2.82 3.48,-2.72c2.39,0.56 4.47,-1.87 4.83,-2.59c0.46,-0.9 -2.15,-5.99 -2.15,-5.99z" class="cls-6"/>
    <path id="svg_100" fill="#cc9483" d="m366.53,278.48a3.92,3.92 0 0 1 2.37,0.8c1.15,1.07 2.25,2.25 2.09,2.81c-0.25,0.9 -2.61,-1.51 -2.61,-1.51l-1.68,-0.1a8.27,8.27 0 0 1 2.47,1.29a2.62,2.62 0 0 1 1.2,2.59c-0.18,0.59 -1,-0.69 -2,-1.25c-0.8,-0.45 -1.11,-0.36 -1.11,-0.36a11.5,11.5 0 0 1 1.24,0.79c0.71,0.53 1.49,0.83 1.52,1.48s-1.3,-0.09 -2.49,-0.61a2.82,2.82 0 0 0 -1.75,-0.16a4.74,4.74 0 0 1 1.76,0.35c0.91,0.39 1.81,0.92 1.65,1.4s-1.23,0 -2.39,-0.24c-0.87,-0.19 -1.89,0.24 -2.39,0.12c-0.95,-0.23 -1.39,0 -1.73,-1.07a4.5,4.5 0 0 1 0,-0.82a4.69,4.69 0 0 1 -0.4,-1.46c0,-0.56 0.59,-1.2 0.49,-1.56c-0.36,-1.27 0.53,-1.31 0.74,-1.56c0.29,-0.41 0.25,-1.51 3.02,-0.93z" class="cls-6"/>
    <path id="svg_101" fill="#fff" d="m358.59,282.69c-0.3,1.11 -0.42,6.94 1,8.76a5.38,5.38 0 0 1 -3.52,1.43s-0.39,-8.09 0.29,-8.57c1.07,-0.76 2.23,-1.62 2.23,-1.62z" class="cls-7"/>
    <path id="svg_102" fill="#999daa" d="m382.73,390.36c0,-3.71 1.77,-55.94 2.8,-64.32l0,0c0.52,-4.09 1.13,-8.13 2.53,-11.38l0,0c1.32,-3.22 3.89,-5.91 7.77,-6l0,0c1.36,0 2.53,-0.07 3.55,-0.07l0,0a61.86,61.86 0 0 1 10.28,1l0,0l-0.43,3.21a58.75,58.75 0 0 0 -9.85,-0.94l0,0c-1,0 -2.1,0 -3.44,0.07l0,0c-2.39,0.12 -3.68,1.37 -4.91,4l0,0c-1.15,2.64 -1.78,6.48 -2.28,10.5l0,0c-1,7.84 -2.78,60.51 -2.77,63.91l-3.25,0l0,0.02z" class="cls-2"/>
    <path id="svg_103" d="m368.65,363.33c-1.09,1.71 -0.43,2.7 5.32,-0.93c4.35,-2.75 12.58,-5.75 10.56,-7.94s-13.86,5.66 -15.88,8.87z"/>
    <path id="svg_104" fill="#26282d" d="m368.84,351.36a174.58,174.58 0 0 1 4.37,17.79s13.17,-0.59 12.66,-1.39a69.48,69.48 0 0 1 -7.42,-15.92c-1.02,-2.66 -9.61,-0.48 -9.61,-0.48z" class="cls-8"/>
    <path id="svg_105" fill="#26282d" d="m372.78,309.27c2.79,2 3.2,7.5 4.06,9.37c4.05,8.87 8,36.41 8,36.41s-5.91,1.52 -7.26,2.87s-9.29,6.84 -9.29,6.84s-8.11,-28 -9.46,-37.42s0.84,-16.38 4.56,-19.09s9.39,1.02 9.39,1.02z" class="cls-8"/>
    <path id="svg_106" fill="#26282d" d="m396,370.1a6.71,6.71 0 0 1 0.72,2c0.05,0.81 -1.35,2.94 -3,4s-7.7,2.38 -10.81,1.26s-3.74,-2.8 -4.76,-3.09s-2.53,-0.57 -2.53,-0.57s-2,-1.62 -1.65,-2.31s22.03,-1.29 22.03,-1.29z" class="cls-8"/>
    <path id="svg_107" d="m382.83,362.36c1.23,1.86 6.28,4.19 8.1,5.15s4.94,1.36 5.18,3.33s-1.26,3 -3.56,3.89s-8.68,3.12 -11.49,0.34a10,10 0 0 0 -6.47,-3.29c-1.43,-0.18 -3.37,-8 -2,-7.07s1.86,2.67 3.59,2.4s1.3,-2.3 2.64,-3.56a4.37,4.37 0 0 1 4.01,-1.19z"/>
    <path id="svg_108" d="m363,308.13c4.56,1.26 7.28,7.22 7.53,9.75s10.65,38 10,38.86c-0.33,0.42 -11,6.25 -11,6.25s-11.78,-35.23 -11.53,-42.07s1.17,-13.85 5,-12.79z"/>
    <path id="svg_109" fill="#e0ac9b" d="m382.27,297c-0.77,-0.46 -2.11,-1.34 -3.29,-2a9.19,9.19 0 0 1 -3.79,-2.38c-0.37,-0.44 -1.34,-0.37 -1,0.25a14.68,14.68 0 0 0 1.61,2.13c0.72,0.86 -2.76,0.55 -3.58,0.47s-4.9,0.39 -5,1.08c-0.11,1 4.82,0.09 4.75,0.48s-5.39,0 -5.23,0.6c0.33,1.22 4.59,0.76 5.08,1.36l-2.16,0.06c-1,0 -2.26,-0.4 -2.4,-0.09c-0.68,1.54 5.53,1.26 5.27,2.08c-0.19,0.64 -3.52,0.28 -3.29,1.05c0.12,0.39 4.41,0.37 4.41,0.37s2.41,1 7.41,0.47a27.07,27.07 0 0 1 5.21,0.91l0.82,-5.35a24.37,24.37 0 0 1 -4.82,-1.49z" class="cls-9"/>
    <path id="svg_110" fill="#fff" d="m382.07,296.43a76.18,76.18 0 0 1 -0.94,10.38c-0.14,0.36 4.75,-0.08 4.75,-0.08l-0.14,-9.1l-3.67,-1.2z" class="cls-7"/>
    <path id="svg_111" fill="#26282d" d="m400.53,276.7c2.66,0.64 3.73,3.63 3.93,5.83s3.89,22.18 -1.35,26.74c-1.17,1 -15.1,1.46 -19.64,0.38c2.06,-6.44 0.68,-12.55 1.27,-12.42c3.65,0.82 9.91,2 10.6,1.48s0.24,-8.82 0.42,-13c0.38,-8.71 4.77,-9.01 4.77,-9.01z" class="cls-8"/>
    <path id="svg_112" fill="#afb3bc" d="m33.37,383.58s8.29,-56.13 9.08,-60.18l0,0c0.07,-0.21 0,-0.08 0.13,-0.45l0,0a8.4,8.4 0 0 1 0.85,-2.15l0,0a6.33,6.33 0 0 1 4.94,-3.21l0,0l0.3,2.61a4.11,4.11 0 0 0 -3.56,3.55l0,0l0,0l0,0l0,0.1l0,0.15a0.09,0.09 0 0 0 0,0.05l0,0l0,0.06l0,0a0.92,0.92 0 0 1 -0.09,0.23l0,0l0,0l0,0c-0.08,0.43 -0.18,1.08 -0.31,1.89l0,0c-0.26,1.65 -0.63,4 -1.06,6.83l0,0c-0.87,5.66 -2,13.2 -3.13,20.74l0,0c-2.31,15.08 -4.52,30.14 -4.52,30.2l0,0l-2.6,-0.38l-0.03,-0.04zm9.51,-58.89l0,0l0,0l0,0z" class="cls-3"/>
    <path id="svg_113" fill="#999daa" d="m118.88,323.91c-0.84,-3.82 -1.75,-7.32 -3,-9.7l0,0c-1.36,-2.39 -2.74,-3.52 -5.09,-3.56l0,0l-0.38,0l0,0a61.52,61.52 0 0 0 -13.58,1.9l0,0l-0.63,-2.77a65.06,65.06 0 0 1 14,-2l0.57,0c3.55,0 6.08,2.17 7.58,5l0,0c1.56,2.88 2.46,6.56 3.32,10.44l0,0c1.78,8.14 6.74,52.61 7.07,56.21l0,0l-2.83,0.26c-0.3,-3.4 -5.33,-48.21 -7,-55.86l-0.03,0.08z" class="cls-2"/>
    <path id="svg_114" fill="#4a75dd" d="m37,276.83c-2.22,0.59 -3.45,2.18 -2.41,5.83c1.41,4.83 5.8,18.34 6.61,25.34c0.84,7.44 5,15.2 4.7,24.33c-0.17,5.91 3.13,5.32 3.13,5.32l44.85,-8.87s-1.28,-13.29 -3,-28.13c-1.28,-10.81 -5.93,-21.64 -8.37,-25.34c-0.83,-1.23 -4.06,-2.41 -5.07,-2.53c-3.36,-0.42 -31.88,1.79 -40.44,4.05z" class="cls-4"/>
    <path id="svg_115" fill="#6597ef" d="m36.22,278.27c3.29,0.5 6.25,7.94 8,16s5.9,33.28 4.41,37.76c-0.68,2 -2.4,5.65 -2.58,2.95s-3.34,-21 -4.7,-27.7c-2.37,-11.66 -7.22,-23.84 -7.27,-25.68c-0.08,-3.33 2.14,-3.33 2.14,-3.33z" class="cls-5"/>
    <path id="svg_116" fill="#4a75dd" d="m122.5,333.25c1.71,3.1 -3,3.64 -3,3.64s-40.2,10.05 -42.74,8.53s-5.07,-4.73 -14.7,-5.32c-3,-0.19 -8.26,3.21 -11.64,1.52c0,0 -2.87,-3.72 -0.34,-6.76s41.21,-9.46 44.76,-9.46s18.29,0.14 22.47,2.53c3.5,2.07 3.84,2.87 5.19,5.32z" class="cls-4"/>
    <path id="svg_117" fill="#6597ef" d="m76.5,338.92c-2.5,-1.44 -10.7,-4.56 -18.18,-3.92c-6.61,0.6 -9.15,1.25 -9.52,3s0.21,3.46 3.63,4.14s11.88,-2.78 15.29,-1.44c5.57,2.2 6.43,5.41 8.14,5.41c4.71,0.07 2.72,-5.98 0.64,-7.19z" class="cls-5"/>
    <path id="svg_118" fill="#d19780" d="m95.47,316.37c7.51,-0.6 21.16,-0.64 23.48,1.68c3.55,3.55 4.8,6.54 3,11.49c-0.89,2.49 -7.15,35.49 -6.47,39.5c0.82,5 3.78,10.32 9.74,12.54c-3.08,2.3 -10.09,4 -13.26,-3.51c-1.27,-3 -2.44,-3.94 -3.62,-5.61c-2,-2.85 1.78,-1.81 1.23,-8.36s-2.44,-17.23 2.87,-33.22c0.45,-1.33 -23,5 -30.58,-4.24c-1.42,-1.77 13.61,-10.27 13.61,-10.27z" class="cls-22"/>
    <path id="svg_119" fill="#26282d" d="m108.35,369.45c-1.15,0.92 -1.87,4 -1.18,6.29s2.33,7.21 1.89,9c1.22,0.28 1.25,0 1.25,0s-0.93,-7.36 -1.09,-7.84c-0.39,-1.18 3,5.38 5.11,7.67s5.91,2.55 10.22,1.28c0.79,-0.24 3.3,-3.39 1.45,-4.07a17.37,17.37 0 0 1 -3.45,-1.82s-6.46,2.47 -8.54,-0.5s-5.66,-10.01 -5.66,-10.01z" class="cls-8"/>
    <path id="svg_120" fill="#e0ac9b" d="m90.15,318.9c9.63,-0.51 23.63,-1.15 25.85,1.26c1.59,1.72 2.44,3.67 0.76,10.14c-0.67,2.56 -13,36.16 -12.34,40.17c0.82,5 2.55,11.13 8.51,13.35a8.94,8.94 0 0 1 -12.45,-2.52c-1.9,-2.66 -2.34,-4.55 -3.52,-6.21c-2,-2.85 1,-4 1,-9.48c0,-6.58 -2.79,-21.48 4.07,-33.29c0.7,-1.21 -8.84,3.56 -18.47,-2.53c-1.94,-1.23 6.59,-10.89 6.59,-10.89z" class="cls-9"/>
    <path id="svg_121" d="m96.21,371.44c-1.14,0.93 -1.86,4 -1.17,6.29s2.32,7.21 1.89,9c1.22,0.29 1.25,0 1.25,0s-0.93,-7.35 -1.1,-7.83c-0.39,-1.18 3,5.38 5.11,7.66s5.92,2.56 10.23,1.28c0.79,-0.23 3.3,-3.38 1.45,-4.06a18,18 0 0 1 -3.45,-1.82s-6.46,2.47 -8.54,-0.51s-5.67,-10.01 -5.67,-10.01z"/>
    <path id="svg_122" fill="#0d2263" d="m60,313.49c-1.86,11.49 0.57,16.94 5.23,19.09c6.85,3.15 15.79,-1.45 24.42,0.13c2.48,0.45 6.2,9 6.5,11.87c0.48,4.7 5.4,-15 18.08,-22.9c1.2,-0.74 -20.11,-6.67 -28,-10.72c-7.57,-3.85 -25.1,-4.47 -26.23,2.53z" class="cls-14"/>
    <path id="svg_123" fill="#1f3e93" d="m90.57,310.28c1.07,1.88 3.24,4.83 4.73,4.56c18.59,-3.29 21.63,-0.67 24.16,1.69a9.76,9.76 0 0 1 2.88,4.77c0.38,0.58 -4.74,-1.56 -7.61,0.3s-6.59,4.9 -7.1,5.91s-0.16,-7.94 -6.58,-7.94s-23.49,3.38 -26.86,0c-5.28,-5.28 -2.88,-8.61 -2.88,-8.61l19.26,-0.68z" class="cls-15"/>
    <path id="svg_124" fill="#e0ac9b" d="m79.68,283.13c-0.41,-2.06 -0.34,-5.22 -2.62,-8.24c-0.71,-4.83 2.11,-5.83 3.88,-6.17c0,0 -13,-14.39 -13.6,-8.44c-0.75,7.6 -2.61,11.91 -4.45,14.08a37.34,37.34 0 0 1 -6.67,3.64c-2.62,3.87 24.33,9.41 23.46,5.13z" class="cls-9"/>
    <path id="svg_125" fill="url(#linear-gradient-2)" mix-blend-mode="multiply" d="m78,272.1l-12.08,14.13l-4.58,-11.35a41.63,41.63 0 0 0 3.08,-3.38c2.88,-3.59 4.9,-11.76 4.9,-11.76s3.9,9.48 8.68,12.36z" class="cls-23"/>
    <path id="svg_126" fill="#e0ac9b" d="m98.68,309.13a11.6,11.6 0 0 1 7.55,-1.21a18.79,18.79 0 0 1 4.24,2.45c0.51,0.42 -8.34,1.76 -8.69,1.46s-3.1,-2.7 -3.1,-2.7z" class="cls-9"/>
    <path id="svg_127" fill="#26282d" d="m81.08,276.86c3.07,1.89 8.84,23.5 10.46,25.95s7.2,3.89 8.83,4.43s-4.81,6.23 -6.16,6.5s-10.69,-16.75 -12,-23a65.94,65.94 0 0 1 -1.13,-13.88z" class="cls-8"/>
    <path id="svg_128" d="m76.55,250.29l0,0z"/>
    <path id="svg_129" fill="#fff" d="m66.52,274.63c1.3,0.87 8,5.69 9.69,5.7c0,0 3.19,-2.85 1.06,-5.86c-0.78,-1.1 1.25,1.66 2,1.66s11.3,32.43 8.47,35.17s-9.91,0.58 -12.15,-1.37s-14.73,-35 -14.73,-35l5.66,-0.3z" class="cls-7"/>
    <path id="svg_130" d="m63.46,271.43c1,-1 6.34,9.12 13.55,23.67c0.43,0.87 2.75,5.38 2.92,14.51c0.06,3.06 3.91,14.76 -1.69,16.38c-4.51,1.31 -19,3.52 -23.14,1.35c-1.94,-1 3.46,-10.14 2,-17.9s-3.9,-11.34 -5.4,-15.21a28.66,28.66 0 0 1 -1.18,-14.87c2.3,-2.36 6.48,-1.6 12.94,-7.93z"/>
    <path id="svg_131" d="m77.27,274.47c1.27,1.08 1.37,0.49 3,1.39s5.51,13.1 5.88,16.53s1.63,8.7 3.25,11.14s5.5,4.57 6.31,5.65s-1.89,2.71 -4.06,3s-5.78,-1.35 -6,-3s0.32,-10.65 -0.76,-15.79s-7.62,-18.92 -7.62,-18.92z"/>
    <path id="svg_132" fill="#fff" d="m75.43,270.87c0.35,0.46 5.35,7.38 6.08,8c-1.4,0.22 -2.17,-1.6 -2.86,-0.05c-0.43,1 -1.12,0.18 -1.12,0.18a40.65,40.65 0 0 0 -0.92,-5.19c-0.37,-0.81 -1.18,-2.94 -1.18,-2.94z" class="cls-7"/>
    <path id="svg_133" fill="#fff" d="m75,280.54c-2.52,-1.17 -8.31,-0.35 -9.57,0.64c0,0 -4.46,-6.6 -3.93,-7.32c0.21,-0.27 3.12,-4.69 3.12,-4.69a12.79,12.79 0 0 0 3,5.33c2.49,2.59 2.19,2.43 7.38,6.04z" class="cls-7"/>
    <polygon id="svg_134" fill="#999daa" points="72.16000366210938,317.6300048828125 96.77999877929688,318.94000244140625 113.08000183105469,309.47999572753906 88.12000274658203,310.4100036621094 72.16000366210938,317.6300048828125 " class="cls-2"/>
    <polygon id="svg_135" fill="#fff" points="77.4800033569336,315.97999572753906 96.94999694824219,316.57000732421875 108.0999984741211,310.5800018310547 88.25,311.6699981689453 77.4800033569336,315.97999572753906 " class="cls-7"/>
    <path id="svg_136" fill="#fff" d="m85.68,304a1.16,1.16 0 0 0 -0.19,0.57a0.89,0.89 0 0 0 0.31,0.63a11,11 0 0 0 2.7,2.29c0.1,0 0.15,-0.06 0.13,-0.14a1.86,1.86 0 0 0 -0.49,-0.68a0.69,0.69 0 0 1 -0.36,0a16.15,16.15 0 0 1 -1.49,-1.67c-0.06,-0.1 0,-0.17 0.13,-0.21a5.69,5.69 0 0 1 -0.74,-0.79z" class="cls-7"/>
    <path id="svg_137" d="m95.44,313.39s0.1,0.28 0.06,0.32s-0.32,-0.09 -0.32,-0.09l0.26,-0.23z"/>
    <path id="svg_138" fill="#7aa7d6" d="m95.45,313.39a7.86,7.86 0 0 0 -0.79,-1.24l-0.64,0.59a9.45,9.45 0 0 0 1.17,0.9a3.51,3.51 0 0 0 0.26,-0.25z" class="cls-24"/>
    <path id="svg_139" fill="#700000" d="m94.68,312.17c-0.24,-0.38 -4.47,-5.24 -4.47,-5.24l-1.07,1s4.54,4.58 4.91,4.84c0.38,-0.35 0.57,-0.53 0.63,-0.6z" class="cls-19"/>
    <path id="svg_140" fill="#96c3f2" d="m86.18,303.63l0,0l0.5,-0.53s-0.59,-0.72 -1.17,-0.2l0,0c-0.57,0.54 0.06,1.14 0.1,1.18l0.57,-0.45l0,0z" class="cls-25"/>
    <path id="svg_141" fill="#700000" d="m89.53,307.27l0.17,-0.11l0,0l0.38,-0.38s-3.26,-3.62 -3.46,-3.75a6.41,6.41 0 0 0 -0.54,0.49c-0.12,0.1 -0.29,0.26 -0.54,0.5c0.12,0.2 3.42,3.67 3.45,3.71l0.41,-0.3l0,0l0.13,-0.16z" class="cls-19"/>
    <path id="svg_142" fill="#900" d="m90.21,306.93l-0.51,0.48l4.67,5.06c0.17,-0.15 0.27,-0.26 0.31,-0.3c-0.24,-0.38 -4.47,-5.24 -4.47,-5.24z" class="cls-18"/>
    <path id="svg_143" fill="#900" d="m89.67,307.13l0.38,-0.38s-3.27,-3.63 -3.47,-3.77l-0.51,0.49l3.49,3.79l0.14,-0.1l-0.03,-0.03z" class="cls-18"/>
    <path id="svg_144" fill="#fff" d="m85.53,302.88l0.54,0.58l0.51,-0.49a0.77,0.77 0 0 0 -1.05,-0.09z" class="cls-7"/>
    <path id="svg_145" fill="#fff" d="m90.3,306.9l-0.25,-0.27l0,0l-0.55,0.51l0.28,0.31l0.56,-0.51l-0.04,-0.04z" class="cls-7"/>
    <path id="svg_146" fill="#e0ac9b" d="m76.83,308.49c1.29,0.29 4.9,-0.39 6.23,-0.42c2.27,0 6.43,-1.29 7.21,-1.06a16.06,16.06 0 0 1 2.73,0.99c1,0.58 1,1.18 0.52,1.64a0.89,0.89 0 0 1 -0.71,0.12s0.82,0.54 0.81,1c0,0.88 -0.49,0.75 -1.14,0.83c0.77,0.37 0.84,1.43 -0.32,1.44c0.72,0.8 0.19,1 -1.71,1.32a43.59,43.59 0 0 1 -8.2,-0.76a36.75,36.75 0 0 0 -5.66,-0.19l0.24,-4.91z" class="cls-9"/>
    <polygon id="svg_147" fill="#fff" points="81.72000122070312,306.7200012207031 84.25,307.63999938964844 82.62000274658203,315.9100036621094 78.44000244140625,315.00999450683594 81.72000122070312,306.7200012207031 " class="cls-7"/>
    <path id="svg_148" fill="#26282d" d="m52,278.63c-3.07,0.83 -4,5.47 -3.24,9.26s3.29,20.17 6.17,22.77c3.93,3.55 26.18,7.48 26.18,7.48s0.67,-10.3 1.49,-10.84s-17.07,-2.89 -18.15,-5.06s-4.29,-17.56 -6.31,-20.17c-1.4,-1.81 -2.08,-4.52 -6.14,-3.44z" class="cls-8"/>
    <path id="svg_149" fill="#e0ac9b" d="m100.36,309.09c0.32,0.64 2,1.14 3.26,0.87a7.14,7.14 0 0 1 2.82,0.17c0.65,0.06 1.62,-0.21 0.77,-0.66a14.67,14.67 0 0 0 -2.62,-1s-2.44,-0.79 -3.89,0.06l-0.34,0.56z" class="cls-9"/>
    <path id="svg_150" fill="#e0ac9b" d="m67.47,257.19c1,-8 3.84,-12.47 10.17,-11.7s8.36,6.24 7.36,14.19c-0.15,1.18 -1.23,9.93 -6.37,13.86c-1.24,0.94 -2.16,0.13 -3.5,-0.29c-6.05,-1.87 -8.62,-8.11 -7.66,-16.06z" class="cls-9"/>
    <path id="svg_151" fill="#26282d" d="m81.15,254.66c2.49,0 3.8,2.28 4.18,4.81c3.3,-6.59 -2.69,-13.68 -7.34,-13.93c-3.52,-0.2 -5.75,-0.09 -5.67,1.08s8.83,8.04 8.83,8.04z" class="cls-8"/>
    <path id="svg_152" d="m82.42,254.53c-1.5,0.41 -9.43,-0.34 -11.53,5.83c0,0 -1.61,-2.94 -2.56,-1.54a4.19,4.19 0 0 0 0.53,5.25l-1.24,3.82s-5.1,-3.27 -5.34,-11.51c-0.28,-9.36 9.8,-14 16.3,-11.14c3.14,1.37 3.84,9.29 3.84,9.29z"/>
    <path id="svg_153" d="m69.07,264.19c-0.58,2.25 1.79,9.31 2.26,10c-3,0.08 -9.11,-6 -9.63,-7.47s-1.24,-12.56 2.11,-16.1c2.33,-2.48 1.28,4.6 1.59,7s3.67,6.57 3.67,6.57z"/>
    <path id="svg_154" fill="#999daa" d="m74.59,392.64c0,-3.4 -1.53,-50.75 -2.53,-58.59l0,0c-0.5,-4.13 -0.78,-8.55 -2,-11.72l0,0c-1.28,-3.17 -2.84,-5 -7,-5.19l0,0c-0.66,0 -1.36,0 -2.11,0l0,0a199,199 0 0 0 -21.86,1.63l0,0l-0.43,-3.22a204.51,204.51 0 0 1 22.34,-1.69l0,0c0.78,0 1.53,0 2.23,0l0,0a10.26,10.26 0 0 1 9.87,7.31l0,0c1.42,3.88 1.65,8.47 2.16,12.45l0,0c1,8.37 2.53,55.29 2.54,59l-3.21,0l0,0.02z" class="cls-2"/>
    <rect transform="rotate(-73.07 72.92 604.99)" id="svg_155" fill="#fff" height="7.46" width="4.86" y="810.99999" x="464.9" class="cls-7"/>
    <polygon id="svg_156" fill="#a380b7" points="391.9599914550781,288.7799987792969 385.45001220703125,286.7899932861328 385.7200012207031,285.86000061035156 392.239990234375,287.8500061035156 391.9599914550781,288.7799987792969 " class="cls-12"/>
    <rect transform="rotate(-11.02 -39.72 121.44)" id="svg_157" fill="#d4d5d6" height="3.8" width="5.83" y="315.59" x="160.58" class="cls-16"/>
    <rect transform="rotate(-11.02 -39.53 121.42)" id="svg_158" fill="#a380b7" height="0.75" width="5.32" y="315.96" x="160.8" class="cls-12"/>
    <path id="svg_159" fill="#0d2263" d="m151.52,387.46a0.64,0.64 0 0 1 -0.59,0.68l-4.71,0a0.65,0.65 0 0 1 -0.6,-0.68l0,-38.62a0.65,0.65 0 0 1 0.6,-0.68l4.71,0a0.64,0.64 0 0 1 0.59,0.68l0,38.62z" class="cls-14"/>
    <path id="svg_160" fill="#0d2263" d="m312.69,387.46a0.66,0.66 0 0 1 -0.62,0.68l-4.93,0a0.65,0.65 0 0 1 -0.61,-0.68l0,-38.62a0.65,0.65 0 0 1 0.61,-0.68l4.93,0a0.66,0.66 0 0 1 0.62,0.68l0,38.62z" class="cls-14"/>
    <path id="svg_161" fill="#1f3e93" d="m326.58,348.46c0.62,0.4 -0.37,0.87 -0.94,0.87l-193.39,0c-0.57,0 -0.86,-0.62 -0.15,-1l11.84,-8.24a4.47,4.47 0 0 1 1.77,-0.51l169,0a3.61,3.61 0 0 1 1.64,0.51l10.23,8.37z" class="cls-15"/>
    <path id="svg_162" fill="#0d2263" d="m326.9,360a1,1 0 0 1 -0.88,1.16l-193.92,0c-0.48,0 -0.87,-0.52 -0.87,-1.16l0,-10.52c0,-0.64 0.39,-1.16 0.87,-1.16l193.9,0a1,1 0 0 1 0.88,1.16l0.02,10.52z" class="cls-14"/>
    <path id="svg_163" fill="#0d2263" d="m138.28,401.64a0.77,0.77 0 0 1 -0.71,0.81l-5.64,0a0.76,0.76 0 0 1 -0.7,-0.81l0,-46.22a0.77,0.77 0 0 1 0.7,-0.82l5.64,0a0.77,0.77 0 0 1 0.71,0.82l0,46.22z" class="cls-14"/>
    <path id="svg_164" fill="#0d2263" d="m326.9,401.64a0.78,0.78 0 0 1 -0.74,0.81l-5.9,0a0.78,0.78 0 0 1 -0.74,-0.81l0,-46.22a0.78,0.78 0 0 1 0.74,-0.82l5.9,0a0.78,0.78 0 0 1 0.74,0.82l0,46.22z" class="cls-14"/>
    <path id="svg_165" opacity="0.67" fill="#fff" d="m163.13,332.12c0,0.3 -1.8,0.55 -4,0.57s-4,-0.2 -4,-0.5s1.8,-0.53 4,-0.56s4,0.21 4,0.49z" class="cls-26"/>
    <path id="svg_166" opacity="0.57" fill="#fff" d="m163.12,332.09l0,0s0,0 0,0zm-8.07,0.07l0,0l0,0zm4,0.54c-2.12,0 -3.85,-0.18 -4,-0.45l1.47,11.66l0,0c0,0.19 1.56,0.38 3.06,0.36s2.29,-0.2 2.36,-0.39l0,0l1.16,-11.76c-0.01,0.32 -1.8,0.56 -4.02,0.58l-0.03,0zm-4.05,-0.49l0,0l0,-0.07s0,0.06 0,0.07zm8.09,-0.07z" class="cls-27"/>
    <g id="svg_167" opacity="0.73" class="cls-28">
     <g id="svg_168" opacity="0.6" class="cls-29">
      <path id="svg_169" fill="#fff" d="m156.54,343.91c0,0.2 1.25,0.42 3.06,0.37c1.44,0 2.28,-0.2 2.36,-0.4l0,0l0.89,-9.19a18.24,18.24 0 0 1 -7.46,0.12l1.15,9.07s0,0.02 0,0.03z" class="cls-7"/>
     </g>
     <g id="svg_170" opacity="0.8" class="cls-30">
      <path id="svg_171" fill="#fff" d="m162,343.89l0,0l0.89,-9.18a17.26,17.26 0 0 1 -3.81,0.44l0.21,9.13l0.33,0c1.38,-0.01 2.26,-0.2 2.38,-0.39z" class="cls-7"/>
     </g>
    </g>
    <path id="svg_172" opacity="0.67" fill="#fff" d="m213.81,330.77c0,0.29 -1.8,0.55 -4,0.57s-4.05,-0.21 -4.05,-0.5s1.81,-0.53 4,-0.56s4.05,0.2 4.05,0.49z" class="cls-26"/>
    <path id="svg_173" opacity="0.57" fill="#fff" d="m213.8,330.74l0,0l0,0zm-8.06,0.07l0,0zm4,0.54c-2.12,0 -3.84,-0.18 -4,-0.45l1.47,11.66l0,0c0,0.2 1.56,0.39 3.06,0.37s2.28,-0.21 2.37,-0.39l0,0l1.16,-11.76c-0.02,0.3 -1.8,0.55 -4.04,0.57l-0.02,0zm-4,-0.49s0,0 0,0l0,-0.08s-0.03,0.06 -0.03,0.08l0.03,0zm8.09,-0.07z" class="cls-27"/>
    <g id="svg_174" opacity="0.73" class="cls-28">
     <g id="svg_175" opacity="0.6" class="cls-29">
      <path id="svg_176" fill="#fff" d="m207.22,342.56c0,0.2 1.25,0.42 3.06,0.37c1.45,0 2.28,-0.21 2.36,-0.4l0,0l0.9,-9.19a18.29,18.29 0 0 1 -7.47,0.12l1.15,9.07l0,0.03z" class="cls-7"/>
     </g>
     <g id="svg_177" opacity="0.8" class="cls-30">
      <path id="svg_178" fill="#fff" d="m212.64,342.54l0,0l0.9,-9.19a17.94,17.94 0 0 1 -3.81,0.45l0.2,9.13l0.33,0c1.47,-0.01 2.3,-0.21 2.38,-0.39z" class="cls-7"/>
     </g>
    </g>
    <polygon id="svg_179" fill="#b0b3b7" points="197.67999267578125,335.9599914550781 199.3699951171875,342.8900146484375 191.25999450683594,342.8900146484375 197.67999267578125,335.9599914550781 " class="cls-31"/>
    <polygon id="svg_180" fill="#fff" points="195.64999389648438,345.0799865722656 172,345.0799865722656 174.02999877929688,335.9599914550781 197.67999267578125,335.9599914550781 195.64999389648438,345.0799865722656 " class="cls-7"/>
    <polygon id="svg_181" fill="#d4d5d6" points="197.44000244140625,336.239990234375 174,336.1600036621094 174.08999633789062,335.9599914550781 197.60000610351562,335.9599914550781 197.44000244140625,336.239990234375 " class="cls-16"/>
    <polygon id="svg_182" fill="#d4d5d6" points="193.50999450683594,339.1300048828125 176.72000122070312,339.1300048828125 177.07000732421875,337.989990234375 193.83999633789062,337.989990234375 193.50999450683594,339.1300048828125 " class="cls-16"/>
    <polygon id="svg_183" fill="#d4d5d6" points="190.4499969482422,341.6199951171875 178.80999755859375,341.6199951171875 179.13999938964844,340.3999938964844 190.58999633789062,340.3999938964844 190.4499969482422,341.6199951171875 " class="cls-16"/>
    <polygon id="svg_184" fill="#b0b3b7" points="252.75,335.45001220703125 251.05999755859375,342.3800048828125 259.1700134277344,342.3800048828125 252.75,335.45001220703125 " class="cls-31"/>
    <polygon id="svg_185" fill="#fff" points="254.77999877929688,344.57000732421875 278.42999267578125,344.57000732421875 276.3999938964844,335.45001220703125 252.75,335.45001220703125 254.77999877929688,344.57000732421875 " class="cls-7"/>
    <polygon id="svg_186" fill="#d4d5d6" points="253,335.739990234375 276.44000244140625,335.6499938964844 276.3399963378906,335.45001220703125 252.83999633789062,335.45001220703125 253,335.739990234375 " class="cls-16"/>
    <polygon id="svg_187" fill="#d4d5d6" points="256.92999267578125,338.6300048828125 273.7099914550781,338.6300048828125 273.3599853515625,337.4800109863281 256.6000061035156,337.4800109863281 256.92999267578125,338.6300048828125 " class="cls-16"/>
    <polygon id="svg_188" fill="#d4d5d6" points="259.9800109863281,341.1199951171875 271.6300048828125,341.1199951171875 271.29998779296875,339.8900146484375 259.8399963378906,339.8900146484375 259.9800109863281,341.1199951171875 " class="cls-16"/>
    <polygon id="svg_189" fill="#b0b3b7" points="239.24000549316406,335.9599914550781 240.92999267578125,342.8900146484375 232.82000732421875,342.8900146484375 239.24000549316406,335.9599914550781 " class="cls-31"/>
    <polygon id="svg_190" fill="#fff" points="240.1699981689453,345.0799865722656 213.55999755859375,345.0799865722656 215.58999633789062,335.9599914550781 239.24000549316406,335.9599914550781 240.1699981689453,345.0799865722656 " class="cls-7"/>
    <polygon id="svg_191" fill="#d4d5d6" points="239,336.239990234375 215.55999755859375,336.1600036621094 215.64999389648438,335.9599914550781 239.16000366210938,335.9599914550781 239,336.239990234375 " class="cls-16"/>
    <polygon id="svg_192" fill="#d4d5d6" points="235.89999389648438,339.260009765625 218.6999969482422,339.260009765625 219.0500030517578,338.1099853515625 235.82000732421875,338.1099853515625 235.89999389648438,339.260009765625 " class="cls-16"/>
    <polygon id="svg_193" fill="#d4d5d6" points="232.9499969482422,341.75 221,341.75 221.3300018310547,340.5199890136719 232.7899932861328,340.5199890136719 232.9499969482422,341.75 " class="cls-16"/>
    <path id="svg_194" opacity="0.8" fill="#fff" d="m299.71,343.1c-0.65,0 -1,-0.84 -1,-1.77l0,0l0,-13.07a4.17,4.17 0 0 1 1.74,-2.62l0,0c0.16,-0.22 0.19,-0.12 0.2,-0.59l0,0c0,-0.13 0,-0.28 0,-0.47l0,0l0,-0.14l0.14,0c1,0 1.35,-0.05 1.38,0.08l0,0l0.14,-0.14l0.06,0c0.05,0 0.05,0 0.19,0.14l0,0l-0.14,-0.14l1.52,0.06l0.17,0l-0.05,0.17a2.33,2.33 0 0 0 -0.07,0.5l0,0c0,0.32 0.11,0.33 0.27,0.52l0,0a4.32,4.32 0 0 1 1.74,2.63l0,0l0,13.07c0,0.93 -0.39,1.74 -1,1.77l-5.21,0l-0.08,0zm1.19,-18.05a0.9,0.9 0 0 1 -0.3,0.79l0,0a4,4 0 0 0 -1.64,2.42l0,0l0,13.07c0,0.88 0.41,1.49 0.75,1.49l5.21,0c0.34,0 0.75,-0.61 0.75,-1.49l0,0l0,-13.07a4.17,4.17 0 0 0 -1.65,-2.43l0,0l0.09,-0.11l-0.12,0.08a0.87,0.87 0 0 1 -0.32,-0.69l0,0a2.25,2.25 0 0 1 0,-0.41l0,0a4.73,4.73 0 0 1 -1.37,-0.14l0,0l0,0l0.05,0.06l-0.05,0s-0.05,0 0,0l0,0l0,0l-1.37,0l0,0c0,0.14 0,0.25 0,0.35l-0.03,0.08zm1.42,-0.46l0,0l0,0l-0.1,0l0,0l0.08,0.07l0.02,-0.07z" class="cls-32"/>
    <path id="svg_195" opacity="0.4" fill="#fff" d="m304.12,325.75c-0.17,-0.22 -0.43,-0.29 -0.22,-1.15l-1.51,-0.06l-0.12,0l-1.51,0.06c0.07,1 0,0.93 -0.22,1.14a4.05,4.05 0 0 0 -1.7,2.54l0,13.08c0,0.9 0.39,1.63 0.89,1.63l5.21,0c0.49,0 0.89,-0.73 0.89,-1.63l0,-13.08a4,4 0 0 0 -1.71,-2.53z" class="cls-33"/>
    <path id="svg_196" opacity="0.5" fill="#fff" d="m305.45,330.94l0,10.19c0,0.84 -0.36,1.52 -0.8,1.52l-4.65,0c-0.44,0 -0.8,-0.68 -0.8,-1.52l-0.1,-10.23a31.5,31.5 0 0 0 6.35,0.04z" class="cls-34"/>
    <path id="svg_197" opacity="0.7" fill="#fff" d="m305.43,330.87a26.62,26.62 0 0 1 -6.35,0a26.62,26.62 0 0 1 6.35,0z" class="cls-35"/>
    <path id="svg_198" mix-blend-mode="multiply" fill="#d4d5d6" d="m301,340.94l0,-12.88a4,4 0 0 1 1.69,-2.5c0.15,-0.2 0.25,-0.2 0.23,-0.89l-0.56,0l-1.49,0.05c0.07,0.95 0,0.92 -0.21,1.13a4,4 0 0 0 -1.68,2.5l0,12.89c0,0.89 0.39,1.6 0.87,1.6l5.15,0a0.66,0.66 0 0 0 0.47,-0.28l-3.58,0c-0.53,-0.01 -0.89,-0.73 -0.89,-1.62z" class="cls-36"/>
    <polygon id="svg_199" fill="url(#linear-gradient-3)" opacity="0.4" mix-blend-mode="multiply" points="303.95001220703125,324.6999969482422 302.8399963378906,327.38999938964844 300.5400085449219,326.8000030517578 300.8800048828125,324.6499938964844 303.95001220703125,324.6999969482422 " class="cls-37"/>
    <path id="svg_200" fill="#cde3e8" d="m304.1,324.92l0,-1.21c0,-0.42 -0.21,-0.76 -0.47,-0.76l-2.72,0c-0.26,0 -0.46,0.34 -0.46,0.76l0,1.21l3.65,0z" class="cls-38"/>
    <path id="svg_201" fill="#fff" d="m303.85,324.56a0.1,0.1 0 0 1 -0.09,0.09l0,0a0.1,0.1 0 0 1 -0.08,-0.09l0,-1.07a0.09,0.09 0 0 1 0.08,-0.09l0,0a0.09,0.09 0 0 1 0.09,0.09l0,1.07z" class="cls-7"/>
    <path id="svg_202" fill="#fff" d="m303.51,324.56a0.09,0.09 0 0 1 -0.08,0.09l0,0a0.1,0.1 0 0 1 -0.08,-0.09l0,-1.07a0.09,0.09 0 0 1 0.08,-0.09l0,0a0.08,0.08 0 0 1 0.08,0.09l0,1.07z" class="cls-7"/>
    <path id="svg_203" fill="#fff" d="m303.18,324.56a0.1,0.1 0 0 1 -0.08,0.09l0,0a0.1,0.1 0 0 1 -0.08,-0.09l0,-1.07a0.09,0.09 0 0 1 0.08,-0.09l0,0a0.09,0.09 0 0 1 0.08,0.09l0,1.07z" class="cls-7"/>
    <path id="svg_204" fill="#fff" d="m302.85,324.56a0.09,0.09 0 0 1 -0.08,0.09l0,0a0.1,0.1 0 0 1 -0.08,-0.09l0,-1.07a0.09,0.09 0 0 1 0.08,-0.09l0,0a0.08,0.08 0 0 1 0.08,0.09l0,1.07z" class="cls-7"/>
    <path id="svg_205" fill="#fff" d="m302.52,324.56a0.1,0.1 0 0 1 -0.08,0.09l0,0a0.09,0.09 0 0 1 -0.08,-0.09l0,-1.07a0.08,0.08 0 0 1 0.08,-0.09l0,0a0.09,0.09 0 0 1 0.08,0.09l0,1.07z" class="cls-7"/>
    <path id="svg_206" fill="#fff" d="m302.18,324.56a0.09,0.09 0 0 1 -0.08,0.09l0,0a0.1,0.1 0 0 1 -0.08,-0.09l0,-1.07a0.09,0.09 0 0 1 0.08,-0.09l0,0a0.08,0.08 0 0 1 0.08,0.09l0,1.07z" class="cls-7"/>
    <path id="svg_207" fill="#fff" d="m301.85,324.56a0.1,0.1 0 0 1 -0.08,0.09l0,0a0.1,0.1 0 0 1 -0.08,-0.09l0,-1.07a0.09,0.09 0 0 1 0.08,-0.09l0,0a0.09,0.09 0 0 1 0.08,0.09l0,1.07z" class="cls-7"/>
    <path id="svg_208" fill="#fff" d="m301.52,324.56a0.1,0.1 0 0 1 -0.08,0.09l0,0a0.1,0.1 0 0 1 -0.08,-0.09l0,-1.07a0.09,0.09 0 0 1 0.08,-0.09l0,0a0.09,0.09 0 0 1 0.08,0.09l0,1.07z" class="cls-7"/>
    <path id="svg_209" fill="#fff" d="m301.19,324.56a0.09,0.09 0 0 1 -0.08,0.09l0,0a0.09,0.09 0 0 1 -0.08,-0.09l0,-1.07a0.08,0.08 0 0 1 0.08,-0.09l0,0a0.08,0.08 0 0 1 0.08,0.09l0,1.07z" class="cls-7"/>
    <path id="svg_210" fill="#fff" d="m300.86,324.56a0.1,0.1 0 0 1 -0.08,0.09l0,0a0.1,0.1 0 0 1 -0.09,-0.09l0,-1.07a0.09,0.09 0 0 1 0.09,-0.09l0,0a0.09,0.09 0 0 1 0.08,0.09l0,1.07z" class="cls-7"/>
    <path id="svg_211" fill="#42b7a1" opacity="0.8" d="m145.73,327.15c-0.18,-0.21 -0.43,-0.27 -0.23,-1.14l-1.5,-0.01l-0.13,0l-1.5,0.06c0.06,1 -0.05,0.93 -0.23,1.14a4.2,4.2 0 0 0 -1.7,2.54l0,13.08c0,0.9 0.4,1.63 0.89,1.63l5.21,0c0.49,0 0.89,-0.73 0.89,-1.63l0,-13.13a4.34,4.34 0 0 0 -1.7,-2.54z" class="cls-39"/>
    <path id="svg_212" opacity="0.3" fill="#fff" d="m147.08,332.37l0,10.2c0,0.84 -0.36,1.52 -0.8,1.52l-4.72,0c-0.44,0 -0.8,-0.68 -0.8,-1.52l-0.1,-10.24a30.72,30.72 0 0 0 6.42,0.04z" class="cls-40"/>
    <path id="svg_213" opacity="0.5" fill="#fff" d="m147,332.3a13.08,13.08 0 0 1 -3.17,0.19a13.08,13.08 0 0 1 -3.17,-0.19a13.71,13.71 0 0 1 3.17,-0.19a13.71,13.71 0 0 1 3.17,0.19z" class="cls-34"/>
    <path id="svg_214" opacity="0.3" fill="#42b7a1" mix-blend-mode="multiply" d="m142.59,342.38l0,-12.88a4,4 0 0 1 1.69,-2.51c0.15,-0.19 0.25,-0.19 0.22,-0.88l-0.43,0l-0.07,0l-1.48,0.06c0.06,0.94 -0.05,0.91 -0.22,1.13a4,4 0 0 0 -1.68,2.5l0,12.88c0,0.89 0.39,1.61 0.87,1.61l5.14,0a0.64,0.64 0 0 0 0.47,-0.29l-3.58,0c-0.52,0 -0.93,-0.73 -0.93,-1.62z" class="cls-41"/>
    <polygon id="svg_215" fill="url(#linear-gradient-4)" opacity="0.4" mix-blend-mode="multiply" points="145.55999755859375,326.13999938964844 144.4600067138672,328.8300018310547 142.16000366210938,328.22999572753906 142.5,326.0899963378906 145.55999755859375,326.13999938964844 " class="cls-42"/>
    <path id="svg_216" fill="#1f3e93" d="m145.72,326.35l0,-1.2c0,-0.42 -0.21,-0.77 -0.47,-0.77l-2.72,0c-0.26,0 -0.47,0.35 -0.47,0.77l0,1.2l3.66,0z" class="cls-15"/>
    <path id="svg_217" mix-blend-mode="soft-light" fill="#fff" d="m145.46,326a0.09,0.09 0 0 1 -0.08,0.1l0,0a0.1,0.1 0 0 1 -0.08,-0.1l0,-1.06a0.09,0.09 0 0 1 0.08,-0.1l0,0c0.05,0 0.08,0 0.08,0.1l0,1.06z" class="cls-43"/>
    <path id="svg_218" mix-blend-mode="soft-light" fill="#fff" d="m145.13,326a0.09,0.09 0 0 1 -0.08,0.1l0,0a0.1,0.1 0 0 1 -0.08,-0.1l0,-1.06a0.09,0.09 0 0 1 0.08,-0.1l0,0s0.08,0 0.08,0.1l0,1.06z" class="cls-43"/>
    <path id="svg_219" mix-blend-mode="soft-light" fill="#fff" d="m144.8,326a0.1,0.1 0 0 1 -0.08,0.1l0,0a0.1,0.1 0 0 1 -0.08,-0.1l0,-1.06a0.09,0.09 0 0 1 0.08,-0.1l0,0a0.09,0.09 0 0 1 0.08,0.1l0,1.06z" class="cls-43"/>
    <path id="svg_220" mix-blend-mode="soft-light" fill="#fff" d="m144.47,326a0.1,0.1 0 0 1 -0.08,0.1l0,0a0.09,0.09 0 0 1 -0.08,-0.1l0,-1.06c0,-0.06 0,-0.1 0.08,-0.1l0,0a0.09,0.09 0 0 1 0.08,0.1l0,1.06z" class="cls-43"/>
    <path id="svg_221" mix-blend-mode="soft-light" fill="#fff" d="m144.14,326a0.1,0.1 0 0 1 -0.08,0.1l0,0a0.09,0.09 0 0 1 -0.08,-0.1l0,-1.06c0,-0.06 0,-0.1 0.08,-0.1l0,0a0.09,0.09 0 0 1 0.08,0.1l0,1.06z" class="cls-43"/>
    <path id="svg_222" mix-blend-mode="soft-light" fill="#fff" d="m143.8,326a0.09,0.09 0 0 1 -0.08,0.1l0,0a0.1,0.1 0 0 1 -0.08,-0.1l0,-1.06a0.09,0.09 0 0 1 0.08,-0.1l0,0c0.05,0 0.08,0 0.08,0.1l0,1.06z" class="cls-43"/>
    <path id="svg_223" mix-blend-mode="soft-light" fill="#fff" d="m143.47,326a0.09,0.09 0 0 1 -0.08,0.1l0,0a0.1,0.1 0 0 1 -0.08,-0.1l0,-1.06a0.09,0.09 0 0 1 0.08,-0.1l0,0c0.05,0 0.08,0 0.08,0.1l0,1.06z" class="cls-43"/>
    <path id="svg_224" mix-blend-mode="soft-light" fill="#fff" d="m143.14,326a0.1,0.1 0 0 1 -0.08,0.1l0,0a0.09,0.09 0 0 1 -0.08,-0.1l0,-1.06c0,-0.06 0,-0.1 0.08,-0.1l0,0a0.09,0.09 0 0 1 0.08,0.1l0,1.06z" class="cls-43"/>
    <path id="svg_225" mix-blend-mode="soft-light" fill="#fff" d="m142.81,326a0.1,0.1 0 0 1 -0.08,0.1l0,0a0.1,0.1 0 0 1 -0.09,-0.1l0,-1.06a0.09,0.09 0 0 1 0.09,-0.1l0,0a0.09,0.09 0 0 1 0.08,0.1l0,1.06z" class="cls-43"/>
    <path id="svg_226" mix-blend-mode="soft-light" fill="#fff" d="m142.47,326a0.09,0.09 0 0 1 -0.08,0.1l0,0s-0.07,-0.05 -0.07,-0.1l0,-1.06c0,-0.06 0,-0.1 0.07,-0.1l0,0c0.05,0 0.08,0 0.08,0.1l0,1.06z" class="cls-43"/>
   </g>
  </g>
 </g>
</svg>