<svg id="Слой_1" data-name="Слой 1" xmlns="http://www.w3.org/2000/svg" viewBox="0 0 3000 2000"><defs><style>.cls-1{fill:#c0d8fb;}.cls-2{fill:#2e3552;}.cls-3{fill:#dceaff;}.cls-4{fill:#ffa412;}.cls-5{fill:#ffb93e;}.cls-6,.cls-7{fill:#e2810e;}.cls-7{opacity:0.5;}.cls-8{fill:#ffeddc;}.cls-9{fill:#db6a1d;}.cls-10{fill:#e5c1a1;}.cls-11{fill:#f9ddbf;}.cls-12{fill:#233862;}.cls-13{fill:#ed7d2b;}.cls-14{fill:#ffb27d;}.cls-15{fill:#f99746;}.cls-16{fill:#ed975d;}.cls-17{fill:#2b478b;}.cls-18{fill:#fff;}.cls-19{fill:#ebf3fa;}</style></defs><polygon class="cls-1" points="2447.02 913.22 2194.73 996.65 2245.38 1038.87 2245.38 1038.87 2027.08 1267.39 1835.73 1103.09 1071.91 1728.94 1078.63 1729.05 1268.91 1729.05 1833.85 1266.16 2035.59 1439.37 2341.57 1119.04 2341.58 1119.04 2396.24 1164.6 2447.02 913.22"/><rect class="cls-2" x="189.59" y="1791.37" width="2611.41" height="6.93" rx="2.96"/><polygon class="cls-3" points="1223.8 1400.99 1164.46 1795.37 638.7 1716.25 638.69 1716.25 417.17 1682.92 476.5 1288.56 890.14 1350.79 1223.8 1400.99"/><path class="cls-1" d="M1174.44,1438.66l-46.07,306.17L456.69,1643.76l46.06-306.17Zm-49.74,267.2,34.74-230.9a28.69,28.69,0,0,0-24.11-32.64l-595.76-89.65a29.22,29.22,0,0,0-33.24,24.54l-34.6,230a29,29,0,0,0,24.34,33l596.14,89.7A28.56,28.56,0,0,0,1124.7,1705.86Z"/><path class="cls-1" d="M803.17,1623.59a83.3,83.3,0,1,1,94.77-70A83.29,83.29,0,0,1,803.17,1623.59Z"/><polygon class="cls-3" points="1272.19 1402.83 959.41 1650.26 629.56 1233.26 629.55 1233.25 490.57 1057.55 803.35 810.14 1062.86 1138.2 1272.19 1402.83"/><path class="cls-1" d="M1210.41,1396.61,967.58,1588.69,546.18,1056,789,863.88ZM991.52,1557.73l183.13-144.86a28.7,28.7,0,0,0,4.71-40.31L805.59,900a29.22,29.22,0,0,0-41-4.78L582.16,1039.54a29,29,0,0,0-4.75,40.69l374,472.82A28.54,28.54,0,0,0,991.52,1557.73Z"/><circle class="cls-1" cx="878.29" cy="1226.29" r="83.3" transform="translate(-482.03 574.59) rotate(-28.79)"/><path class="cls-4" d="M1948.36,963.49a8.68,8.68,0,0,1,1.19-1.88h0a9,9,0,0,1,1.15-1.16l1.74-1.76.46.33c8.89-4.35,27.26.26,45.83,12.39,22.45,14.66,36.87,34.85,32.71,45.57l.63.47-2.49,2.49-.37.37-.07.07h0a10.39,10.39,0,0,1-2.16,1.5h0c-8.78,4.6-27.34,0-46.12-12.24C1958,994.72,1943.42,974.05,1948.36,963.49Z"/><path class="cls-5" d="M2001.4,968.73c-22.87-14.93-45.42-18.47-50.37-7.91s9.59,31.23,32.46,46.16,45.43,18.48,50.37,7.91S2024.28,983.66,2001.4,968.73Z"/><path class="cls-4" d="M1984.76,1004c-9.57-6.27-17.82-13.83-23.23-21.28-5.53-7.62-7.44-14.3-5.38-18.8a8.73,8.73,0,0,1,5.89-4.69c8.44-2.43,23.39,2.22,38.09,11.85h0c9.58,6.27,17.83,13.82,23.23,21.27,5.53,7.63,7.44,14.31,5.38,18.8a8.69,8.69,0,0,1-5.88,4.7,18.22,18.22,0,0,1-5,.63C2009.15,1016.47,1996.87,1011.92,1984.76,1004Zm-22.26-43.16a7.11,7.11,0,0,0-4.82,3.78c-1.77,3.87.13,10.1,5.21,17.12,5.29,7.29,13.38,14.7,22.79,20.86,11.72,7.67,23.91,12.2,32.2,12.2a16,16,0,0,0,4.51-.57,7.12,7.12,0,0,0,4.83-3.77c1.77-3.87-.13-10.11-5.22-17.12-5.28-7.29-13.38-14.7-22.78-20.86-11.73-7.68-23.91-12.2-32.2-12.2A16.45,16.45,0,0,0,1962.5,960.83Z"/><path class="cls-4" d="M2086.51,426.86a6.5,6.5,0,0,1,.84-1.33h0a6.35,6.35,0,0,1,.82-.82l1.23-1.25.33.23c6.31-3.09,19.35.19,32.54,8.8,15.94,10.41,26.17,24.74,23.22,32.35l.45.33-1.77,1.77-.27.26-.05.05h0a7.15,7.15,0,0,1-1.54,1.07h0c-6.23,3.27-19.41,0-32.74-8.69C2093.31,449,2083,434.36,2086.51,426.86Z"/><path class="cls-5" d="M2124.16,430.58c-16.23-10.6-32.24-13.11-35.76-5.61s6.81,22.17,23,32.77,32.25,13.11,35.76,5.62S2140.4,441.19,2124.16,430.58Z"/><path class="cls-4" d="M2112.35,455.61a63.78,63.78,0,0,1-16.49-15.1c-3.93-5.42-5.29-10.16-3.82-13.35a6.18,6.18,0,0,1,4.17-3.33c6-1.73,16.61,1.58,27.05,8.41h0a63.81,63.81,0,0,1,16.49,15.11c3.93,5.41,5.29,10.15,3.82,13.34a6.19,6.19,0,0,1-4.17,3.34,13.18,13.18,0,0,1-3.58.45C2129.67,464.48,2121,461.25,2112.35,455.61ZM2096.54,425a5.05,5.05,0,0,0-3.42,2.68c-1.26,2.74.09,7.17,3.7,12.15A62.9,62.9,0,0,0,2113,454.62c8.32,5.45,17,8.66,22.86,8.66a11.7,11.7,0,0,0,3.21-.4,5.05,5.05,0,0,0,3.42-2.68c1.26-2.75-.09-7.18-3.7-12.15a62.72,62.72,0,0,0-16.18-14.81c-8.32-5.45-17-8.67-22.86-8.67A11.31,11.31,0,0,0,2096.54,425Z"/><path class="cls-4" d="M2144.8,852.25a5.9,5.9,0,0,0-.87-1.37h0a6.74,6.74,0,0,0-.84-.85l-1.27-1.28-.33.24c-6.5-3.18-19.92.19-33.5,9-16.4,10.72-26.93,25.46-23.9,33.3l-.46.34,1.83,1.82a3.31,3.31,0,0,0,.26.27l.06,0h0a7.18,7.18,0,0,0,1.58,1.1h0c6.42,3.36,20,0,33.7-8.95C2137.8,875.07,2148.41,860,2144.8,852.25Z"/><path class="cls-5" d="M2106,856.08c16.72-10.91,33.19-13.5,36.81-5.78s-7,22.82-23.72,33.73-33.19,13.5-36.8,5.78S2089.33,867,2106,856.08Z"/><path class="cls-4" d="M2094,891a13.14,13.14,0,0,1-3.68-.47,6.34,6.34,0,0,1-4.29-3.42c-1.51-3.29-.11-8.17,3.93-13.74a65.68,65.68,0,0,1,17-15.55h0c10.74-7,21.67-10.43,27.84-8.66a6.4,6.4,0,0,1,4.3,3.43c1.5,3.29.11,8.17-3.93,13.74a65.9,65.9,0,0,1-17,15.55C2109.35,887.64,2100.38,891,2094,891Zm37.13-41.07c-6.06,0-15,3.3-23.53,8.91A64.72,64.72,0,0,0,2091,874.06c-3.72,5.12-5.11,9.68-3.81,12.5a5.2,5.2,0,0,0,3.52,2.77,12.36,12.36,0,0,0,3.3.41c6.06,0,15-3.31,23.53-8.92a64.36,64.36,0,0,0,16.65-15.24c3.72-5.13,5.11-9.68,3.81-12.51a5.2,5.2,0,0,0-3.52-2.76A12,12,0,0,0,2131.17,849.9Z"/><path class="cls-4" d="M1955.46,552.61a4.15,4.15,0,0,1,.52-.83h0a5.11,5.11,0,0,1,.52-.52l.77-.78.2.15c4-1.93,12.12.12,20.37,5.51,10,6.51,16.39,15.49,14.54,20.25l.29.21-1.11,1.11-.17.16,0,0h0a4.45,4.45,0,0,1-1,.67h0c-3.9,2-12.15,0-20.5-5.44C1959.72,566.49,1953.26,557.31,1955.46,552.61Z"/><path class="cls-5" d="M1979,554.94c-10.16-6.64-20.19-8.21-22.39-3.52s4.26,13.89,14.43,20.52,20.19,8.22,22.39,3.52S1989.2,561.58,1979,554.94Z"/><path class="cls-4" d="M1971.63,570.61a40,40,0,0,1-10.32-9.45c-2.46-3.39-3.31-6.36-2.39-8.36a3.9,3.9,0,0,1,2.61-2.09c3.76-1.08,10.4,1,16.94,5.27h0a40,40,0,0,1,10.32,9.46c2.46,3.39,3.31,6.36,2.39,8.35a3.83,3.83,0,0,1-2.61,2.09,8.12,8.12,0,0,1-2.24.28C1982.48,576.16,1977,574.14,1971.63,570.61Zm-9.89-19.18a3.15,3.15,0,0,0-2.14,1.68c-.79,1.72.05,4.49,2.31,7.61A39.36,39.36,0,0,0,1972,570c5.21,3.41,10.63,5.43,14.32,5.42a7.2,7.2,0,0,0,2-.25,3.16,3.16,0,0,0,2.15-1.68c.78-1.71-.06-4.49-2.32-7.6a39.21,39.21,0,0,0-10.13-9.28c-5.21-3.41-10.63-5.42-14.31-5.42A7.27,7.27,0,0,0,1961.74,551.43Z"/><path class="cls-4" d="M1195.3,873.12a7.52,7.52,0,0,0-1-1.58h0a8.16,8.16,0,0,0-1-1l-1.46-1.48-.39.29c-7.47-3.66-22.9.22-38.51,10.41-18.87,12.32-31,29.28-27.49,38.29l-.53.4,2.09,2.09.31.31.06.06h0a8.18,8.18,0,0,0,1.82,1.26h0c7.38,3.86,23,0,38.76-10.29C1187.25,899.36,1199.46,882,1195.3,873.12Z"/><path class="cls-5" d="M1150.73,877.52C1170,865,1188.9,862,1193.06,870.87s-8.06,26.25-27.28,38.8-38.17,15.52-42.33,6.65S1131.51,890.07,1150.73,877.52Z"/><path class="cls-4" d="M1136.93,917.65a15.34,15.34,0,0,1-4.23-.54,7.31,7.31,0,0,1-4.94-3.94c-1.74-3.78-.13-9.39,4.52-15.8s11.47-12.61,19.52-17.88h0c12.35-8.09,24.92-12,32-10a7.35,7.35,0,0,1,5,3.94c1.73,3.78.13,9.39-4.52,15.8s-11.48,12.62-19.52,17.88C1154.54,913.82,1144.22,917.65,1136.93,917.65Zm42.7-47.24c-7,0-17.21,3.8-27.06,10.26-7.91,5.17-14.71,11.4-19.15,17.53-4.27,5.89-5.87,11.13-4.38,14.38a6,6,0,0,0,4,3.18,13.82,13.82,0,0,0,3.8.47c7,0,17.2-3.8,27.06-10.26,7.9-5.17,14.7-11.4,19.15-17.52,4.27-5.9,5.87-11.14,4.38-14.39a6,6,0,0,0-4.06-3.17A13.36,13.36,0,0,0,1179.63,870.41Z"/><path class="cls-4" d="M991.59,632.19a4.61,4.61,0,0,0-.58-.92h0a3.84,3.84,0,0,0-.57-.57l-.85-.86-.22.16c-4.35-2.13-13.34.13-22.43,6.07-11,7.17-18,17-16,22.29l-.31.23,1.22,1.22.19.18,0,0h0a4.78,4.78,0,0,0,1.06.74h0c4.3,2.25,13.38,0,22.57-6C986.9,647.47,994,637.36,991.59,632.19Z"/><path class="cls-5" d="M965.63,634.76c11.19-7.31,22.23-9,24.65-3.87s-4.69,15.28-15.88,22.59-22.23,9-24.65,3.87S954.44,642.07,965.63,634.76Z"/><path class="cls-4" d="M957.6,658.12a9,9,0,0,1-2.47-.31,4.3,4.3,0,0,1-2.88-2.3c-1-2.2-.07-5.46,2.64-9.2a44.21,44.21,0,0,1,11.36-10.41h0c7.2-4.71,14.52-7,18.65-5.8a4.28,4.28,0,0,1,2.87,2.3c1,2.2.08,5.47-2.63,9.2A44,44,0,0,1,973.78,652C967.85,655.89,961.84,658.12,957.6,658.12Zm24.86-27.5c-4.06,0-10,2.21-15.76,6a43.39,43.39,0,0,0-11.15,10.2c-2.49,3.44-3.42,6.49-2.55,8.38a3.45,3.45,0,0,0,2.36,1.85,7.9,7.9,0,0,0,2.21.28c4.06,0,10-2.22,15.76-6a43.21,43.21,0,0,0,11.15-10.2c2.49-3.43,3.42-6.49,2.55-8.38a3.53,3.53,0,0,0-2.36-1.85A8.31,8.31,0,0,0,982.46,630.62Z"/><path class="cls-4" d="M1175.47,702.08a5.72,5.72,0,0,1,.74-1.18h0a7.08,7.08,0,0,1,.72-.73l1.09-1.1.28.21c5.56-2.72,17,.17,28.65,7.75,14,9.16,23,21.77,20.45,28.48l.39.29-1.56,1.56-.23.23,0,0h0a6.36,6.36,0,0,1-1.35.94h0c-5.49,2.88-17.09,0-28.83-7.65C1181.46,721.6,1172.38,708.68,1175.47,702.08Z"/><path class="cls-5" d="M1208.62,705.36c-14.29-9.34-28.39-11.55-31.48-5s6,19.52,20.29,28.85,28.39,11.55,31.48,5S1222.92,714.69,1208.62,705.36Z"/><path class="cls-4" d="M1198.22,727.39a56.24,56.24,0,0,1-14.52-13.3c-3.46-4.76-4.65-8.94-3.36-11.75a5.44,5.44,0,0,1,3.68-2.93c5.27-1.52,14.62,1.39,23.81,7.41h0a56.39,56.39,0,0,1,14.52,13.29c3.45,4.77,4.65,8.95,3.36,11.76a5.44,5.44,0,0,1-3.68,2.93,11.28,11.28,0,0,1-3.14.4C1213.47,735.2,1205.79,732.35,1198.22,727.39Zm-13.91-27a4.45,4.45,0,0,0-3,2.36c-1.11,2.42.08,6.32,3.26,10.7a55.27,55.27,0,0,0,14.24,13c7.33,4.8,15,7.63,20.13,7.62a10.12,10.12,0,0,0,2.82-.35,4.45,4.45,0,0,0,3-2.36c1.1-2.42-.08-6.32-3.26-10.7a55.16,55.16,0,0,0-14.25-13c-7.32-4.8-14.94-7.63-20.12-7.63A10.11,10.11,0,0,0,1184.31,700.42Z"/><path class="cls-5" d="M1723.94,1769.17v17.3a5.89,5.89,0,0,1-1.36,3.72,7.93,7.93,0,0,1-3.73,2.49,8.53,8.53,0,0,1-1.45.35,9.23,9.23,0,0,1-1.4.1H1387.83c-4.23,0-7.71-2.81-7.93-6.32,0-.11,0-.23,0-.34v-17.3c0-.12,0-.23,0-.35.22-3.51,3.7-6.32,7.93-6.32H1716a9.23,9.23,0,0,1,1.4.11,7.66,7.66,0,0,1,1.45.34,7.93,7.93,0,0,1,3.73,2.49A5.92,5.92,0,0,1,1723.94,1769.17Z"/><path class="cls-4" d="M1562.79,1793.13H1387a6.94,6.94,0,0,1-7.08-6.32c0-.11,0-.23,0-.34v-17.3c0-.12,0-.23,0-.35a6.94,6.94,0,0,1,7.08-6.32H1541.2A53.75,53.75,0,0,0,1562.79,1793.13Z"/><rect class="cls-4" x="1680.28" y="1762.5" width="3.73" height="30.64"/><rect class="cls-4" x="1667.65" y="1762.5" width="3.73" height="30.64"/><rect class="cls-4" x="1652.51" y="1762.5" width="3.73" height="30.64"/><rect class="cls-4" x="1629.3" y="1762.5" width="3.73" height="30.64"/><rect class="cls-4" x="1604.77" y="1762.5" width="3.73" height="30.64"/><rect class="cls-4" x="1567.14" y="1762.5" width="3.73" height="30.64"/><rect class="cls-4" x="1531.92" y="1762.5" width="3.73" height="30.64"/><rect class="cls-4" x="1500.47" y="1762.5" width="3.73" height="30.64"/><rect class="cls-4" x="1692.29" y="1762.5" width="3.73" height="30.64"/><rect class="cls-4" x="1700.23" y="1762.5" width="3.73" height="30.64"/><rect class="cls-4" x="1707.9" y="1762.5" width="3.73" height="30.64"/><path class="cls-4" d="M1717.4,1762.61V1793a9.23,9.23,0,0,1-1.4.1h-2.33V1762.5H1716A9.23,9.23,0,0,1,1717.4,1762.61Z"/><path class="cls-4" d="M1722.58,1765.44v24.75a7.93,7.93,0,0,1-3.73,2.49V1763A7.93,7.93,0,0,1,1722.58,1765.44Z"/><path class="cls-5" d="M1688.85,1738.53v17.3a5.87,5.87,0,0,1-1.36,3.72,7.92,7.92,0,0,1-3.73,2.5,8.51,8.51,0,0,1-1.45.34,9.13,9.13,0,0,1-1.4.11H1352.75c-4.23,0-7.72-2.82-7.93-6.33,0-.11,0-.22,0-.34v-17.3c0-.11,0-.23,0-.34.21-3.51,3.7-6.33,7.93-6.33h328.16l.63,0,.27,0,.29,0,.21,0a8.51,8.51,0,0,1,1.45.34l.21.07.2.08.4.16.23.1.2.1.38.2c.14.08.27.17.4.26a2.11,2.11,0,0,1,.31.21h0l.2.15a7,7,0,0,1,.57.5.81.81,0,0,1,.16.16l.16.16c.1.11.2.22.29.34A5.87,5.87,0,0,1,1688.85,1738.53Z"/><path class="cls-4" d="M1527.71,1762.5H1351.9a6.94,6.94,0,0,1-7.08-6.33c0-.11,0-.22,0-.34v-17.3c0-.11,0-.23,0-.34a6.94,6.94,0,0,1,7.08-6.33h154.21c.07.25.14.5.22.76A53.53,53.53,0,0,0,1527.71,1762.5Z"/><rect class="cls-4" x="1645.19" y="1731.86" width="3.73" height="30.64"/><rect class="cls-4" x="1632.56" y="1731.86" width="3.73" height="30.64"/><rect class="cls-4" x="1617.42" y="1731.86" width="3.73" height="30.64"/><rect class="cls-4" x="1594.22" y="1731.86" width="3.73" height="30.64"/><rect class="cls-4" x="1569.68" y="1731.86" width="3.73" height="30.64"/><rect class="cls-4" x="1532.06" y="1731.86" width="3.73" height="30.64"/><rect class="cls-4" x="1496.83" y="1731.86" width="3.73" height="30.64"/><rect class="cls-4" x="1465.38" y="1731.86" width="3.73" height="30.64"/><rect class="cls-4" x="1657.21" y="1731.86" width="3.73" height="30.64"/><rect class="cls-4" x="1665.15" y="1731.86" width="3.73" height="30.64"/><rect class="cls-4" x="1672.81" y="1731.86" width="3.73" height="30.64"/><path class="cls-4" d="M1682.31,1732v30.42a9.23,9.23,0,0,1-1.4.11h-2.33v-30.64h2.33A9.23,9.23,0,0,1,1682.31,1732Z"/><path class="cls-4" d="M1687.49,1734.81v24.74a7.92,7.92,0,0,1-3.73,2.5v-29.74A7.85,7.85,0,0,1,1687.49,1734.81Z"/><path class="cls-5" d="M1705.81,1708.65V1726a5.87,5.87,0,0,1-1.36,3.72,8,8,0,0,1-3.73,2.5,8.74,8.74,0,0,1-1.45.34,9.23,9.23,0,0,1-1.4.11H1369.7a9.18,9.18,0,0,1-3.66-.76,6.8,6.8,0,0,1-4.24-5.27l0-.3c0-.11,0-.23,0-.34v-17.3c0-.11,0-.23,0-.34.22-3.51,3.7-6.33,7.93-6.33h328.17a9.23,9.23,0,0,1,1.4.11,8.74,8.74,0,0,1,1.45.34,8,8,0,0,1,3.73,2.5A5.87,5.87,0,0,1,1705.81,1708.65Z"/><path class="cls-4" d="M1544.66,1732.62H1368.85a7.34,7.34,0,0,1-3.26-.76,6.68,6.68,0,0,1-3.79-5.27l0-.3c0-.11,0-.23,0-.34v-17.3c0-.11,0-.23,0-.34a6.94,6.94,0,0,1,7.08-6.33h154.22a53.8,53.8,0,0,0,20.51,29.88Z"/><rect class="cls-4" x="1662.15" y="1701.98" width="3.73" height="30.64"/><rect class="cls-4" x="1649.52" y="1701.98" width="3.73" height="30.64"/><rect class="cls-4" x="1634.38" y="1701.98" width="3.73" height="30.64"/><rect class="cls-4" x="1611.17" y="1701.98" width="3.73" height="30.64"/><rect class="cls-4" x="1586.63" y="1701.98" width="3.73" height="30.64"/><rect class="cls-4" x="1549.01" y="1701.98" width="3.73" height="30.64"/><rect class="cls-4" x="1513.79" y="1701.98" width="3.73" height="30.64"/><rect class="cls-4" x="1482.34" y="1701.98" width="3.73" height="30.64"/><rect class="cls-4" x="1674.16" y="1701.98" width="3.73" height="30.64"/><rect class="cls-4" x="1682.1" y="1701.98" width="3.73" height="30.64"/><rect class="cls-4" x="1689.77" y="1701.98" width="3.73" height="30.64"/><path class="cls-4" d="M1699.27,1702.09v30.42a9.23,9.23,0,0,1-1.4.11h-2.33V1702h2.33A9.23,9.23,0,0,1,1699.27,1702.09Z"/><path class="cls-4" d="M1704.45,1704.93v24.74a8,8,0,0,1-3.73,2.5v-29.74A8,8,0,0,1,1704.45,1704.93Z"/><path class="cls-5" d="M1713.67,1678v17.3a5.92,5.92,0,0,1-1.36,3.73,7.93,7.93,0,0,1-3.73,2.49,8.53,8.53,0,0,1-1.45.35,10.73,10.73,0,0,1-1.4.1H1377.56c-4.23,0-7.71-2.81-7.93-6.32,0-.12,0-.23,0-.35V1678c0-.11,0-.23,0-.34.2-3.25,3.2-5.9,7-6.28.31,0,.62,0,.94,0h328.17a9.23,9.23,0,0,1,1.4.1,9.58,9.58,0,0,1,1.45.34,8,8,0,0,1,3.73,2.5A5.89,5.89,0,0,1,1713.67,1678Z"/><path class="cls-4" d="M1552.52,1702H1376.71a6.94,6.94,0,0,1-7.08-6.32c0-.12,0-.23,0-.35V1678c0-.11,0-.23,0-.34a6.9,6.9,0,0,1,6.24-6.28,7.87,7.87,0,0,1,.84,0h154.22s0,0,0,0A53.7,53.7,0,0,0,1552.52,1702Z"/><rect class="cls-4" x="1670.01" y="1671.34" width="3.73" height="30.64"/><rect class="cls-4" x="1657.38" y="1671.34" width="3.73" height="30.64"/><rect class="cls-4" x="1642.24" y="1671.34" width="3.73" height="30.64"/><rect class="cls-4" x="1619.04" y="1671.34" width="3.73" height="30.64"/><rect class="cls-4" x="1594.5" y="1671.34" width="3.73" height="30.64"/><rect class="cls-4" x="1556.87" y="1671.34" width="3.73" height="30.64"/><rect class="cls-4" x="1521.65" y="1671.34" width="3.73" height="30.64"/><rect class="cls-4" x="1490.2" y="1671.34" width="3.73" height="30.64"/><rect class="cls-4" x="1682.02" y="1671.34" width="3.73" height="30.64"/><rect class="cls-4" x="1689.96" y="1671.34" width="3.73" height="30.64"/><rect class="cls-4" x="1697.63" y="1671.34" width="3.73" height="30.64"/><path class="cls-4" d="M1707.13,1671.45v30.42a9.23,9.23,0,0,1-1.4.11h-2.33v-30.64h2.33A9.23,9.23,0,0,1,1707.13,1671.45Z"/><path class="cls-4" d="M1712.31,1674.29V1699a7.93,7.93,0,0,1-3.73,2.49v-29.74A8,8,0,0,1,1712.31,1674.29Z"/><path class="cls-5" d="M1689.54,1647.42v17.31a5.91,5.91,0,0,1-1.36,3.72,7.83,7.83,0,0,1-3.73,2.49,8.53,8.53,0,0,1-1.45.35l-.46.06-.26,0H1353.44c-4.23,0-7.72-2.81-7.93-6.32,0-.12,0-.23,0-.34v-17.31c0-.11,0-.22,0-.34a2.64,2.64,0,0,1,0-.28c.31-2.82,2.75-5.15,6-5.84l.24,0a8.8,8.8,0,0,1,1.72-.16H1681.6l.71,0,.32,0h0l.37,0a8.53,8.53,0,0,1,1.45.35,7.83,7.83,0,0,1,3.73,2.49A5.91,5.91,0,0,1,1689.54,1647.42Z"/><path class="cls-4" d="M1528.39,1671.39h-175.8a6.93,6.93,0,0,1-7.08-6.32c0-.12,0-.23,0-.34v-17.31c0-.11,0-.22,0-.34a2.64,2.64,0,0,1,0-.28,6.85,6.85,0,0,1,5.5-5.88l.3-.06a7.48,7.48,0,0,1,1.26-.1H1506.8a1.72,1.72,0,0,0,.07.21,53.72,53.72,0,0,0,21.45,30.38Z"/><rect class="cls-4" x="1645.88" y="1640.76" width="3.73" height="30.64"/><rect class="cls-4" x="1633.25" y="1640.76" width="3.73" height="30.64"/><rect class="cls-4" x="1618.11" y="1640.76" width="3.73" height="30.64"/><rect class="cls-4" x="1594.91" y="1640.76" width="3.73" height="30.64"/><rect class="cls-4" x="1570.37" y="1640.76" width="3.73" height="30.64"/><rect class="cls-4" x="1532.75" y="1640.76" width="3.73" height="30.64"/><rect class="cls-4" x="1497.52" y="1640.76" width="3.73" height="30.64"/><rect class="cls-4" x="1466.07" y="1640.76" width="3.73" height="30.64"/><rect class="cls-4" x="1657.9" y="1640.76" width="3.73" height="30.64"/><rect class="cls-4" x="1665.84" y="1640.76" width="3.73" height="30.64"/><rect class="cls-4" x="1673.5" y="1640.76" width="3.73" height="30.64"/><path class="cls-4" d="M1683,1640.86v30.43a9.23,9.23,0,0,1-1.4.1h-2.33v-30.63h2.33A9.23,9.23,0,0,1,1683,1640.86Z"/><path class="cls-4" d="M1688.18,1643.7v24.75a7.83,7.83,0,0,1-3.73,2.49v-29.73A7.83,7.83,0,0,1,1688.18,1643.7Z"/><path class="cls-5" d="M1688.85,1617v17.3a5.89,5.89,0,0,1-1.36,3.72,7.92,7.92,0,0,1-3.73,2.5,8.11,8.11,0,0,1-1.13.28h0l-.31.06a9.14,9.14,0,0,1-1.4.1H1352.75a8.67,8.67,0,0,1-1,0c-.13,0-.26,0-.39-.06-3.57-.54-6.32-3.1-6.51-6.21,0-.11,0-.23,0-.34V1617c0-.12,0-.23,0-.35.21-3.51,3.7-6.32,7.93-6.32h328.16l.63,0,.27,0,.29,0,.21,0a7.66,7.66,0,0,1,1.45.34l.21.07.2.07.4.16.43.21.38.2.4.25.31.21,0,0,.2.15a5.51,5.51,0,0,1,.57.5,1.17,1.17,0,0,1,.16.15l.16.16.29.34A5.92,5.92,0,0,1,1688.85,1617Z"/><path class="cls-4" d="M1527.71,1641H1351.48a3.42,3.42,0,0,1-.45,0,6.86,6.86,0,0,1-6.21-6.27c0-.11,0-.23,0-.34V1617c0-.12,0-.23,0-.35a6.93,6.93,0,0,1,7.08-6.32h154.21c.07.25.14.5.22.75a53.59,53.59,0,0,0,21.06,29.67Z"/><rect class="cls-4" x="1645.19" y="1610.34" width="3.73" height="30.64"/><rect class="cls-4" x="1632.56" y="1610.34" width="3.73" height="30.64"/><rect class="cls-4" x="1617.42" y="1610.34" width="3.73" height="30.64"/><rect class="cls-4" x="1594.22" y="1610.34" width="3.73" height="30.64"/><rect class="cls-4" x="1569.68" y="1610.34" width="3.73" height="30.64"/><rect class="cls-4" x="1532.06" y="1610.34" width="3.73" height="30.64"/><rect class="cls-4" x="1496.83" y="1610.34" width="3.73" height="30.64"/><rect class="cls-4" x="1465.38" y="1610.34" width="3.73" height="30.64"/><rect class="cls-4" x="1657.21" y="1610.34" width="3.73" height="30.64"/><rect class="cls-4" x="1665.15" y="1610.34" width="3.73" height="30.64"/><rect class="cls-4" x="1672.81" y="1610.34" width="3.73" height="30.64"/><path class="cls-4" d="M1682.31,1610.45v30.42a9.23,9.23,0,0,1-1.4.1h-2.33v-30.63h2.33A9.23,9.23,0,0,1,1682.31,1610.45Z"/><path class="cls-4" d="M1687.49,1613.28V1638a7.92,7.92,0,0,1-3.73,2.5v-29.74A7.83,7.83,0,0,1,1687.49,1613.28Z"/><path class="cls-5" d="M1705.81,1587.13v17.3a5.91,5.91,0,0,1-1.36,3.72,7.93,7.93,0,0,1-3.73,2.49,8.76,8.76,0,0,1-1.45.35,9.23,9.23,0,0,1-1.4.1H1369.7a9.17,9.17,0,0,1-3.66-.75,6.8,6.8,0,0,1-4.24-5.27l0-.3c0-.11,0-.23,0-.34v-17.3c0-.12,0-.23,0-.35.22-3.51,3.7-6.32,7.93-6.32h328.17a9.23,9.23,0,0,1,1.4.11,7.84,7.84,0,0,1,1.45.34,7.93,7.93,0,0,1,3.73,2.49A5.92,5.92,0,0,1,1705.81,1587.13Z"/><path class="cls-4" d="M1544.66,1611.09H1368.85a7.34,7.34,0,0,1-3.26-.75,6.68,6.68,0,0,1-3.79-5.27l0-.3c0-.11,0-.23,0-.34v-17.3c0-.12,0-.23,0-.35a6.94,6.94,0,0,1,7.08-6.32h154.22a53.8,53.8,0,0,0,20.51,29.88Z"/><rect class="cls-4" x="1662.15" y="1580.46" width="3.73" height="30.64"/><rect class="cls-4" x="1649.52" y="1580.46" width="3.73" height="30.64"/><rect class="cls-4" x="1634.38" y="1580.46" width="3.73" height="30.64"/><rect class="cls-4" x="1611.17" y="1580.46" width="3.73" height="30.64"/><rect class="cls-4" x="1586.63" y="1580.46" width="3.73" height="30.64"/><rect class="cls-4" x="1549.01" y="1580.46" width="3.73" height="30.64"/><rect class="cls-4" x="1513.79" y="1580.46" width="3.73" height="30.64"/><rect class="cls-4" x="1482.34" y="1580.46" width="3.73" height="30.64"/><rect class="cls-4" x="1674.16" y="1580.46" width="3.73" height="30.64"/><rect class="cls-4" x="1682.1" y="1580.46" width="3.73" height="30.64"/><rect class="cls-4" x="1689.77" y="1580.46" width="3.73" height="30.64"/><path class="cls-4" d="M1699.27,1580.57V1611a9.23,9.23,0,0,1-1.4.1h-2.33v-30.63h2.33A9.23,9.23,0,0,1,1699.27,1580.57Z"/><path class="cls-4" d="M1704.45,1583.4v24.75a8,8,0,0,1-3.73,2.5v-29.74A7.93,7.93,0,0,1,1704.45,1583.4Z"/><path class="cls-5" d="M1732.62,1556.49v17.3a5.87,5.87,0,0,1-1.36,3.72,7.94,7.94,0,0,1-3.72,2.5,8.86,8.86,0,0,1-1.46.34,9.13,9.13,0,0,1-1.4.11H1396.52c-4.23,0-7.72-2.82-7.93-6.33,0-.11,0-.22,0-.34v-17.3c0-.11,0-.23,0-.34.2-3.25,3.19-5.9,7-6.28.31,0,.62,0,.94,0h328.16a9.13,9.13,0,0,1,1.4.11,8.86,8.86,0,0,1,1.46.34,7.94,7.94,0,0,1,3.72,2.5A5.87,5.87,0,0,1,1732.62,1556.49Z"/><path class="cls-4" d="M1571.48,1580.46H1395.67a6.94,6.94,0,0,1-7.08-6.33c0-.11,0-.22,0-.34v-17.3c0-.11,0-.23,0-.34a6.87,6.87,0,0,1,6.24-6.28,7.58,7.58,0,0,1,.84,0h154.22v0A53.68,53.68,0,0,0,1571.48,1580.46Z"/><rect class="cls-4" x="1688.96" y="1549.82" width="3.73" height="30.64"/><rect class="cls-4" x="1676.34" y="1549.82" width="3.73" height="30.64"/><rect class="cls-4" x="1661.2" y="1549.82" width="3.73" height="30.64"/><rect class="cls-4" x="1637.99" y="1549.82" width="3.73" height="30.64"/><rect class="cls-4" x="1613.45" y="1549.82" width="3.73" height="30.64"/><rect class="cls-4" x="1575.83" y="1549.82" width="3.73" height="30.64"/><rect class="cls-4" x="1540.61" y="1549.82" width="3.73" height="30.64"/><rect class="cls-4" x="1509.16" y="1549.82" width="3.73" height="30.64"/><rect class="cls-4" x="1700.98" y="1549.82" width="3.73" height="30.64"/><rect class="cls-4" x="1708.92" y="1549.82" width="3.73" height="30.64"/><rect class="cls-4" x="1716.59" y="1549.82" width="3.73" height="30.64"/><path class="cls-4" d="M1726.09,1549.93v30.42a9.33,9.33,0,0,1-1.4.11h-2.33v-30.64h2.33A9.33,9.33,0,0,1,1726.09,1549.93Z"/><path class="cls-4" d="M1731.27,1552.77v24.74a8,8,0,0,1-3.73,2.5v-29.74A8,8,0,0,1,1731.27,1552.77Z"/><path class="cls-5" d="M1689.54,1525.9v17.3a5.87,5.87,0,0,1-1.36,3.72,7.78,7.78,0,0,1-3.73,2.5,7.66,7.66,0,0,1-1.45.34,3.62,3.62,0,0,1-.46.06c-.12,0-.25,0-.37,0H1353.44c-4.23,0-7.72-2.82-7.93-6.33,0-.11,0-.22,0-.34v-17.3c0-.11,0-.23,0-.34.21-3.51,3.7-6.33,7.93-6.33H1681.6l.42,0a7.76,7.76,0,0,1,1,.09,8.51,8.51,0,0,1,1.45.34c.24.08.47.17.69.26l.41.19,0,0a3,3,0,0,1,.4.21l.07,0,.36.22a7.64,7.64,0,0,1,.79.58,2.09,2.09,0,0,1,.22.2l0,0,.14.13,0,0a2.73,2.73,0,0,1,.23.25c.11.12.22.23.32.36A5.87,5.87,0,0,1,1689.54,1525.9Z"/><path class="cls-4" d="M1528.39,1549.87h-175.8a6.94,6.94,0,0,1-7.08-6.33c0-.11,0-.22,0-.34v-17.3c0-.11,0-.23,0-.34a6.94,6.94,0,0,1,7.08-6.33H1506.8c.07.24.13.47.21.71a53.57,53.57,0,0,0,21.31,29.88Z"/><rect class="cls-4" x="1645.88" y="1519.23" width="3.73" height="30.64"/><rect class="cls-4" x="1633.25" y="1519.23" width="3.73" height="30.64"/><rect class="cls-4" x="1618.11" y="1519.23" width="3.73" height="30.64"/><rect class="cls-4" x="1594.91" y="1519.23" width="3.73" height="30.64"/><rect class="cls-4" x="1570.37" y="1519.23" width="3.73" height="30.64"/><rect class="cls-4" x="1532.75" y="1519.23" width="3.73" height="30.64"/><rect class="cls-4" x="1497.52" y="1519.23" width="3.73" height="30.64"/><rect class="cls-4" x="1466.07" y="1519.23" width="3.73" height="30.64"/><rect class="cls-4" x="1657.9" y="1519.23" width="3.73" height="30.64"/><rect class="cls-4" x="1665.84" y="1519.23" width="3.73" height="30.64"/><rect class="cls-4" x="1673.5" y="1519.23" width="3.73" height="30.64"/><path class="cls-4" d="M1683,1519.34v30.42a9.23,9.23,0,0,1-1.4.11h-2.33v-30.64h2.33A9.23,9.23,0,0,1,1683,1519.34Z"/><path class="cls-4" d="M1688.18,1522.18v24.74a7.78,7.78,0,0,1-3.73,2.5v-29.74A7.92,7.92,0,0,1,1688.18,1522.18Z"/><path class="cls-5" d="M1713.67,1496v17.3a5.92,5.92,0,0,1-1.36,3.73,7.93,7.93,0,0,1-3.73,2.49,7.66,7.66,0,0,1-1.45.34,9.23,9.23,0,0,1-1.4.11H1377.56a8.91,8.91,0,0,1-3.54-.71,6.8,6.8,0,0,1-4.37-5.34,2.45,2.45,0,0,0,0-.27c0-.12,0-.23,0-.35V1496c0-.11,0-.23,0-.34.2-3.25,3.2-5.9,7-6.28.31,0,.62,0,.94,0h328.17a9.23,9.23,0,0,1,1.4.1,9.58,9.58,0,0,1,1.45.34,8,8,0,0,1,3.73,2.5A5.89,5.89,0,0,1,1713.67,1496Z"/><path class="cls-4" d="M1552.52,1519.94H1376.71a7.25,7.25,0,0,1-3.16-.71,6.71,6.71,0,0,1-3.9-5.34,2.45,2.45,0,0,0,0-.27c0-.12,0-.23,0-.35V1496c0-.11,0-.23,0-.34a6.9,6.9,0,0,1,6.24-6.28,7.87,7.87,0,0,1,.84,0h154.22l0,0a53.69,53.69,0,0,0,20.56,29.88Z"/><rect class="cls-4" x="1670.01" y="1489.31" width="3.73" height="30.64"/><rect class="cls-4" x="1657.38" y="1489.31" width="3.73" height="30.64"/><rect class="cls-4" x="1642.24" y="1489.31" width="3.73" height="30.64"/><rect class="cls-4" x="1619.04" y="1489.31" width="3.73" height="30.64"/><rect class="cls-4" x="1594.5" y="1489.31" width="3.73" height="30.64"/><rect class="cls-4" x="1556.87" y="1489.31" width="3.73" height="30.64"/><rect class="cls-4" x="1521.65" y="1489.31" width="3.73" height="30.64"/><rect class="cls-4" x="1490.2" y="1489.31" width="3.73" height="30.64"/><rect class="cls-4" x="1682.02" y="1489.31" width="3.73" height="30.64"/><rect class="cls-4" x="1689.96" y="1489.31" width="3.73" height="30.64"/><rect class="cls-4" x="1697.63" y="1489.31" width="3.73" height="30.64"/><path class="cls-4" d="M1707.13,1489.41v30.42a9.23,9.23,0,0,1-1.4.11h-2.33V1489.3h2.33A9.23,9.23,0,0,1,1707.13,1489.41Z"/><path class="cls-4" d="M1712.31,1492.25V1517a7.93,7.93,0,0,1-3.73,2.49v-29.74A8,8,0,0,1,1712.31,1492.25Z"/><path class="cls-5" d="M1723.94,1465.38v17.31a5.91,5.91,0,0,1-1.36,3.72,7.93,7.93,0,0,1-3.73,2.49,8.53,8.53,0,0,1-1.45.35l-.46.06-.26,0H1387.83c-4.23,0-7.71-2.81-7.93-6.32,0-.12,0-.23,0-.34v-17.31c0-.11,0-.22,0-.34.22-3.51,3.7-6.32,7.93-6.32H1716a9.23,9.23,0,0,1,1.4.1,8.53,8.53,0,0,1,1.45.35,7.93,7.93,0,0,1,3.73,2.49A5.91,5.91,0,0,1,1723.94,1465.38Z"/><path class="cls-4" d="M1562.79,1489.35H1387a6.94,6.94,0,0,1-7.08-6.32c0-.12,0-.23,0-.34v-17.31c0-.11,0-.22,0-.34a6.94,6.94,0,0,1,7.08-6.32H1541.2a53.72,53.72,0,0,0,21.52,30.59Z"/><rect class="cls-4" x="1680.28" y="1458.72" width="3.73" height="30.64"/><rect class="cls-4" x="1667.65" y="1458.72" width="3.73" height="30.64"/><rect class="cls-4" x="1652.51" y="1458.72" width="3.73" height="30.64"/><rect class="cls-4" x="1629.31" y="1458.72" width="3.73" height="30.64"/><rect class="cls-4" x="1604.77" y="1458.72" width="3.73" height="30.64"/><rect class="cls-4" x="1567.14" y="1458.72" width="3.73" height="30.64"/><rect class="cls-4" x="1531.92" y="1458.72" width="3.73" height="30.64"/><rect class="cls-4" x="1500.47" y="1458.72" width="3.73" height="30.64"/><rect class="cls-4" x="1692.29" y="1458.72" width="3.73" height="30.64"/><rect class="cls-4" x="1700.23" y="1458.72" width="3.73" height="30.64"/><rect class="cls-4" x="1707.9" y="1458.72" width="3.73" height="30.64"/><path class="cls-4" d="M1717.4,1458.82v30.43a9.23,9.23,0,0,1-1.4.1h-2.33v-30.63H1716A9.23,9.23,0,0,1,1717.4,1458.82Z"/><path class="cls-4" d="M1722.58,1461.66v24.75a7.93,7.93,0,0,1-3.73,2.49v-29.73A7.93,7.93,0,0,1,1722.58,1461.66Z"/><path class="cls-5" d="M1706.87,1434.22v17.3a5.92,5.92,0,0,1-1.36,3.73,7.85,7.85,0,0,1-3.72,2.49,9.66,9.66,0,0,1-2.86.45H1370.77c-4.23,0-7.72-2.81-7.93-6.32,0-.12,0-.23,0-.35v-17.3c0-.11,0-.22,0-.34.21-3.51,3.7-6.32,7.93-6.32h328.16a9.14,9.14,0,0,1,1.4.1,8.88,8.88,0,0,1,1.46.35,7.85,7.85,0,0,1,3.72,2.49A5.89,5.89,0,0,1,1706.87,1434.22Z"/><path class="cls-4" d="M1545.73,1458.19H1369.92a6.93,6.93,0,0,1-7.08-6.32c0-.12,0-.23,0-.35v-17.3c0-.11,0-.22,0-.34a6.93,6.93,0,0,1,7.08-6.32h154.22A53.66,53.66,0,0,0,1545.73,1458.19Z"/><rect class="cls-4" x="1663.21" y="1427.56" width="3.73" height="30.64"/><rect class="cls-4" x="1650.59" y="1427.56" width="3.73" height="30.64"/><rect class="cls-4" x="1635.45" y="1427.56" width="3.73" height="30.64"/><rect class="cls-4" x="1612.24" y="1427.56" width="3.73" height="30.64"/><rect class="cls-4" x="1587.7" y="1427.56" width="3.73" height="30.64"/><rect class="cls-4" x="1550.08" y="1427.56" width="3.73" height="30.64"/><rect class="cls-4" x="1514.85" y="1427.56" width="3.73" height="30.64"/><rect class="cls-4" x="1483.4" y="1427.56" width="3.73" height="30.64"/><rect class="cls-4" x="1675.23" y="1427.56" width="3.73" height="30.64"/><rect class="cls-4" x="1683.17" y="1427.56" width="3.73" height="30.64"/><rect class="cls-4" x="1690.83" y="1427.56" width="3.73" height="30.64"/><path class="cls-4" d="M1700.33,1427.66v30.42a8,8,0,0,1-1.4.11h-2.33v-30.63h2.33A9.14,9.14,0,0,1,1700.33,1427.66Z"/><path class="cls-4" d="M1705.51,1430.5v24.75a7.85,7.85,0,0,1-3.72,2.49V1428A7.85,7.85,0,0,1,1705.51,1430.5Z"/><path class="cls-5" d="M1671.79,1403.59v17.3a5.82,5.82,0,0,1-1.37,3.72,7.94,7.94,0,0,1-3.72,2.5,8.74,8.74,0,0,1-1.45.34,9.33,9.33,0,0,1-1.4.11H1335.68c-4.23,0-7.71-2.82-7.93-6.33,0-.11,0-.23,0-.34v-17.3c0-.12,0-.23,0-.35.22-3.5,3.7-6.32,7.93-6.32h328.17l.62,0,.27,0,.3,0,.21,0a7.84,7.84,0,0,1,1.45.34l.21.07.2.07.4.17.22.1.21.1.37.2.41.25.31.21v0l.2.15a7.2,7.2,0,0,1,.58.5l.16.15.15.17c.1.11.2.22.29.34A5.82,5.82,0,0,1,1671.79,1403.59Z"/><path class="cls-4" d="M1510.64,1427.56H1334.83a6.94,6.94,0,0,1-7.08-6.33c0-.11,0-.23,0-.34v-17.3c0-.12,0-.23,0-.35a6.94,6.94,0,0,1,7.08-6.32h154.22l.21.76A53.66,53.66,0,0,0,1510.64,1427.56Z"/><rect class="cls-4" x="1628.12" y="1396.92" width="3.73" height="30.64"/><rect class="cls-4" x="1615.5" y="1396.92" width="3.73" height="30.64"/><rect class="cls-4" x="1600.36" y="1396.92" width="3.73" height="30.64"/><rect class="cls-4" x="1577.15" y="1396.92" width="3.73" height="30.64"/><rect class="cls-4" x="1552.61" y="1396.92" width="3.73" height="30.64"/><rect class="cls-4" x="1514.99" y="1396.92" width="3.73" height="30.64"/><rect class="cls-4" x="1479.77" y="1396.92" width="3.73" height="30.64"/><rect class="cls-4" x="1448.31" y="1396.92" width="3.73" height="30.64"/><rect class="cls-4" x="1640.14" y="1396.92" width="3.73" height="30.64"/><rect class="cls-4" x="1648.08" y="1396.92" width="3.73" height="30.64"/><rect class="cls-4" x="1655.75" y="1396.92" width="3.73" height="30.64"/><path class="cls-4" d="M1665.25,1397v30.42a9.32,9.32,0,0,1-1.4.1h-2.34v-30.63h2.34A9.33,9.33,0,0,1,1665.25,1397Z"/><path class="cls-4" d="M1670.42,1399.86v24.75a7.94,7.94,0,0,1-3.72,2.5v-29.74A7.85,7.85,0,0,1,1670.42,1399.86Z"/><path class="cls-5" d="M1688.74,1373.71V1391a5.87,5.87,0,0,1-1.36,3.72,7.92,7.92,0,0,1-3.73,2.5,8.51,8.51,0,0,1-1.45.34,9.23,9.23,0,0,1-1.4.11H1352.64a9.1,9.1,0,0,1-3.66-.76,6.81,6.81,0,0,1-4.25-5.27c0-.1,0-.2,0-.3s0-.23,0-.34v-17.3c0-.12,0-.23,0-.35.21-3.5,3.7-6.32,7.93-6.32H1680.8a9.23,9.23,0,0,1,1.4.11,7.66,7.66,0,0,1,1.45.34,7.83,7.83,0,0,1,3.73,2.49A5.92,5.92,0,0,1,1688.74,1373.71Z"/><path class="cls-4" d="M1527.59,1397.68h-175.8a7.42,7.42,0,0,1-3.27-.76,6.68,6.68,0,0,1-3.79-5.27c0-.1,0-.2,0-.3s0-.23,0-.34v-17.3c0-.12,0-.23,0-.35a6.94,6.94,0,0,1,7.08-6.32H1506a53.82,53.82,0,0,0,20.52,29.88Z"/><rect class="cls-4" x="1645.08" y="1367.04" width="3.73" height="30.64"/><rect class="cls-4" x="1632.45" y="1367.04" width="3.73" height="30.64"/><rect class="cls-4" x="1617.31" y="1367.04" width="3.73" height="30.64"/><rect class="cls-4" x="1594.11" y="1367.04" width="3.73" height="30.64"/><rect class="cls-4" x="1569.57" y="1367.04" width="3.73" height="30.64"/><rect class="cls-4" x="1531.95" y="1367.04" width="3.73" height="30.64"/><rect class="cls-4" x="1496.72" y="1367.04" width="3.73" height="30.64"/><rect class="cls-4" x="1465.27" y="1367.04" width="3.73" height="30.64"/><rect class="cls-4" x="1657.1" y="1367.04" width="3.73" height="30.64"/><rect class="cls-4" x="1665.04" y="1367.04" width="3.73" height="30.64"/><rect class="cls-4" x="1672.7" y="1367.04" width="3.73" height="30.64"/><path class="cls-4" d="M1682.2,1367.15v30.42a9.14,9.14,0,0,1-1.4.1h-2.33V1367h2.33A9.13,9.13,0,0,1,1682.2,1367.15Z"/><path class="cls-4" d="M1687.38,1370v24.75a7.83,7.83,0,0,1-3.73,2.49v-29.73A7.83,7.83,0,0,1,1687.38,1370Z"/><path class="cls-5" d="M1696.6,1343.07v17.3a5.87,5.87,0,0,1-1.36,3.72,7.85,7.85,0,0,1-3.73,2.5,8.51,8.51,0,0,1-1.45.34,9.13,9.13,0,0,1-1.4.11H1360.5c-4.23,0-7.72-2.82-7.93-6.33,0-.11,0-.22,0-.34v-17.3c0-.11,0-.23,0-.34.19-3.25,3.19-5.9,7-6.28.31,0,.62,0,.94,0h328.16a9.13,9.13,0,0,1,1.4.11,8.51,8.51,0,0,1,1.45.34,7.92,7.92,0,0,1,3.73,2.5A5.87,5.87,0,0,1,1696.6,1343.07Z"/><path class="cls-4" d="M1535.46,1367H1359.65a6.94,6.94,0,0,1-7.08-6.33c0-.11,0-.22,0-.34v-17.3c0-.11,0-.23,0-.34a6.87,6.87,0,0,1,6.24-6.28,7.58,7.58,0,0,1,.84,0h154.22v0A53.71,53.71,0,0,0,1535.46,1367Z"/><rect class="cls-4" x="1652.94" y="1336.4" width="3.73" height="30.64"/><rect class="cls-4" x="1640.32" y="1336.4" width="3.73" height="30.64"/><rect class="cls-4" x="1625.17" y="1336.4" width="3.73" height="30.64"/><rect class="cls-4" x="1601.97" y="1336.4" width="3.73" height="30.64"/><rect class="cls-4" x="1577.43" y="1336.4" width="3.73" height="30.64"/><rect class="cls-4" x="1539.81" y="1336.4" width="3.73" height="30.64"/><rect class="cls-4" x="1504.58" y="1336.4" width="3.73" height="30.64"/><rect class="cls-4" x="1473.13" y="1336.4" width="3.73" height="30.64"/><rect class="cls-4" x="1664.96" y="1336.4" width="3.73" height="30.64"/><rect class="cls-4" x="1672.9" y="1336.4" width="3.73" height="30.64"/><rect class="cls-4" x="1680.56" y="1336.4" width="3.73" height="30.64"/><path class="cls-4" d="M1690.06,1336.51v30.42a9.13,9.13,0,0,1-1.4.11h-2.33V1336.4h2.33A9.13,9.13,0,0,1,1690.06,1336.51Z"/><path class="cls-4" d="M1695.24,1339.35v24.74a7.92,7.92,0,0,1-3.73,2.5v-29.74A7.92,7.92,0,0,1,1695.24,1339.35Z"/><path class="cls-5" d="M1672.47,1312.48v17.3a5.92,5.92,0,0,1-1.36,3.73,7.85,7.85,0,0,1-3.72,2.49,7.76,7.76,0,0,1-1.46.34,3.4,3.4,0,0,1-.46.06l-.26,0H1336.37c-4.23,0-7.72-2.82-7.93-6.32,0-.12,0-.23,0-.35v-17.3c0-.11,0-.23,0-.34a2.46,2.46,0,0,1,0-.28c.32-2.82,2.76-5.15,6-5.84l.24,0a9.74,9.74,0,0,1,1.72-.15h328.17l.71,0,.31,0h0l.36.05a9.71,9.71,0,0,1,1.46.34,7.94,7.94,0,0,1,3.72,2.5A5.89,5.89,0,0,1,1672.47,1312.48Z"/><path class="cls-4" d="M1511.33,1336.45H1335.52a6.94,6.94,0,0,1-7.08-6.32c0-.12,0-.23,0-.35v-17.3c0-.11,0-.23,0-.34a2.46,2.46,0,0,1,0-.28,6.86,6.86,0,0,1,5.5-5.88l.3-.06a7.48,7.48,0,0,1,1.26-.1h154.22l.06.21a53.64,53.64,0,0,0,21.46,30.37Z"/><rect class="cls-4" x="1628.81" y="1305.81" width="3.73" height="30.64"/><rect class="cls-4" x="1616.19" y="1305.81" width="3.73" height="30.64"/><rect class="cls-4" x="1601.05" y="1305.81" width="3.73" height="30.64"/><rect class="cls-4" x="1577.84" y="1305.81" width="3.73" height="30.64"/><rect class="cls-4" x="1553.3" y="1305.81" width="3.73" height="30.64"/><rect class="cls-4" x="1515.68" y="1305.81" width="3.73" height="30.64"/><rect class="cls-4" x="1480.46" y="1305.81" width="3.73" height="30.64"/><rect class="cls-4" x="1449" y="1305.81" width="3.73" height="30.64"/><rect class="cls-4" x="1640.83" y="1305.81" width="3.73" height="30.64"/><rect class="cls-4" x="1648.77" y="1305.81" width="3.73" height="30.64"/><rect class="cls-4" x="1656.44" y="1305.81" width="3.73" height="30.64"/><path class="cls-4" d="M1665.94,1305.92v30.42a9.33,9.33,0,0,1-1.4.11h-2.34v-30.64h2.34A9.33,9.33,0,0,1,1665.94,1305.92Z"/><path class="cls-4" d="M1671.11,1308.76v24.74a7.87,7.87,0,0,1-3.72,2.5v-29.74A7.94,7.94,0,0,1,1671.11,1308.76Z"/><path class="cls-5" d="M1671.79,1282.06v17.31a5.87,5.87,0,0,1-1.37,3.72,7.85,7.85,0,0,1-3.72,2.49,8.92,8.92,0,0,1-1.13.29h0l-.31.06a9.32,9.32,0,0,1-1.4.1H1335.68a8.89,8.89,0,0,1-1-.06l-.39,0c-3.56-.54-6.32-3.11-6.51-6.21,0-.12,0-.23,0-.34v-17.31c0-.11,0-.22,0-.34.22-3.51,3.7-6.32,7.93-6.32h328.17c.21,0,.42,0,.62,0l.27,0,.3,0,.21,0a8.76,8.76,0,0,1,1.45.35l.21.07.2.07.4.16.43.21.37.2c.14.08.28.16.41.25l.31.21v0a1.49,1.49,0,0,1,.2.15,4.63,4.63,0,0,1,.58.5l.16.15.15.16.29.34A5.87,5.87,0,0,1,1671.79,1282.06Z"/><path class="cls-4" d="M1510.64,1306H1334.41l-.45,0a6.88,6.88,0,0,1-6.21-6.27c0-.12,0-.23,0-.34v-17.31c0-.11,0-.22,0-.34a6.93,6.93,0,0,1,7.08-6.32h154.22l.21.75a53.67,53.67,0,0,0,21.06,29.67Z"/><rect class="cls-4" x="1628.12" y="1275.4" width="3.73" height="30.64"/><rect class="cls-4" x="1615.5" y="1275.4" width="3.73" height="30.64"/><rect class="cls-4" x="1600.36" y="1275.4" width="3.73" height="30.64"/><rect class="cls-4" x="1577.15" y="1275.4" width="3.73" height="30.64"/><rect class="cls-4" x="1552.61" y="1275.4" width="3.73" height="30.64"/><rect class="cls-4" x="1514.99" y="1275.4" width="3.73" height="30.64"/><rect class="cls-4" x="1479.77" y="1275.4" width="3.73" height="30.64"/><rect class="cls-4" x="1448.31" y="1275.4" width="3.73" height="30.64"/><rect class="cls-4" x="1640.14" y="1275.4" width="3.73" height="30.64"/><rect class="cls-4" x="1648.08" y="1275.4" width="3.73" height="30.64"/><rect class="cls-4" x="1655.75" y="1275.4" width="3.73" height="30.64"/><path class="cls-4" d="M1665.25,1275.5v30.43a9.32,9.32,0,0,1-1.4.1h-2.34V1275.4h2.34A9.32,9.32,0,0,1,1665.25,1275.5Z"/><path class="cls-4" d="M1670.42,1278.34v24.75a7.85,7.85,0,0,1-3.72,2.49v-29.73A7.85,7.85,0,0,1,1670.42,1278.34Z"/><path class="cls-5" d="M1688.74,1252.18v17.3a5.92,5.92,0,0,1-1.36,3.73,7.83,7.83,0,0,1-3.73,2.49,7.66,7.66,0,0,1-1.45.34,8.1,8.1,0,0,1-1.4.11H1352.64a9.1,9.1,0,0,1-3.66-.75,6.82,6.82,0,0,1-4.25-5.27c0-.1,0-.2,0-.3s0-.23,0-.35v-17.3c0-.11,0-.22,0-.34.21-3.51,3.7-6.32,7.93-6.32H1680.8a9.23,9.23,0,0,1,1.4.1,8.53,8.53,0,0,1,1.45.35,7.83,7.83,0,0,1,3.73,2.49A5.89,5.89,0,0,1,1688.74,1252.18Z"/><path class="cls-4" d="M1527.59,1276.15h-175.8a7.41,7.41,0,0,1-3.27-.75,6.7,6.7,0,0,1-3.79-5.27c0-.1,0-.2,0-.3s0-.23,0-.35v-17.3c0-.11,0-.22,0-.34a6.93,6.93,0,0,1,7.08-6.32H1506a53.82,53.82,0,0,0,20.52,29.88Z"/><rect class="cls-4" x="1645.08" y="1245.52" width="3.73" height="30.64"/><rect class="cls-4" x="1632.45" y="1245.52" width="3.73" height="30.64"/><rect class="cls-4" x="1617.31" y="1245.52" width="3.73" height="30.64"/><rect class="cls-4" x="1594.11" y="1245.52" width="3.73" height="30.64"/><rect class="cls-4" x="1569.57" y="1245.52" width="3.73" height="30.64"/><rect class="cls-4" x="1531.95" y="1245.52" width="3.73" height="30.64"/><rect class="cls-4" x="1496.72" y="1245.52" width="3.73" height="30.64"/><rect class="cls-4" x="1465.27" y="1245.52" width="3.73" height="30.64"/><rect class="cls-4" x="1657.1" y="1245.52" width="3.73" height="30.64"/><rect class="cls-4" x="1665.04" y="1245.52" width="3.73" height="30.64"/><rect class="cls-4" x="1672.7" y="1245.52" width="3.73" height="30.64"/><path class="cls-4" d="M1682.2,1245.62v30.43a9.14,9.14,0,0,1-1.4.1h-2.33v-30.63h2.33A9.14,9.14,0,0,1,1682.2,1245.62Z"/><path class="cls-4" d="M1687.38,1248.46v24.75a7.83,7.83,0,0,1-3.73,2.49V1246A7.83,7.83,0,0,1,1687.38,1248.46Z"/><path class="cls-5" d="M1715.56,1221.55v17.3a5.87,5.87,0,0,1-1.36,3.72,8,8,0,0,1-3.73,2.5,9.58,9.58,0,0,1-1.45.34,9.23,9.23,0,0,1-1.4.11H1379.45c-4.23,0-7.71-2.82-7.93-6.33,0-.11,0-.23,0-.34v-17.3c0-.12,0-.23,0-.34.2-3.25,3.2-5.9,7-6.28a7.15,7.15,0,0,1,.93,0h328.17a9.23,9.23,0,0,1,1.4.11,7.66,7.66,0,0,1,1.45.34,7.87,7.87,0,0,1,3.73,2.5A5.87,5.87,0,0,1,1715.56,1221.55Z"/><path class="cls-4" d="M1554.41,1245.52H1378.6a7,7,0,0,1-7.08-6.33c0-.11,0-.23,0-.34v-17.3c0-.12,0-.23,0-.34a6.89,6.89,0,0,1,6.24-6.28,5.92,5.92,0,0,1,.84,0h154.22s0,0,0,0A53.73,53.73,0,0,0,1554.41,1245.52Z"/><rect class="cls-4" x="1671.9" y="1214.88" width="3.73" height="30.64"/><rect class="cls-4" x="1659.27" y="1214.88" width="3.73" height="30.64"/><rect class="cls-4" x="1644.13" y="1214.88" width="3.73" height="30.64"/><rect class="cls-4" x="1620.93" y="1214.88" width="3.73" height="30.64"/><rect class="cls-4" x="1596.39" y="1214.88" width="3.73" height="30.64"/><rect class="cls-4" x="1558.77" y="1214.88" width="3.73" height="30.64"/><rect class="cls-4" x="1523.54" y="1214.88" width="3.73" height="30.64"/><rect class="cls-4" x="1492.09" y="1214.88" width="3.73" height="30.64"/><rect class="cls-4" x="1683.92" y="1214.88" width="3.73" height="30.64"/><rect class="cls-4" x="1691.86" y="1214.88" width="3.73" height="30.64"/><rect class="cls-4" x="1699.52" y="1214.88" width="3.73" height="30.64"/><path class="cls-4" d="M1709,1215v30.42a9.23,9.23,0,0,1-1.4.11h-2.33v-30.64h2.33A9.23,9.23,0,0,1,1709,1215Z"/><path class="cls-4" d="M1714.2,1217.82v24.75a8,8,0,0,1-3.73,2.5v-29.74A7.88,7.88,0,0,1,1714.2,1217.82Z"/><path class="cls-5" d="M2280.2,1768.24v17.3a5.89,5.89,0,0,1-1.37,3.73,8.38,8.38,0,0,1-5.17,2.83,8.21,8.21,0,0,1-1.41.11H1944.09c-4,0-7.28-2.47-7.86-5.67a4.81,4.81,0,0,1-.08-.65v-18a4.62,4.62,0,0,1,.08-.65c.58-3.2,3.9-5.67,7.86-5.67h328.16a10.88,10.88,0,0,1,1.41.1,8.74,8.74,0,0,1,1.45.34,7.88,7.88,0,0,1,3.72,2.51A5.87,5.87,0,0,1,2280.2,1768.24Z"/><path class="cls-4" d="M2119,1792.21h-175.8a7,7,0,0,1-6.82-4.94,4.61,4.61,0,0,1-.19-.73,4.81,4.81,0,0,1-.08-.65v-18a4.62,4.62,0,0,1,.08-.65,4.49,4.49,0,0,1,.19-.72,7,7,0,0,1,6.82-5h154.22A53.71,53.71,0,0,0,2119,1792.21Z"/><rect class="cls-4" x="2236.53" y="1761.58" width="3.73" height="30.64"/><rect class="cls-4" x="2223.91" y="1761.58" width="3.73" height="30.64"/><rect class="cls-4" x="2208.77" y="1761.58" width="3.73" height="30.64"/><rect class="cls-4" x="2185.56" y="1761.58" width="3.73" height="30.64"/><rect class="cls-4" x="2161.02" y="1761.58" width="3.73" height="30.64"/><rect class="cls-4" x="2123.4" y="1761.58" width="3.73" height="30.64"/><rect class="cls-4" x="2088.17" y="1761.58" width="3.73" height="30.64"/><rect class="cls-4" x="2056.72" y="1761.58" width="3.73" height="30.64"/><rect class="cls-4" x="2248.55" y="1761.58" width="3.73" height="30.64"/><rect class="cls-4" x="2256.49" y="1761.58" width="3.73" height="30.64"/><rect class="cls-4" x="2264.16" y="1761.58" width="3.73" height="30.64"/><path class="cls-4" d="M2273.65,1761.68v30.43a9.14,9.14,0,0,1-1.4.1h-2.33v-30.63h2.33A10.6,10.6,0,0,1,2273.65,1761.68Z"/><path class="cls-4" d="M2278.83,1764.52v24.75a7.85,7.85,0,0,1-3.72,2.49V1762A7.85,7.85,0,0,1,2278.83,1764.52Z"/><path class="cls-5" d="M2245.1,1737.61v17.3a5.86,5.86,0,0,1-1.35,3.72,7.82,7.82,0,0,1-3.73,2.5,9.72,9.72,0,0,1-1.46.35l-.69.07c-.23,0-.47,0-.7,0H1909c-4,0-7.28-2.48-7.86-5.68a4.64,4.64,0,0,1-.07-.64c0-.12,0-.24,0-.35v-17.3c0-.12,0-.23,0-.34a4.62,4.62,0,0,1,.07-.65c.58-3.21,3.9-5.68,7.86-5.68h328.17l.63,0,.22,0h0l.3,0,.2,0a8.63,8.63,0,0,1,1.46.34l.21.07.2.07.15.07.25.1.22.1.07,0,.14.07c.13.06.24.13.37.2a8.15,8.15,0,0,1,.94.64,3.05,3.05,0,0,1,.38.32,7.81,7.81,0,0,1,.8.83A5.86,5.86,0,0,1,2245.1,1737.61Z"/><path class="cls-4" d="M2084,1761.58h-175.8a7,7,0,0,1-6.83-4.95,6,6,0,0,1-.19-.73,4.64,4.64,0,0,1-.07-.64c0-.12,0-.24,0-.35v-17.3c0-.12,0-.23,0-.34a4.62,4.62,0,0,1,.07-.65,5.86,5.86,0,0,1,.19-.72,7,7,0,0,1,6.83-5h154.2c.08.25.14.51.22.76a56,56,0,0,0,7.14,15.51A52.34,52.34,0,0,0,2084,1761.58Z"/><rect class="cls-4" x="2201.44" y="1730.94" width="3.73" height="30.64"/><rect class="cls-4" x="2188.82" y="1730.94" width="3.73" height="30.64"/><rect class="cls-4" x="2173.68" y="1730.94" width="3.73" height="30.64"/><rect class="cls-4" x="2150.47" y="1730.94" width="3.73" height="30.64"/><rect class="cls-4" x="2125.93" y="1730.94" width="3.73" height="30.64"/><rect class="cls-4" x="2088.31" y="1730.94" width="3.73" height="30.64"/><rect class="cls-4" x="2053.09" y="1730.94" width="3.73" height="30.64"/><rect class="cls-4" x="2021.63" y="1730.94" width="3.73" height="30.64"/><rect class="cls-4" x="2213.46" y="1730.94" width="3.73" height="30.64"/><rect class="cls-4" x="2221.4" y="1730.94" width="3.73" height="30.64"/><rect class="cls-4" x="2229.07" y="1730.94" width="3.73" height="30.64"/><path class="cls-4" d="M2238.57,1731.05v30.42a9.33,9.33,0,0,1-1.4.11h-2.33v-30.64h2.33A9.33,9.33,0,0,1,2238.57,1731.05Z"/><path class="cls-4" d="M2243.75,1733.89v24.74a8,8,0,0,1-3.73,2.5v-29.74A8,8,0,0,1,2243.75,1733.89Z"/><path class="cls-5" d="M2262.06,1707.73V1725a5.86,5.86,0,0,1-1.35,3.72,8.55,8.55,0,0,1-5.19,2.84,9.13,9.13,0,0,1-1.4.11H1926a9,9,0,0,1-3.66-.76,6.8,6.8,0,0,1-4.24-5.27,1.45,1.45,0,0,1,0-.3c0-.11,0-.23,0-.34v-17.3c0-.11,0-.23,0-.35a4.64,4.64,0,0,1,.07-.64c.58-3.2,3.9-5.68,7.86-5.68h328.16a10.6,10.6,0,0,1,1.4.1,10,10,0,0,1,1.46.35,8,8,0,0,1,3.73,2.5A5.86,5.86,0,0,1,2262.06,1707.73Z"/><path class="cls-4" d="M2100.92,1731.7H1925.1a7.27,7.27,0,0,1-3.26-.76,6.67,6.67,0,0,1-3.78-5.27,1.45,1.45,0,0,1,0-.3c0-.11,0-.23,0-.34v-17.3c0-.11,0-.23,0-.35a4.64,4.64,0,0,1,.07-.64,6,6,0,0,1,.19-.73,7,7,0,0,1,6.81-5h154.23a56.71,56.71,0,0,0,4.76,12,52.57,52.57,0,0,0,15.74,17.92Z"/><rect class="cls-4" x="2218.4" y="1701.06" width="3.73" height="30.64"/><rect class="cls-4" x="2205.78" y="1701.06" width="3.73" height="30.64"/><rect class="cls-4" x="2190.64" y="1701.06" width="3.73" height="30.64"/><rect class="cls-4" x="2167.43" y="1701.06" width="3.73" height="30.64"/><rect class="cls-4" x="2142.89" y="1701.06" width="3.73" height="30.64"/><rect class="cls-4" x="2105.27" y="1701.06" width="3.73" height="30.64"/><rect class="cls-4" x="2070.04" y="1701.06" width="3.73" height="30.64"/><rect class="cls-4" x="2038.59" y="1701.06" width="3.73" height="30.64"/><rect class="cls-4" x="2230.42" y="1701.06" width="3.73" height="30.64"/><rect class="cls-4" x="2238.36" y="1701.06" width="3.73" height="30.64"/><rect class="cls-4" x="2246.02" y="1701.06" width="3.73" height="30.64"/><path class="cls-4" d="M2255.52,1701.17v30.42a9.13,9.13,0,0,1-1.4.11h-2.33v-30.64h2.33A9.13,9.13,0,0,1,2255.52,1701.17Z"/><path class="cls-4" d="M2260.7,1704v24.74a7.92,7.92,0,0,1-3.73,2.5v-29.74A7.78,7.78,0,0,1,2260.7,1704Z"/><path class="cls-5" d="M2269.92,1677.1v17.3a5.81,5.81,0,0,1-1.36,3.71,7.14,7.14,0,0,1-.76.8,8,8,0,0,1-3,1.71,10,10,0,0,1-1.46.34l-.69.08-.71,0H1933.82c-4,0-7.28-2.47-7.86-5.67a4.62,4.62,0,0,1-.07-.65c0-.12,0-.24,0-.34v-17.3c0-.12,0-.24,0-.35a5.8,5.8,0,0,1,.06-.6c.51-3,3.37-5.31,6.93-5.68.31,0,.62,0,.94,0H2262a9.66,9.66,0,0,1,2.86.45,7.83,7.83,0,0,1,3.72,2.49A5.82,5.82,0,0,1,2269.92,1677.1Z"/><path class="cls-4" d="M2108.78,1701.06H1933a7,7,0,0,1-6.81-5,6.38,6.38,0,0,1-.19-.72,4.62,4.62,0,0,1-.07-.65c0-.12,0-.24,0-.34v-17.3c0-.12,0-.24,0-.35a5.8,5.8,0,0,1,.06-.6,7,7,0,0,1,6.18-5.68,7.81,7.81,0,0,1,.83,0h154.23a.06.06,0,0,0,0,0,58,58,0,0,0,3.89,10.24A52.71,52.71,0,0,0,2108.78,1701.06Z"/><rect class="cls-4" x="2226.26" y="1670.42" width="3.73" height="30.64"/><rect class="cls-4" x="2213.64" y="1670.42" width="3.73" height="30.64"/><rect class="cls-4" x="2198.5" y="1670.42" width="3.73" height="30.64"/><rect class="cls-4" x="2175.29" y="1670.42" width="3.73" height="30.64"/><rect class="cls-4" x="2150.75" y="1670.42" width="3.73" height="30.64"/><rect class="cls-4" x="2113.13" y="1670.42" width="3.73" height="30.64"/><rect class="cls-4" x="2077.9" y="1670.42" width="3.73" height="30.64"/><rect class="cls-4" x="2046.45" y="1670.42" width="3.73" height="30.64"/><rect class="cls-4" x="2238.28" y="1670.42" width="3.73" height="30.64"/><rect class="cls-4" x="2246.22" y="1670.42" width="3.73" height="30.64"/><rect class="cls-4" x="2253.88" y="1670.42" width="3.73" height="30.64"/><path class="cls-4" d="M2263.38,1670.53V1701a9.13,9.13,0,0,1-1.4.11h-2.33v-30.64H2262A9.13,9.13,0,0,1,2263.38,1670.53Z"/><path class="cls-4" d="M2268.56,1673.37v24.75a7.85,7.85,0,0,1-3.72,2.49v-29.74A7.94,7.94,0,0,1,2268.56,1673.37Z"/><path class="cls-5" d="M2245.8,1646.5v17.3a6,6,0,0,1-1.36,3.73,8,8,0,0,1-3.73,2.49,7.84,7.84,0,0,1-1.45.34l-.46.07h-.07l-.45,0H1909.69c-4,0-7.28-2.47-7.86-5.67a4.78,4.78,0,0,1-.07-.65v-18a2.64,2.64,0,0,0,0-.28c.32-2.83,2.76-5.15,6-5.83a2,2,0,0,1,.23-.06,10.79,10.79,0,0,1,1.72-.15h328.16l.71,0a1.46,1.46,0,0,1,.31,0h0l.38,0a8.74,8.74,0,0,1,1.45.34,8,8,0,0,1,3.73,2.51A5.92,5.92,0,0,1,2245.8,1646.5Z"/><path class="cls-4" d="M2084.65,1670.47H1908.84a7,7,0,0,1-6.82-4.94,6,6,0,0,1-.19-.73,4.78,4.78,0,0,1-.07-.65v-18a2.64,2.64,0,0,0,0-.28,6.86,6.86,0,0,1,5.51-5.88l.3-.06a7.36,7.36,0,0,1,1.25-.1h154.22l.06.22a53.71,53.71,0,0,0,21.46,30.37Z"/><rect class="cls-4" x="2202.13" y="1639.84" width="3.73" height="30.64"/><rect class="cls-4" x="2189.51" y="1639.84" width="3.73" height="30.64"/><rect class="cls-4" x="2174.37" y="1639.84" width="3.73" height="30.64"/><rect class="cls-4" x="2151.16" y="1639.84" width="3.73" height="30.64"/><rect class="cls-4" x="2126.62" y="1639.84" width="3.73" height="30.64"/><rect class="cls-4" x="2089" y="1639.84" width="3.73" height="30.64"/><rect class="cls-4" x="2053.78" y="1639.84" width="3.73" height="30.64"/><rect class="cls-4" x="2022.33" y="1639.84" width="3.73" height="30.64"/><rect class="cls-4" x="2214.15" y="1639.84" width="3.73" height="30.64"/><rect class="cls-4" x="2222.09" y="1639.84" width="3.73" height="30.64"/><rect class="cls-4" x="2229.76" y="1639.84" width="3.73" height="30.64"/><path class="cls-4" d="M2239.26,1639.94v30.43a9.32,9.32,0,0,1-1.4.1h-2.33v-30.63h2.33A9.32,9.32,0,0,1,2239.26,1639.94Z"/><path class="cls-4" d="M2244.44,1642.78v24.75a7.93,7.93,0,0,1-3.73,2.49v-29.73A7.93,7.93,0,0,1,2244.44,1642.78Z"/><path class="cls-5" d="M2245.1,1616.09v17.3a5.9,5.9,0,0,1-1.35,3.72,8,8,0,0,1-3.73,2.5c-.36.11-.75.21-1.14.29h0l-.31,0a10.43,10.43,0,0,1-1.39.11H1909a7.13,7.13,0,0,1-1-.07,2.47,2.47,0,0,1-.38,0c-3.34-.51-6-2.79-6.46-5.64a5.51,5.51,0,0,1-.06-.57c0-.12,0-.22,0-.34v-17.3c0-.12,0-.23,0-.35a4.48,4.48,0,0,1,.07-.64c.58-3.21,3.9-5.68,7.86-5.68h328.17l.63,0h.26l.3,0,.2,0a8.63,8.63,0,0,1,1.46.34l.21.06a.84.84,0,0,0,.2.08l.15.06.25.1h0l.18.09a7.92,7.92,0,0,1,1.54.94l.38.32c.12.11.24.22.35.34l.15.16c.11.1.2.22.3.33A5.89,5.89,0,0,1,2245.1,1616.09Z"/><path class="cls-4" d="M2084,1640.06H1907.74l-.45,0a6.92,6.92,0,0,1-6.16-5.7,5.51,5.51,0,0,1-.06-.57c0-.12,0-.22,0-.34v-17.3c0-.12,0-.23,0-.35a4.48,4.48,0,0,1,.07-.64,6,6,0,0,1,.19-.73,7,7,0,0,1,6.83-4.95h154.2c.08.24.14.5.22.75a53.64,53.64,0,0,0,21.07,29.67Z"/><rect class="cls-4" x="2201.44" y="1609.42" width="3.73" height="30.64"/><rect class="cls-4" x="2188.82" y="1609.42" width="3.73" height="30.64"/><rect class="cls-4" x="2173.68" y="1609.42" width="3.73" height="30.64"/><rect class="cls-4" x="2150.47" y="1609.42" width="3.73" height="30.64"/><rect class="cls-4" x="2125.93" y="1609.42" width="3.73" height="30.64"/><rect class="cls-4" x="2088.31" y="1609.42" width="3.73" height="30.64"/><rect class="cls-4" x="2053.09" y="1609.42" width="3.73" height="30.64"/><rect class="cls-4" x="2021.63" y="1609.42" width="3.73" height="30.64"/><rect class="cls-4" x="2213.46" y="1609.42" width="3.73" height="30.64"/><rect class="cls-4" x="2221.4" y="1609.42" width="3.73" height="30.64"/><rect class="cls-4" x="2229.07" y="1609.42" width="3.73" height="30.64"/><path class="cls-4" d="M2238.57,1609.53V1640a9.32,9.32,0,0,1-1.4.1h-2.33v-30.63h2.33A9.33,9.33,0,0,1,2238.57,1609.53Z"/><path class="cls-4" d="M2243.75,1612.36v24.75a8,8,0,0,1-3.73,2.5v-29.74A7.93,7.93,0,0,1,2243.75,1612.36Z"/><path class="cls-5" d="M2262.06,1586.21v17.3a5.88,5.88,0,0,1-1.35,3.72,8,8,0,0,1-3.73,2.5,7.93,7.93,0,0,1-1.46.33,5.43,5.43,0,0,1-.69.09l-.71,0H1926a9.14,9.14,0,0,1-3.66-.75,6.81,6.81,0,0,1-4.24-5.28,1.39,1.39,0,0,1,0-.3c0-.1,0-.22,0-.33v-17.3c0-.12,0-.24,0-.34a4.62,4.62,0,0,1,.07-.65c.58-3.21,3.9-5.68,7.86-5.68h328.16a9.66,9.66,0,0,1,2.86.45,8.18,8.18,0,0,1,3.73,2.49A5.89,5.89,0,0,1,2262.06,1586.21Z"/><path class="cls-4" d="M2100.92,1610.17H1925.1a7.4,7.4,0,0,1-3.26-.75,6.69,6.69,0,0,1-3.78-5.28,1.39,1.39,0,0,1,0-.3c0-.1,0-.22,0-.33v-17.3c0-.12,0-.24,0-.34a4.62,4.62,0,0,1,.07-.65,6,6,0,0,1,.19-.73,7,7,0,0,1,6.81-5h154.23a53.72,53.72,0,0,0,20.5,29.88Z"/><rect class="cls-4" x="2218.4" y="1579.54" width="3.73" height="30.64"/><rect class="cls-4" x="2205.78" y="1579.54" width="3.73" height="30.64"/><rect class="cls-4" x="2190.64" y="1579.54" width="3.73" height="30.64"/><rect class="cls-4" x="2167.43" y="1579.54" width="3.73" height="30.64"/><rect class="cls-4" x="2142.89" y="1579.54" width="3.73" height="30.64"/><rect class="cls-4" x="2105.27" y="1579.54" width="3.73" height="30.64"/><rect class="cls-4" x="2070.04" y="1579.54" width="3.73" height="30.64"/><rect class="cls-4" x="2038.59" y="1579.54" width="3.73" height="30.64"/><rect class="cls-4" x="2230.42" y="1579.54" width="3.73" height="30.64"/><rect class="cls-4" x="2238.36" y="1579.54" width="3.73" height="30.64"/><rect class="cls-4" x="2246.02" y="1579.54" width="3.73" height="30.64"/><path class="cls-4" d="M2255.52,1579.65v30.42a9.14,9.14,0,0,1-1.4.1h-2.33v-30.63h2.33A9.13,9.13,0,0,1,2255.52,1579.65Z"/><path class="cls-4" d="M2260.7,1582.48v24.75a7.83,7.83,0,0,1-3.73,2.49V1580A7.83,7.83,0,0,1,2260.7,1582.48Z"/><path class="cls-5" d="M2288.88,1555.57v17.3a5.89,5.89,0,0,1-1.36,3.72c-.12.14-.23.28-.36.41a7.94,7.94,0,0,1-3.36,2.09,9,9,0,0,1-1.45.34,9.46,9.46,0,0,1-1.41.11H1952.78c-4,0-7.28-2.47-7.86-5.68a3.4,3.4,0,0,1-.08-.64c0-.12,0-.23,0-.35v-17.3c0-.12,0-.22,0-.34.21-3.25,3.2-5.9,7-6.29.31,0,.63,0,1,0h328.16a8.29,8.29,0,0,1,1.41.11,8,8,0,0,1,1.45.34,7.94,7.94,0,0,1,3.36,2.09c.13.13.24.27.36.4A5.94,5.94,0,0,1,2288.88,1555.57Z"/><path class="cls-4" d="M2127.73,1579.54H1951.92a7,7,0,0,1-6.81-5,4.61,4.61,0,0,1-.19-.73,3.4,3.4,0,0,1-.08-.64c0-.12,0-.23,0-.35v-17.3c0-.12,0-.22,0-.34a5.44,5.44,0,0,1,.14-.9,7,7,0,0,1,6.1-5.39,7.87,7.87,0,0,1,.84,0h154.23v0A53.69,53.69,0,0,0,2127.73,1579.54Z"/><rect class="cls-4" x="2245.22" y="1548.9" width="3.73" height="30.64"/><rect class="cls-4" x="2232.59" y="1548.9" width="3.73" height="30.64"/><rect class="cls-4" x="2217.45" y="1548.9" width="3.73" height="30.64"/><rect class="cls-4" x="2194.25" y="1548.9" width="3.73" height="30.64"/><rect class="cls-4" x="2169.71" y="1548.9" width="3.73" height="30.64"/><rect class="cls-4" x="2132.09" y="1548.9" width="3.73" height="30.64"/><rect class="cls-4" x="2096.86" y="1548.9" width="3.73" height="30.64"/><rect class="cls-4" x="2065.41" y="1548.9" width="3.73" height="30.64"/><rect class="cls-4" x="2257.24" y="1548.9" width="3.73" height="30.64"/><rect class="cls-4" x="2265.18" y="1548.9" width="3.73" height="30.64"/><rect class="cls-4" x="2272.84" y="1548.9" width="3.73" height="30.64"/><path class="cls-4" d="M2282.34,1549v30.42a9.23,9.23,0,0,1-1.4.11h-2.33V1548.9h2.33A9.23,9.23,0,0,1,2282.34,1549Z"/><path class="cls-4" d="M2287.52,1551.85v24.74a7.92,7.92,0,0,1-3.73,2.5v-29.74A7.85,7.85,0,0,1,2287.52,1551.85Z"/><path class="cls-5" d="M2245.8,1525v17.3a5.92,5.92,0,0,1-1.36,3.71,7.87,7.87,0,0,1-3.73,2.5,9.89,9.89,0,0,1-1.45.35l-.46.05h0l-.23,0H1909.69c-4,0-7.28-2.47-7.86-5.67a4.48,4.48,0,0,1-.07-.64v-18a4.78,4.78,0,0,1,.07-.65c.58-3.2,3.9-5.67,7.86-5.67h328.64l.36,0,.57.06a8.76,8.76,0,0,1,1.45.35l.56.2.12.06h0a7.67,7.67,0,0,1,3,2.23A5.93,5.93,0,0,1,2245.8,1525Z"/><path class="cls-4" d="M2084.65,1548.94H1908.84A7,7,0,0,1,1902,1544a6,6,0,0,1-.19-.73,4.48,4.48,0,0,1-.07-.64v-18a4.78,4.78,0,0,1,.07-.65,6,6,0,0,1,.19-.73,7,7,0,0,1,6.82-4.94h154.22l.2.71a53.61,53.61,0,0,0,21.32,29.87Z"/><rect class="cls-4" x="2202.13" y="1518.31" width="3.73" height="30.64"/><rect class="cls-4" x="2189.51" y="1518.31" width="3.73" height="30.64"/><rect class="cls-4" x="2174.37" y="1518.31" width="3.73" height="30.64"/><rect class="cls-4" x="2151.16" y="1518.31" width="3.73" height="30.64"/><rect class="cls-4" x="2126.62" y="1518.31" width="3.73" height="30.64"/><rect class="cls-4" x="2089" y="1518.31" width="3.73" height="30.64"/><rect class="cls-4" x="2053.78" y="1518.31" width="3.73" height="30.64"/><rect class="cls-4" x="2022.33" y="1518.31" width="3.73" height="30.64"/><rect class="cls-4" x="2214.15" y="1518.31" width="3.73" height="30.64"/><rect class="cls-4" x="2222.09" y="1518.31" width="3.73" height="30.64"/><rect class="cls-4" x="2229.76" y="1518.31" width="3.73" height="30.64"/><path class="cls-4" d="M2239.26,1518.42v30.42a9.33,9.33,0,0,1-1.4.11h-2.33v-30.64h2.33A9.33,9.33,0,0,1,2239.26,1518.42Z"/><path class="cls-4" d="M2244.44,1521.26V1546a8,8,0,0,1-3.73,2.5v-29.74A8,8,0,0,1,2244.44,1521.26Z"/><path class="cls-5" d="M2269.92,1495.05v17.31a5.81,5.81,0,0,1-1.36,3.71,7.84,7.84,0,0,1-3.72,2.5,10,10,0,0,1-1.46.35,10.58,10.58,0,0,1-1.4.11H1933.82a9.14,9.14,0,0,1-3.55-.71,7,7,0,0,1-4.3-4.92,3,3,0,0,1-.06-.43,2.45,2.45,0,0,1,0-.27c0-.12,0-.24,0-.34v-17.31c0-.11,0-.22,0-.34a5.8,5.8,0,0,1,.06-.6c.51-3,3.37-5.32,6.93-5.68.31,0,.62,0,.94,0H2262c.29,0,.59,0,.89,0l.51.06a8.88,8.88,0,0,1,1.46.35,7.9,7.9,0,0,1,3.72,2.49A5.82,5.82,0,0,1,2269.92,1495.05Z"/><path class="cls-4" d="M2108.78,1519H1933a7.32,7.32,0,0,1-3.15-.71,6.75,6.75,0,0,1-3.84-4.92,3,3,0,0,1-.06-.43,2.45,2.45,0,0,1,0-.27c0-.12,0-.24,0-.34v-17.31c0-.11,0-.22,0-.34a5.8,5.8,0,0,1,.06-.6,7,7,0,0,1,6.18-5.68,7.81,7.81,0,0,1,.83,0h154.23a.06.06,0,0,0,0,0,53.85,53.85,0,0,0,20.57,29.89Z"/><rect class="cls-4" x="2226.26" y="1488.38" width="3.73" height="30.64"/><rect class="cls-4" x="2213.64" y="1488.38" width="3.73" height="30.64"/><rect class="cls-4" x="2198.5" y="1488.38" width="3.73" height="30.64"/><rect class="cls-4" x="2175.29" y="1488.38" width="3.73" height="30.64"/><rect class="cls-4" x="2150.75" y="1488.38" width="3.73" height="30.64"/><rect class="cls-4" x="2113.13" y="1488.38" width="3.73" height="30.64"/><rect class="cls-4" x="2077.9" y="1488.38" width="3.73" height="30.64"/><rect class="cls-4" x="2046.45" y="1488.38" width="3.73" height="30.64"/><rect class="cls-4" x="2238.28" y="1488.38" width="3.73" height="30.64"/><rect class="cls-4" x="2246.22" y="1488.38" width="3.73" height="30.64"/><rect class="cls-4" x="2253.88" y="1488.38" width="3.73" height="30.64"/><path class="cls-4" d="M2263.38,1488.49v30.42a9.13,9.13,0,0,1-1.4.11h-2.33v-30.64H2262A9.13,9.13,0,0,1,2263.38,1488.49Z"/><path class="cls-4" d="M2268.56,1491.33v24.75a7.85,7.85,0,0,1-3.72,2.49v-29.74A7.94,7.94,0,0,1,2268.56,1491.33Z"/><path class="cls-5" d="M2280.2,1464.47v17.3a5.92,5.92,0,0,1-1.37,3.72,6.17,6.17,0,0,1-.75.79,8.07,8.07,0,0,1-3,1.71,7.83,7.83,0,0,1-1.45.33,4,4,0,0,1-.46.07h-.2q-.36,0-.75,0H1944.09a8.44,8.44,0,0,1-.87,0c-3.58-.34-6.45-2.67-7-5.64a4.62,4.62,0,0,1-.08-.65v-18a4.62,4.62,0,0,1,.08-.65c.58-3.21,3.9-5.68,7.86-5.68h328.16a8.21,8.21,0,0,1,1.41.11,8.38,8.38,0,0,1,5.17,2.83A5.91,5.91,0,0,1,2280.2,1464.47Z"/><path class="cls-4" d="M2119,1488.43h-175.8a6.51,6.51,0,0,1-.77,0,6.93,6.93,0,0,1-6.24-5.64,4.62,4.62,0,0,1-.08-.65v-18a5.34,5.34,0,0,1,.27-1.38,7,7,0,0,1,6.82-5h154.22a53.72,53.72,0,0,0,21.52,30.59Z"/><rect class="cls-4" x="2236.53" y="1457.8" width="3.73" height="30.64"/><rect class="cls-4" x="2223.91" y="1457.8" width="3.73" height="30.64"/><rect class="cls-4" x="2208.77" y="1457.8" width="3.73" height="30.64"/><rect class="cls-4" x="2185.56" y="1457.8" width="3.73" height="30.64"/><rect class="cls-4" x="2161.02" y="1457.8" width="3.73" height="30.64"/><rect class="cls-4" x="2123.4" y="1457.8" width="3.73" height="30.64"/><rect class="cls-4" x="2088.18" y="1457.8" width="3.73" height="30.64"/><rect class="cls-4" x="2056.72" y="1457.8" width="3.73" height="30.64"/><rect class="cls-4" x="2248.55" y="1457.8" width="3.73" height="30.64"/><rect class="cls-4" x="2256.49" y="1457.8" width="3.73" height="30.64"/><rect class="cls-4" x="2264.16" y="1457.8" width="3.73" height="30.64"/><path class="cls-4" d="M2273.65,1457.9v30.43a9.14,9.14,0,0,1-1.4.1h-2.33V1457.8h2.33A9.14,9.14,0,0,1,2273.65,1457.9Z"/><path class="cls-4" d="M2278.83,1460.74v24.75a7.85,7.85,0,0,1-3.72,2.49v-29.73A7.85,7.85,0,0,1,2278.83,1460.74Z"/><path class="cls-5" d="M1245.64,1768.25v17.3a5.91,5.91,0,0,1-1.36,3.72,7.83,7.83,0,0,1-3.73,2.49,8.53,8.53,0,0,1-1.45.35,9.23,9.23,0,0,1-1.4.1H909.54c-4.24,0-7.72-2.81-7.94-6.32v-18c.22-3.51,3.7-6.32,7.94-6.32H1237.7a10.73,10.73,0,0,1,1.4.1,8.53,8.53,0,0,1,1.45.35,7.83,7.83,0,0,1,3.73,2.49A5.92,5.92,0,0,1,1245.64,1768.25Z"/><path class="cls-4" d="M1084.49,1792.21H908.68a6.94,6.94,0,0,1-7.08-6.32v-18a6.94,6.94,0,0,1,7.08-6.32H1062.9A53.75,53.75,0,0,0,1084.49,1792.21Z"/><rect class="cls-4" x="1201.98" y="1761.58" width="3.73" height="30.64"/><rect class="cls-4" x="1189.35" y="1761.58" width="3.73" height="30.64"/><rect class="cls-4" x="1174.21" y="1761.58" width="3.73" height="30.64"/><rect class="cls-4" x="1151.01" y="1761.58" width="3.73" height="30.64"/><rect class="cls-4" x="1126.47" y="1761.58" width="3.73" height="30.64"/><rect class="cls-4" x="1088.85" y="1761.58" width="3.73" height="30.64"/><rect class="cls-4" x="1053.62" y="1761.58" width="3.73" height="30.64"/><rect class="cls-4" x="1022.17" y="1761.58" width="3.73" height="30.64"/><rect class="cls-4" x="1214" y="1761.58" width="3.73" height="30.64"/><rect class="cls-4" x="1221.94" y="1761.58" width="3.73" height="30.64"/><rect class="cls-4" x="1229.6" y="1761.58" width="3.73" height="30.64"/><path class="cls-4" d="M1239.1,1761.68v30.43a9.23,9.23,0,0,1-1.4.1h-2.33v-30.63h2.33A10.73,10.73,0,0,1,1239.1,1761.68Z"/><path class="cls-4" d="M1244.28,1764.52v24.75a7.83,7.83,0,0,1-3.73,2.49V1762A7.83,7.83,0,0,1,1244.28,1764.52Z"/><path class="cls-5" d="M1210.55,1737.61v17.3a5.87,5.87,0,0,1-1.36,3.72,7.94,7.94,0,0,1-3.72,2.5,8.86,8.86,0,0,1-1.46.34,9.13,9.13,0,0,1-1.4.11H874.45c-4.23,0-7.72-2.82-7.93-6.33,0-.11,0-.23,0-.34v-17.3c0-.11,0-.23,0-.34.21-3.51,3.7-6.33,7.93-6.33h328.16l.63,0,.27,0a1.36,1.36,0,0,1,.29,0l.21,0a8.86,8.86,0,0,1,1.46.34l.2.07.2.08.4.16.23.1.2.1.38.2.41.26.3.21h0l.2.15c.2.16.4.33.58.5s.11.1.16.16l.15.16c.1.11.2.22.29.34A5.87,5.87,0,0,1,1210.55,1737.61Z"/><path class="cls-4" d="M1049.41,1761.58H873.6a6.94,6.94,0,0,1-7.08-6.33c0-.11,0-.23,0-.34v-17.3c0-.11,0-.23,0-.34a6.94,6.94,0,0,1,7.08-6.33h154.21c.07.25.14.5.22.76A53.58,53.58,0,0,0,1049.41,1761.58Z"/><rect class="cls-4" x="1166.89" y="1730.94" width="3.73" height="30.64"/><rect class="cls-4" x="1154.27" y="1730.94" width="3.73" height="30.64"/><rect class="cls-4" x="1139.13" y="1730.94" width="3.73" height="30.64"/><rect class="cls-4" x="1115.92" y="1730.94" width="3.73" height="30.64"/><rect class="cls-4" x="1091.38" y="1730.94" width="3.73" height="30.64"/><rect class="cls-4" x="1053.76" y="1730.94" width="3.73" height="30.64"/><rect class="cls-4" x="1018.54" y="1730.94" width="3.73" height="30.64"/><rect class="cls-4" x="987.08" y="1730.94" width="3.73" height="30.64"/><rect class="cls-4" x="1178.91" y="1730.94" width="3.73" height="30.64"/><rect class="cls-4" x="1186.85" y="1730.94" width="3.73" height="30.64"/><rect class="cls-4" x="1194.51" y="1730.94" width="3.73" height="30.64"/><path class="cls-4" d="M1204,1731.05v30.42a9.13,9.13,0,0,1-1.4.11h-2.33v-30.64h2.33A9.13,9.13,0,0,1,1204,1731.05Z"/><path class="cls-4" d="M1209.19,1733.89v24.74a7.94,7.94,0,0,1-3.72,2.5v-29.74A7.87,7.87,0,0,1,1209.19,1733.89Z"/><path class="cls-5" d="M1227.51,1707.73V1725a5.87,5.87,0,0,1-1.36,3.72,8,8,0,0,1-3.73,2.5,8.51,8.51,0,0,1-1.45.34,9.23,9.23,0,0,1-1.4.11H891.4a9.18,9.18,0,0,1-3.66-.76,6.8,6.8,0,0,1-4.24-5.27l0-.3c0-.11,0-.23,0-.34v-17.3c0-.12,0-.23,0-.34.22-3.51,3.7-6.33,7.93-6.33h328.17a9.23,9.23,0,0,1,1.4.11,8.51,8.51,0,0,1,1.45.34,8,8,0,0,1,3.73,2.5A5.87,5.87,0,0,1,1227.51,1707.73Z"/><path class="cls-4" d="M1066.36,1731.7H890.55a7.41,7.41,0,0,1-3.26-.76,6.68,6.68,0,0,1-3.79-5.27l0-.3c0-.11,0-.23,0-.34v-17.3c0-.12,0-.23,0-.34a7,7,0,0,1,7.08-6.33h154.22a53.77,53.77,0,0,0,20.51,29.88Z"/><rect class="cls-4" x="1183.85" y="1701.06" width="3.73" height="30.64"/><rect class="cls-4" x="1171.22" y="1701.06" width="3.73" height="30.64"/><rect class="cls-4" x="1156.08" y="1701.06" width="3.73" height="30.64"/><rect class="cls-4" x="1132.88" y="1701.06" width="3.73" height="30.64"/><rect class="cls-4" x="1108.34" y="1701.06" width="3.73" height="30.64"/><rect class="cls-4" x="1070.72" y="1701.06" width="3.73" height="30.64"/><rect class="cls-4" x="1035.49" y="1701.06" width="3.73" height="30.64"/><rect class="cls-4" x="1004.04" y="1701.06" width="3.73" height="30.64"/><rect class="cls-4" x="1195.87" y="1701.06" width="3.73" height="30.64"/><rect class="cls-4" x="1203.8" y="1701.06" width="3.73" height="30.64"/><rect class="cls-4" x="1211.47" y="1701.06" width="3.73" height="30.64"/><path class="cls-4" d="M1221,1701.17v30.42a9.23,9.23,0,0,1-1.4.11h-2.33v-30.64h2.33A9.23,9.23,0,0,1,1221,1701.17Z"/><path class="cls-4" d="M1226.15,1704v24.74a8,8,0,0,1-3.73,2.5v-29.74A7.87,7.87,0,0,1,1226.15,1704Z"/><path class="cls-5" d="M1235.37,1677.09v17.3a5.92,5.92,0,0,1-1.36,3.73,7.88,7.88,0,0,1-3.73,2.49,7.66,7.66,0,0,1-1.45.34,9.23,9.23,0,0,1-1.4.11H899.27c-4.24,0-7.72-2.81-7.94-6.32v-18c.2-3.25,3.2-5.9,7-6.28a9.36,9.36,0,0,1,.94,0h328.16a9.23,9.23,0,0,1,1.4.11,8.53,8.53,0,0,1,1.45.35,7.88,7.88,0,0,1,3.73,2.49A5.89,5.89,0,0,1,1235.37,1677.09Z"/><path class="cls-4" d="M1074.22,1701.06H898.41a6.94,6.94,0,0,1-7.08-6.32v-18a6.9,6.9,0,0,1,6.25-6.28,7.55,7.55,0,0,1,.83,0h154.22l0,0A53.73,53.73,0,0,0,1074.22,1701.06Z"/><rect class="cls-4" x="1191.71" y="1670.42" width="3.73" height="30.64"/><rect class="cls-4" x="1179.08" y="1670.42" width="3.73" height="30.64"/><rect class="cls-4" x="1163.94" y="1670.42" width="3.73" height="30.64"/><rect class="cls-4" x="1140.74" y="1670.42" width="3.73" height="30.64"/><rect class="cls-4" x="1116.2" y="1670.42" width="3.73" height="30.64"/><rect class="cls-4" x="1078.58" y="1670.42" width="3.73" height="30.64"/><rect class="cls-4" x="1043.35" y="1670.42" width="3.73" height="30.64"/><rect class="cls-4" x="1011.9" y="1670.42" width="3.73" height="30.64"/><rect class="cls-4" x="1203.73" y="1670.42" width="3.73" height="30.64"/><rect class="cls-4" x="1211.66" y="1670.42" width="3.73" height="30.64"/><rect class="cls-4" x="1219.33" y="1670.42" width="3.73" height="30.64"/><path class="cls-4" d="M1228.83,1670.53V1701a9.23,9.23,0,0,1-1.4.11h-2.33v-30.64h2.33A9.23,9.23,0,0,1,1228.83,1670.53Z"/><path class="cls-4" d="M1234,1673.37v24.75a7.88,7.88,0,0,1-3.73,2.49v-29.74A8,8,0,0,1,1234,1673.37Z"/><path class="cls-5" d="M1211.24,1646.5v17.31a5.91,5.91,0,0,1-1.36,3.72,7.85,7.85,0,0,1-3.72,2.49,8.88,8.88,0,0,1-1.46.35l-.46.05-.26,0H875.14c-4.23,0-7.72-2.81-7.93-6.32,0-.12,0-.23,0-.34V1646.5c0-.11,0-.22,0-.34a2.64,2.64,0,0,1,0-.28c.32-2.82,2.76-5.15,5.95-5.84l.24,0a8.88,8.88,0,0,1,1.72-.16H1203.3l.71,0,.32,0h0l.37,0a8.88,8.88,0,0,1,1.46.35,7.85,7.85,0,0,1,3.72,2.49A5.91,5.91,0,0,1,1211.24,1646.5Z"/><path class="cls-4" d="M1050.1,1670.47H874.29a6.93,6.93,0,0,1-7.08-6.32c0-.12,0-.23,0-.34V1646.5c0-.11,0-.22,0-.34a2.64,2.64,0,0,1,0-.28,6.85,6.85,0,0,1,5.5-5.88l.3-.06a7.48,7.48,0,0,1,1.26-.1h154.22a1.66,1.66,0,0,0,.06.21,53.64,53.64,0,0,0,21.46,30.37A.18.18,0,0,0,1050.1,1670.47Z"/><rect class="cls-4" x="1167.58" y="1639.84" width="3.73" height="30.64"/><rect class="cls-4" x="1154.96" y="1639.84" width="3.73" height="30.64"/><rect class="cls-4" x="1139.82" y="1639.84" width="3.73" height="30.64"/><rect class="cls-4" x="1116.61" y="1639.84" width="3.73" height="30.64"/><rect class="cls-4" x="1092.07" y="1639.84" width="3.73" height="30.64"/><rect class="cls-4" x="1054.45" y="1639.84" width="3.73" height="30.64"/><rect class="cls-4" x="1019.22" y="1639.84" width="3.73" height="30.64"/><rect class="cls-4" x="987.77" y="1639.84" width="3.73" height="30.64"/><rect class="cls-4" x="1179.6" y="1639.84" width="3.73" height="30.64"/><rect class="cls-4" x="1187.54" y="1639.84" width="3.73" height="30.64"/><rect class="cls-4" x="1195.2" y="1639.84" width="3.73" height="30.64"/><path class="cls-4" d="M1204.7,1639.94v30.43a9.14,9.14,0,0,1-1.4.1H1201v-30.63h2.33A9.14,9.14,0,0,1,1204.7,1639.94Z"/><path class="cls-4" d="M1209.88,1642.78v24.75a7.85,7.85,0,0,1-3.72,2.49v-29.73A7.85,7.85,0,0,1,1209.88,1642.78Z"/><path class="cls-5" d="M1210.55,1616.09v17.3a5.89,5.89,0,0,1-1.36,3.72,7.85,7.85,0,0,1-3.72,2.49,7.32,7.32,0,0,1-1.14.29h0l-.32.06a9.14,9.14,0,0,1-1.4.1H874.45a8.77,8.77,0,0,1-1,0l-.39-.06c-3.57-.54-6.32-3.1-6.51-6.21,0-.11,0-.23,0-.34v-17.3c0-.12,0-.23,0-.35.21-3.51,3.7-6.32,7.93-6.32h328.16l.63,0,.27,0,.29,0,.21,0a8,8,0,0,1,1.46.34l.2.07.2.07.4.16.43.21.38.2.41.25.3.21,0,0,.2.15a5.47,5.47,0,0,1,.58.5l.16.15.15.16.29.34A5.92,5.92,0,0,1,1210.55,1616.09Z"/><path class="cls-4" d="M1049.41,1640.05H873.18a3.42,3.42,0,0,1-.45,0,6.86,6.86,0,0,1-6.21-6.27c0-.11,0-.23,0-.34v-17.3c0-.12,0-.23,0-.35a6.93,6.93,0,0,1,7.08-6.32h154.21c.07.25.14.5.22.75a53.59,53.59,0,0,0,21.06,29.67Z"/><rect class="cls-4" x="1166.89" y="1609.42" width="3.73" height="30.64"/><rect class="cls-4" x="1154.27" y="1609.42" width="3.73" height="30.64"/><rect class="cls-4" x="1139.13" y="1609.42" width="3.73" height="30.64"/><rect class="cls-4" x="1115.92" y="1609.42" width="3.73" height="30.64"/><rect class="cls-4" x="1091.38" y="1609.42" width="3.73" height="30.64"/><rect class="cls-4" x="1053.76" y="1609.42" width="3.73" height="30.64"/><rect class="cls-4" x="1018.54" y="1609.42" width="3.73" height="30.64"/><rect class="cls-4" x="987.08" y="1609.42" width="3.73" height="30.64"/><rect class="cls-4" x="1178.91" y="1609.42" width="3.73" height="30.64"/><rect class="cls-4" x="1186.85" y="1609.42" width="3.73" height="30.64"/><rect class="cls-4" x="1194.51" y="1609.42" width="3.73" height="30.64"/><path class="cls-4" d="M1204,1609.53V1640a9.14,9.14,0,0,1-1.4.1h-2.33v-30.63h2.33A9.13,9.13,0,0,1,1204,1609.53Z"/><path class="cls-4" d="M1209.19,1612.36v24.75a7.94,7.94,0,0,1-3.72,2.5v-29.74A7.85,7.85,0,0,1,1209.19,1612.36Z"/><path class="cls-5" d="M1227.51,1586.21v17.3a5.91,5.91,0,0,1-1.36,3.72,7.93,7.93,0,0,1-3.73,2.49,8.53,8.53,0,0,1-1.45.35,9.23,9.23,0,0,1-1.4.1H891.4a9.17,9.17,0,0,1-3.66-.75,6.8,6.8,0,0,1-4.24-5.27l0-.3c0-.12,0-.23,0-.34v-17.3c0-.12,0-.23,0-.35.22-3.51,3.7-6.32,7.93-6.32h328.17a9.23,9.23,0,0,1,1.4.1,8.53,8.53,0,0,1,1.45.35,7.93,7.93,0,0,1,3.73,2.49A5.92,5.92,0,0,1,1227.51,1586.21Z"/><path class="cls-4" d="M1066.36,1610.17H890.55a7.4,7.4,0,0,1-3.26-.75,6.68,6.68,0,0,1-3.79-5.27l0-.3c0-.12,0-.23,0-.34v-17.3c0-.12,0-.23,0-.35a6.94,6.94,0,0,1,7.08-6.32h154.22a53.8,53.8,0,0,0,20.51,29.88Z"/><rect class="cls-4" x="1183.85" y="1579.54" width="3.73" height="30.64"/><rect class="cls-4" x="1171.22" y="1579.54" width="3.73" height="30.64"/><rect class="cls-4" x="1156.08" y="1579.54" width="3.73" height="30.64"/><rect class="cls-4" x="1132.88" y="1579.54" width="3.73" height="30.64"/><rect class="cls-4" x="1108.34" y="1579.54" width="3.73" height="30.64"/><rect class="cls-4" x="1070.72" y="1579.54" width="3.73" height="30.64"/><rect class="cls-4" x="1035.49" y="1579.54" width="3.73" height="30.64"/><rect class="cls-4" x="1004.04" y="1579.54" width="3.73" height="30.64"/><rect class="cls-4" x="1195.87" y="1579.54" width="3.73" height="30.64"/><rect class="cls-4" x="1203.8" y="1579.54" width="3.73" height="30.64"/><rect class="cls-4" x="1211.47" y="1579.54" width="3.73" height="30.64"/><path class="cls-4" d="M1221,1579.65v30.42a9.23,9.23,0,0,1-1.4.1h-2.33v-30.63h2.33A9.23,9.23,0,0,1,1221,1579.65Z"/><path class="cls-4" d="M1226.15,1582.48v24.75a7.93,7.93,0,0,1-3.73,2.49V1580A7.93,7.93,0,0,1,1226.15,1582.48Z"/><path class="cls-5" d="M1254.33,1555.57v17.3a5.82,5.82,0,0,1-1.37,3.72,7.94,7.94,0,0,1-3.72,2.5,8.74,8.74,0,0,1-1.45.34,9.33,9.33,0,0,1-1.4.11H918.22c-4.23,0-7.71-2.82-7.93-6.33,0-.11,0-.23,0-.34v-17.3c0-.11,0-.23,0-.34.2-3.25,3.2-5.9,7-6.28.31,0,.63,0,.94,0h328.17a9.33,9.33,0,0,1,1.4.11,8.74,8.74,0,0,1,1.45.34,7.94,7.94,0,0,1,3.72,2.5A5.82,5.82,0,0,1,1254.33,1555.57Z"/><path class="cls-4" d="M1093.18,1579.54H917.37a6.94,6.94,0,0,1-7.08-6.33c0-.11,0-.23,0-.34v-17.3c0-.11,0-.23,0-.34a6.88,6.88,0,0,1,6.24-6.28,7.73,7.73,0,0,1,.84,0h154.22a.43.43,0,0,0,0,0A53.75,53.75,0,0,0,1093.18,1579.54Z"/><rect class="cls-4" x="1210.67" y="1548.9" width="3.73" height="30.64"/><rect class="cls-4" x="1198.04" y="1548.9" width="3.73" height="30.64"/><rect class="cls-4" x="1182.9" y="1548.9" width="3.73" height="30.64"/><rect class="cls-4" x="1159.69" y="1548.9" width="3.73" height="30.64"/><rect class="cls-4" x="1135.15" y="1548.9" width="3.73" height="30.64"/><rect class="cls-4" x="1097.53" y="1548.9" width="3.73" height="30.64"/><rect class="cls-4" x="1062.31" y="1548.9" width="3.73" height="30.64"/><rect class="cls-4" x="1030.86" y="1548.9" width="3.73" height="30.64"/><rect class="cls-4" x="1222.68" y="1548.9" width="3.73" height="30.64"/><rect class="cls-4" x="1230.62" y="1548.9" width="3.73" height="30.64"/><rect class="cls-4" x="1238.29" y="1548.9" width="3.73" height="30.64"/><path class="cls-4" d="M1247.79,1549v30.42a9.23,9.23,0,0,1-1.4.11h-2.33V1548.9h2.33A9.23,9.23,0,0,1,1247.79,1549Z"/><path class="cls-4" d="M1253,1551.85v24.74a8,8,0,0,1-3.73,2.5v-29.74A8,8,0,0,1,1253,1551.85Z"/><path class="cls-5" d="M1211.24,1525v17.3a5.87,5.87,0,0,1-1.36,3.72,7.87,7.87,0,0,1-3.72,2.5,8.86,8.86,0,0,1-1.46.34,3.4,3.4,0,0,1-.46.06c-.12,0-.24,0-.37,0H875.14c-4.23,0-7.72-2.82-7.93-6.33,0-.11,0-.22,0-.34V1525c0-.11,0-.23,0-.34.21-3.51,3.7-6.33,7.93-6.33h328.58c.34,0,.66,0,1,.1a8.86,8.86,0,0,1,1.46.34l.68.26.41.19,0,0,.4.21.06,0,.36.22a7.64,7.64,0,0,1,.79.58,2.09,2.09,0,0,1,.22.2l0,0,.14.13,0,0,.24.25c.11.12.21.23.31.36A5.87,5.87,0,0,1,1211.24,1525Z"/><path class="cls-4" d="M1050.1,1549H874.29a6.94,6.94,0,0,1-7.08-6.33c0-.11,0-.22,0-.34V1525c0-.11,0-.23,0-.34a6.94,6.94,0,0,1,7.08-6.33h154.22c.06.24.12.47.2.71A53.55,53.55,0,0,0,1050,1548.9.18.18,0,0,0,1050.1,1549Z"/><rect class="cls-4" x="1167.58" y="1518.31" width="3.73" height="30.64"/><rect class="cls-4" x="1154.96" y="1518.31" width="3.73" height="30.64"/><rect class="cls-4" x="1139.82" y="1518.31" width="3.73" height="30.64"/><rect class="cls-4" x="1116.61" y="1518.31" width="3.73" height="30.64"/><rect class="cls-4" x="1092.07" y="1518.31" width="3.73" height="30.64"/><rect class="cls-4" x="1054.45" y="1518.31" width="3.73" height="30.64"/><rect class="cls-4" x="1019.22" y="1518.31" width="3.73" height="30.64"/><rect class="cls-4" x="987.77" y="1518.31" width="3.73" height="30.64"/><rect class="cls-4" x="1179.6" y="1518.31" width="3.73" height="30.64"/><rect class="cls-4" x="1187.54" y="1518.31" width="3.73" height="30.64"/><rect class="cls-4" x="1195.2" y="1518.31" width="3.73" height="30.64"/><path class="cls-4" d="M1204.7,1518.42v30.42a9.13,9.13,0,0,1-1.4.11H1201v-30.64h2.33A9.13,9.13,0,0,1,1204.7,1518.42Z"/><path class="cls-4" d="M1209.88,1521.26V1546a7.87,7.87,0,0,1-3.72,2.5v-29.74A7.94,7.94,0,0,1,1209.88,1521.26Z"/><path class="cls-5" d="M1235.37,1495.05v17.3a5.92,5.92,0,0,1-1.36,3.73,7.88,7.88,0,0,1-3.73,2.49,7.66,7.66,0,0,1-1.45.34,9.23,9.23,0,0,1-1.4.11H899.27a9,9,0,0,1-3.55-.71,6.81,6.81,0,0,1-4.36-5.34l0-.27v-18c.2-3.25,3.2-5.9,7-6.28a9.36,9.36,0,0,1,.94,0h328.16a9.23,9.23,0,0,1,1.4.11,9.58,9.58,0,0,1,1.45.34,8,8,0,0,1,3.73,2.5A5.89,5.89,0,0,1,1235.37,1495.05Z"/><path class="cls-4" d="M1074.22,1519H898.41a7.25,7.25,0,0,1-3.16-.71,6.67,6.67,0,0,1-3.89-5.34l0-.27v-18a6.9,6.9,0,0,1,6.25-6.28,7.55,7.55,0,0,1,.83,0h154.22l0,0a53.69,53.69,0,0,0,20.56,29.88Z"/><rect class="cls-4" x="1191.71" y="1488.38" width="3.73" height="30.64"/><rect class="cls-4" x="1179.08" y="1488.38" width="3.73" height="30.64"/><rect class="cls-4" x="1163.94" y="1488.38" width="3.73" height="30.64"/><rect class="cls-4" x="1140.74" y="1488.38" width="3.73" height="30.64"/><rect class="cls-4" x="1116.2" y="1488.38" width="3.73" height="30.64"/><rect class="cls-4" x="1078.58" y="1488.38" width="3.73" height="30.64"/><rect class="cls-4" x="1043.35" y="1488.38" width="3.73" height="30.64"/><rect class="cls-4" x="1011.9" y="1488.38" width="3.73" height="30.64"/><rect class="cls-4" x="1203.73" y="1488.38" width="3.73" height="30.64"/><rect class="cls-4" x="1211.66" y="1488.38" width="3.73" height="30.64"/><rect class="cls-4" x="1219.33" y="1488.38" width="3.73" height="30.64"/><path class="cls-4" d="M1228.83,1488.49v30.42a9.23,9.23,0,0,1-1.4.11h-2.33v-30.64h2.33A9.23,9.23,0,0,1,1228.83,1488.49Z"/><path class="cls-4" d="M1234,1491.33v24.75a7.88,7.88,0,0,1-3.73,2.49v-29.74A8,8,0,0,1,1234,1491.33Z"/><path class="cls-5" d="M1245.64,1464.46v17.31a5.91,5.91,0,0,1-1.36,3.72,7.83,7.83,0,0,1-3.73,2.49,8.53,8.53,0,0,1-1.45.35l-.46.05-.26,0H909.54c-4.24,0-7.72-2.81-7.94-6.32v-18c.22-3.51,3.7-6.32,7.94-6.32H1237.7a9.23,9.23,0,0,1,1.4.1,8.53,8.53,0,0,1,1.45.35,7.83,7.83,0,0,1,3.73,2.49A5.91,5.91,0,0,1,1245.64,1464.46Z"/><path class="cls-4" d="M1084.49,1488.43H908.68a6.94,6.94,0,0,1-7.08-6.32v-18a6.94,6.94,0,0,1,7.08-6.32H1062.9a53.75,53.75,0,0,0,21.52,30.58Z"/><rect class="cls-4" x="1201.98" y="1457.8" width="3.73" height="30.64"/><rect class="cls-4" x="1189.35" y="1457.8" width="3.73" height="30.64"/><rect class="cls-4" x="1174.21" y="1457.8" width="3.73" height="30.64"/><rect class="cls-4" x="1151.01" y="1457.8" width="3.73" height="30.64"/><rect class="cls-4" x="1126.47" y="1457.8" width="3.73" height="30.64"/><rect class="cls-4" x="1088.85" y="1457.8" width="3.73" height="30.64"/><rect class="cls-4" x="1053.62" y="1457.8" width="3.73" height="30.64"/><rect class="cls-4" x="1022.17" y="1457.8" width="3.73" height="30.64"/><rect class="cls-4" x="1214" y="1457.8" width="3.73" height="30.64"/><rect class="cls-4" x="1221.94" y="1457.8" width="3.73" height="30.64"/><rect class="cls-4" x="1229.6" y="1457.8" width="3.73" height="30.64"/><path class="cls-4" d="M1239.1,1457.9v30.43a9.23,9.23,0,0,1-1.4.1h-2.33V1457.8h2.33A9.23,9.23,0,0,1,1239.1,1457.9Z"/><path class="cls-4" d="M1244.28,1460.74v24.75a7.83,7.83,0,0,1-3.73,2.49v-29.73A7.83,7.83,0,0,1,1244.28,1460.74Z"/><circle class="cls-6" cx="1900.79" cy="1629.52" r="163.69"/><path class="cls-7" d="M2092.73,1655.16q0,7.71-.58,15.27v0q-.41,5.16-1.06,10.24a191.14,191.14,0,0,1-3.74,20.35c-.95,4-2,8-3.26,12a188.13,188.13,0,0,1-6.54,17.92c-.1.25-.21.51-.33.76-2.26,5.31-4.77,10.5-7.5,15.51s-5.58,9.74-8.67,14.37c-.19.3-.4.59-.6.89-1.2,1.8-2.45,3.56-3.73,5.3a173.31,173.31,0,0,1-21.59,24.44h-91.89a7,7,0,0,1-6.82-4.94,4.61,4.61,0,0,1-.19-.73,4.81,4.81,0,0,1-.08-.65v-18a4.62,4.62,0,0,1,.08-.65,4.49,4.49,0,0,1,.19-.72,7,7,0,0,1,6.82-5h-35.08a7,7,0,0,1-6.83-4.95,6,6,0,0,1-.19-.73,4.64,4.64,0,0,1-.07-.64c0-.12,0-.24,0-.35v-17.3c0-.12,0-.23,0-.34a4.62,4.62,0,0,1,.07-.65,5.86,5.86,0,0,1,.19-.72,7,7,0,0,1,6.83-5h13.68a6.67,6.67,0,0,1-3.78-5.27,1.45,1.45,0,0,1,0-.3c0-.11,0-.23,0-.34v-17.3c0-.11,0-.23,0-.35a4.64,4.64,0,0,1,.07-.64,6,6,0,0,1,.19-.73,7,7,0,0,1,6.81-5H1933a7,7,0,0,1-6.81-5,6.38,6.38,0,0,1-.19-.72,4.62,4.62,0,0,1-.07-.65c0-.12,0-.24,0-.34v-17.3c0-.12,0-.24,0-.35a5.8,5.8,0,0,1,.06-.6,7,7,0,0,1,6.18-5.68h-23.29a7,7,0,0,1-6.82-4.94,6,6,0,0,1-.19-.73,4.78,4.78,0,0,1-.07-.65v-18a2.64,2.64,0,0,0,0-.28,5.8,5.8,0,1,0-.65-11.58,5.51,5.51,0,0,1-.06-.57c0-.12,0-.22,0-.34v-17.3c0-.12,0-.23,0-.35a4.48,4.48,0,0,1,.07-.64,6,6,0,0,1,.19-.73,7,7,0,0,1,6.83-4.95h13.68a6.69,6.69,0,0,1-3.78-5.28,1.39,1.39,0,0,1,0-.3c0-.1,0-.22,0-.33v-17.3c0-.12,0-.24,0-.34a4.62,4.62,0,0,1,.07-.65,6,6,0,0,1,.19-.73,7,7,0,0,1,6.81-5h26.82a7,7,0,0,1-6.81-5,4.61,4.61,0,0,1-.19-.73,3.4,3.4,0,0,1-.08-.64c0-.12,0-.23,0-.35v-17.3c0-.12,0-.22,0-.34a5.44,5.44,0,0,1,.14-.9,7,7,0,0,1,6.1-5.39h-42.24A7,7,0,0,1,1902,1544a6,6,0,0,1-.19-.73,4.48,4.48,0,0,1-.07-.64v-18a4.78,4.78,0,0,1,.07-.65,6,6,0,0,1,.19-.73,7,7,0,0,1,6.82-4.94h21a6.75,6.75,0,0,1-3.84-4.92,3,3,0,0,1-.06-.43,2.45,2.45,0,0,1,0-.27c0-.12,0-.24,0-.34v-17.31c0-.11,0-.22,0-.34a5.8,5.8,0,0,1,.06-.6,7,7,0,0,1,6.18-5.68,7.81,7.81,0,0,1,.83,0h9.51a6.93,6.93,0,0,1-6.24-5.64,4.62,4.62,0,0,1-.08-.65v-6.73a150.25,150.25,0,0,1,54.5,13l.09,0a161.28,161.28,0,0,1,44.61,29.89l.77.71a174.32,174.32,0,0,1,17.66,19.59c1.28,1.65,2.51,3.31,3.73,5s2.47,3.5,3.66,5.28l0,0c1.44,2.17,2.85,4.39,4.21,6.64s2.53,4.26,3.73,6.46a182.28,182.28,0,0,1,8.48,17.5,189.24,189.24,0,0,1,9.78,29.88c.06.24.11.5.18.75.26,1.08.49,2.17.73,3.26a194.87,194.87,0,0,1,3.74,25.12c0,.43.07.86.1,1.29,0,.08,0,.14,0,.22Q2092.73,1647.53,2092.73,1655.16Z"/><circle class="cls-5" cx="1886.51" cy="1629.52" r="163.69"/><path class="cls-4" d="M1886.51,1780.59A149.15,149.15,0,1,1,1992,1736.91,148.14,148.14,0,0,1,1886.51,1780.59Zm0-289.38c-77.33,0-140.24,62.91-140.24,140.24s62.91,140.25,140.24,140.25,140.25-62.92,140.25-140.25S1963.84,1491.21,1886.51,1491.21Z"/><path class="cls-4" d="M1907.05,1674.74a24.52,24.52,0,0,0-.36-8.66,17.76,17.76,0,0,0-3.66-7.19,33.56,33.56,0,0,0-7.32-6.46,90.37,90.37,0,0,0-11.35-6.36,234.68,234.68,0,0,1-20.95-11.51,74.68,74.68,0,0,1-15.67-12.75,43.67,43.67,0,0,1-9.25-15.54q-2.92-8.62-1.59-19.88a45,45,0,0,1,5.57-17.4,41.52,41.52,0,0,1,11.56-12.84,51.81,51.81,0,0,1,16.54-7.88,69.42,69.42,0,0,1,20.67-2.38l2.91-24.58,19.79,2.35-3,24.92a62.18,62.18,0,0,1,18.62,7.92,46.72,46.72,0,0,1,20.84,29.91,62,62,0,0,1,.82,21.12l-35.74-4.24q1.63-13.79-3.67-21.35t-15.57-8.77a26.52,26.52,0,0,0-9.77.41,18.09,18.09,0,0,0-7.12,3.46,16.81,16.81,0,0,0-4.59,5.93,24.79,24.79,0,0,0-2.18,7.78,22.77,22.77,0,0,0,.32,7.84,16.84,16.84,0,0,0,3.51,6.88,34.13,34.13,0,0,0,7.39,6.47,113.61,113.61,0,0,0,11.79,6.81q11.46,5.91,20.74,11.78a75.17,75.17,0,0,1,15.59,12.86,44.47,44.47,0,0,1,9.25,15.6q2.93,8.63,1.6,19.76a45,45,0,0,1-5.68,17.73,41,41,0,0,1-11.6,12.72,50.07,50.07,0,0,1-16.64,7.58,74.71,74.71,0,0,1-20.76,2.19l-2.71,22.86-19.67-2.33,2.7-22.75a83.19,83.19,0,0,1-19.31-6.83,53,53,0,0,1-15.83-12,47.54,47.54,0,0,1-9.93-17.78q-3.27-10.41-1.64-24.19l35.74,4.24a35.34,35.34,0,0,0,.67,13.88,23.07,23.07,0,0,0,5.08,9.46,22.42,22.42,0,0,0,8.18,5.63,38,38,0,0,0,9.8,2.5,31.8,31.8,0,0,0,10.37-.28,21.2,21.2,0,0,0,7.85-3.27,16.88,16.88,0,0,0,5.2-5.73A20.78,20.78,0,0,0,1907.05,1674.74Z"/><circle class="cls-6" cx="1082.75" cy="1272.79" r="185" transform="translate(-582.87 1138.41) rotate(-45)"/><circle class="cls-5" cx="1066.61" cy="1272.79" r="185" transform="translate(-587.6 1127) rotate(-45)"/><path class="cls-4" d="M1066.61,1443.54a168.56,168.56,0,1,1,119.19-49.37A167.5,167.5,0,0,1,1066.61,1443.54Zm0-327.06c-87.4,0-158.5,71.1-158.5,158.5s71.1,158.5,158.5,158.5,158.51-71.1,158.51-158.5S1154,1116.48,1066.61,1116.48Z"/><path class="cls-4" d="M1089.82,1323.9a28,28,0,0,0-.4-9.79,20.32,20.32,0,0,0-4.14-8.12,38.53,38.53,0,0,0-8.27-7.31,101.76,101.76,0,0,0-12.83-7.18,264.3,264.3,0,0,1-23.68-13,84.24,84.24,0,0,1-17.71-14.41,49.5,49.5,0,0,1-10.46-17.57q-3.3-9.73-1.8-22.46a50.8,50.8,0,0,1,6.31-19.66,46.73,46.73,0,0,1,13.06-14.51,58.26,58.26,0,0,1,18.7-8.91,77.9,77.9,0,0,1,23.35-2.69l3.29-27.78,22.37,2.65-3.35,28.17a70,70,0,0,1,21,9,53,53,0,0,1,23.56,33.8,70.29,70.29,0,0,1,.92,23.87l-40.39-4.79q1.85-15.57-4.15-24.13t-17.61-9.92a30.45,30.45,0,0,0-11,.47,20.57,20.57,0,0,0-8,3.92,19.06,19.06,0,0,0-5.19,6.69,28.14,28.14,0,0,0-2.46,8.79,25.86,25.86,0,0,0,.36,8.86,19.17,19.17,0,0,0,4,7.78,38.17,38.17,0,0,0,8.35,7.31,130.2,130.2,0,0,0,13.33,7.71q12.94,6.66,23.43,13.31a84.69,84.69,0,0,1,17.62,14.53,50,50,0,0,1,10.45,17.63q3.32,9.75,1.82,22.34a50.94,50.94,0,0,1-6.42,20,46.29,46.29,0,0,1-13.11,14.38,56.51,56.51,0,0,1-18.81,8.56,84.39,84.39,0,0,1-23.46,2.49l-3.07,25.83-22.22-2.64,3-25.7a94.31,94.31,0,0,1-21.83-7.73,59.87,59.87,0,0,1-17.89-13.51,53.53,53.53,0,0,1-11.22-20.09q-3.71-11.76-1.86-27.34l40.4,4.79q-1.1,9.23.76,15.69a26,26,0,0,0,5.74,10.69,25.27,25.27,0,0,0,9.24,6.36,42.71,42.71,0,0,0,11.07,2.83,36.11,36.11,0,0,0,11.73-.32,24,24,0,0,0,8.87-3.69,19.16,19.16,0,0,0,5.88-6.47A23.42,23.42,0,0,0,1089.82,1323.9Z"/><path class="cls-8" d="M2195.53,1281.26s-17.39,24.48-33.33,24.82-40.2-11.35-40.2-11.35-14.63-32.62-4.7-45.38c0,0,9.95-4.37,20.36,3.34a31.07,31.07,0,0,1,5.39,5.17,17.15,17.15,0,0,0,8.37,5.67c11.38,3.46,24.88-4.68,29.93,3.18a53.46,53.46,0,0,0,8.79,10.41A40,40,0,0,0,2195.53,1281.26Z"/><path class="cls-8" d="M1968.83,1457.84s61.47-148.92,172.1-151.76c0,0,102.11,11.35,107.79,151.76Z"/><path class="cls-9" d="M2110.62,1310.63s44.34,9.86,58,4.06c0,0,2.07-18.54-16.6-15.94-12.79,1.78-21.11-4.36-26-6.85C2119.1,1288.37,2108.78,1302.87,2110.62,1310.63Z"/><path class="cls-10" d="M2149.21,1282.68c-2.84,2.13-11.55-30-11.55-30a31.07,31.07,0,0,1,5.39,5.17,17.15,17.15,0,0,0,8.37,5.67C2151.45,1264.47,2152,1280.61,2149.21,1282.68Z"/><path class="cls-10" d="M2190.14,1277.12c-.62.37-21.13,12.65-23.91,12.65s15.12-23.06,15.12-23.06A53.46,53.46,0,0,0,2190.14,1277.12Z"/><path class="cls-11" d="M2028.88,1416.24c-1.14-1,43.49-65.72,55.79-66.19s39.91,14.18,59.9,16.07,39.38-3.78,43.16,8,14.18,53.72,7.8,60.43S2053.42,1437.2,2028.88,1416.24Z"/><path class="cls-8" d="M1593.18,1074.73s-13.75,19.36-26.36,19.63-31.78-9-31.78-9-11.57-25.79-3.72-35.88a16.84,16.84,0,0,1,16.1,2.64,24.8,24.8,0,0,1,4.26,4.09,13.53,13.53,0,0,0,6.62,4.48c9,2.74,19.67-3.7,23.66,2.51a41.89,41.89,0,0,0,7,8.24A31.79,31.79,0,0,0,1593.18,1074.73Z"/><path class="cls-8" d="M1413.93,1214.36s48.59-117.76,136.07-120c0,0,80.75,9,85.23,120Z"/><path class="cls-9" d="M1526,1098s35.06,7.8,45.88,3.22c0,0,1.63-14.66-13.13-12.61-10.11,1.41-16.69-3.45-20.57-5.42C1532.75,1080.35,1524.58,1091.82,1526,1098Z"/><path class="cls-10" d="M1556.55,1075.85c-2.24,1.68-9.13-23.71-9.13-23.71a24.8,24.8,0,0,1,4.26,4.09,13.53,13.53,0,0,0,6.62,4.48C1558.32,1061.45,1558.73,1074.21,1556.55,1075.85Z"/><path class="cls-10" d="M1588.92,1071.46c-.5.29-16.71,10-18.91,10s12-18.24,12-18.24A41.89,41.89,0,0,0,1588.92,1071.46Z"/><path class="cls-11" d="M1461.4,1181.46c-.9-.77,34.39-52,44.11-52.34s31.56,11.22,47.37,12.71,31.14-3,34.13,6.36,11.21,42.48,6.17,47.78S1480.81,1198,1461.4,1181.46Z"/><path class="cls-8" d="M1289.71,1449s33.82,47.61,64.83,48.27,78.18-22.07,78.18-22.07,28.47-63.45,9.16-88.28c0,0-19.37-8.49-39.61,6.52a60.44,60.44,0,0,0-10.49,10,33.23,33.23,0,0,1-16.28,11c-22.12,6.73-48.38-9.1-58.2,6.18a104,104,0,0,1-17.11,20.25A78.3,78.3,0,0,1,1289.71,1449Z"/><path class="cls-8" d="M1730.65,1792.44s-119.55-289.67-334.73-295.19c0,0-198.63,22.07-209.67,295.19Z"/><path class="cls-9" d="M1454.87,1506.1s-86.25,19.18-112.86,7.91c0,0-4-36.07,32.3-31,24.86,3.46,41-8.49,50.58-13.33C1438.37,1462.81,1458.45,1491,1454.87,1506.1Z"/><path class="cls-10" d="M1379.81,1451.74c5.52,4.13,22.46-58.32,22.46-58.32a60.44,60.44,0,0,0-10.49,10,33.23,33.23,0,0,1-16.28,11C1375.45,1416.31,1374.46,1447.71,1379.81,1451.74Z"/><path class="cls-10" d="M1300.19,1440.92c1.22.72,41.11,24.61,46.51,24.61s-29.4-44.86-29.4-44.86A104,104,0,0,1,1300.19,1440.92Z"/><path class="cls-11" d="M1613.86,1711.52c2.21-1.89-84.6-127.82-108.51-128.74s-77.63,27.58-116.52,31.26-76.59-7.36-83.95,15.63-27.59,104.5-15.17,117.54S1566.13,1752.3,1613.86,1711.52Z"/><g id="man"><path class="cls-12" d="M1275.81,1082.58s-2.73-13.46,28.24-54.87c6.68-8.93,27.06-42.57,27.06-42.57,8.06-2,33.14,11.37,39.76,15.44l2.1,1.31s10.73,46.54-12.08,41.26c-.71-.17-1.42-.3-2.13-.42-22.06-3.43-43.35,18.45-53,32.35C1299.44,1084.11,1280,1083,1275.81,1082.58Z"/><path class="cls-12" d="M1439.29,992.14s-2.73-13.45,28.25-54.86c6.68-8.94,27.06-42.58,27.06-42.58,8.05-2,33.14,11.38,39.75,15.44,1.33.82,2.1,1.32,2.1,1.32s10.73,46.53-12.07,41.25c-.72-.17-1.43-.3-2.14-.41-22-3.44-43.34,18.45-53,32.34C1462.92,993.67,1443.48,992.51,1439.29,992.14Z"/><path class="cls-13" d="M1788.23,761.79c-6.34-27.22-76.79-112.1-112.88-92.44S1658,795.77,1695.6,921.68c.58,1.93,1.16,3.83,1.76,5.73-75.82-12.45-166.06-16.22-166.06-16.22L1521.8,955c68.32,18.88,201,84.49,256.71,112.74,21.28,9.65,46.28,9.65,51.37-9.07C1846.92,996,1788.23,761.79,1788.23,761.79Z"/><path class="cls-14" d="M1653.7,1154s-161.27-72.77-259.6-102.18c-12.19-3.63-23.38-6.59-33.2-8.69l10.34-42.17s9.64-.17,25.27-.15c61.23.17,214.54,3.6,241.94,33.65C1672.82,1072.22,1653.7,1154,1653.7,1154Z"/><path class="cls-14" d="M1775.56,156.51c5.3,12.2,9.53,28.19,5.94,36.62-4.06,9.56-2.94,16.48-2.94,16.48l-8.67,2.12-10.36,2.52s-.55-.88-1.38-2.4-1.93-3.65-3-6.14a8.94,8.94,0,0,0-4.9-6.68c-4.41-2.08-9-7.41-9.89-12.56s-6.13-14.75-4.63-15.76c3.63-2.45,9.07,12.5,12.27,13.16,2.9.61,3.82-1.44,4-1.84l0-.08c5-12.22-4.26-43,3.1-44.76C1757.82,136.56,1773.31,151.32,1775.56,156.51Z"/><path class="cls-14" d="M1217.5,402.64c9,9.77,21.93,20.11,31.09,20.24,10.39.14,16.27,4,16.27,4l5.44-7.07,6.49-8.46s-.59-.86-1.64-2.23-8.39-7.55-8.52-12.43-3.12-11.27-7.48-14.13-11-11.56-12.55-10.6c-3.71,2.32,7.76,13.35,7.08,16.54-.62,2.89-2.87,2.91-3.3,2.89h-.08c-13.21-.34-37.65-21.29-42.19-15.25C1206.42,378.35,1213.66,398.48,1217.5,402.64Z"/><path class="cls-15" d="M1607.67,782.11c-39.78,10.32-29.8,58.15-23.86,189.43.68,14.85,2.06,29.2,4,42.88-58.3-11.71-147.93-13.47-191.32-13.59,0,0-7.2,16-6.89,28.84.66,27.27,14.59,45.3,14.59,45.3,98.33,29.41,249.49,79,249.49,79l0-.12c10.08,2.62,19.57-2.42,27.11-16.86,30.07-57.59,81.52-440.81,81.52-440.81C1762.81,668.28,1647.44,771.8,1607.67,782.11Z"/><path class="cls-14" d="M1542.73,487.92s14-35.45-13.2-86l38.66,8.59,26.27,5.83a250.42,250.42,0,0,1,10,25.6c1.5,4.38,7,21.95,8.68,27.38,9.23.39-4.08,14.38-23,17.13C1569,489.49,1542.73,487.92,1542.73,487.92Z"/><path class="cls-16" d="M1594.46,416.31a250.42,250.42,0,0,1,10,25.6c-22.56,6.74-62.81-15.2-62.81-15.2,9.08-8.3,18.08-13.45,26.52-16.23Z"/><path class="cls-14" d="M1611.82,403.09s-44.79,49.54-75.21,21.17-56.69-41.08-29.38-73.91,44.57-28.06,57-21.06S1622.69,389.47,1611.82,403.09Z"/><path class="cls-17" d="M1534.1,421.19s4.59-5.09-2-11.7-14.2-16.16-6.86-19.09,11.4,1.58,11.64-3.13-9-16.42,8-31.24,29.05-14.37,34.39-24.49-4.09-22.89-4.09-22.89,1.19,6.29-1.22,10.5c0,0-1.17-29.59-27.21-29.85s-35.53,21-44.26,28.82c-19.24,17.26-31.33,28.84-27.39,47.36S1511,418.7,1534.1,421.19Z"/><path class="cls-18" d="M1583.83,392.77l16.62-15.64s6.76,10.37,2,14.87S1583.83,392.77,1583.83,392.77Z"/><path class="cls-17" d="M1806.91,299.07c-7.1-44-28.49-92.3-28.49-92.3l-23.3-1.06s2.59,59.56,2,101.21c-.27,20-9,38.11-11.4,41.31-7.23,9.68-113.77,112.22-117.33,115.48l-.09.09h0c-11.34,1.93-10.08,20.55-21.73,23.68-19.42,5.2-51.67-4.28-68.93,2.11h0s-138.33.16-159.38-9.92-103.14-70.6-103.14-70.6L1260,426.79s56.34,108.46,101,128c24.31,10.63,77.71,23.41,121.33,32.86a48.88,48.88,0,0,1,36.3,33.38c41,132.33,20.38,243.92,20.38,243.92s39.33,4.4,88.29-9.2c63.66-17.68,110.16-46.32,110.16-46.32,17.94-21.75,7.34-101.5,7.34-101.5s12.38,13.37,16.53,35.72c3,16.09,4.6,25,5.59,30.65a7.27,7.27,0,0,0,11.48,4.59c9.2-6.81,22.33-17.42,26.43-25.2,14.33-27.2-17.54-138-61.56-215.26a43.26,43.26,0,0,1,.83-44.3c27.08-43.44,68.71-112.33,69.22-126.16C1813.56,360.45,1811,324.35,1806.91,299.07Z"/><path class="cls-15" d="M1603.56,497.47s37.14,52.7,9.91,103.62-134.22,43.9-154,107.51l12,39.61L1516.21,724s3.74-34.4,47.74-49.34c85.94-29.17,106.63-79.57,88.59-124.66-15.24-38.11-37.31-56.47-37.31-56.47Z"/><path class="cls-15" d="M1546.19,468.48l43.07,14.23,2.12,8.16-53.71-1.27S1540.52,477.25,1546.19,468.48Z"/><path class="cls-15" d="M1609.2,456.64l1.44,22.27s5.64,4.61,5.57,4,12.11-19.1,12.11-19.1A123.57,123.57,0,0,0,1609.2,456.64Z"/><path class="cls-13" d="M1589.26,482.71l22-7.42a3.35,3.35,0,0,1,4.4,2.77l1.81,14.76a3.37,3.37,0,0,1-2.25,3.59l-9.67,3.27a3.35,3.35,0,0,1-3.09-.5l-14.1-10.62A3.35,3.35,0,0,1,1589.26,482.71Z"/><path class="cls-12" d="M1754,202.6l-1.94,18.49s23.34.36,23.34,0,.71-9.17.71-9.17l3.89,10.23,8.66-2.83-9.92-16.72S1768.88,207.27,1754,202.6Z"/><polygon class="cls-12" points="1275.15 409.08 1259.94 426.79 1264.41 444.07 1270.6 439.83 1267.55 426.84 1278.2 435.58 1291.99 417.37 1275.15 409.08"/><path class="cls-19" d="M1271.84,425.33a1.41,1.41,0,1,1,1.41,1.41A1.42,1.42,0,0,1,1271.84,425.33Z"/><path class="cls-19" d="M1771.12,214.25a1.12,1.12,0,1,1,1.11,1.12A1.12,1.12,0,0,1,1771.12,214.25Z"/><path class="cls-19" d="M1734.42,644.77a3,3,0,1,1,3,3A3,3,0,0,1,1734.42,644.77Z"/><path class="cls-19" d="M1710.54,595a3,3,0,1,1,3,3A3,3,0,0,1,1710.54,595Z"/><path class="cls-19" d="M1677.65,557.4a3,3,0,1,1,3,3A3,3,0,0,1,1677.65,557.4Z"/></g></svg>