<svg width="450" height="500" xmlns="http://www.w3.org/2000/svg">
 <defs>
  <linearGradient y2="0.05699" x2="1.65128" y1="0.97828" x1="0.26841" id="linear-gradient">
   <stop stop-color="#fff" offset="0.21"/>
   <stop stop-color="#fbfbfb" offset="0.22"/>
   <stop stop-color="#bababa" offset="0.31"/>
   <stop stop-color="#818181" offset="0.39"/>
   <stop stop-color="#535353" offset="0.48"/>
   <stop stop-color="#2f2f2f" offset="0.56"/>
   <stop stop-color="#151515" offset="0.63"/>
   <stop stop-color="#050505" offset="0.69"/>
   <stop offset="0.75"/>
  </linearGradient>
  <linearGradient y2="-0.46327" x2="1.93041" y1="0.71425" x1="-0.19486" id="linear-gradient-2">
   <stop stop-color="#fff" offset="0"/>
   <stop stop-color="#c6c0b9" offset="0.52"/>
  </linearGradient>
 </defs>
 <g>
  <title>Layer 1</title>
  <g id="svg_1" isolation="isolate" class="cls-1">
   <g data-name="Layer 6" id="Layer_6">
    <rect id="svg_2" fill="#d4d5d6" height="15.93" width="271.91" y="366.98" x="111.31" class="cls-2"/>
    <polygon id="svg_3" fill="#afb3bc" points="383.3800048828125,367.20001220703125 111.30999755859375,367.20001220703125 161.39999389648438,350.80999755859375 327.2099914550781,350.80999755859375 383.3800048828125,367.20001220703125 " class="cls-3"/>
    <path id="svg_4" d="m417.42,408.32s3.13,25.45 2.79,31.89c-8.65,0.74 -12.49,-3.27 -12.39,-5.18s-4.76,-26.48 -4.92,-27.92s-3.5,-12.09 0.38,-14.07c12.9,-6.56 14.14,15.28 14.14,15.28z"/>
    <path id="svg_5" d="m413.09,393.94c-5,-1.72 -18.61,-5.89 -21.94,-6.32c-7,-0.92 -10.53,2.9 -9.07,9.77c1.64,7.7 8.62,36.22 7.29,39.38c6.31,3.31 13.68,2 13.68,2s-0.16,-31.89 -0.74,-34.45s10.78,-10.38 10.78,-10.38z"/>
    <path id="svg_6" d="m400.75,436.67c0.88,2.74 1.64,4.19 0.79,5.92s-4.94,1.09 -7.32,0c-1.42,-0.67 -4.59,0.51 -6.23,0.47c-3.51,-0.1 -6.53,-5.95 -3.65,-6.19s6.52,0.37 7.82,-0.71s8.59,0.51 8.59,0.51z"/>
    <path id="svg_7" d="m417.73,437.91c0.32,1.76 1.75,3.51 0.32,4.63a4.78,4.78 0 0 1 -4.62,0.63c-1.75,-0.48 -2.39,-1.43 -3.35,-2.23s-3.5,-1.27 -4.3,-2.39s-1.32,-4.19 0.12,-4.46c2,-0.37 4.46,-0.12 8.43,0.87l3.4,2.95z"/>
    <path id="svg_8" fill="#cc9483" d="m422.23,340.65c-0.51,1.67 -0.47,7.79 0.18,10.37s3.73,6.07 3.73,6.07l-14.45,2.72s1.26,-9.77 -1.43,-11.63c-1.66,-1.18 11.97,-7.53 11.97,-7.53z" class="cls-4"/>
    <path id="svg_9" fill="#cc9483" d="m405.88,337.77c0,5.86 1.63,12.23 4.21,12.89s9.45,-2.66 10.74,-7.63s-1,-10.2 -6.05,-10.7c-5.47,-0.55 -8.87,0.31 -8.9,5.44z" class="cls-4"/>
    <path id="svg_10" d="m405.4,337.85c-2.26,-4.08 7.24,-12.47 14.28,-8.87c0.74,0.37 0.93,0.78 1.52,1.14s0.85,0.11 1.36,0.31c3.23,1.24 3.7,6.37 2.93,9.43c-1,3.85 -1.88,6.3 -0.32,8c1.06,1.15 -11.25,2.7 -11.25,2.7s-3.56,-4.9 -3.25,-5.77c1.21,-3.34 -0.47,-5.18 -1,-3.62a12.93,12.93 0 0 1 -0.49,1.3l-0.45,0.33a21.32,21.32 0 0 0 -1.68,-5.22c-0.56,-0.88 -1.65,0.27 -1.65,0.27z"/>
    <path id="svg_11" d="m424.24,351.68c2.41,1.37 4.77,4.4 8.84,5.46c0,0 1.87,0.1 2.19,0.86c4.26,10.23 -3.31,15.92 -2.85,19.95c1.87,16.47 -4.73,21.95 -5.29,24c-0.27,1 -6.08,2.27 -12,2.37c-3.22,1 -16.65,-3 -17.74,-3.87c-0.52,-1.38 0.67,-4.49 1.51,-8c2.1,-8.7 0.81,-8.44 0.44,-12.93c-0.26,-3.3 -3.73,-3.66 -4.74,-5.52s4.4,-16.49 4.4,-16.49a36.72,36.72 0 0 0 11.65,-4.18c1.49,-0.84 5.2,0.37 5.2,0.37l8.39,-2.02z"/>
    <path id="svg_12" fill="#d4d5d6" d="m423.22,349.05c-0.46,0.23 -7.59,2.39 -11.93,1.95c-0.65,0.83 0.13,2.88 0.13,2.88s12.91,-1.7 13.28,-2.23s-1.48,-2.6 -1.48,-2.6z" class="cls-2"/>
    <path id="svg_13" d="m424.24,350.07l2.72,3.35a55.58,55.58 0 0 0 -7.37,0.83c-4.62,1.21 -10.5,0.28 -10.5,0.28l1,-2.6a33.51,33.51 0 0 0 9.47,-0.78c1.91,-0.42 4.68,-1.08 4.68,-1.08z"/>
    <polygon id="svg_14" fill="#999daa" points="436.8999938964844,452.6199951171875 435.42999267578125,452.6199951171875 428.260009765625,407.57000732421875 432.0799865722656,407.57000732421875 436.8999938964844,452.6199951171875 " class="cls-5"/>
    <polygon id="svg_15" fill="#999daa" points="389.67999267578125,452.3699951171875 388.2099914550781,452.3699951171875 394.1400146484375,407.3299865722656 397.8999938964844,407.3299865722656 389.67999267578125,452.3699951171875 " class="cls-5"/>
    <polygon id="svg_16" fill="#999daa" points="426.6400146484375,444.9200134277344 425.8299865722656,444.9200134277344 419.8299865722656,408.6400146484375 423.30999755859375,408.6400146484375 426.6400146484375,444.9200134277344 " class="cls-5"/>
    <polygon id="svg_17" fill="#999daa" points="385.8399963378906,444.17999267578125 385.0299987792969,444.17999267578125 389.4800109863281,403.6099853515625 392.510009765625,407.8999938964844 385.8399963378906,444.17999267578125 " class="cls-5"/>
    <path id="svg_18" fill="#4a75dd" d="m431.3,405.21a18.84,18.84 0 0 0 -3,-2.47c-0.46,-0.31 -5.21,-4.71 -5.21,-4.71l-31.69,1.86a13.78,13.78 0 0 0 -1.95,0.56c-0.67,0.24 -1,2.09 -0.93,3.62s2.92,4.74 5.58,6.41c3.7,2.34 14.07,1.91 15.54,1.91l2,0c1.48,0 16.6,0.37 20.29,-2c1.34,-0.82 0.55,-4.04 -0.63,-5.18z" class="cls-6"/>
    <path id="svg_19" d="m387.93,397.41c3,2.73 9.67,6.94 12.39,7.68s13.39,-2.72 14.87,-5.94s-12.64,-7.44 -17.1,-7.44s-10.16,5.7 -10.16,5.7z"/>
    <path id="svg_20" fill="#4a75dd" d="m403.6,373.86c0.87,-2.22 9.73,-3.93 14.18,-4.26c12.78,-0.94 19.25,1.19 18.48,4.26c-5.76,23.06 0.24,28.51 -4.21,33c-2.48,2.48 -42.36,3 -37.91,0.5s6.93,-4 7.42,-13.39s2.04,-20.11 2.04,-20.11z" class="cls-6"/>
    <path id="svg_21" d="m399.24,357.41c-2.7,-0.09 -3.22,5.74 -5,11.37c-1.92,6.09 -4.58,12.66 -4.58,14c0,2.6 1.85,10.78 4.83,9.29s4.46,-3.72 7.81,-9.67s-3.06,-24.99 -3.06,-24.99z"/>
    <path id="svg_22" d="m314.33,436.87a16.38,16.38 0 0 0 -4.87,0.76c-0.18,-0.38 -0.35,-0.77 -0.5,-1.15l-4.3,1.17s-1.75,4 -1.75,5.72s4.51,2.88 7.07,1.12a2.76,2.76 0 0 0 0.87,-0.95c1.65,-0.74 3.19,-1.07 4.33,-1.88c1.43,-1.03 1.25,-4.85 -0.85,-4.79z"/>
    <path id="svg_23" d="m317.28,405.77c-1.6,12.77 -1.13,25.06 -3.35,34.75a72.17,72.17 0 0 1 -12.32,0.06s1.66,-24.64 1.64,-31.72c0,-8.49 3.18,-7.37 3.18,-7.37c-0.62,-6.49 12.35,-7.81 10.85,4.28z"/>
    <path id="svg_24" fill="#26282d" d="m314,440.49c2.22,-9.7 3.11,-34.2 3.11,-34.2a10.64,10.64 0 0 1 -0.24,-4.18c0.72,-8.16 -1.29,-9.34 -2.27,4.26c-0.86,11.9 -2.81,27.32 -3.35,34.17c3.15,-0.26 1.03,0.36 2.75,-0.05z" class="cls-7"/>
    <path id="svg_25" d="m293.73,437.35l-4.67,-1.27c-0.16,0.42 -0.35,0.84 -0.53,1.25a18.15,18.15 0 0 0 -5.28,-0.83c-2.28,-0.06 -2.49,4.09 -0.93,5.2c1.24,0.88 2.91,1.24 4.7,2a3,3 0 0 0 1,1c2.77,1.9 7.66,0.68 7.66,-1.23s-1.95,-6.12 -1.95,-6.12z"/>
    <path id="svg_26" d="m293.88,404.72c-1.08,-3.59 0.62,-10.22 0.62,-10.22c-1.48,-0.13 -11.47,-5.08 -11.47,-5.08c-3.71,0 -6.2,1.92 -6.2,6.38s2.92,12.76 3.66,17.59s1.74,20.39 1,21.88c-0.31,0.62 1.14,1.28 2.94,1.84c4.65,6.09 11.64,2.76 11.64,2.76s1.52,-22.76 -2.19,-35.15z"/>
    <polygon id="svg_27" fill="#afb3bc" points="319.82000732421875,445.9100036621094 319.010009765625,445.9100036621094 313.010009765625,409.6300048828125 316.489990234375,409.6300048828125 319.82000732421875,445.9100036621094 " class="cls-3"/>
    <polygon id="svg_28" fill="#afb3bc" points="278.95001220703125,445.29998779296875 278.1400146484375,445.29998779296875 282.6000061035156,404.7200012207031 285.6300048828125,409.0199890136719 278.95001220703125,445.29998779296875 " class="cls-3"/>
    <path id="svg_29" d="m321.26,362.34c4.46,-0.19 4.58,14.92 5.21,28.63c0.09,2 -6.15,7.36 -10.23,8c-1.5,0.23 -8.9,-1.89 -8.9,-1.89l10.42,-7.38l-1.22,-9.7l1.24,-9.18l3.48,-8.48z"/>
    <path id="svg_30" fill="#cc9483" d="m295.13,344.07c-0.8,-0.28 -1.49,-0.88 -1.56,0.43a5.39,5.39 0 0 0 1.46,3.58c0.6,0.47 1.37,0.52 1.34,0.29s-1.24,-4.3 -1.24,-4.3z" class="cls-4"/>
    <path id="svg_31" fill="#cc9483" d="m311.59,343.8c0.76,-0.38 1.37,-1.06 1.6,0.23a5.49,5.49 0 0 1 -1,3.74c-0.54,0.53 -1.3,0.69 -1.3,0.45s0.7,-4.42 0.7,-4.42z" class="cls-4"/>
    <path id="svg_32" fill="#e0ac9b" d="m303.69,363.21l-7,-2.7s1.93,-10 1.93,-11l4.7,-0.38l0,0l4.62,0.22c0,1 1.65,9.75 1.65,9.75l-5.93,4.07l0.03,0.04z" class="cls-8"/>
    <polygon id="svg_33" fill="#999daa" points="324.8800048828125,453.6000061035156 323.3999938964844,453.6000061035156 316.239990234375,408.55999755859375 320.05999755859375,408.55999755859375 324.8800048828125,453.6000061035156 " class="cls-5"/>
    <polygon id="svg_34" fill="#999daa" points="280.6300048828125,452.989990234375 279.1600036621094,452.989990234375 285.0899963378906,407.95001220703125 288.8500061035156,407.95001220703125 280.6300048828125,452.989990234375 " class="cls-5"/>
    <path id="svg_35" fill="#4a75dd" d="m321.51,406.21a18.55,18.55 0 0 0 -3,-2.48c-0.46,-0.31 -5.2,-4.71 -5.2,-4.71l-28.72,1.39a15.57,15.57 0 0 0 -1.95,0.56c-0.67,0.25 -1,2.09 -0.93,3.63s1.72,5.26 2.6,6.87c1.12,2 3.23,2 4.71,2l14.25,0c1.48,0 13.32,-0.43 17.6,-1.18c1.59,-0.22 1.82,-4.95 0.64,-6.08z" class="cls-6"/>
    <path id="svg_36" d="m322,367.73s0.59,-5.08 -1.23,-5.89c-3.11,-1.37 -5.46,-1 -9.92,-4.33c-0.14,-0.43 -0.59,-1.49 -0.84,-2.23c-2.81,-2.73 -13.38,-0.1 -13.38,-0.1l-1,2.42c-3.47,1.52 -6.9,3.18 -9.79,3.75c-4.24,0.82 -1.36,12.51 -1.36,12.51s5,12.21 4.92,15.41c-0.07,2.41 -1.83,8 -1.83,18.05c0,0.65 31.48,0 31.48,0c0,-6.5 -2,-16 -2.1,-17.89a54,54 0 0 1 1.4,-11.1c0.44,-1.33 3.65,-10.6 3.65,-10.6z"/>
    <path id="svg_37" fill="#5b250e" d="m312.91,340.42c-0.34,-2.61 -1.13,-2.61 -1.48,-3.81s0.22,-1.19 -0.93,-2.37s-5.4,-2.14 -6.78,-2s-2.64,0.45 -2.72,0.76c-0.81,0.12 -2.15,-0.25 -2.69,0.12a9.35,9.35 0 0 0 -3.54,4.22a9.65,9.65 0 0 0 -0.91,5.58c0.22,1.43 0.4,1.52 0.4,1.52l1.81,5.38s1.13,2.83 -0.37,2.69c-0.52,-0.05 3.32,3.29 6.39,2.65l0,0.15c1.69,0.09 3,0 3.83,-0.75c0.54,-0.5 0.72,-0.5 1.5,-0.08c1.75,0.94 4.83,-2.3 4.22,-2.64c-1,-0.58 0.56,-5.38 0.56,-5.38a16.56,16.56 0 0 0 0.71,-6.04z" class="cls-9"/>
    <path id="svg_38" d="m281.85,398.77c0.75,1.3 3.72,8.74 7.81,8.93s-2.41,-16.55 -2.41,-16.55l-5.4,7.62z"/>
    <path id="svg_39" d="m287.18,362.09c-2.1,-0.74 -2.48,2.85 -3.47,5.08s-2.6,9.3 -5.2,16c-1.41,3.62 -0.93,12.08 1.79,12.33s7,-0.93 9,-3.9s3.72,-11.65 4,-15.12s-6.12,-14.39 -6.12,-14.39z"/>
    <path id="svg_40" fill="#26282d" d="m284.83,361.84c-1.49,0.87 -1.86,3.73 -2.11,5.33s-2.26,12.52 -3.75,14.5s-1.51,7.47 -1,9.95s2,4.37 3.66,4.37s5.67,-2.21 6.38,-3.78c0.16,-0.37 -4.21,3.68 -6.51,2.78c-0.84,-0.33 -2.85,-8.61 -1.23,-11.46s3.34,-9.54 3.84,-13.38s1.24,-6.44 2,-7.06s-1.28,-1.25 -1.28,-1.25z" class="cls-7"/>
    <path id="svg_41" fill="#4a75dd" d="m309.1,369c-2.26,0 -4.48,-0.29 -6.49,-0.22c-13.14,0.5 -14.6,4.12 -14.41,7.29c1.46,23.26 -5.69,28.5 -1.51,32.87c-0.21,0.57 31.1,1.36 33.58,-1.12c4.46,-4.46 -0.81,-5.58 1,-32.22c0.19,-2.98 -1.12,-6.93 -12.17,-6.6z" class="cls-6"/>
    <path id="svg_42" fill="#cc9483" d="m350.26,389.85c-1.64,1.62 -1.46,9.78 0.13,19c1,5.7 4.32,16.07 4.58,19c0.4,4.61 -0.56,6.82 -1.92,14.2c-0.2,1.08 6.84,-5.8 7,-7.09c0.29,-1.8 1.37,-2.73 1,-4c-0.51,-1.57 -1.65,-2.8 -1.36,-5.7c0.7,-6.94 0.36,-8.62 0.62,-18c0.26,-9.72 -3.39,-24 -10.05,-17.41z" class="cls-4"/>
    <path id="svg_43" d="m361.41,430.74c-0.46,-1.48 -4.13,-0.82 -4.88,2.19c0,0 -0.88,1.84 -2.55,5.56a10.54,10.54 0 0 1 -0.74,1.36c-1.55,0.14 -3.27,0.4 -3.31,1.26a2.77,2.77 0 0 0 1.12,2.41c1,0.72 3.68,0.67 6,0c0.65,-0.19 1.64,-3.28 1.64,-4.59s1.76,-2.48 2.69,-3.59s0.72,-2.4 0.03,-4.6z"/>
    <path id="svg_44" d="m361.78,434.46c-0.55,1.21 -1.16,4.65 -1,9.11a2.93,2.93 0 0 1 -1,0s0.37,-7.44 -0.18,-8.36s2.18,-0.75 2.18,-0.75z"/>
    <path id="svg_45" fill="#cc9483" d="m339.35,390.72c-1.63,1.62 -1,9.29 0.63,18.55c1,5.71 4.94,16.45 5.2,19.37c0.4,4.61 -2.18,7.14 -1,13.07c0.22,1.09 1.78,0.67 3.7,-2.78c1,-1.75 3.64,-5 3.22,-6.33a16.77,16.77 0 0 1 -1.24,-7.06c0.7,-6.94 0.8,-8.8 1.06,-18.15c0.3,-9.78 -4.92,-23.27 -11.57,-16.67z" class="cls-4"/>
    <path id="svg_46" d="m351.41,431.18c-0.47,-1.49 -4.14,-0.82 -4.88,2.18c0,0 -0.89,1.85 -2.56,5.57a10.67,10.67 0 0 1 -0.73,1.36c-1.56,0.14 -3.28,0.39 -3.31,1.25a2.73,2.73 0 0 0 1.12,2.41c1,0.72 3.68,0.68 6,0c0.65,-0.19 1.64,-3.28 1.64,-4.58s1.77,-2.48 2.7,-3.59s0.7,-2.41 0.02,-4.6z"/>
    <path id="svg_47" d="m351.78,434.9c-0.56,1.2 -1.17,4.64 -1,9.11a2.86,2.86 0 0 1 -1,0s0.37,-7.44 -0.19,-8.37s2.19,-0.74 2.19,-0.74z"/>
    <path id="svg_48" d="m345.55,390c-5.7,-2.73 -10,-1.25 -10.54,0.24a51.87,51.87 0 0 0 -3.15,10.41c-0.23,1.32 13,8.37 13,8.37l0.69,-19.02z"/>
    <path id="svg_49" d="m356.24,358.18c-6.18,3.63 -8.77,3.09 -11.1,4.3s-2.28,8 -2.28,8s3.7,4.82 4,5.88c0.22,0.8 1.87,5.78 1.44,10.13c-0.31,3.15 -3.07,5.19 -4.85,11.47c-0.19,0.67 20.8,-1.42 20.8,-1.42l1.86,-25.21s-8.8,-4 -10.12,-11.35l0.25,-1.8z"/>
    <path id="svg_50" fill="#26282d" d="m369.09,359.54a53.18,53.18 0 0 1 7.94,4.91c2.12,1.53 4.21,24.28 4.21,24.28s-0.87,13.76 -5.89,4.28c-0.19,-0.35 -0.36,-16.15 -0.43,-16a29.11,29.11 0 0 0 -1.62,13c0.28,3.15 3.27,4.68 2.89,9.74c0,0.5 -15.77,-4.28 -15.77,-4.28l-1.16,-34l9.83,-1.93z" class="cls-7"/>
    <path id="svg_51" d="m344.29,364c-5.59,15.92 -5.8,23.14 -6.61,27.22c-0.7,3.54 10,8.19 10,8.19l5.41,-9.91s-6.73,-0.34 -6.69,-1.24a94.15,94.15 0 0 1 1.96,-11.26c0.32,-1 -4.07,-13 -4.07,-13z"/>
    <polygon id="svg_52" fill="#999daa" points="381.1400146484375,454.1000061035156 379.6600036621094,454.1000061035156 372.5,409.05999755859375 376.32000732421875,409.05999755859375 381.1400146484375,454.1000061035156 " class="cls-5"/>
    <polygon id="svg_53" fill="#999daa" points="333.9200134277344,453.8500061035156 332.45001220703125,453.8500061035156 338.3699951171875,408.80999755859375 342.1400146484375,408.80999755859375 333.9200134277344,453.8500061035156 " class="cls-5"/>
    <polygon id="svg_54" fill="#999daa" points="370.8800048828125,446.4100036621094 370.07000732421875,446.4100036621094 364.07000732421875,410.1300048828125 367.54998779296875,410.1300048828125 370.8800048828125,446.4100036621094 " class="cls-5"/>
    <polygon id="svg_55" fill="#999daa" points="330.07000732421875,445.6700134277344 329.2699890136719,445.6700134277344 333.7099914550781,405.0899963378906 336.75,409.3900146484375 330.07000732421875,445.6700134277344 " class="cls-5"/>
    <path id="svg_56" fill="#4a75dd" d="m375.54,406.7a18.83,18.83 0 0 0 -3,-2.47c-0.45,-0.31 -5.2,-4.71 -5.2,-4.71l-31.69,1.86a14.87,14.87 0 0 0 -2,0.55c-0.66,0.24 -1,2.1 -0.92,3.63s2.92,4.74 5.57,6.41c3.7,2.34 14.07,1.9 15.55,1.9l2,0c1.48,0 16.59,0.37 20.29,-2c1.37,-0.82 0.58,-4.03 -0.6,-5.17z" class="cls-6"/>
    <path id="svg_57" d="m370.33,390.59c0.37,6.07 2.23,14.75 -1.23,16.24s-23.05,2.73 -28.51,-0.5c-1,-0.6 -5.52,-2.95 -5.39,-5.14c0.2,-3.36 5.6,-7.1 6.63,-9.48c1.7,-3.92 28.5,-1.12 28.5,-1.12z"/>
    <path id="svg_58" fill="#4a75dd" d="m347.84,375.35c0.86,-2.22 9.73,-3.93 14.18,-4.26c12.77,-0.94 19.25,1.18 18.47,4.26c-5.76,23 0.25,28.5 -4.21,33c-2.48,2.48 -42.36,3 -37.91,0.49s6.93,-4 7.43,-13.38s2.04,-20.11 2.04,-20.11z" class="cls-6"/>
    <path id="svg_59" fill="#ba784a" d="m352.32,372.51a12.63,12.63 0 0 0 2.38,1.31c0.36,-1 1.61,-4.59 1.51,-4.17s-0.26,3.26 -0.34,4.62c0.27,0.09 0.54,0.16 0.81,0.23l0,0l1.49,-4.7l-0.43,5l0.11,0c0.33,-1.31 1.07,-4.17 1.81,-6.48c0,0.93 -0.77,5.18 -1,6.6a17.6,17.6 0 0 0 1.77,0.15c0.56,-3.27 0.77,-15 1,-8.61a48.32,48.32 0 0 1 -0.32,8.62a25.68,25.68 0 0 0 5.93,-0.74c-0.25,-2.37 -1,-9.2 -0.78,-7.75c0.24,1.65 1.6,7 1.73,7.51l1.09,-0.32c-0.12,-0.83 -0.51,-3.57 -0.59,-4.1a25,25 0 0 0 1.54,3.79l0.15,-0.05c-0.08,-0.67 -0.23,-2 -0.38,-3.2a10,10 0 0 1 -0.44,-2.4c0,-0.87 0.22,0.66 0.44,2.4c0.35,1.27 0.8,2.53 1,3c0.37,-0.13 0.73,-0.27 1.08,-0.41l0.11,-1.13l0.34,0.95c0.38,-0.15 0.74,-0.31 1.07,-0.46c-0.26,-1 -1.24,-4.73 -0.92,-4.09s1.41,2.74 1.88,3.66c0.74,-0.35 1.35,-0.66 1.83,-0.92c-0.23,-1.1 -0.74,-3.5 -1.19,-5.51a20.27,20.27 0 0 1 -0.79,-3a14.57,14.57 0 0 1 0.79,3a43.45,43.45 0 0 0 1.86,5.14l0.45,-0.26s-3.8,-17.19 -4.5,-23.19c-1.11,-9.67 -4.58,-12 -4.58,-12c-3,-2.42 -6.63,-0.2 -7.93,-0.5c-4.34,-1 -7.66,4.56 -8.06,8.92c-0.74,8.18 -1,19.21 -2.47,26.89a13.3,13.3 0 0 0 1.49,1.43c0.63,-1.72 1.9,-5.17 2.72,-7.25c0.02,2.45 -1.33,6.93 -1.66,8.02z" class="cls-10"/>
    <path id="svg_60" fill="#a0593a" d="m355.71,335.7c-4.83,4.09 -4.46,18 -5.57,20.44s-4,5.7 -4.84,5.7c1.86,0.62 2.73,-0.24 4,-1.11s0.24,8.92 0.5,9.54s4.33,-9.54 4.21,-26a18.74,18.74 0 0 1 1.7,-8.57z" class="cls-11"/>
    <path id="svg_61" fill="#a0593a" d="m367.3,334.39c2.35,0.75 3.9,4.28 5,9.49s4.15,23.73 5.63,25.59c-3,-3.35 -3.22,-7.69 -3.84,-9.42c0,0 0.44,7.12 0.81,8.49c-1.12,-0.87 -2,-6.08 -2.36,-10.91s-2.31,-17.53 -2.78,-19.58a6.43,6.43 0 0 0 -2.46,-3.66z" class="cls-11"/>
    <path id="svg_62" fill="#cc9483" d="m211.59,394.07c1,-3.1 1,-4.77 0.43,-6.26c-1.37,-3.66 -6.62,-1.8 -9.23,0.43l-0.85,5.15c-2.33,1.57 -4.1,12.45 -5.34,20.62c-0.69,4.51 -0.56,11.34 -2.23,17.85a23,23 0 0 1 -1.8,4a3.46,3.46 0 0 0 1.05,4.15c0.66,0.42 2.36,0.5 5.7,0.87c4.23,0.79 4.14,-4.26 4.14,-4.26s-2.62,-0.41 -3.64,-0.67c-0.5,-0.12 -1.24,-1.24 -0.62,-3.25c2.61,-8.45 11.93,-29.99 12.39,-38.63z" class="cls-4"/>
    <path id="svg_63" d="m193.44,435c3,-0.93 3.9,2.34 5.26,3.33s3.69,-0.11 3.6,-0.54c-0.33,-1.49 -2.91,-1.94 -2.91,-1.94s0.16,-0.14 1.37,0c1.58,0.23 3.41,-0.87 3.91,0s-1.2,5.18 -2.56,5.8a3.89,3.89 0 0 1 -2.88,0a8.06,8.06 0 0 0 -2.63,-0.59s-3,0.75 -4.28,-0.19s-0.62,-4.19 0.31,-5.49l0.81,-0.38z"/>
    <polygon id="svg_64" fill="#afb3bc" points="172.24000549316406,445.04998779296875 173.0399932861328,445.04998779296875 179.0399932861328,408.7699890136719 175.55999755859375,408.7699890136719 172.24000549316406,445.04998779296875 " class="cls-3"/>
    <polygon id="svg_65" fill="#afb3bc" points="213.10000610351562,444.42999267578125 213.91000366210938,444.42999267578125 209.4600067138672,403.8500061035156 206.42999267578125,408.1400146484375 213.10000610351562,444.42999267578125 " class="cls-3"/>
    <polygon id="svg_66" fill="#999daa" points="167.17999267578125,452.7300109863281 168.64999389648438,452.7300109863281 175.82000732421875,407.70001220703125 172,407.70001220703125 167.17999267578125,452.7300109863281 " class="cls-5"/>
    <polygon id="svg_67" fill="#999daa" points="211.4199981689453,452.1199951171875 212.88999938964844,452.1199951171875 206.97000122070312,407.0799865722656 203.2100067138672,407.0799865722656 211.4199981689453,452.1199951171875 " class="cls-5"/>
    <path id="svg_68" fill="#cc9483" d="m197.09,401.13c1,-3.1 1,-4.77 0.44,-6.26c-1.37,-3.66 -6.88,-2.42 -9.48,-0.19l-0.86,5.15c-2.33,1.57 -3.23,8.24 -3.48,15.42c-0.16,4.56 -0.12,9.67 -2.6,16.86c-0.42,1.2 -1.91,2.39 -2.36,3.22a3.46,3.46 0 0 0 1.05,4.15c0.66,0.43 3.54,1.06 6.88,1.43c4.23,0.79 4.09,-3.17 4.09,-3.17a30.3,30.3 0 0 0 -3.65,-1.54c-0.5,-0.13 -1.68,0.09 -1.06,-1.92c2.62,-8.48 10.57,-24.51 11.03,-33.15z" class="cls-4"/>
    <path id="svg_69" d="m179.62,434.41c2.23,-0.13 4.49,2.31 5.86,3.31s4.32,0.46 4.18,0c-0.32,-0.94 -3.35,-1.69 -3.35,-1.69s-0.27,-0.05 1.58,0s3.64,-1.11 4.14,-0.24s-0.73,4.12 -2.1,4.74a5.89,5.89 0 0 1 -2.5,0.56c-1.49,-0.37 -4.65,-0.69 -4.65,-0.69s-3,0.75 -4.27,-0.18s-0.62,-4.2 0.3,-5.5l0.81,-0.31z"/>
    <path id="svg_70" fill="#4a75dd" d="m170.55,405.34a19,19 0 0 1 3,-2.48c0.46,-0.31 5.2,-4.71 5.2,-4.71l29.87,0.53a16.12,16.12 0 0 1 1.95,0.56c0.66,0.24 1,2.09 0.93,3.62s-2.87,6.13 -3.75,7.74c-1.11,2 -3.23,2 -4.71,2l-14.28,0c-1.48,0 -13.32,-0.44 -17.59,-1.18c-1.58,-0.22 -1.8,-4.95 -0.62,-6.08z" class="cls-6"/>
    <path id="svg_71" d="m192.26,405.46c1.49,2.24 11,3.65 12.64,1.49c5.2,-6.94 7.06,-9.78 7.06,-9.78s-0.25,-5.46 -1.73,-8.44c-1.31,-2.62 -8.67,-3.22 -13.88,-1.73s-4.09,18.46 -4.09,18.46z"/>
    <path id="svg_72" fill="#e0ac9b" d="m202.3,378.82c1.73,3.47 3,8.3 4.95,9.3s4.09,0.61 4.09,-0.38s-0.06,-5.51 -1.79,-8.73s-4.47,-11.84 -4.47,-11.84l-2.78,11.65z" class="cls-8"/>
    <path id="svg_73" fill="#a380b7" d="m183.43,356.11c-2,2.29 -7.39,3.81 -8.46,5.3s2.95,18.16 0.83,29.06c-0.43,2.22 22.41,4.21 22.41,4.21l3.06,-19.33l2.79,-13.94a99.24,99.24 0 0 1 -9,-4.65c-3.06,-1.88 -11.63,-0.65 -11.63,-0.65z" class="cls-12"/>
    <path id="svg_74" fill="#a380b7" d="m202.89,361.35c1.65,0 1.89,-0.5 2.83,2s4.76,15 4.76,15s-5.6,4.39 -7.25,5.39s-4.11,-9 -4.11,-10.48s3.77,-11.91 3.77,-11.91z" class="cls-12"/>
    <path id="svg_75" fill="#a380b7" d="m176.44,360.73c-2.12,-0.25 -3.77,1 -4,4s0.47,13.63 2.6,14.12s5.42,-2.72 5.42,-2.72l-4.02,-15.4z" class="cls-12"/>
    <path id="svg_76" fill="#4a75dd" d="m183,368.13c2.26,0 4.48,-0.29 6.48,-0.22c13.14,0.5 14.61,4.12 14.41,7.29c-1.46,23.26 5,28.88 0.86,33.24c0.21,0.58 -30.44,1 -32.92,-1.49c-4.46,-4.46 2.25,-14.5 -2.95,-30.85c-0.95,-2.85 3.02,-8.29 14.12,-7.97z" class="cls-6"/>
    <path id="svg_77" fill="#bd9fce" d="m194.86,355.65c0.5,2.48 8.06,5.2 8.06,5.2l-2.48,1.49s-10,-4 -9.42,-6.32s3.84,-0.37 3.84,-0.37z" class="cls-13"/>
    <path id="svg_78" fill="#bd9fce" d="m201.06,363.09c-1.2,0.24 2.63,-3.14 3.84,-1.68c2,2.48 6.07,16.42 6.07,16.42l-1.55,1.37s-4.34,-16.95 -8.36,-16.11z" class="cls-13"/>
    <path id="svg_79" fill="#873f26" d="m198.32,340.54a16.48,16.48 0 0 0 -0.88,-4c-1.31,-3 -5.1,-3.27 -5.79,-2.86c0,0 -3.26,19 -3.46,20.4c-0.17,1.13 1.68,1.19 4.05,0c0.13,2.24 1.17,3.14 1.51,3.25c1.29,0.43 6.81,-0.56 8.81,-3.2c-1.92,0.26 -3.43,-9.46 -4.24,-13.59z" class="cls-14"/>
    <path id="svg_80" fill="#5b250e" d="m192.82,333.49a7,7 0 0 0 -4.44,-1a10.48,10.48 0 0 0 -5.43,1.88l-0.06,0l-0.1,0.12a6.88,6.88 0 0 0 -2.37,3.13c-0.86,1.5 -1,3.62 -1.4,7c-0.64,6 0.09,8.65 -2.32,10.41c1.45,2.64 14.5,4.88 23.06,1.2c0,0 -1.92,-2.88 -2.67,-9.5c-0.53,-8.33 -0.74,-11.21 -4.27,-13.24z" class="cls-9"/>
    <path id="svg_81" d="m39,408.07s-0.16,25.45 0.18,31.89c8.65,0.74 12.5,-3.27 12.4,-5.18s1.78,-26.48 1.94,-27.92s3.51,-12.09 -0.38,-14.06c-12.92,-6.56 -14.14,15.27 -14.14,15.27z"/>
    <path id="svg_82" d="m41.32,392.45c5,-1.71 16.13,-7.49 19.46,-7.93c7,-0.91 12,4.37 11.55,11.39c-0.65,9.68 2.58,36.69 3.12,39.38c-6.31,3.3 -13.68,2 -13.68,2s-7.44,-33.71 -5,-37.92c1.38,-2.25 -15.45,-6.92 -15.45,-6.92z"/>
    <path id="svg_83" d="m62.58,435.18c-0.88,2.74 -1.63,4.19 -0.79,5.92s4.95,1.1 7.33,0c1.41,-0.68 4.58,0.51 6.23,0.46c3.5,-0.09 6.52,-5.95 3.65,-6.19s-6.53,0.37 -7.83,-0.7s-8.59,0.51 -8.59,0.51z"/>
    <path id="svg_84" d="m41.89,436.68c-0.32,1.75 -1.76,3.5 -0.32,4.62a4.78,4.78 0 0 0 4.62,0.63c1.75,-0.48 2.39,-1.43 3.34,-2.23s3.51,-1.27 4.3,-2.39s1.32,-4.19 -0.11,-4.46c-2,-0.37 -4.46,-0.12 -8.43,0.87l-3.4,2.96z"/>
    <path id="svg_85" fill="#cc9483" d="m29.2,339.16c0.51,1.67 0.47,7.79 -0.17,10.37s-3.73,6.07 -3.73,6.07l14.45,2.72s-1.26,-9.77 1.43,-11.63c1.66,-1.14 -11.98,-7.53 -11.98,-7.53z" class="cls-4"/>
    <path id="svg_86" fill="#cc9483" d="m42.93,333.46a35.74,35.74 0 0 1 0.44,3.6c1,4.59 1.16,10 -0.65,11.15c-2.25,1.4 -9.7,-0.86 -12.44,-5.2s-2.1,-10 2.53,-12c5.04,-2.22 8.54,-2.43 10.12,2.45z" class="cls-4"/>
    <path id="svg_87" fill="#a0593a" d="m43.8,334.21c0.92,-4.58 -11.07,-10.51 -16.69,-4.94a14.11,14.11 0 0 0 -1.1,1.55c-0.43,0.5 -0.77,0.36 -1.2,0.71c-2.7,2.16 -1.87,8.3 -0.22,11c2.1,3.38 2.23,3.75 2,4.68c-0.45,1.5 10.68,0.84 10.68,0.84l1.49,-4.65l1.64,-1.31l1,-2.78l0.93,-1.11a19.34,19.34 0 0 1 -0.56,-3.91c0.01,-1.91 2.03,-0.08 2.03,-0.08z" class="cls-11"/>
    <polygon id="svg_88" fill="#999daa" points="17.510000228881836,451.1300048828125 18.979999542236328,451.1300048828125 26.149999618530273,406.0899963378906 22.329999923706055,406.0899963378906 17.510000228881836,451.1300048828125 " class="cls-5"/>
    <polygon id="svg_89" fill="#999daa" points="27.770000457763672,443.44000244140625 28.579999923706055,443.44000244140625 34.58000183105469,407.1600036621094 31.100000381469727,407.1600036621094 27.770000457763672,443.44000244140625 " class="cls-5"/>
    <polygon id="svg_90" fill="#999daa" points="65.5999984741211,442.69000244140625 66.41000366210938,442.69000244140625 61.959999084472656,402.1199951171875 58.93000030517578,406.4100036621094 65.5999984741211,442.69000244140625 " class="cls-5"/>
    <polygon id="svg_91" fill="#999daa" points="59.029998779296875,452.739990234375 60.5,452.739990234375 54.56999969482422,407.70001220703125 50.810001373291016,407.70001220703125 59.029998779296875,452.739990234375 " class="cls-5"/>
    <path id="svg_92" fill="#4a75dd" d="m20.14,403.73a19,19 0 0 1 3,-2.48c0.45,-0.31 5.2,-4.71 5.2,-4.71l31.66,1.86a16.12,16.12 0 0 1 2,0.56c0.66,0.24 1,2.09 0.93,3.62c-0.1,1.68 -2.93,4.74 -5.58,6.42c-3.7,2.33 -14.07,1.9 -15.55,1.9l-2,0c-1.48,0 -16.59,0.37 -20.29,-2c-1.35,-0.82 -0.51,-4.04 0.63,-5.17z" class="cls-6"/>
    <path id="svg_93" d="m63.5,395.92c-3,2.73 -9.66,6.94 -12.39,7.69s-13.38,-2.73 -14.87,-5.95s12.64,-7.44 17.11,-7.44s10.15,5.7 10.15,5.7z"/>
    <path id="svg_94" fill="#0d2263" d="m27.2,350.2c-2.42,1.36 -4.59,3.34 -9.59,6.94c0,0 -1.87,0.1 -2.19,0.86c-4.26,10.23 4.06,14.44 3.6,18.47c-1.87,16.46 4.72,21.94 5.29,24c0.27,1 14.92,-1 20.86,-0.86c3.21,1 10.49,-5.27 11.58,-6.17c0.52,-1.38 -1.43,-4.4 -3.65,-7.21c-1.65,-2.08 -2.48,-4.74 -2.11,-9.23c0.26,-3.29 -0.77,-6 0.25,-7.87s-0.16,-11.75 -0.16,-11.75s-4.25,-2.16 -10.31,-5.57c-1.49,-0.84 -5.21,0.37 -5.21,0.37l-8.36,-1.98z" class="cls-15"/>
    <path id="svg_95" fill="#0d2263" d="m26.78,349l-2.31,3a78.52,78.52 0 0 1 8.16,0.05c4.76,0.44 9.72,1.07 9.72,1.07l-1.07,-3s-1.94,-0.83 -8.88,-1.26a54.34,54.34 0 0 0 -5.62,0.14z" class="cls-15"/>
    <path id="svg_96" fill="#0d2263" d="m49.13,356.76c3.47,-2 5.75,4.87 7.44,11.34a69.36,69.36 0 0 0 3,8.74c1.68,4.27 0.74,8.18 -0.93,9.48c-2.89,2.25 -8.18,0 -11.53,-5.95s2.02,-23.61 2.02,-23.61z" class="cls-15"/>
    <path id="svg_97" fill="#1f3e93" d="m50.34,356.67a7.94,7.94 0 0 0 -2.88,2.33s-0.84,-3.21 -9.73,-4.21c-14.71,-1.64 -20.12,2.36 -20.12,2.36s6.15,-5.39 7.64,-5.39s9.44,-1.12 16.63,0.83a51.84,51.84 0 0 1 6.41,3.16l2.05,0.92z" class="cls-16"/>
    <path id="svg_98" fill="#1f3e93" d="m54.06,360.85c-0.25,3.47 -2.93,7.34 -2.7,7.32c1,-0.14 3.81,-3 3.81,-3a5.84,5.84 0 0 1 0,1.86c-0.09,0.89 -0.55,3.81 -1.33,4.65s2.26,-2.48 2.26,-3.72s-2.04,-7.11 -2.04,-7.11z" class="cls-16"/>
    <path id="svg_99" fill="#4a75dd" d="m47.83,372.38c-0.86,-2.22 -9.73,-3.93 -14.18,-4.26c-12.77,-0.95 -19.24,1.18 -18.47,4.26c5.76,23.05 -0.25,28.5 4.21,33c2.48,2.48 42.36,3 37.91,0.5s-6.93,-4 -7.43,-13.39s-2.04,-20.11 -2.04,-20.11z" class="cls-6"/>
    <path id="svg_100" fill="#ba784a" d="m28.78,329c1.11,-0.75 4.46,-0.19 5.11,1.34c0.72,1.71 -0.19,-1.34 -0.19,-1.34a2.62,2.62 0 0 1 1.35,2.46c1.67,-1.12 0.51,-2 0.51,-2l1.12,2l1.3,-0.93s3,1.4 1.67,3.07c3.63,-1.76 0.93,-3.53 0.93,-3.53a6.61,6.61 0 0 1 3.42,4.33c1.3,-2.42 -0.44,-5.44 -4.34,-7.1c-3.07,-1.3 -4.09,-0.65 -4.09,-0.65s-4.83,-0.56 -7.9,2.23a8.38,8.38 0 0 0 -1.67,1.94l2.78,-1.82z" class="cls-10"/>
    <path id="svg_101" fill="#cc9483" d="m40.58,337.8c-1.49,-0.18 -2.6,0.93 -1.49,3.35s2,2.79 3,2s-1.51,-5.35 -1.51,-5.35z" class="cls-4"/>
    <path id="svg_102" fill="#cc9483" d="m97.21,385.33c2,1.21 3.61,9.21 4.13,18.59c0.33,5.78 -0.61,16.63 -0.21,19.54c0.64,4.58 2.07,6.52 5.05,13.4c0.44,1 -8,-4.11 -8.45,-5.33c-0.69,-1.69 -1.94,-2.35 -1.82,-3.69c0.14,-1.65 1,-3.1 0,-5.86c-2.24,-6.61 -2.28,-8.33 -4.62,-17.38c-2.41,-9.47 -2.05,-24.21 5.92,-19.27z" class="cls-4"/>
    <path id="svg_103" d="m95.49,427.68c0.12,-1.55 3.84,-1.73 5.24,1c0,0 1.28,1.6 3.74,4.84a10.3,10.3 0 0 0 1,1.17c1.55,-0.21 3.28,-0.35 3.5,0.48a2.72,2.72 0 0 1 -0.55,2.6c-0.8,0.93 -3.43,1.48 -5.87,1.34c-0.68,0 -2.33,-2.83 -2.62,-4.1s-2.28,-2 -3.43,-2.9s-1.19,-2.11 -1.01,-4.43z"/>
    <path id="svg_104" d="m96,431.39c0.81,1.05 2.17,4.27 3,8.65a2.84,2.84 0 0 0 1,-0.21s-2,-7.17 -1.69,-8.2s-2.31,-0.24 -2.31,-0.24z"/>
    <path id="svg_105" fill="#e0ac9b" d="m114.79,390.61c1.14,2 -1.62,9.2 -5.69,17.67c-2.5,5.22 -9.27,14.46 -10.31,17.2c-1.65,4.32 0.13,7.46 -2.67,12.83c-0.51,1 -1.88,0.16 -2.78,-3.69c-0.45,-1.94 -2.12,-5.84 -1.36,-7a17,17 0 0 0 3.13,-6.45c1.23,-6.87 1.64,-8.69 4,-17.74c2.38,-9.43 11.09,-20.98 15.68,-12.82z" class="cls-8"/>
    <path id="svg_106" d="m92.1,426.21c0.86,-1.3 4.2,0.35 4.09,3.44c0,0 0.34,2 0.93,6.05a10.84,10.84 0 0 0 0.33,1.52c1.46,0.56 3,1.27 2.84,2.11a2.75,2.75 0 0 1 -1.74,2c-1.15,0.42 -3.72,-0.36 -5.78,-1.66c-0.58,-0.37 -0.68,-3.61 -0.32,-4.86s-1,-2.87 -1.61,-4.2s0,-2.48 1.26,-4.4z"/>
    <path id="svg_107" d="m90.72,429.68c0.21,1.32 -0.16,4.79 -1.56,9a2.93,2.93 0 0 0 0.94,0.27s1.68,-7.25 2.47,-8s-1.85,-1.27 -1.85,-1.27z"/>
    <path id="svg_108" d="m100.06,385.64c5.7,-2.73 13.63,-0.25 14.13,1.24a73.45,73.45 0 0 1 2.14,9.79c0.23,1.32 -13,8.36 -13,8.36l-3.27,-19.39z"/>
    <path id="svg_109" d="m91.2,354.47c6.18,3.62 8.77,3.08 11.1,4.3s2.28,8 2.28,8s-3.7,4.82 -4,5.87c-0.22,0.8 -1.87,5.78 -1.44,10.13c0.31,3.16 3.07,5.2 4.84,11.47c0.2,0.68 -20.79,-1.42 -20.79,-1.42l-1.86,-25.22a18.32,18.32 0 0 1 -1.71,-12.2l11.58,-0.93z"/>
    <path id="svg_110" d="m79.65,355.82a53.75,53.75 0 0 0 -7.93,4.91c-2.13,1.53 -4.22,24.27 -4.22,24.27s0.87,13.75 5.89,4.27c0.19,-0.35 0.36,-16.15 0.43,-16a29.3,29.3 0 0 1 1.62,13c-0.27,3.14 -3.27,4.67 -2.89,9.73c0,0.5 15.78,-4.28 15.78,-4.28l1.88,-36l-10.56,0.1z"/>
    <path id="svg_111" d="m103.87,361.69c5.59,15.93 7,24.26 4.56,26.12c-2.86,2.2 -6,-4.62 -6.42,-5.4a28.35,28.35 0 0 1 -2.93,-9.18c-0.32,-0.91 4.79,-11.54 4.79,-11.54z"/>
    <polygon id="svg_112" fill="#999daa" points="66.30000305175781,450.3800048828125 67.77999877929688,450.3800048828125 74.94000244140625,405.3399963378906 71.12000274658203,405.3399963378906 66.30000305175781,450.3800048828125 " class="cls-5"/>
    <polygon id="svg_113" fill="#999daa" points="113.5199966430664,450.1400146484375 114.98999786376953,450.1400146484375 109.06999969482422,405.1000061035156 105.30000305175781,405.1000061035156 113.5199966430664,450.1400146484375 " class="cls-5"/>
    <polygon id="svg_114" fill="#999daa" points="76.56999969482422,442.69000244140625 77.37000274658203,442.69000244140625 83.37000274658203,406.4100036621094 79.88999938964844,406.4100036621094 76.56999969482422,442.69000244140625 " class="cls-5"/>
    <polygon id="svg_115" fill="#999daa" points="117.37000274658203,441.95001220703125 118.18000030517578,441.95001220703125 113.72000122070312,401.3800048828125 110.69000244140625,405.6700134277344 117.37000274658203,441.95001220703125 " class="cls-5"/>
    <path id="svg_116" fill="#4a75dd" d="m71.9,403a19,19 0 0 1 3,-2.48c0.46,-0.31 5.21,-4.71 5.21,-4.71l31.69,1.86a13.78,13.78 0 0 1 2,0.56c0.67,0.24 1,2.09 0.93,3.62s-2.92,4.74 -5.57,6.41c-3.7,2.34 -14.07,1.9 -15.55,1.9l-2,0c-1.48,0 -16.59,0.38 -20.29,-2c-1.39,-0.82 -0.6,-4.04 0.58,-5.16z" class="cls-6"/>
    <path id="svg_117" d="m77.11,386.88c-0.37,6.06 -2.24,14.74 1.24,16.23s23,2.73 28.5,-0.5c1,-0.6 5.52,-2.95 5.39,-5.14c-0.2,-3.36 -5.6,-7.1 -6.63,-9.48c-1.7,-3.92 -28.5,-1.11 -28.5,-1.11z"/>
    <path id="svg_118" fill="#4a75dd" d="m99.6,371.64c-0.86,-2.23 -9.73,-3.94 -14.18,-4.27c-12.77,-0.94 -19.24,1.18 -18.47,4.27c5.76,23 -0.25,28.5 4.21,33c2.48,2.48 42.36,3 37.91,0.5s-6.93,-4 -7.43,-13.39s-2.04,-20.11 -2.04,-20.11z" class="cls-6"/>
    <path id="svg_119" fill="#c12900" d="m98.85,338.46a10.09,10.09 0 0 1 0.85,4.37a7,7 0 0 0 0.64,3.49c0.45,0.74 0.19,3.15 0,4.1s-1,0.9 0.08,1.82s1.37,1.13 0.44,2s-0.21,1.08 0.44,1.69s-0.07,0.64 -0.06,1.11c0,2.11 2.18,1.7 2.18,1.7s-4.83,2 -4.65,-0.65c0.34,-5 -1.36,-4 -1.36,-4s-1.57,0.67 -1.61,-1.07s0.59,-2.08 -0.53,-2.68s-1.75,0 -2.36,-1.47s-3,-0.21 -1.51,-2.78s0.54,-2.82 2,-6.65s2.09,-5.76 2.9,-5a25,25 0 0 1 2.55,4.02z" class="cls-17"/>
    <path id="svg_120" fill="#931f00" d="m101.13,366.62c-0.47,-0.47 0.27,-0.45 0.18,-1.19a7.43,7.43 0 0 0 -0.65,-1.95c-0.3,-0.81 0.25,-0.87 0.25,-1.73c0,-0.47 -1.13,-0.12 -0.62,-1.92c0.38,-1.32 -0.51,-1.25 -0.67,-1.65s0.06,-0.89 0.25,-2a10.52,10.52 0 0 0 -0.75,-3.14a1.2,1.2 0 0 0 -0.13,-1.4c-0.61,-0.63 0.46,-1.34 0.3,-2.49a14.48,14.48 0 0 0 -0.25,-1.67a0.64,0.64 0 0 0 -0.09,-0.21c0,-0.49 0,-1 0,-1.48c0.35,-0.76 0,-2 0.13,-2.5a6.92,6.92 0 0 0 -0.12,-2s-0.56,-0.72 -0.41,-1.22a6.36,6.36 0 0 0 -0.93,-3.09a6.83,6.83 0 0 0 -1,-2.39c-3.08,-3.25 -5.5,-1.58 -5.5,-1.58c-2.41,-0.56 -4.14,-1.14 -7.49,1.28a3.85,3.85 0 0 0 -0.35,0.35c-2.2,0.91 -4.25,3.65 -4.24,4.33s-1.2,1.61 -1.2,1.61a9.82,9.82 0 0 0 -1,2.79c0,0.8 -1.25,2.6 -0.91,3.86s-0.6,1.74 -0.91,2.23a22.71,22.71 0 0 0 -1.13,2.32c-0.76,1.61 0.63,3.06 -0.62,3.72s-0.94,2.18 -0.44,3.28s-2.29,2.11 0.25,3c1.17,0.4 -3.82,1.38 0.68,4.21c0.12,0.08 1.31,-0.83 1.42,-0.81c0.93,0.72 -2,-0.37 -0.24,3c0.26,0.53 2.6,0.54 3.41,1.92c1.11,1.92 3.16,1.18 4.08,0.44s0.83,-0.16 1.18,0.37c0.87,1.3 2.62,0.73 3.47,0.31c1.12,-0.56 1.55,1.11 2.85,0.93s0.5,-0.74 2.17,-1.12s0.81,1.55 2.54,-0.43c0.66,-0.75 1.61,0.87 2.91,-0.81a3.56,3.56 0 0 0 1,-2.88a5.59,5.59 0 0 0 0.82,1.11a2,2 0 0 0 2.38,-0.49c0.25,-0.48 -0.13,-0.43 -0.62,-0.91z" class="cls-18"/>
    <path id="svg_121" fill="#c12900" d="m74.42,362.22l0,0l0.18,0.23c0.01,-0.11 -0.01,-0.19 -0.18,-0.23zm25.43,1.71c-0.42,-0.44 0.24,-0.42 0.16,-1.09a7.15,7.15 0 0 0 -0.57,-1.8c-0.27,-0.75 0.21,-0.8 0.22,-1.59c0,-0.43 -1,-0.11 -0.55,-1.77c0.34,-1.21 -0.45,-1.14 -0.58,-1.52s0,-0.81 0.21,-1.81a10,10 0 0 0 -0.66,-2.88a1.14,1.14 0 0 0 -0.11,-1.29c-0.54,-0.58 0.4,-1.23 0.26,-2.28s-0.14,-1.21 -0.22,-1.54a0.8,0.8 0 0 0 -0.07,-0.2c0,-0.44 0,-0.89 0,-1.35c0.31,-0.7 0,-1.86 0.11,-2.3a6.5,6.5 0 0 0 -0.09,-1.81s-0.5,-0.66 -0.37,-1.12a6.08,6.08 0 0 0 -0.81,-2.84a8.77,8.77 0 0 0 -0.93,-2.47c-2.71,-3 -5.29,-1.3 -5.29,-1.3c-2.13,-0.51 -4.67,-1.11 -7.8,1.55c-0.1,0.09 1.56,-0.71 1.45,-0.6s-1.34,1.08 -1.41,1.08c3.92,-2.75 6,-0.87 6.2,-0.84c0,0 1,-1.52 3.93,1.21a6.58,6.58 0 0 1 1.06,2.1a6.14,6.14 0 0 1 1.06,2.76c-0.1,0.47 0.46,1.08 0.46,1.08a6.75,6.75 0 0 1 0.25,1.78c-0.09,0.46 0.33,1.58 0.09,2.31c0.05,0.46 0.09,0.9 0.13,1.35l0.09,0.18c0.11,0.33 0.12,0.48 0.35,1.52s-0.65,1.77 -0.07,2.3a1.12,1.12 0 0 1 0.23,1.27a10.43,10.43 0 0 1 0.91,2.81c-0.09,1 -0.24,1.46 -0.07,1.82s1,0.22 0.72,1.46c-0.31,1.69 0.66,1.28 0.7,1.71c0.06,0.78 -0.42,0.89 -0.09,1.61a6.86,6.86 0 0 1 0.73,1.72c0.13,0.67 -0.52,0.72 -0.06,1.11s0.82,0.32 0.55,0.88l0,0a1.09,1.09 0 0 0 0.4,-0.36c0.27,-0.46 -0.09,-0.41 -0.52,-0.85zm-24.72,-4.41c-2.23,-0.79 0.23,-1.72 -0.22,-2.73s-0.72,-2.41 0.39,-3s-0.12,-1.95 0.54,-3.42a23.58,23.58 0 0 1 1,-2.14c0.27,-0.44 1.11,-0.89 0.8,-2s0.82,-2.81 0.8,-3.54a9.1,9.1 0 0 1 0.92,-2.57s1.08,-0.75 1.06,-1.48s2.62,-4 4.47,-5c-1.42,0 -2.44,1.08 -3.38,1.92a3.55,3.55 0 0 0 -0.27,0.35a8.73,8.73 0 0 0 -3.36,5c0.07,0.73 -1.31,2.13 -1.31,2.13a7.88,7.88 0 0 0 -0.32,2.09c0.08,0.72 -0.89,2.48 -0.49,3.6s-0.39,1.65 -0.62,2.12a22.68,22.68 0 0 0 -0.81,2.22c-0.53,1.53 0.8,2.75 -0.24,3.45s-0.65,2.08 -0.12,3s-1.81,2.11 0.41,2.69c-1.25,-1.71 1.62,-2.38 0.75,-2.69z" class="cls-17"/>
    <rect id="svg_122" fill="#afb3bc" height="109.85" width="152.02" y="210.19" x="170.57" class="cls-3"/>
    <rect id="svg_123" fill="#efefef" height="98.69" width="138.44" y="215.77" x="177.36" class="cls-19"/>
    <path id="svg_124" fill="#e0ac9b" d="m288.25,259.14a2.44,2.44 0 0 0 -1.28,0.05a2.9,2.9 0 0 1 0.77,-0.5a1.81,1.81 0 0 0 0.65,-1.68c-0.19,-0.46 -1,0.39 -1.32,0.64s-2.57,0.89 -3,1.07a34.77,34.77 0 0 0 -2.5,2.51a56.16,56.16 0 0 1 -8.31,3.54a37.39,37.39 0 0 0 1.53,4.51c0.21,-0.07 8.15,-4.17 8.44,-4.31s2.4,-0.6 2.93,-0.78a9.43,9.43 0 0 0 1.76,-1s0.59,-3.84 0.33,-4.05z" class="cls-8"/>
    <polygon id="svg_125" mix-blend-mode="multiply" fill="url(#linear-gradient)" opacity="0.4" points="280.3699951171875,266.04998779296875 282.8800048828125,264.91998291015625 285.6700134277344,264.2900085449219 287.19000244140625,263.4800109863281 287.5,262.92999267578125 287.7900085449219,260.17999267578125 286.79998779296875,259.07000732421875 279.510009765625,263.6499938964844 280.3699951171875,266.04998779296875 " class="cls-20"/>
    <path id="svg_126" fill="#e0ac9b" d="m286.62,263.53l-1.11,-0.12a0.78,0.78 0 0 1 -0.73,-0.49c-0.1,-0.21 0.37,-0.46 0.69,-0.45l1.08,0a2.18,2.18 0 0 1 -0.65,-0.13c-0.58,-0.24 -1.11,-0.5 -0.9,-1s1.26,0 1.68,0c-0.35,-0.1 -1.41,-0.6 -1.24,-1s1.47,-0.26 1.58,-0.27a3.61,3.61 0 0 0 0.61,-0.23a4.92,4.92 0 0 1 -1.05,-0.23c-0.15,-0.1 -0.22,-0.35 -0.05,-0.64s1.18,-0.35 1.39,-0.36s1,-0.45 1.25,-0.46s0.38,0.86 0.42,1.07s-0.48,0.36 -0.48,0.57s0.15,0.81 -0.06,1.07s-0.58,0.6 -0.58,0.6a3.34,3.34 0 0 1 -0.18,0.93c-0.17,0.46 -0.53,0.4 -0.52,0.68s-1.15,0.46 -1.15,0.46z" class="cls-8"/>
    <polygon id="svg_127" fill="#d4d5d6" points="278.75,261.67999267578125 280.7300109863281,260.92999267578125 282.8399963378906,267.75 280.3599853515625,269.72998046875 278.75,261.67999267578125 " class="cls-2"/>
    <path id="svg_128" d="m264.38,249.41a4.14,4.14 0 0 1 2.23,2.41c0.18,1.12 4.95,9.86 5.32,11s1.06,0.93 2,0.74s6.07,-2.6 6.07,-2.6s1.11,7.81 2.79,9.11c-6.88,2.79 -11.34,4.27 -12.64,3.9s-7.07,-7.25 -7.25,-9.11s1.48,-15.45 1.48,-15.45z"/>
    <path id="svg_129" fill="#e0ac9b" d="m214,279.89a22.48,22.48 0 0 1 -2.93,0.34c-0.73,0 -1.68,0.82 -2.94,1c-0.46,0.05 -0.92,0.52 -0.42,0.75s1.3,-0.05 2,0.08c0.9,0.16 -1.14,1.69 -1.7,2.06s-3,2.65 -2.75,2.95c0.53,0.56 3.18,-2.34 3.34,-2.06s-3.26,2.8 -2.87,3.08c0.84,0.59 3,-2 3.66,-1.89c0,0 -0.63,0.56 -1.32,1.15s-1.37,0.94 -1.36,1.16c0,1.54 3.56,-2.54 3.82,-1.91s-2.17,2.09 -1.62,2.45c0.27,0.18 2.83,-2.1 2.83,-2.1a45.93,45.93 0 0 0 5.24,-3.65a18.12,18.12 0 0 1 3.66,-1.88l-3.38,-3a12.45,12.45 0 0 1 -3.26,1.47z" class="cls-8"/>
    <path id="svg_130" fill="#d4d5d6" d="m215.35,278.24l-1.85,1.43s3.45,4.92 3.78,5.67l2.69,-2l-4.62,-5.1z" class="cls-2"/>
    <path id="svg_131" d="m231.29,249c1.78,-2.53 3.33,-1.72 4.46,-0.12c1.35,1.93 0.74,8.68 -0.25,11.78c-0.9,2.8 -1.24,9 -3.47,13.62s-12.9,13.58 -13,12.89c-0.35,-2.19 -3.85,-7.35 -4.59,-8.43c3.1,-2.91 9.91,-9 10.35,-10c1.42,-3.29 6.5,-19.74 6.5,-19.74z"/>
    <path id="svg_132" fill="#4a75dd" d="m244.72,243.78c0.32,-0.69 0.6,-1.25 1.35,-1.16s8.27,1.35 8.5,2.7s-1.67,2.69 -2.93,2.88s-6.92,-4.42 -6.92,-4.42z" class="cls-6"/>
    <path id="svg_133" fill="#cc9483" d="m253.94,241.83a8.19,8.19 0 0 0 0.11,5c0.56,1.51 -1.89,3.83 -2.8,3.76s-6.1,-4.86 -6.1,-4.86s0.91,-5.73 1.12,-7.07s7.67,3.17 7.67,3.17z" class="cls-4"/>
    <path id="svg_134" fill="url(#linear-gradient-2)" mix-blend-mode="multiply" d="m254.27,242.53a13.76,13.76 0 0 0 -0.27,2.47c-0.85,1.05 -6.73,5.16 -8.18,5c-1.21,-0.11 -0.19,-2.25 -0.89,-3.13c0.27,-1.21 1.31,-8.21 1.33,-8.5l8.01,4.16z" class="cls-21"/>
    <path id="svg_135" fill="#6597ef" d="m260.33,259.38l1.39,-9.73l-6.76,-4c-0.41,0.52 -2.34,3.5 -3.58,3.37s-0.67,2.15 -0.67,2.15l0.71,28.63l8.2,-0.09s1.1,-1.26 1.1,-6.62c0,-1.62 0.28,-9.3 -0.39,-13.71z" class="cls-22"/>
    <path id="svg_136" fill="#4a75dd" d="m252.39,272.16c-0.13,-8.61 -0.85,-22.46 -2.15,-23.11c-1.12,-0.55 -4.91,-3.07 -5.32,-4l-0.34,-0.58c-3.62,1.3 -7.3,2.29 -8.71,2.29c0,0 1.92,9.9 2.23,13.11c0.38,3.88 -0.44,11.73 -0.67,15.44a10.12,10.12 0 0 0 1.09,4.45s10.17,0.45 13.41,0c0.92,-0.07 0.55,-2.7 0.46,-7.6z" class="cls-6"/>
    <path id="svg_137" d="m250.26,354.82c-0.11,-1.45 0.75,-2.38 0.1,-9.86c-0.08,-0.9 6.71,-1.21 6.71,-1.21c-0.3,3.68 -1.27,6 2.29,10.4c0.77,1 3,2.74 3.81,3.53c0.56,0.56 1.21,3.13 -2.14,3.13c-4.21,0 -7.44,-1.27 -8.5,-3.26c-0.09,-0.17 -0.36,-0.11 -0.36,-0.11s-1.64,1.17 -1.91,-2.62z"/>
    <path id="svg_138" d="m245.6,282.58a64.83,64.83 0 0 1 -1.76,10.23a15.3,15.3 0 0 1 -4.37,1.21c-3.73,0.59 -8.64,-2.13 -8.64,-2.42c0,-7.43 3,-13.51 3.06,-16.91c0.08,-2.63 0.5,-9.78 0.13,-10.91s-1.45,-11.46 -0.93,-14c0.23,-1.1 -1,-2.3 0.06,-2.51a36.56,36.56 0 0 0 10,-2.88s-0.94,6.25 0,8.08s1.07,9.76 1.69,11.65c0.34,1.16 1.21,11.93 0.76,18.46z"/>
    <path id="svg_139" d="m238.94,349.29l-6.38,-0.87s-0.09,0.61 -0.59,2.82a15.45,15.45 0 0 1 -4.27,7.43a3.37,3.37 0 0 0 -0.83,3.07l0,0.5s0.37,1.92 1.67,1.92s6.66,-0.87 7.31,-1.8a1.93,1.93 0 0 0 0.36,-1.16c0,-0.05 0.06,-0.09 0.08,-0.14s0.56,-2.23 1.3,-2.05a3.18,3.18 0 0 0 0.52,-3.31c-0.75,-2.05 0.83,-6.41 0.83,-6.41z"/>
    <path id="svg_140" d="m260.54,279.15c0,0.67 1.22,3.21 1.23,3.84c0.2,6.89 0,9.58 0,11.4c0,2 -0.49,24 -2,29s-1.73,23.29 -0.74,24.78s0.74,5.33 0.74,5.33s-10.29,0.87 -10.53,2.85a58.9,58.9 0 0 1 -0.62,-6.44c-0.49,-8.59 -0.25,-11.1 0.31,-26c0.11,-3 -0.44,-19.64 -0.44,-22.61c0,-2.22 -4.21,21.06 -6.19,28c0,0 -3.28,14.68 -2.45,21.07c0.75,5.76 -1,7.25 -1,7.25s-6.2,-3.19 -9.67,-1.21a19.83,19.83 0 0 1 0.1,-5.79c0.55,-4.46 1.33,-14.86 1.88,-21.13c0.66,-7.41 2.86,-25.47 3.35,-34.39s3.2,-13.21 4.21,-15s21.82,-0.95 21.82,-0.95z"/>
    <path id="svg_141" fill="#26282d" d="m260.54,294.88c-0.38,10.17 -3.41,25.72 -4.53,30.18s0.37,2.79 -0.18,5.39s-0.38,15.8 -0.38,16.73s-5.39,2 -4.27,2.79s5.2,-0.56 5.2,0s-3.16,1.67 -3.16,1.67s6.32,0.37 6.7,0.18s-0.25,-1.79 -0.5,-3.77s-1.74,-15.37 -0.25,-20.2s2.91,-29.06 2.36,-32.22s-0.99,-0.75 -0.99,-0.75z" class="cls-7"/>
    <path id="svg_142" fill="#26282d" d="m249,298.29c-2,4.09 -6.32,25.1 -7.25,28.07a23.59,23.59 0 0 1 -3.22,6.57c-0.74,0.93 -4.93,15.8 -4.37,18.4c1.86,0.19 3.72,-0.18 3.9,0.74s-4.83,0.56 -4.83,0.56l6.27,3.37s0.37,-3.16 0.37,-5.58s0.4,-13.82 2.26,-19.77s2.05,-9.85 2.79,-15s4.08,-17.36 4.08,-17.36z" class="cls-7"/>
    <polygon id="svg_143" fill="#26282d" points="238.6699981689453,277.8899841308594 232.55999755859375,279.92999267578125 232.42999267578125,283.1499938964844 238.5399932861328,281.75 238.6699981689453,277.8899841308594 " class="cls-7"/>
    <path id="svg_144" fill="#26282d" d="m245.41,269.39c0.56,3.9 0,18.45 -0.27,21.1c-0.35,2.85 -1.72,3.62 -4.31,4c-3.72,0.5 -9,-2.17 -9,-2.17s9.77,3.05 11.46,0.56c2.62,-3.88 2.12,-23.49 2.12,-23.49z" class="cls-7"/>
    <path id="svg_145" fill="#26282d" d="m264.93,275.24c-0.55,-4.46 -1.11,-14.68 -0.55,-17.47s1.3,-7.62 0,-8.36c-0.09,-0.06 -3.67,-1.46 -8.37,-3.72l0.19,4c1.11,12.58 2,19.28 2,19.28l1.72,9.46c0.43,4.77 0.84,8.77 1.07,9.68c0.56,2.23 1.49,4.55 3.53,4.65a18.21,18.21 0 0 0 3.72,-0.56s-2.75,-12.49 -3.31,-16.96z" class="cls-7"/>
    <polygon id="svg_146" fill="#d4d5d6" points="253.74000549316406,279.489990234375 251.38999938964844,248.14999389648438 249.02000427246094,248.17999267578125 248.1999969482422,248.66000366210938 250.11000061035156,250.52000427246094 250.08999633789062,276.8899841308594 253.74000549316406,279.489990234375 " class="cls-2"/>
    <polygon id="svg_147" fill="#fff" points="256.32000732421875,276.95001220703125 252.58999633789062,250.32000732421875 253.38999938964844,248.89999389648438 252.99000549316406,247.89999389648438 251.0399932861328,248.17999267578125 251.32000732421875,250.41000366210938 251.3300018310547,250.41000366210938 253.74000549316406,279.489990234375 256.32000732421875,276.95001220703125 " class="cls-23"/>
    <path id="svg_148" fill="#4a75dd" d="m254.12,244.57c0.11,1.11 -1.36,3.21 -1.73,3.39c0.51,0.19 2.18,3.49 2.18,3.49l1.67,-4.46s-2.17,-2.88 -2.12,-2.42z" class="cls-6"/>
    <path id="svg_149" fill="#6597ef" d="m245.18,243c0,0.83 3.27,4.29 5.86,5.23a23.13,23.13 0 0 0 -4.57,3.46c-2.23,-2.42 -3.83,-6.43 -3.47,-6.69a28.54,28.54 0 0 0 2.18,-2z" class="cls-22"/>
    <path id="svg_150" fill="#26282d" d="m244.61,243.09c0,-0.13 -3.48,1.85 -3.48,1.85l-1,2.92l2.52,0.7l-3.46,2l6.1,16.44s-1.06,-17.88 -1.48,-20a4.35,4.35 0 0 1 0.8,-3.91z" class="cls-7"/>
    <path id="svg_151" d="m254.45,244.78c0.32,0.1 3.78,2.13 3.78,2.13l0.84,2.15l-2.51,0.31l2.59,1.34l-1,17.16s-2.71,-18.28 -2.76,-20.45a3.58,3.58 0 0 0 -0.94,-2.64z"/>
    <polygon id="svg_152" points="262.8900146484375,277.8500061035156 266.4200134277344,279.33001708984375 266.7900085449219,283.41998291015625 263.07000732421875,281.19000244140625 262.8900146484375,277.8500061035156 "/>
    <path id="svg_153" fill="#5b250e" d="m244.41,232.72c-0.18,1.19 0.41,5.64 0.34,5.87s-0.24,1 -0.47,0.93s1.25,1.45 1.69,1.11s1.86,-6 1.7,-6.33s-3.26,-1.58 -3.26,-1.58z" class="cls-9"/>
    <path id="svg_154" fill="#e0ac9b" d="m256.77,239.32c0.8,-2.15 1.51,-5.46 0.8,-7.91c-0.48,-1.57 -3.84,-3.21 -4.66,-3.28c-5.09,-0.43 -5.6,2.76 -5.93,6.07c-1.09,-0.78 -1.68,0.3 -1.7,1.62a3.17,3.17 0 0 0 1.05,2.59c0.14,2.88 1.86,5.2 5.41,5.89a2.81,2.81 0 0 0 1.73,-0.19a3.74,3.74 0 0 0 1.92,-1.76a22.38,22.38 0 0 0 1.38,-3.03z" class="cls-8"/>
    <path id="svg_155" fill="#5b250e" d="m247.1,227.46c0.49,-0.77 3,-0.21 2.83,0.41l1.23,0.11c0.14,-1.17 -1.44,1.86 -1.4,2.12c-2.94,-0.19 -1.47,3.5 -1.81,4a1.81,1.81 0 0 0 -0.4,1.23l-0.66,-0.38l-0.65,-1.16l-1.58,1.15s-1.5,-6.2 2.44,-7.48z" class="cls-9"/>
    <path id="svg_156" fill="#873f26" d="m257.38,228.65c-1.07,-0.86 -5,-3.33 -7,-2.23s-1.14,1.42 -1.14,1.42l0.56,2.26c0.78,-1.43 2.45,0.09 3,0.83a5.13,5.13 0 0 0 4.74,1.75c0.48,0.74 0,4.13 0,4.13l0.57,-0.27a6.78,6.78 0 0 0 0.95,-3.11a9.82,9.82 0 0 0 -0.17,-1.08c0.87,-1.09 -0.43,-2.83 -1.51,-3.7z" class="cls-14"/>
    <path id="svg_157" fill="#873f26" d="m257.2,238.17a14.49,14.49 0 0 1 -1.22,5c-0.68,1 -2.84,3.26 -4,3.2c-0.56,-1 0.42,-4.43 0.42,-4.43a3.64,3.64 0 0 0 3,-0.71a7,7 0 0 0 1.8,-3.06z" class="cls-14"/>
    <path id="svg_158" fill="#873f26" d="m254.14,239.57c0.54,0.12 1.16,1.76 1.22,2.39s-1.82,-1.44 -2.34,-1.26l0,-1.32l1.12,0.19z" class="cls-14"/>
    <path id="svg_159" fill="#5b250e" d="m253,239.38s-1.16,-0.13 -1.63,0.29s-1.7,1.67 -1.7,1.67s0.57,0.58 1.82,-0.25a2.78,2.78 0 0 1 1.51,-0.39l0,-1.32z" class="cls-9"/>
    <path id="svg_160" fill="#5b250e" d="m247.22,232.64a31.68,31.68 0 0 0 1.28,7.13c0.64,1.51 3.58,2 4.19,2.25a40.49,40.49 0 0 1 -0.63,4.41a6.36,6.36 0 0 1 -4.42,-3.36a9.88,9.88 0 0 1 -1.3,-4.07c0.13,-1.36 0.88,-6.36 0.88,-6.36z" class="cls-9"/>
    <path id="svg_161" d="m132.4,401.75s0,23.3 0.38,29.74c8.65,0.73 15.28,1 15.18,-0.92s-1.2,-22 -1,-23.46s3.5,-12.09 -0.38,-14.07c-12.93,-6.56 -14.18,8.71 -14.18,8.71z"/>
    <path id="svg_162" d="m136.74,393.94c5,-1.72 18.61,-5.89 21.94,-6.32c7,-0.92 10.53,2.9 9.07,9.77c-1.64,7.7 -18.46,30.57 -17.13,33.73c-6.31,3.3 -13.68,2 -13.68,2s10,-26.23 10.59,-28.79s-10.79,-10.39 -10.79,-10.39z"/>
    <polygon id="svg_163" fill="#999daa" points="112.93000030517578,452.6199951171875 114.4000015258789,452.6199951171875 121.56999969482422,407.57000732421875 117.75,407.57000732421875 112.93000030517578,452.6199951171875 " class="cls-5"/>
    <polygon id="svg_164" fill="#999daa" points="157.1699981689453,452.3699951171875 158.63999938964844,452.3699951171875 152.72000122070312,407.3299865722656 148.9499969482422,407.3299865722656 157.1699981689453,452.3699951171875 " class="cls-5"/>
    <polygon id="svg_165" fill="#999daa" points="123.19000244140625,444.9200134277344 124,444.9200134277344 129.99000549316406,408.6400146484375 126.5199966430664,408.6400146484375 123.19000244140625,444.9200134277344 " class="cls-5"/>
    <polygon id="svg_166" fill="#999daa" points="163.99000549316406,444.17999267578125 164.8000030517578,444.17999267578125 160.35000610351562,403.6099853515625 157.32000732421875,407.8999938964844 163.99000549316406,444.17999267578125 " class="cls-5"/>
    <path id="svg_167" fill="#4a75dd" d="m118.53,405.21a18.84,18.84 0 0 1 3,-2.47c0.46,-0.31 5.21,-4.71 5.21,-4.71l31.69,1.86a13.78,13.78 0 0 1 1.95,0.56c0.67,0.24 1,2.09 0.93,3.62s-2.92,4.74 -5.58,6.41c-3.7,2.34 -14.07,1.91 -15.55,1.91l-2,0c-1.48,0 -16.6,0.37 -20.3,-2c-1.32,-0.82 -0.53,-4.04 0.65,-5.18z" class="cls-6"/>
    <path id="svg_168" fill="#26282d" d="m142.47,340l0,2.86a2.47,2.47 0 0 0 2,0.2c0.84,-0.43 1,-1.69 1.06,-2.32s-2.34,-1.05 -3.06,-0.74zm1.84,2.89a2.21,2.21 0 0 1 -1.78,-0.18l0,-2.53c0.64,-0.27 2.75,0.1 2.69,0.66s-0.17,1.66 -0.91,2.05z" class="cls-7"/>
    <path id="svg_169" fill="#cc9483" d="m127.6,340.65c0.51,1.67 0.47,7.79 -0.18,10.37s-3.73,6.07 -3.73,6.07l14.45,2.72s-1.26,-9.77 1.43,-11.63c1.66,-1.18 -11.97,-7.53 -11.97,-7.53z" class="cls-4"/>
    <path id="svg_170" fill="#cc9483" d="m144.3,339.29c0,1.39 -0.44,1.28 -0.61,2.64c-0.06,0.46 0.18,1 0.1,1.45c-0.66,3.81 -1.82,7.18 -3.58,7.62c-2.57,0.65 -9.92,-3 -11.21,-8s3.13,-10.9 8.14,-11.41c5.47,-0.52 7.14,2.58 7.16,7.7z" class="cls-4"/>
    <path id="svg_171" d="m125.59,351.68c-2.42,1.37 -4.77,4.4 -8.84,5.46c0,0 -1.87,0.1 -2.19,0.86c-4.26,10.23 3.31,15.92 2.85,19.95c-1.87,16.47 4.72,21.95 5.29,24c0.27,1 6.08,2.27 12,2.37c3.22,1 16.65,-3 17.74,-3.87c0.52,-1.38 -0.67,-4.49 -1.51,-8c-2.1,-8.7 -0.81,-8.44 -0.44,-12.93c0.27,-3.3 3.72,-3.66 4.74,-5.52s-4.43,-16.54 -4.43,-16.54a36.64,36.64 0 0 1 -11.65,-4.18c-1.49,-0.84 -5.21,0.37 -5.21,0.37l-8.35,-1.97z"/>
    <path id="svg_172" fill="#d4d5d6" d="m126.61,349.05c0.45,0.23 7.59,2.39 11.93,1.95c0.65,0.83 -0.12,2.88 -0.12,2.88s-12.92,-1.7 -13.29,-2.23s1.48,-2.6 1.48,-2.6z" class="cls-2"/>
    <path id="svg_173" d="m125.59,350.07l-2.73,3.35a55.68,55.68 0 0 1 7.38,0.83c4.62,1.21 10.5,0.28 10.5,0.28l-1,-2.6a33.57,33.57 0 0 1 -9.48,-0.78c-1.9,-0.42 -4.67,-1.08 -4.67,-1.08z"/>
    <path id="svg_174" d="m161.9,397.41c-3,2.73 -9.67,6.94 -12.39,7.68s-13.39,-2.72 -14.88,-5.94s12.64,-7.44 17.11,-7.44s10.16,5.7 10.16,5.7z"/>
    <path id="svg_175" d="m150.59,357.41c2.7,-0.09 3.22,5.74 5,11.37c1.92,6.09 4.58,12.66 4.58,14c0,2.6 1.31,9.91 -2,9.41c-5,-0.74 -7.31,-5.45 -10.65,-11.39s3.07,-23.39 3.07,-23.39z"/>
    <path id="svg_176" fill="#5b250e" d="m145.79,331.24c-1.74,2.11 -10.35,-8.18 -16.85,-2.3c-0.62,0.56 -0.46,1.09 -0.62,1.18s-0.54,0.11 -1.06,0.31c-3.22,1.24 -3.69,6.37 -2.93,9.43c1,3.85 3.31,6.18 2.69,8.29c-0.45,1.5 9.47,1.92 9.47,1.92s3,-4.43 2.67,-5.3c-1.21,-3.34 0.47,-5.18 1,-3.62a12.93,12.93 0 0 0 0.49,1.3l0.45,0.33s0,-4.51 1.68,-5.22c2.64,-1.12 3.01,-6.32 3.01,-6.32z" class="cls-9"/>
    <path id="svg_177" fill="#873f26" d="m139,328.54c1.61,0.76 4.25,2.85 5.46,2.2a4,4 0 0 1 -2.08,0.22s2.17,0.74 3,0a1.78,1.78 0 0 1 -1.67,1.08s1.95,0 2.6,-1.3c-0.75,2.32 -0.65,2.26 -2,1.95c-1.9,-0.45 -4.8,-3.78 -7.9,-5c-0.73,-0.34 0.77,-0.04 2.59,0.85z" class="cls-14"/>
    <path id="svg_178" fill="#873f26" d="m142.13,333c1.3,0.81 3.85,1.67 4.59,-0.74c-0.68,0.68 -3.84,1.36 -5.52,-0.37s0.93,1.11 0.93,1.11z" class="cls-14"/>
    <path id="svg_179" fill="#26282d" d="m139.73,340.52s4.89,0.73 5.53,0.51c0.41,-0.14 -0.28,1.11 -0.28,1.11l-4.8,-1l-0.45,-0.62z" class="cls-7"/>
    <path id="svg_180" d="m141.75,427.93c-0.41,-2.55 -4.05,-3.09 -5.36,-2.34c-1.67,1 -2.22,4.42 -1.86,7c0.21,1.55 -1.88,4.21 -2.34,5.79c-0.37,1.26 -0.51,3.51 1.27,4.3a16.65,16.65 0 0 0 5.7,1.69c1,0.16 2.06,0.5 2.29,-0.69a60.25,60.25 0 0 0 0.37,-7.68c0.04,-1.65 -0.07,-8.07 -0.07,-8.07z"/>
    <polygon id="svg_181" fill="#26282d" points="134.67999267578125,430.8299865722656 140.36000061035156,431.7099914550781 140.07000732421875,432.8299865722656 134.5,432.17999267578125 134.67999267578125,430.8299865722656 " class="cls-7"/>
    <path id="svg_182" fill="#26282d" d="m135.28,427.85c1,-0.82 5.76,-0.3 5.86,1.3c0.56,-1.66 -0.69,-3.2 -3,-3.43a2.61,2.61 0 0 0 -2.86,2.13z" class="cls-7"/>
    <path id="svg_183" fill="#26282d" d="m141.7,428c-2.23,-1.3 -5,1.18 -5.21,2.67c-0.31,1.89 2,4.51 4.27,5.89c1.34,0.82 2.07,4.13 3,5.48c2,2.88 11.42,1.84 11.19,-1c-0.2,-2.45 -2,-3.68 -6.94,-7.93c-1.27,-1.11 -6.31,-5.11 -6.31,-5.11z" class="cls-7"/>
    <polygon id="svg_184" points="139.47000122070312,435.3299865722656 143.75,431.489990234375 144.42999267578125,432.4200134277344 140.39999389648438,436.32000732421875 139.47000122070312,435.3299865722656 "/>
    <path id="svg_185" d="m137.55,433c0,-1.3 3.41,-4.65 4.71,-3.72c-0.93,-1.49 -2.92,-1.49 -4.59,0.18a2.63,2.63 0 0 0 -0.12,3.54z"/>
    <path id="svg_186" fill="#4a75dd" d="m146.22,373.86c-0.86,-2.22 -9.73,-3.93 -14.17,-4.26c-12.78,-0.94 -19.25,1.19 -18.48,4.26c5.76,23.06 -0.25,28.51 4.21,33c2.48,2.48 42.36,3 37.91,0.5s-6.93,-4 -7.42,-13.39s-2.05,-20.11 -2.05,-20.11z" class="cls-6"/>
   </g>
  </g>
 </g>
</svg>