<svg xmlns="http://www.w3.org/2000/svg" xmlns:xlink="http://www.w3.org/1999/xlink" viewBox="0 0 450 500"><defs><style>.cls-1{isolation:isolate;}.cls-2{fill:#d4d5d6;}.cls-3{fill:#afb3bc;}.cls-4{fill:#cc9483;}.cls-5{fill:#999daa;}.cls-6{fill:#4a75dd;}.cls-7{fill:#26282d;}.cls-8{fill:#e0ac9b;}.cls-9{fill:#5b250e;}.cls-10{fill:#ba784a;}.cls-11{fill:#a0593a;}.cls-12{fill:#a380b7;}.cls-13{fill:#bd9fce;}.cls-14{fill:#873f26;}.cls-15{fill:#0d2263;}.cls-16{fill:#1f3e93;}.cls-17{fill:#c12900;}.cls-18{fill:#931f00;}.cls-19{fill:#efefef;}.cls-20{opacity:0.4;fill:url(#linear-gradient);}.cls-20,.cls-21{mix-blend-mode:multiply;}.cls-21{fill:url(#linear-gradient-2);}.cls-22{fill:#6597ef;}.cls-23{fill:#fff;}</style><linearGradient id="linear-gradient" x1="567.54" y1="-136.12" x2="551.35" y2="-135.07" gradientTransform="matrix(-0.68, 0.44, 0.42, 0.66, 723.83, 19.02)" gradientUnits="userSpaceOnUse"><stop offset="0.21" stop-color="#fff"/><stop offset="0.22" stop-color="#fbfbfb"/><stop offset="0.31" stop-color="#bababa"/><stop offset="0.39" stop-color="#818181"/><stop offset="0.48" stop-color="#535353"/><stop offset="0.56" stop-color="#2f2f2f"/><stop offset="0.63" stop-color="#151515"/><stop offset="0.69" stop-color="#050505"/><stop offset="0.75"/></linearGradient><linearGradient id="linear-gradient-2" x1="242.11" y1="159.68" x2="261.96" y2="145.98" gradientUnits="userSpaceOnUse"><stop offset="0" stop-color="#fff"/><stop offset="0.52" stop-color="#c6c0b9"/></linearGradient></defs><g class="cls-1"><g id="Layer_6" data-name="Layer 6"><rect class="cls-2" x="110.31" y="279.98" width="271.91" height="15.93"/><polygon class="cls-3" points="382.38 280.2 110.31 280.2 160.4 263.81 326.21 263.81 382.38 280.2"/><path d="M416.42,321.32s3.13,25.45,2.79,31.89c-8.65.74-12.49-3.27-12.39-5.18s-4.76-26.48-4.92-27.92-3.5-12.09.38-14.07C415.18,299.48,416.42,321.32,416.42,321.32Z"/><path d="M412.09,306.94c-5-1.72-18.61-5.89-21.94-6.32-7-.92-10.53,2.9-9.07,9.77,1.64,7.7,8.62,36.22,7.29,39.38,6.31,3.31,13.68,2,13.68,2s-.16-31.89-.74-34.45S412.09,306.94,412.09,306.94Z"/><path d="M399.75,349.67c.88,2.74,1.64,4.19.79,5.92s-4.94,1.09-7.32,0c-1.42-.67-4.59.51-6.23.47-3.51-.1-6.53-5.95-3.65-6.19s6.52.37,7.82-.71S399.75,349.67,399.75,349.67Z"/><path d="M416.73,350.91c.32,1.76,1.75,3.51.32,4.63a4.78,4.78,0,0,1-4.62.63c-1.75-.48-2.39-1.43-3.35-2.23s-3.5-1.27-4.3-2.39-1.32-4.19.12-4.46c2-.37,4.46-.12,8.43.87Z"/><path class="cls-4" d="M421.23,253.65c-.51,1.67-.47,7.79.18,10.37s3.73,6.07,3.73,6.07l-14.45,2.72s1.26-9.77-1.43-11.63C407.6,260,421.23,253.65,421.23,253.65Z"/><path class="cls-4" d="M404.88,250.77c0,5.86,1.63,12.23,4.21,12.89s9.45-2.66,10.74-7.63-1-10.2-6.05-10.7C408.31,244.78,404.91,245.64,404.88,250.77Z"/><path d="M404.4,250.85c-2.26-4.08,7.24-12.47,14.28-8.87.74.37.93.78,1.52,1.14s.85.11,1.36.31c3.23,1.24,3.7,6.37,2.93,9.43-1,3.85-1.88,6.3-.32,8,1.06,1.15-11.25,2.7-11.25,2.7s-3.56-4.9-3.25-5.77c1.21-3.34-.47-5.18-1-3.62a12.93,12.93,0,0,1-.49,1.3l-.45.33a21.32,21.32,0,0,0-1.68-5.22C405.49,249.7,404.4,250.85,404.4,250.85Z"/><path d="M423.24,264.68c2.41,1.37,4.77,4.4,8.84,5.46,0,0,1.87.1,2.19.86,4.26,10.23-3.31,15.92-2.85,19.95,1.87,16.47-4.73,21.95-5.29,24-.27,1-6.08,2.27-12,2.37-3.22,1-16.65-3-17.74-3.87-.52-1.38.67-4.49,1.51-8,2.1-8.7.81-8.44.44-12.93-.26-3.3-3.73-3.66-4.74-5.52S398,270.51,398,270.51a36.72,36.72,0,0,0,11.65-4.18c1.49-.84,5.2.37,5.2.37Z"/><path class="cls-2" d="M422.22,262.05c-.46.23-7.59,2.39-11.93,1.95-.65.83.13,2.88.13,2.88s12.91-1.7,13.28-2.23S422.22,262.05,422.22,262.05Z"/><path d="M423.24,263.07l2.72,3.35a55.58,55.58,0,0,0-7.37.83c-4.62,1.21-10.5.28-10.5.28l1-2.6a33.51,33.51,0,0,0,9.47-.78C420.47,263.73,423.24,263.07,423.24,263.07Z"/><polygon class="cls-5" points="435.9 365.62 434.43 365.62 427.26 320.57 431.08 320.57 435.9 365.62"/><polygon class="cls-5" points="388.68 365.37 387.21 365.37 393.14 320.33 396.9 320.33 388.68 365.37"/><polygon class="cls-5" points="425.64 357.92 424.83 357.92 418.83 321.64 422.31 321.64 425.64 357.92"/><polygon class="cls-5" points="384.84 357.18 384.03 357.18 388.48 316.61 391.51 320.9 384.84 357.18"/><path class="cls-6" d="M430.3,318.21a18.84,18.84,0,0,0-3-2.47c-.46-.31-5.21-4.71-5.21-4.71l-31.69,1.86a13.78,13.78,0,0,0-1.95.56c-.67.24-1,2.09-.93,3.62s2.92,4.74,5.58,6.41c3.7,2.34,14.07,1.91,15.54,1.91h2c1.48,0,16.6.37,20.29-2C432.27,322.57,431.48,319.35,430.3,318.21Z"/><path d="M386.93,310.41c3,2.73,9.67,6.94,12.39,7.68s13.39-2.72,14.87-5.94-12.64-7.44-17.1-7.44S386.93,310.41,386.93,310.41Z"/><path class="cls-6" d="M402.6,286.86c.87-2.22,9.73-3.93,14.18-4.26,12.78-.94,19.25,1.19,18.48,4.26-5.76,23.06.24,28.51-4.21,33-2.48,2.48-42.36,3-37.91.5s6.93-4,7.42-13.39S402.6,286.86,402.6,286.86Z"/><path d="M398.24,270.41c-2.7-.09-3.22,5.74-5,11.37-1.92,6.09-4.58,12.66-4.58,14,0,2.6,1.85,10.78,4.83,9.29s4.46-3.72,7.81-9.67S398.24,270.41,398.24,270.41Z"/><path d="M313.33,349.87a16.38,16.38,0,0,0-4.87.76c-.18-.38-.35-.77-.5-1.15l-4.3,1.17s-1.75,4-1.75,5.72,4.51,2.88,7.07,1.12a2.76,2.76,0,0,0,.87-.95c1.65-.74,3.19-1.07,4.33-1.88C315.61,353.63,315.43,349.81,313.33,349.87Z"/><path d="M316.28,318.77c-1.6,12.77-1.13,25.06-3.35,34.75a72.17,72.17,0,0,1-12.32.06s1.66-24.64,1.64-31.72c0-8.49,3.18-7.37,3.18-7.37C304.81,308,317.78,306.68,316.28,318.77Z"/><path class="cls-7" d="M313,353.49c2.22-9.7,3.11-34.2,3.11-34.2a10.64,10.64,0,0,1-.24-4.18c.72-8.16-1.29-9.34-2.27,4.26-.86,11.9-2.81,27.32-3.35,34.17C313.4,353.28,311.28,353.9,313,353.49Z"/><path d="M292.73,350.35l-4.67-1.27c-.16.42-.35.84-.53,1.25a18.15,18.15,0,0,0-5.28-.83c-2.28-.06-2.49,4.09-.93,5.2,1.24.88,2.91,1.24,4.7,2a3,3,0,0,0,1,1c2.77,1.9,7.66.68,7.66-1.23S292.73,350.35,292.73,350.35Z"/><path d="M292.88,317.72c-1.08-3.59.62-10.22.62-10.22-1.48-.13-11.47-5.08-11.47-5.08-3.71,0-6.2,1.92-6.2,6.38s2.92,12.76,3.66,17.59,1.74,20.39,1,21.88c-.31.62,1.14,1.28,2.94,1.84,4.65,6.09,11.64,2.76,11.64,2.76S296.59,330.11,292.88,317.72Z"/><polygon class="cls-3" points="318.82 358.91 318.01 358.91 312.01 322.63 315.49 322.63 318.82 358.91"/><polygon class="cls-3" points="277.95 358.3 277.14 358.3 281.6 317.72 284.63 322.02 277.95 358.3"/><path d="M320.26,275.34c4.46-.19,4.58,14.92,5.21,28.63.09,2-6.15,7.36-10.23,8-1.5.23-8.9-1.89-8.9-1.89l10.42-7.38L315.54,293l1.24-9.18Z"/><path class="cls-4" d="M294.13,257.07c-.8-.28-1.49-.88-1.56.43a5.39,5.39,0,0,0,1.46,3.58c.6.47,1.37.52,1.34.29S294.13,257.07,294.13,257.07Z"/><path class="cls-4" d="M310.59,256.8c.76-.38,1.37-1.06,1.6.23a5.49,5.49,0,0,1-1,3.74c-.54.53-1.3.69-1.3.45S310.59,256.8,310.59,256.8Z"/><path class="cls-8" d="M302.69,276.21l-7-2.7s1.93-10,1.93-11l4.7-.38h0l4.62.22c0,1,1.65,9.75,1.65,9.75l-5.93,4.07Z"/><polygon class="cls-5" points="323.88 366.6 322.4 366.6 315.24 321.56 319.06 321.56 323.88 366.6"/><polygon class="cls-5" points="279.63 365.99 278.16 365.99 284.09 320.95 287.85 320.95 279.63 365.99"/><path class="cls-6" d="M320.51,319.21a18.55,18.55,0,0,0-3-2.48c-.46-.31-5.2-4.71-5.2-4.71l-28.72,1.39a15.57,15.57,0,0,0-1.95.56c-.67.25-1,2.09-.93,3.63s1.72,5.26,2.6,6.87c1.12,2,3.23,2,4.71,2h14.25c1.48,0,13.32-.43,17.6-1.18C321.46,325.07,321.69,320.34,320.51,319.21Z"/><path d="M321,280.73s.59-5.08-1.23-5.89c-3.11-1.37-5.46-1-9.92-4.33-.14-.43-.59-1.49-.84-2.23-2.81-2.73-13.38-.1-13.38-.1l-1,2.42c-3.47,1.52-6.9,3.18-9.79,3.75-4.24.82-1.36,12.51-1.36,12.51s5,12.21,4.92,15.41c-.07,2.41-1.83,8-1.83,18.05,0,.65,31.48,0,31.48,0,0-6.5-2-16-2.1-17.89a54,54,0,0,1,1.4-11.1C317.79,290,321,280.73,321,280.73Z"/><path class="cls-9" d="M311.91,253.42c-.34-2.61-1.13-2.61-1.48-3.81s.22-1.19-.93-2.37-5.4-2.14-6.78-2-2.64.45-2.72.76c-.81.12-2.15-.25-2.69.12a9.35,9.35,0,0,0-3.54,4.22,9.65,9.65,0,0,0-.91,5.58c.22,1.43.4,1.52.4,1.52l1.81,5.38s1.13,2.83-.37,2.69c-.52-.05,3.32,3.29,6.39,2.65l0,.15c1.69.09,3,0,3.83-.75.54-.5.72-.5,1.5-.08,1.75.94,4.83-2.3,4.22-2.64-1-.58.56-5.38.56-5.38A16.56,16.56,0,0,0,311.91,253.42Z"/><path d="M280.85,311.77c.75,1.3,3.72,8.74,7.81,8.93s-2.41-16.55-2.41-16.55Z"/><path d="M286.18,275.09c-2.1-.74-2.48,2.85-3.47,5.08s-2.6,9.3-5.2,16c-1.41,3.62-.93,12.08,1.79,12.33s7-.93,9-3.9,3.72-11.65,4-15.12S286.18,275.09,286.18,275.09Z"/><path class="cls-7" d="M283.83,274.84c-1.49.87-1.86,3.73-2.11,5.33s-2.26,12.52-3.75,14.5-1.51,7.47-1,9.95,2,4.37,3.66,4.37,5.67-2.21,6.38-3.78c.16-.37-4.21,3.68-6.51,2.78-.84-.33-2.85-8.61-1.23-11.46s3.34-9.54,3.84-13.38,1.24-6.44,2-7.06S283.83,274.84,283.83,274.84Z"/><path class="cls-6" d="M308.1,282c-2.26,0-4.48-.29-6.49-.22-13.14.5-14.6,4.12-14.41,7.29,1.46,23.26-5.69,28.5-1.51,32.87-.21.57,31.1,1.36,33.58-1.12,4.46-4.46-.81-5.58,1-32.22C320.46,285.62,319.15,281.67,308.1,282Z"/><path class="cls-4" d="M349.26,302.85c-1.64,1.62-1.46,9.78.13,19,1,5.7,4.32,16.07,4.58,19,.4,4.61-.56,6.82-1.92,14.2-.2,1.08,6.84-5.8,7-7.09.29-1.8,1.37-2.73,1-4-.51-1.57-1.65-2.8-1.36-5.7.7-6.94.36-8.62.62-18C359.57,310.54,355.92,296.26,349.26,302.85Z"/><path d="M360.41,343.74c-.46-1.48-4.13-.82-4.88,2.19,0,0-.88,1.84-2.55,5.56a10.54,10.54,0,0,1-.74,1.36c-1.55.14-3.27.4-3.31,1.26a2.77,2.77,0,0,0,1.12,2.41c1,.72,3.68.67,6,0,.65-.19,1.64-3.28,1.64-4.59s1.76-2.48,2.69-3.59S361.1,345.94,360.41,343.74Z"/><path d="M360.78,347.46c-.55,1.21-1.16,4.65-1,9.11a2.93,2.93,0,0,1-1,0s.37-7.44-.18-8.36S360.78,347.46,360.78,347.46Z"/><path class="cls-4" d="M338.35,303.72c-1.63,1.62-1,9.29.63,18.55,1,5.71,4.94,16.45,5.2,19.37.4,4.61-2.18,7.14-1,13.07.22,1.09,1.78.67,3.7-2.78,1-1.75,3.64-5,3.22-6.33a16.77,16.77,0,0,1-1.24-7.06c.7-6.94.8-8.8,1.06-18.15C350.22,310.61,345,297.12,338.35,303.72Z"/><path d="M350.41,344.18c-.47-1.49-4.14-.82-4.88,2.18,0,0-.89,1.85-2.56,5.57a10.67,10.67,0,0,1-.73,1.36c-1.56.14-3.28.39-3.31,1.25a2.73,2.73,0,0,0,1.12,2.41c1,.72,3.68.68,6,0,.65-.19,1.64-3.28,1.64-4.58s1.77-2.48,2.7-3.59S351.09,346.37,350.41,344.18Z"/><path d="M350.78,347.9c-.56,1.2-1.17,4.64-1,9.11a2.86,2.86,0,0,1-1,0s.37-7.44-.19-8.37S350.78,347.9,350.78,347.9Z"/><path d="M344.55,303c-5.7-2.73-10-1.25-10.54.24a51.87,51.87,0,0,0-3.15,10.41c-.23,1.32,13,8.37,13,8.37Z"/><path d="M355.24,271.18c-6.18,3.63-8.77,3.09-11.1,4.3s-2.28,8-2.28,8,3.7,4.82,4,5.88c.22.8,1.87,5.78,1.44,10.13-.31,3.15-3.07,5.19-4.85,11.47-.19.67,20.8-1.42,20.8-1.42l1.86-25.21s-8.8-4-10.12-11.35Z"/><path class="cls-7" d="M368.09,272.54a53.18,53.18,0,0,1,7.94,4.91c2.12,1.53,4.21,24.28,4.21,24.28s-.87,13.76-5.89,4.28c-.19-.35-.36-16.15-.43-16a29.11,29.11,0,0,0-1.62,13c.28,3.15,3.27,4.68,2.89,9.74,0,.5-15.77-4.28-15.77-4.28l-1.16-34Z"/><path d="M343.29,277c-5.59,15.92-5.8,23.14-6.61,27.22-.7,3.54,10,8.19,10,8.19l5.41-9.91s-6.73-.34-6.69-1.24A94.15,94.15,0,0,1,347.36,290C347.68,289,343.29,277,343.29,277Z"/><polygon class="cls-5" points="380.14 367.1 378.66 367.1 371.5 322.06 375.32 322.06 380.14 367.1"/><polygon class="cls-5" points="332.92 366.85 331.45 366.85 337.37 321.81 341.14 321.81 332.92 366.85"/><polygon class="cls-5" points="369.88 359.41 369.07 359.41 363.07 323.13 366.55 323.13 369.88 359.41"/><polygon class="cls-5" points="329.07 358.67 328.27 358.67 332.71 318.09 335.75 322.39 329.07 358.67"/><path class="cls-6" d="M374.54,319.7a18.83,18.83,0,0,0-3-2.47c-.45-.31-5.2-4.71-5.2-4.71l-31.69,1.86a14.87,14.87,0,0,0-2,.55c-.66.24-1,2.1-.92,3.63s2.92,4.74,5.57,6.41c3.7,2.34,14.07,1.9,15.55,1.9h2c1.48,0,16.59.37,20.29-2C376.51,324.05,375.72,320.84,374.54,319.7Z"/><path d="M369.33,303.59c.37,6.07,2.23,14.75-1.23,16.24s-23.05,2.73-28.51-.5c-1-.6-5.52-2.95-5.39-5.14.2-3.36,5.6-7.1,6.63-9.48C342.53,300.79,369.33,303.59,369.33,303.59Z"/><path class="cls-6" d="M346.84,288.35c.86-2.22,9.73-3.93,14.18-4.26,12.77-.94,19.25,1.18,18.47,4.26-5.76,23,.25,28.5-4.21,33-2.48,2.48-42.36,3-37.91.49s6.93-4,7.43-13.38S346.84,288.35,346.84,288.35Z"/><path class="cls-10" d="M351.32,285.51a12.63,12.63,0,0,0,2.38,1.31c.36-1,1.61-4.59,1.51-4.17s-.26,3.26-.34,4.62c.27.09.54.16.81.23l0,0,1.49-4.7-.43,5,.11,0c.33-1.31,1.07-4.17,1.81-6.48,0,.93-.77,5.18-1,6.6a17.6,17.6,0,0,0,1.77.15c.56-3.27.77-15,1-8.61a48.32,48.32,0,0,1-.32,8.62,25.68,25.68,0,0,0,5.93-.74c-.25-2.37-1-9.2-.78-7.75.24,1.65,1.6,7,1.73,7.51l1.09-.32c-.12-.83-.51-3.57-.59-4.1a25,25,0,0,0,1.54,3.79l.15-.05c-.08-.67-.23-2-.38-3.2a10,10,0,0,1-.44-2.4c0-.87.22.66.44,2.4.35,1.27.8,2.53,1,3,.37-.13.73-.27,1.08-.41l.11-1.13.34.95c.38-.15.74-.31,1.07-.46-.26-1-1.24-4.73-.92-4.09s1.41,2.74,1.88,3.66c.74-.35,1.35-.66,1.83-.92-.23-1.1-.74-3.5-1.19-5.51a20.27,20.27,0,0,1-.79-3,14.57,14.57,0,0,1,.79,3,43.45,43.45,0,0,0,1.86,5.14l.45-.26S372.51,266,371.81,260c-1.11-9.67-4.58-12-4.58-12-3-2.42-6.63-.2-7.93-.5-4.34-1-7.66,4.56-8.06,8.92-.74,8.18-1,19.21-2.47,26.89a13.3,13.3,0,0,0,1.49,1.43c.63-1.72,1.9-5.17,2.72-7.25C353,279.94,351.65,284.42,351.32,285.51Z"/><path class="cls-11" d="M354.71,248.7c-4.83,4.09-4.46,18-5.57,20.44s-4,5.7-4.84,5.7c1.86.62,2.73-.24,4-1.11s.24,8.92.5,9.54,4.33-9.54,4.21-26A18.74,18.74,0,0,1,354.71,248.7Z"/><path class="cls-11" d="M366.3,247.39c2.35.75,3.9,4.28,5,9.49s4.15,23.73,5.63,25.59c-3-3.35-3.22-7.69-3.84-9.42,0,0,.44,7.12.81,8.49-1.12-.87-2-6.08-2.36-10.91s-2.31-17.53-2.78-19.58A6.43,6.43,0,0,0,366.3,247.39Z"/><path class="cls-4" d="M210.59,307.07c1-3.1,1-4.77.43-6.26-1.37-3.66-6.62-1.8-9.23.43l-.85,5.15c-2.33,1.57-4.1,12.45-5.34,20.62-.69,4.51-.56,11.34-2.23,17.85a23,23,0,0,1-1.8,4,3.46,3.46,0,0,0,1.05,4.15c.66.42,2.36.5,5.7.87,4.23.79,4.14-4.26,4.14-4.26s-2.62-.41-3.64-.67c-.5-.12-1.24-1.24-.62-3.25C200.81,337.25,210.13,315.71,210.59,307.07Z"/><path d="M192.44,348c3-.93,3.9,2.34,5.26,3.33s3.69-.11,3.6-.54c-.33-1.49-2.91-1.94-2.91-1.94s.16-.14,1.37,0c1.58.23,3.41-.87,3.91,0s-1.2,5.18-2.56,5.8a3.89,3.89,0,0,1-2.88,0,8.06,8.06,0,0,0-2.63-.59s-3,.75-4.28-.19-.62-4.19.31-5.49Z"/><polygon class="cls-3" points="171.24 358.05 172.04 358.05 178.04 321.77 174.56 321.77 171.24 358.05"/><polygon class="cls-3" points="212.1 357.43 212.91 357.43 208.46 316.85 205.43 321.14 212.1 357.43"/><polygon class="cls-5" points="166.18 365.73 167.65 365.73 174.82 320.7 171 320.7 166.18 365.73"/><polygon class="cls-5" points="210.42 365.12 211.89 365.12 205.97 320.08 202.21 320.08 210.42 365.12"/><path class="cls-4" d="M196.09,314.13c1-3.1,1-4.77.44-6.26-1.37-3.66-6.88-2.42-9.48-.19l-.86,5.15c-2.33,1.57-3.23,8.24-3.48,15.42-.16,4.56-.12,9.67-2.6,16.86-.42,1.2-1.91,2.39-2.36,3.22a3.46,3.46,0,0,0,1.05,4.15c.66.43,3.54,1.06,6.88,1.43,4.23.79,4.09-3.17,4.09-3.17a30.3,30.3,0,0,0-3.65-1.54c-.5-.13-1.68.09-1.06-1.92C187.68,338.8,195.63,322.77,196.09,314.13Z"/><path d="M178.62,347.41c2.23-.13,4.49,2.31,5.86,3.31s4.32.46,4.18,0c-.32-.94-3.35-1.69-3.35-1.69s-.27-.05,1.58,0,3.64-1.11,4.14-.24-.73,4.12-2.1,4.74a5.89,5.89,0,0,1-2.5.56c-1.49-.37-4.65-.69-4.65-.69s-3,.75-4.27-.18-.62-4.2.3-5.5Z"/><path class="cls-6" d="M169.55,318.34a19,19,0,0,1,3-2.48c.46-.31,5.2-4.71,5.2-4.71l29.87.53a16.12,16.12,0,0,1,1.95.56c.66.24,1,2.09.93,3.62s-2.87,6.13-3.75,7.74c-1.11,2-3.23,2-4.71,2H187.76c-1.48,0-13.32-.44-17.59-1.18C168.59,324.2,168.37,319.47,169.55,318.34Z"/><path d="M191.26,318.46c1.49,2.24,11,3.65,12.64,1.49,5.2-6.94,7.06-9.78,7.06-9.78s-.25-5.46-1.73-8.44c-1.31-2.62-8.67-3.22-13.88-1.73S191.26,318.46,191.26,318.46Z"/><path class="cls-8" d="M201.3,291.82c1.73,3.47,3,8.3,4.95,9.3s4.09.61,4.09-.38-.06-5.51-1.79-8.73-4.47-11.84-4.47-11.84Z"/><path class="cls-12" d="M182.43,269.11c-2,2.29-7.39,3.81-8.46,5.3s2.95,18.16.83,29.06c-.43,2.22,22.41,4.21,22.41,4.21l3.06-19.33,2.79-13.94a99.24,99.24,0,0,1-9-4.65C191,267.88,182.43,269.11,182.43,269.11Z"/><path class="cls-12" d="M201.89,274.35c1.65,0,1.89-.5,2.83,2s4.76,15,4.76,15-5.6,4.39-7.25,5.39-4.11-9-4.11-10.48S201.89,274.35,201.89,274.35Z"/><path class="cls-12" d="M175.44,273.73c-2.12-.25-3.77,1-4,4s.47,13.63,2.6,14.12,5.42-2.72,5.42-2.72Z"/><path class="cls-6" d="M182,281.13c2.26,0,4.48-.29,6.48-.22,13.14.5,14.61,4.12,14.41,7.29-1.46,23.26,5,28.88.86,33.24.21.58-30.44,1-32.92-1.49-4.46-4.46,2.25-14.5-2.95-30.85C166.93,286.25,170.9,280.81,182,281.13Z"/><path class="cls-13" d="M193.86,268.65c.5,2.48,8.06,5.2,8.06,5.2l-2.48,1.49s-10-4-9.42-6.32S193.86,268.65,193.86,268.65Z"/><path class="cls-13" d="M200.06,276.09c-1.2.24,2.63-3.14,3.84-1.68,2,2.48,6.07,16.42,6.07,16.42l-1.55,1.37S204.08,275.25,200.06,276.09Z"/><path class="cls-14" d="M197.32,253.54a16.48,16.48,0,0,0-.88-4c-1.31-3-5.1-3.27-5.79-2.86,0,0-3.26,19-3.46,20.4-.17,1.13,1.68,1.19,4.05,0,.13,2.24,1.17,3.14,1.51,3.25,1.29.43,6.81-.56,8.81-3.2C199.64,267.39,198.13,257.67,197.32,253.54Z"/><path class="cls-9" d="M191.82,246.49a7,7,0,0,0-4.44-1,10.48,10.48,0,0,0-5.43,1.88h-.06l-.1.12a6.88,6.88,0,0,0-2.37,3.13c-.86,1.5-1,3.62-1.4,7-.64,6,.09,8.65-2.32,10.41,1.45,2.64,14.5,4.88,23.06,1.2,0,0-1.92-2.88-2.67-9.5C195.56,251.4,195.35,248.52,191.82,246.49Z"/><path d="M38,321.07s-.16,25.45.18,31.89c8.65.74,12.5-3.27,12.4-5.18s1.78-26.48,1.94-27.92,3.51-12.09-.38-14.06C39.22,299.24,38,321.07,38,321.07Z"/><path d="M40.32,305.45c5-1.71,16.13-7.49,19.46-7.93,7-.91,12,4.37,11.55,11.39-.65,9.68,2.58,36.69,3.12,39.38-6.31,3.3-13.68,2-13.68,2s-7.44-33.71-5-37.92C57.15,310.12,40.32,305.45,40.32,305.45Z"/><path d="M61.58,348.18c-.88,2.74-1.63,4.19-.79,5.92s4.95,1.1,7.33,0c1.41-.68,4.58.51,6.23.46,3.5-.09,6.52-5.95,3.65-6.19s-6.53.37-7.83-.7S61.58,348.18,61.58,348.18Z"/><path d="M40.89,349.68c-.32,1.75-1.76,3.5-.32,4.62a4.78,4.78,0,0,0,4.62.63c1.75-.48,2.39-1.43,3.34-2.23s3.51-1.27,4.3-2.39,1.32-4.19-.11-4.46c-2-.37-4.46-.12-8.43.87Z"/><path class="cls-4" d="M28.2,252.16c.51,1.67.47,7.79-.17,10.37s-3.73,6.07-3.73,6.07l14.45,2.72s-1.26-9.77,1.43-11.63C41.84,258.55,28.2,252.16,28.2,252.16Z"/><path class="cls-4" d="M41.93,246.46a35.74,35.74,0,0,1,.44,3.6c1,4.59,1.16,10-.65,11.15-2.25,1.4-9.7-.86-12.44-5.2s-2.1-10,2.53-12C36.85,241.79,40.35,241.58,41.93,246.46Z"/><path class="cls-11" d="M42.8,247.21c.92-4.58-11.07-10.51-16.69-4.94a14.11,14.11,0,0,0-1.1,1.55c-.43.5-.77.36-1.2.71-2.7,2.16-1.87,8.3-.22,11,2.1,3.38,2.23,3.75,2,4.68-.45,1.5,10.68.84,10.68.84l1.49-4.65,1.64-1.31,1-2.78.93-1.11a19.34,19.34,0,0,1-.56-3.91C40.78,245.38,42.8,247.21,42.8,247.21Z"/><polygon class="cls-5" points="16.51 364.13 17.98 364.13 25.15 319.09 21.33 319.09 16.51 364.13"/><polygon class="cls-5" points="26.77 356.44 27.58 356.44 33.58 320.16 30.1 320.16 26.77 356.44"/><polygon class="cls-5" points="64.6 355.69 65.41 355.69 60.96 315.12 57.93 319.41 64.6 355.69"/><polygon class="cls-5" points="58.03 365.74 59.5 365.74 53.57 320.7 49.81 320.7 58.03 365.74"/><path class="cls-6" d="M19.14,316.73a19,19,0,0,1,3-2.48c.45-.31,5.2-4.71,5.2-4.71L59,311.4a16.12,16.12,0,0,1,2,.56c.66.24,1,2.09.93,3.62-.1,1.68-2.93,4.74-5.58,6.42-3.7,2.33-14.07,1.9-15.55,1.9h-2c-1.48,0-16.59.37-20.29-2C17.16,321.08,18,317.86,19.14,316.73Z"/><path d="M62.5,308.92c-3,2.73-9.66,6.94-12.39,7.69s-13.38-2.73-14.87-5.95,12.64-7.44,17.11-7.44S62.5,308.92,62.5,308.92Z"/><path class="cls-15" d="M26.2,263.2c-2.42,1.36-4.59,3.34-9.59,6.94,0,0-1.87.1-2.19.86-4.26,10.23,4.06,14.44,3.6,18.47-1.87,16.46,4.72,21.94,5.29,24,.27,1,14.92-1,20.86-.86,3.21,1,10.49-5.27,11.58-6.17.52-1.38-1.43-4.4-3.65-7.21-1.65-2.08-2.48-4.74-2.11-9.23.26-3.29-.77-6,.25-7.87s-.16-11.75-.16-11.75-4.25-2.16-10.31-5.57c-1.49-.84-5.21.37-5.21.37Z"/><path class="cls-15" d="M25.78,262l-2.31,3a78.52,78.52,0,0,1,8.16.05c4.76.44,9.72,1.07,9.72,1.07l-1.07-3s-1.94-.83-8.88-1.26A54.34,54.34,0,0,0,25.78,262Z"/><path class="cls-15" d="M48.13,269.76c3.47-2,5.75,4.87,7.44,11.34a69.36,69.36,0,0,0,3,8.74c1.68,4.27.74,8.18-.93,9.48-2.89,2.25-8.18,0-11.53-5.95S48.13,269.76,48.13,269.76Z"/><path class="cls-16" d="M49.34,269.67A7.94,7.94,0,0,0,46.46,272s-.84-3.21-9.73-4.21c-14.71-1.64-20.12,2.36-20.12,2.36s6.15-5.39,7.64-5.39,9.44-1.12,16.63.83a51.84,51.84,0,0,1,6.41,3.16Z"/><path class="cls-16" d="M53.06,273.85c-.25,3.47-2.93,7.34-2.7,7.32,1-.14,3.81-3,3.81-3a5.84,5.84,0,0,1,0,1.86c-.09.89-.55,3.81-1.33,4.65s2.26-2.48,2.26-3.72S53.06,273.85,53.06,273.85Z"/><path class="cls-6" d="M46.83,285.38c-.86-2.22-9.73-3.93-14.18-4.26-12.77-.95-19.24,1.18-18.47,4.26,5.76,23.05-.25,28.5,4.21,33,2.48,2.48,42.36,3,37.91.5s-6.93-4-7.43-13.39S46.83,285.38,46.83,285.38Z"/><path class="cls-10" d="M27.78,242c1.11-.75,4.46-.19,5.11,1.34.72,1.71-.19-1.34-.19-1.34a2.62,2.62,0,0,1,1.35,2.46c1.67-1.12.51-2,.51-2l1.12,2,1.3-.93s3,1.4,1.67,3.07c3.63-1.76.93-3.53.93-3.53A6.61,6.61,0,0,1,43,247.4c1.3-2.42-.44-5.44-4.34-7.1-3.07-1.3-4.09-.65-4.09-.65s-4.83-.56-7.9,2.23A8.38,8.38,0,0,0,25,243.82Z"/><path class="cls-4" d="M39.58,250.8c-1.49-.18-2.6.93-1.49,3.35s2,2.79,3,2S39.58,250.8,39.58,250.8Z"/><path class="cls-4" d="M96.21,298.33c2,1.21,3.61,9.21,4.13,18.59.33,5.78-.61,16.63-.21,19.54.64,4.58,2.07,6.52,5.05,13.4.44,1-8-4.11-8.45-5.33-.69-1.69-1.94-2.35-1.82-3.69.14-1.65,1-3.1,0-5.86-2.24-6.61-2.28-8.33-4.62-17.38C87.88,308.13,88.24,293.39,96.21,298.33Z"/><path d="M94.49,340.68c.12-1.55,3.84-1.73,5.24,1,0,0,1.28,1.6,3.74,4.84a10.3,10.3,0,0,0,1,1.17c1.55-.21,3.28-.35,3.5.48a2.72,2.72,0,0,1-.55,2.6c-.8.93-3.43,1.48-5.87,1.34-.68,0-2.33-2.83-2.62-4.1s-2.28-2-3.43-2.9S94.31,343,94.49,340.68Z"/><path d="M95,344.39c.81,1.05,2.17,4.27,3,8.65a2.84,2.84,0,0,0,1-.21s-2-7.17-1.69-8.2S95,344.39,95,344.39Z"/><path class="cls-8" d="M113.79,303.61c1.14,2-1.62,9.2-5.69,17.67-2.5,5.22-9.27,14.46-10.31,17.2-1.65,4.32.13,7.46-2.67,12.83-.51,1-1.88.16-2.78-3.69-.45-1.94-2.12-5.84-1.36-7a17,17,0,0,0,3.13-6.45c1.23-6.87,1.64-8.69,4-17.74C100.49,307,109.2,295.45,113.79,303.61Z"/><path d="M91.1,339.21c.86-1.3,4.2.35,4.09,3.44,0,0,.34,2,.93,6.05a10.84,10.84,0,0,0,.33,1.52c1.46.56,3,1.27,2.84,2.11a2.75,2.75,0,0,1-1.74,2c-1.15.42-3.72-.36-5.78-1.66-.58-.37-.68-3.61-.32-4.86s-1-2.87-1.61-4.2S89.84,341.13,91.1,339.21Z"/><path d="M89.72,342.68c.21,1.32-.16,4.79-1.56,9a2.93,2.93,0,0,0,.94.27s1.68-7.25,2.47-8S89.72,342.68,89.72,342.68Z"/><path d="M99.06,298.64c5.7-2.73,13.63-.25,14.13,1.24a73.45,73.45,0,0,1,2.14,9.79c.23,1.32-13,8.36-13,8.36Z"/><path d="M90.2,267.47c6.18,3.62,8.77,3.08,11.1,4.3s2.28,8,2.28,8-3.7,4.82-4,5.87c-.22.8-1.87,5.78-1.44,10.13.31,3.16,3.07,5.2,4.84,11.47.2.68-20.79-1.42-20.79-1.42L80.33,280.6a18.32,18.32,0,0,1-1.71-12.2Z"/><path d="M78.65,268.82a53.75,53.75,0,0,0-7.93,4.91C68.59,275.26,66.5,298,66.5,298s.87,13.75,5.89,4.27c.19-.35.36-16.15.43-16a29.3,29.3,0,0,1,1.62,13c-.27,3.14-3.27,4.67-2.89,9.73,0,.5,15.78-4.28,15.78-4.28l1.88-36Z"/><path d="M102.87,274.69c5.59,15.93,7,24.26,4.56,26.12-2.86,2.2-6-4.62-6.42-5.4a28.35,28.35,0,0,1-2.93-9.18C97.76,285.32,102.87,274.69,102.87,274.69Z"/><polygon class="cls-5" points="65.3 363.38 66.78 363.38 73.94 318.34 70.12 318.34 65.3 363.38"/><polygon class="cls-5" points="112.52 363.14 113.99 363.14 108.07 318.1 104.3 318.1 112.52 363.14"/><polygon class="cls-5" points="75.57 355.69 76.37 355.69 82.37 319.41 78.89 319.41 75.57 355.69"/><polygon class="cls-5" points="116.37 354.95 117.18 354.95 112.72 314.38 109.69 318.67 116.37 354.95"/><path class="cls-6" d="M70.9,316a19,19,0,0,1,3-2.48c.46-.31,5.21-4.71,5.21-4.71l31.69,1.86a13.78,13.78,0,0,1,2,.56c.67.24,1,2.09.93,3.62s-2.92,4.74-5.57,6.41c-3.7,2.34-14.07,1.9-15.55,1.9h-2c-1.48,0-16.59.38-20.29-2C68.93,320.34,69.72,317.12,70.9,316Z"/><path d="M76.11,299.88c-.37,6.06-2.24,14.74,1.24,16.23s23,2.73,28.5-.5c1-.6,5.52-2.95,5.39-5.14-.2-3.36-5.6-7.1-6.63-9.48C102.91,297.07,76.11,299.88,76.11,299.88Z"/><path class="cls-6" d="M98.6,284.64c-.86-2.23-9.73-3.94-14.18-4.27-12.77-.94-19.24,1.18-18.47,4.27,5.76,23-.25,28.5,4.21,33,2.48,2.48,42.36,3,37.91.5s-6.93-4-7.43-13.39S98.6,284.64,98.6,284.64Z"/><path class="cls-17" d="M97.85,251.46a10.09,10.09,0,0,1,.85,4.37,7,7,0,0,0,.64,3.49c.45.74.19,3.15,0,4.1s-1,.9.08,1.82,1.37,1.13.44,2-.21,1.08.44,1.69-.07.64-.06,1.11c0,2.11,2.18,1.7,2.18,1.7s-4.83,2-4.65-.65c.34-5-1.36-4-1.36-4s-1.57.67-1.61-1.07.59-2.08-.53-2.68-1.75,0-2.36-1.47-3-.21-1.51-2.78.54-2.82,2-6.65,2.09-5.76,2.9-5A25,25,0,0,1,97.85,251.46Z"/><path class="cls-18" d="M100.13,279.62c-.47-.47.27-.45.18-1.19a7.43,7.43,0,0,0-.65-1.95c-.3-.81.25-.87.25-1.73,0-.47-1.13-.12-.62-1.92.38-1.32-.51-1.25-.67-1.65s.06-.89.25-2a10.52,10.52,0,0,0-.75-3.14,1.2,1.2,0,0,0-.13-1.4c-.61-.63.46-1.34.3-2.49a14.48,14.48,0,0,0-.25-1.67.64.64,0,0,0-.09-.21c0-.49,0-1,0-1.48.35-.76,0-2,.13-2.5a6.92,6.92,0,0,0-.12-2s-.56-.72-.41-1.22a6.36,6.36,0,0,0-.93-3.09,6.83,6.83,0,0,0-1-2.39c-3.08-3.25-5.5-1.58-5.5-1.58-2.41-.56-4.14-1.14-7.49,1.28a3.85,3.85,0,0,0-.35.35c-2.2.91-4.25,3.65-4.24,4.33s-1.2,1.61-1.2,1.61a9.82,9.82,0,0,0-1,2.79c0,.8-1.25,2.6-.91,3.86s-.6,1.74-.91,2.23a22.71,22.71,0,0,0-1.13,2.32c-.76,1.61.63,3.06-.62,3.72s-.94,2.18-.44,3.28-2.29,2.11.25,3c1.17.4-3.82,1.38.68,4.21.12.08,1.31-.83,1.42-.81.93.72-2-.37-.24,3,.26.53,2.6.54,3.41,1.92,1.11,1.92,3.16,1.18,4.08.44s.83-.16,1.18.37c.87,1.3,2.62.73,3.47.31,1.12-.56,1.55,1.11,2.85.93s.5-.74,2.17-1.12.81,1.55,2.54-.43c.66-.75,1.61.87,2.91-.81a3.56,3.56,0,0,0,1-2.88,5.59,5.59,0,0,0,.82,1.11,2,2,0,0,0,2.38-.49C101,280.05,100.62,280.1,100.13,279.62Z"/><path class="cls-17" d="M73.42,275.22h0l.18.23C73.61,275.34,73.59,275.26,73.42,275.22Zm25.43,1.71c-.42-.44.24-.42.16-1.09a7.15,7.15,0,0,0-.57-1.8c-.27-.75.21-.8.22-1.59,0-.43-1-.11-.55-1.77.34-1.21-.45-1.14-.58-1.52s0-.81.21-1.81a10,10,0,0,0-.66-2.88,1.14,1.14,0,0,0-.11-1.29c-.54-.58.4-1.23.26-2.28s-.14-1.21-.22-1.54a.8.8,0,0,0-.07-.2c0-.44,0-.89,0-1.35.31-.7,0-1.86.11-2.3a6.5,6.5,0,0,0-.09-1.81s-.5-.66-.37-1.12a6.08,6.08,0,0,0-.81-2.84,8.77,8.77,0,0,0-.93-2.47c-2.71-3-5.29-1.3-5.29-1.3-2.13-.51-4.67-1.11-7.8,1.55-.1.09,1.56-.71,1.45-.6S81.87,248,81.8,248c3.92-2.75,6-.87,6.2-.84,0,0,1-1.52,3.93,1.21a6.58,6.58,0,0,1,1.06,2.1,6.14,6.14,0,0,1,1.06,2.76c-.1.47.46,1.08.46,1.08a6.75,6.75,0,0,1,.25,1.78c-.09.46.33,1.58.09,2.31.05.46.09.9.13,1.35l.09.18c.11.33.12.48.35,1.52s-.65,1.77-.07,2.3a1.12,1.12,0,0,1,.23,1.27,10.43,10.43,0,0,1,.91,2.81c-.09,1-.24,1.46-.07,1.82s1,.22.72,1.46c-.31,1.69.66,1.28.7,1.71.06.78-.42.89-.09,1.61a6.86,6.86,0,0,1,.73,1.72c.13.67-.52.72-.06,1.11s.82.32.55.88l0,0a1.09,1.09,0,0,0,.4-.36C99.64,277.32,99.28,277.37,98.85,276.93Zm-24.72-4.41c-2.23-.79.23-1.72-.22-2.73s-.72-2.41.39-3-.12-1.95.54-3.42a23.58,23.58,0,0,1,1-2.14c.27-.44,1.11-.89.8-2s.82-2.81.8-3.54a9.1,9.1,0,0,1,.92-2.57s1.08-.75,1.06-1.48,2.62-4,4.47-5c-1.42,0-2.44,1.08-3.38,1.92a3.55,3.55,0,0,0-.27.35,8.73,8.73,0,0,0-3.36,5c.07.73-1.31,2.13-1.31,2.13a7.88,7.88,0,0,0-.32,2.09c.08.72-.89,2.48-.49,3.6s-.39,1.65-.62,2.12a22.68,22.68,0,0,0-.81,2.22c-.53,1.53.8,2.75-.24,3.45s-.65,2.08-.12,3-1.81,2.11.41,2.69C72.13,273.5,75,272.83,74.13,272.52Z"/><rect class="cls-3" x="169.57" y="123.19" width="152.02" height="109.85"/><rect class="cls-19" x="176.36" y="128.77" width="138.44" height="98.69"/><path class="cls-8" d="M287.25,172.14a2.44,2.44,0,0,0-1.28.05,2.9,2.9,0,0,1,.77-.5,1.81,1.81,0,0,0,.65-1.68c-.19-.46-1,.39-1.32.64s-2.57.89-3,1.07a34.77,34.77,0,0,0-2.5,2.51,56.16,56.16,0,0,1-8.31,3.54,37.39,37.39,0,0,0,1.53,4.51c.21-.07,8.15-4.17,8.44-4.31s2.4-.6,2.93-.78a9.43,9.43,0,0,0,1.76-1S287.51,172.35,287.25,172.14Z"/><polygon class="cls-20" points="279.37 179.05 281.88 177.92 284.67 177.29 286.19 176.48 286.5 175.93 286.79 173.18 285.8 172.07 278.51 176.65 279.37 179.05"/><path class="cls-8" d="M285.62,176.53l-1.11-.12a.78.78,0,0,1-.73-.49c-.1-.21.37-.46.69-.45h1.08a2.18,2.18,0,0,1-.65-.13c-.58-.24-1.11-.5-.9-1s1.26,0,1.68,0c-.35-.1-1.41-.6-1.24-1s1.47-.26,1.58-.27a3.61,3.61,0,0,0,.61-.23,4.92,4.92,0,0,1-1.05-.23c-.15-.1-.22-.35-.05-.64s1.18-.35,1.39-.36,1-.45,1.25-.46.38.86.42,1.07-.48.36-.48.57.15.81-.06,1.07-.58.6-.58.6a3.34,3.34,0,0,1-.18.93c-.17.46-.53.4-.52.68S285.62,176.53,285.62,176.53Z"/><polygon class="cls-2" points="277.75 174.68 279.73 173.93 281.84 180.75 279.36 182.73 277.75 174.68"/><path d="M263.38,162.41a4.14,4.14,0,0,1,2.23,2.41c.18,1.12,4.95,9.86,5.32,11s1.06.93,2,.74,6.07-2.6,6.07-2.6,1.11,7.81,2.79,9.11c-6.88,2.79-11.34,4.27-12.64,3.9s-7.07-7.25-7.25-9.11S263.38,162.41,263.38,162.41Z"/><path class="cls-8" d="M213,192.89a22.48,22.48,0,0,1-2.93.34c-.73,0-1.68.82-2.94,1-.46.05-.92.52-.42.75s1.3-.05,2,.08c.9.16-1.14,1.69-1.7,2.06s-3,2.65-2.75,2.95c.53.56,3.18-2.34,3.34-2.06s-3.26,2.8-2.87,3.08c.84.59,3-2,3.66-1.89,0,0-.63.56-1.32,1.15s-1.37.94-1.36,1.16c0,1.54,3.56-2.54,3.82-1.91s-2.17,2.09-1.62,2.45c.27.18,2.83-2.1,2.83-2.1a45.93,45.93,0,0,0,5.24-3.65,18.12,18.12,0,0,1,3.66-1.88l-3.38-3A12.45,12.45,0,0,1,213,192.89Z"/><path class="cls-2" d="M214.35,191.24l-1.85,1.43s3.45,4.92,3.78,5.67l2.69-2Z"/><path d="M230.29,162c1.78-2.53,3.33-1.72,4.46-.12,1.35,1.93.74,8.68-.25,11.78-.9,2.8-1.24,9-3.47,13.62s-12.9,13.58-13,12.89c-.35-2.19-3.85-7.35-4.59-8.43,3.1-2.91,9.91-9,10.35-10C225.21,178.45,230.29,162,230.29,162Z"/><path class="cls-6" d="M243.72,156.78c.32-.69.6-1.25,1.35-1.16s8.27,1.35,8.5,2.7-1.67,2.69-2.93,2.88S243.72,156.78,243.72,156.78Z"/><path class="cls-4" d="M252.94,154.83a8.19,8.19,0,0,0,.11,5c.56,1.51-1.89,3.83-2.8,3.76s-6.1-4.86-6.1-4.86.91-5.73,1.12-7.07S252.94,154.83,252.94,154.83Z"/><path class="cls-21" d="M253.27,155.53A13.76,13.76,0,0,0,253,158c-.85,1.05-6.73,5.16-8.18,5-1.21-.11-.19-2.25-.89-3.13.27-1.21,1.31-8.21,1.33-8.5Z"/><path class="cls-22" d="M259.33,172.38l1.39-9.73-6.76-4c-.41.52-2.34,3.5-3.58,3.37s-.67,2.15-.67,2.15l.71,28.63,8.2-.09s1.1-1.26,1.1-6.62C259.72,184.47,260,176.79,259.33,172.38Z"/><path class="cls-6" d="M251.39,185.16c-.13-8.61-.85-22.46-2.15-23.11-1.12-.55-4.91-3.07-5.32-4l-.34-.58c-3.62,1.3-7.3,2.29-8.71,2.29,0,0,1.92,9.9,2.23,13.11.38,3.88-.44,11.73-.67,15.44a10.12,10.12,0,0,0,1.09,4.45s10.17.45,13.41,0C251.85,192.69,251.48,190.06,251.39,185.16Z"/><path d="M249.26,267.82c-.11-1.45.75-2.38.1-9.86-.08-.9,6.71-1.21,6.71-1.21-.3,3.68-1.27,6,2.29,10.4.77,1,3,2.74,3.81,3.53.56.56,1.21,3.13-2.14,3.13-4.21,0-7.44-1.27-8.5-3.26-.09-.17-.36-.11-.36-.11S249.53,271.61,249.26,267.82Z"/><path d="M244.6,195.58a64.83,64.83,0,0,1-1.76,10.23,15.3,15.3,0,0,1-4.37,1.21c-3.73.59-8.64-2.13-8.64-2.42,0-7.43,3-13.51,3.06-16.91.08-2.63.5-9.78.13-10.91s-1.45-11.46-.93-14c.23-1.1-1-2.3.06-2.51a36.56,36.56,0,0,0,10-2.88s-.94,6.25,0,8.08,1.07,9.76,1.69,11.65C244.18,178.28,245.05,189.05,244.6,195.58Z"/><path d="M237.94,262.29l-6.38-.87s-.09.61-.59,2.82a15.45,15.45,0,0,1-4.27,7.43,3.37,3.37,0,0,0-.83,3.07v.5s.37,1.92,1.67,1.92,6.66-.87,7.31-1.8a1.93,1.93,0,0,0,.36-1.16c0-.05.06-.09.08-.14s.56-2.23,1.3-2.05a3.18,3.18,0,0,0,.52-3.31C236.36,266.65,237.94,262.29,237.94,262.29Z"/><path d="M259.54,192.15c0,.67,1.22,3.21,1.23,3.84.2,6.89,0,9.58,0,11.4,0,2-.49,24-2,29s-1.73,23.29-.74,24.78.74,5.33.74,5.33-10.29.87-10.53,2.85a58.9,58.9,0,0,1-.62-6.44c-.49-8.59-.25-11.1.31-26,.11-3-.44-19.64-.44-22.61,0-2.22-4.21,21.06-6.19,28,0,0-3.28,14.68-2.45,21.07.75,5.76-1,7.25-1,7.25s-6.2-3.19-9.67-1.21a19.83,19.83,0,0,1,.1-5.79c.55-4.46,1.33-14.86,1.88-21.13.66-7.41,2.86-25.47,3.35-34.39s3.2-13.21,4.21-15S259.54,192.15,259.54,192.15Z"/><path class="cls-7" d="M259.54,207.88c-.38,10.17-3.41,25.72-4.53,30.18s.37,2.79-.18,5.39-.38,15.8-.38,16.73-5.39,2-4.27,2.79,5.2-.56,5.2,0-3.16,1.67-3.16,1.67,6.32.37,6.7.18-.25-1.79-.5-3.77-1.74-15.37-.25-20.2,2.91-29.06,2.36-32.22S259.54,207.88,259.54,207.88Z"/><path class="cls-7" d="M248,211.29c-2,4.09-6.32,25.1-7.25,28.07a23.59,23.59,0,0,1-3.22,6.57c-.74.93-4.93,15.8-4.37,18.4,1.86.19,3.72-.18,3.9.74s-4.83.56-4.83.56L238.5,269s.37-3.16.37-5.58.4-13.82,2.26-19.77,2.05-9.85,2.79-15S248,211.29,248,211.29Z"/><polygon class="cls-7" points="237.67 190.89 231.56 192.93 231.43 196.15 237.54 194.75 237.67 190.89"/><path class="cls-7" d="M244.41,182.39c.56,3.9,0,18.45-.27,21.1-.35,2.85-1.72,3.62-4.31,4-3.72.5-9-2.17-9-2.17s9.77,3.05,11.46.56C244.91,202,244.41,182.39,244.41,182.39Z"/><path class="cls-7" d="M263.93,188.24c-.55-4.46-1.11-14.68-.55-17.47s1.3-7.62,0-8.36c-.09-.06-3.67-1.46-8.37-3.72l.19,4c1.11,12.58,2,19.28,2,19.28l1.72,9.46c.43,4.77.84,8.77,1.07,9.68.56,2.23,1.49,4.55,3.53,4.65a18.21,18.21,0,0,0,3.72-.56S264.49,192.71,263.93,188.24Z"/><polygon class="cls-2" points="252.74 192.49 250.39 161.15 248.02 161.18 247.2 161.66 249.11 163.52 249.09 189.89 252.74 192.49"/><polygon class="cls-23" points="255.32 189.95 251.59 163.32 252.39 161.9 251.99 160.9 250.04 161.18 250.32 163.41 250.33 163.41 252.74 192.49 255.32 189.95"/><path class="cls-6" d="M253.12,157.57c.11,1.11-1.36,3.21-1.73,3.39.51.19,2.18,3.49,2.18,3.49l1.67-4.46S253.07,157.11,253.12,157.57Z"/><path class="cls-22" d="M244.18,156c0,.83,3.27,4.29,5.86,5.23a23.13,23.13,0,0,0-4.57,3.46c-2.23-2.42-3.83-6.43-3.47-6.69A28.54,28.54,0,0,0,244.18,156Z"/><path class="cls-7" d="M243.61,156.09c0-.13-3.48,1.85-3.48,1.85l-1,2.92,2.52.7-3.46,2L244.29,180s-1.06-17.88-1.48-20A4.35,4.35,0,0,1,243.61,156.09Z"/><path d="M253.45,157.78c.32.1,3.78,2.13,3.78,2.13l.84,2.15-2.51.31,2.59,1.34-1,17.16s-2.71-18.28-2.76-20.45A3.58,3.58,0,0,0,253.45,157.78Z"/><polygon points="261.89 190.85 265.42 192.33 265.79 196.42 262.07 194.19 261.89 190.85"/><path class="cls-9" d="M243.41,145.72c-.18,1.19.41,5.64.34,5.87s-.24,1-.47.93,1.25,1.45,1.69,1.11,1.86-6,1.7-6.33S243.41,145.72,243.41,145.72Z"/><path class="cls-8" d="M255.77,152.32c.8-2.15,1.51-5.46.8-7.91-.48-1.57-3.84-3.21-4.66-3.28-5.09-.43-5.6,2.76-5.93,6.07-1.09-.78-1.68.3-1.7,1.62a3.17,3.17,0,0,0,1.05,2.59c.14,2.88,1.86,5.2,5.41,5.89a2.81,2.81,0,0,0,1.73-.19,3.74,3.74,0,0,0,1.92-1.76A22.38,22.38,0,0,0,255.77,152.32Z"/><path class="cls-9" d="M246.1,140.46c.49-.77,3-.21,2.83.41l1.23.11c.14-1.17-1.44,1.86-1.4,2.12-2.94-.19-1.47,3.5-1.81,4a1.81,1.81,0,0,0-.4,1.23l-.66-.38-.65-1.16-1.58,1.15S242.16,141.74,246.1,140.46Z"/><path class="cls-14" d="M256.38,141.65c-1.07-.86-5-3.33-7-2.23s-1.14,1.42-1.14,1.42l.56,2.26c.78-1.43,2.45.09,3,.83a5.13,5.13,0,0,0,4.74,1.75c.48.74,0,4.13,0,4.13l.57-.27a6.78,6.78,0,0,0,.95-3.11,9.82,9.82,0,0,0-.17-1.08C258.76,144.26,257.46,142.52,256.38,141.65Z"/><path class="cls-14" d="M256.2,151.17a14.49,14.49,0,0,1-1.22,5c-.68,1-2.84,3.26-4,3.2-.56-1,.42-4.43.42-4.43a3.64,3.64,0,0,0,3-.71A7,7,0,0,0,256.2,151.17Z"/><path class="cls-14" d="M253.14,152.57c.54.12,1.16,1.76,1.22,2.39s-1.82-1.44-2.34-1.26v-1.32Z"/><path class="cls-9" d="M252,152.38s-1.16-.13-1.63.29-1.7,1.67-1.7,1.67.57.58,1.82-.25a2.78,2.78,0,0,1,1.51-.39Z"/><path class="cls-9" d="M246.22,145.64a31.68,31.68,0,0,0,1.28,7.13c.64,1.51,3.58,2,4.19,2.25a40.49,40.49,0,0,1-.63,4.41,6.36,6.36,0,0,1-4.42-3.36,9.88,9.88,0,0,1-1.3-4.07C245.47,150.64,246.22,145.64,246.22,145.64Z"/><path d="M131.4,314.75s0,23.3.38,29.74c8.65.73,15.28,1,15.18-.92s-1.2-22-1-23.46,3.5-12.09-.38-14.07C132.65,299.48,131.4,314.75,131.4,314.75Z"/><path d="M135.74,306.94c5-1.72,18.61-5.89,21.94-6.32,7-.92,10.53,2.9,9.07,9.77-1.64,7.7-18.46,30.57-17.13,33.73-6.31,3.3-13.68,2-13.68,2s10-26.23,10.59-28.79S135.74,306.94,135.74,306.94Z"/><polygon class="cls-5" points="111.93 365.62 113.4 365.62 120.57 320.57 116.75 320.57 111.93 365.62"/><polygon class="cls-5" points="156.17 365.37 157.64 365.37 151.72 320.33 147.95 320.33 156.17 365.37"/><polygon class="cls-5" points="122.19 357.92 123 357.92 128.99 321.64 125.52 321.64 122.19 357.92"/><polygon class="cls-5" points="162.99 357.18 163.8 357.18 159.35 316.61 156.32 320.9 162.99 357.18"/><path class="cls-6" d="M117.53,318.21a18.84,18.84,0,0,1,3-2.47c.46-.31,5.21-4.71,5.21-4.71l31.69,1.86a13.78,13.78,0,0,1,1.95.56c.67.24,1,2.09.93,3.62s-2.92,4.74-5.58,6.41c-3.7,2.34-14.07,1.91-15.55,1.91h-2c-1.48,0-16.6.37-20.3-2C115.56,322.57,116.35,319.35,117.53,318.21Z"/><path class="cls-7" d="M141.47,253l0,2.86a2.47,2.47,0,0,0,2,.2c.84-.43,1-1.69,1.06-2.32S142.19,252.69,141.47,253Zm1.84,2.89a2.21,2.21,0,0,1-1.78-.18l0-2.53c.64-.27,2.75.1,2.69.66S144.05,255.5,143.31,255.89Z"/><path class="cls-4" d="M126.6,253.65c.51,1.67.47,7.79-.18,10.37s-3.73,6.07-3.73,6.07l14.45,2.72s-1.26-9.77,1.43-11.63C140.23,260,126.6,253.65,126.6,253.65Z"/><path class="cls-4" d="M143.3,252.29c0,1.39-.44,1.28-.61,2.64-.06.46.18,1,.1,1.45-.66,3.81-1.82,7.18-3.58,7.62-2.57.65-9.92-3-11.21-8s3.13-10.9,8.14-11.41C141.61,244.07,143.28,247.17,143.3,252.29Z"/><path d="M124.59,264.68c-2.42,1.37-4.77,4.4-8.84,5.46,0,0-1.87.1-2.19.86-4.26,10.23,3.31,15.92,2.85,19.95-1.87,16.47,4.72,21.95,5.29,24,.27,1,6.08,2.27,12,2.37,3.22,1,16.65-3,17.74-3.87.52-1.38-.67-4.49-1.51-8-2.1-8.7-.81-8.44-.44-12.93.27-3.3,3.72-3.66,4.74-5.52s-4.43-16.54-4.43-16.54a36.64,36.64,0,0,1-11.65-4.18c-1.49-.84-5.21.37-5.21.37Z"/><path class="cls-2" d="M125.61,262.05c.45.23,7.59,2.39,11.93,1.95.65.83-.12,2.88-.12,2.88s-12.92-1.7-13.29-2.23S125.61,262.05,125.61,262.05Z"/><path d="M124.59,263.07l-2.73,3.35a55.68,55.68,0,0,1,7.38.83c4.62,1.21,10.5.28,10.5.28l-1-2.6a33.57,33.57,0,0,1-9.48-.78C127.36,263.73,124.59,263.07,124.59,263.07Z"/><path d="M160.9,310.41c-3,2.73-9.67,6.94-12.39,7.68s-13.39-2.72-14.88-5.94,12.64-7.44,17.11-7.44S160.9,310.41,160.9,310.41Z"/><path d="M149.59,270.41c2.7-.09,3.22,5.74,5,11.37,1.92,6.09,4.58,12.66,4.58,14,0,2.6,1.31,9.91-2,9.41-5-.74-7.31-5.45-10.65-11.39S149.59,270.41,149.59,270.41Z"/><path class="cls-9" d="M144.79,244.24c-1.74,2.11-10.35-8.18-16.85-2.3-.62.56-.46,1.09-.62,1.18s-.54.11-1.06.31c-3.22,1.24-3.69,6.37-2.93,9.43,1,3.85,3.31,6.18,2.69,8.29-.45,1.5,9.47,1.92,9.47,1.92s3-4.43,2.67-5.3c-1.21-3.34.47-5.18,1-3.62a12.93,12.93,0,0,0,.49,1.3l.45.33s0-4.51,1.68-5.22C144.42,249.44,144.79,244.24,144.79,244.24Z"/><path class="cls-14" d="M138,241.54c1.61.76,4.25,2.85,5.46,2.2a4,4,0,0,1-2.08.22s2.17.74,3,0a1.78,1.78,0,0,1-1.67,1.08s1.95,0,2.6-1.3c-.75,2.32-.65,2.26-2,1.95-1.9-.45-4.8-3.78-7.9-5C134.68,240.35,136.18,240.65,138,241.54Z"/><path class="cls-14" d="M141.13,246c1.3.81,3.85,1.67,4.59-.74-.68.68-3.84,1.36-5.52-.37S141.13,246,141.13,246Z"/><path class="cls-7" d="M138.73,253.52s4.89.73,5.53.51c.41-.14-.28,1.11-.28,1.11l-4.8-1Z"/><path d="M140.75,340.93c-.41-2.55-4.05-3.09-5.36-2.34-1.67,1-2.22,4.42-1.86,7,.21,1.55-1.88,4.21-2.34,5.79-.37,1.26-.51,3.51,1.27,4.3a16.65,16.65,0,0,0,5.7,1.69c1,.16,2.06.5,2.29-.69a60.25,60.25,0,0,0,.37-7.68C140.86,347.35,140.75,340.93,140.75,340.93Z"/><polygon class="cls-7" points="133.68 343.83 139.36 344.71 139.07 345.83 133.5 345.18 133.68 343.83"/><path class="cls-7" d="M134.28,340.85c1-.82,5.76-.3,5.86,1.3.56-1.66-.69-3.2-3-3.43A2.61,2.61,0,0,0,134.28,340.85Z"/><path class="cls-7" d="M140.7,341c-2.23-1.3-5,1.18-5.21,2.67-.31,1.89,2,4.51,4.27,5.89,1.34.82,2.07,4.13,3,5.48,2,2.88,11.42,1.84,11.19-1-.2-2.45-2-3.68-6.94-7.93C145.74,345,140.7,341,140.7,341Z"/><polygon points="138.47 348.33 142.75 344.49 143.43 345.42 139.4 349.32 138.47 348.33"/><path d="M136.55,346c0-1.3,3.41-4.65,4.71-3.72-.93-1.49-2.92-1.49-4.59.18A2.63,2.63,0,0,0,136.55,346Z"/><path class="cls-6" d="M145.22,286.86c-.86-2.22-9.73-3.93-14.17-4.26-12.78-.94-19.25,1.19-18.48,4.26,5.76,23.06-.25,28.51,4.21,33,2.48,2.48,42.36,3,37.91.5s-6.93-4-7.42-13.39S145.22,286.86,145.22,286.86Z"/></g></g></svg>