<svg id="Layer_1" data-name="Layer 1" xmlns="http://www.w3.org/2000/svg" viewBox="0 0 3000 2000"><defs><style>.cls-1{fill:#ebf3fa;}.cls-2{fill:#233862;}.cls-3{fill:#2b478b;}.cls-4{fill:#ffb27d;}.cls-5{fill:#d86713;}.cls-6{fill:#e2915a;}.cls-7{fill:#ba550f;}.cls-8{fill:#9b5129;}.cls-9{fill:#e5bd9e;}.cls-10{fill:#b27f5d;}.cls-11{fill:#916140;}.cls-12{fill:#c6916d;}.cls-13{fill:#b27d59;}.cls-14{fill:#fff6ee;}.cls-15{fill:#f8fbff;}.cls-16{fill:#c1e0e4;}.cls-17{fill:#a8d29f;}.cls-18{fill:#ffc6c5;}.cls-19{fill:#365da4;}.cls-20{fill:#e57970;}.cls-21{fill:#ffa49f;}.cls-22{fill:#82b378;}.cls-23{fill:#2e3552;}.cls-24{fill:#e0b594;}.cls-25{fill:#d3a07d;}.cls-26{fill:#3f65b2;}.cls-27{fill:#4365aa;}.cls-28{fill:#f9ddbf;}.cls-29{fill:#c7dcf9;}.cls-30{fill:#ffebd9;}.cls-31{fill:#edbe9d;}.cls-32{fill:#b2443b;}.cls-33{fill:#efa26f;}.cls-34{fill:#ffc197;}.cls-35{fill:#efcbab;}.cls-36{fill:#739af0;}.cls-37{fill:#fcecdb;}.cls-38{fill:#f99746;}.cls-39{fill:#ffbf8f;}</style></defs><path class="cls-1" d="M445.49,1720.35S228.28,1442.6,290.62,1046.08C347.51,684.19,804,457.45,1060.35,627.87c124,82.44,234.15-210.57,645.71-331.87,304.34-89.7,904.33,61.91,790,678-86.9,468.39,303.93,228.92,209.79,746.37Z"/><path class="cls-2" d="M1239.32,1610.61s2.53-19.69,8.39-31.4,43.11-4.26,43.11-4.26,7.45,6.39,9,36.2Z"/><path class="cls-2" d="M1112.37,1610.35c8.76-5.35,3.78-45.21,3.78-45.21s-40.8-32.64-46.41-7.65-38.76,36.2-57.62,39.26c-13,2.12-17.06,9.33-18.31,13.6Z"/><path class="cls-3" d="M1196.88,1320.39a188.54,188.54,0,0,0-3,22c-3.79,74-62.27,243.11-72.73,247.06-16.18,6.11-41.67-6.88-55-11.12-5.53-1.77-9.25-7.34-8-13,29-133.14,39.61-324.84,43.48-438.34,2-57.17,11.77-96.66,11.77-96.66s142.62-38.06,143.47,10.08C1257.59,1083.06,1209.6,1250.12,1196.88,1320.39Z"/><path class="cls-2" d="M1196.88,1320.39,1101.6,1127c2-57.17,11.77-96.66,11.77-96.66s142.62-38.06,143.47,10.08C1257.59,1083.06,1209.6,1250.12,1196.88,1320.39Z"/><path class="cls-3" d="M1165.14,1040.63l75.4,546.46s33.11,8,58.87,1.6c0,0,22.07-290.63,20.23-360.9s15.84-188-4-201S1165.14,1040.63,1165.14,1040.63Z"/><path class="cls-4" d="M919.65,768.47c4.54,12.2,3.35,14.3,11.61,17.82,9.35,4,13.25,9.63,13.25,9.63l7.56-4.39,9-5.24s-.22-1-.66-2.64-1.11-3.88-2-6.39a8.75,8.75,0,0,1-1.08-8c1.7-4.46,1.36-11.36-1.53-15.58S945.61,742,943.86,742.32c-4.21.72,5.33,11.73,3.52,14.37-1.63,2.39-2.42,1.89-2.8,1.71l-.07,0c-11.84-5.21-11.41-21.44-17.76-17.66C924.37,742.12,917.72,763.27,919.65,768.47Z"/><path class="cls-5" d="M1126.28,734.67c-23.09,38.46-56.83,95.67-73.41,110.34l-94.51-70.47s-13.72,4.2-19.73,18c0,0,57.4,116.94,113.91,121.9s135.84-140.17,135.84-140.17l-19-37.41C1160.88,720.22,1135.87,718.69,1126.28,734.67Z"/><path class="cls-5" d="M1326,1004.25c0-.62-.09-1.23-.14-1.84-.15-1.83-.28-3.66-.42-5.47l-.12-1.59c-.34-4.63-.64-9.21-.93-13.73l-.09-1.51-.33-5.59c0-.4,0-.81-.07-1.22q-.18-3.39-.36-6.75a.57.57,0,0,1,0-.13c-.11-2.14-.21-4.25-.31-6.35,0-.49-.05-1-.07-1.47-.09-1.8-.17-3.6-.25-5.38,0-.37,0-.74,0-1.1q-.15-3.2-.27-6.35c0-.29,0-.57,0-.86-.07-1.77-.14-3.54-.21-5.29,0-.61,0-1.21-.07-1.82,0-1.5-.1-3-.17-4.47,0-.57,0-1.14-.06-1.7-.06-1.8-.12-3.6-.18-5.38-.06-1.37-.1-2.73-.15-4.08,0-.28,0-.58,0-.87q-.36-10.62-.71-20.67c0-.1,0-.2,0-.3q-.21-5.9-.45-11.62l0-.69c-.06-1.57-.13-3.12-.21-4.66,0-.41,0-.81,0-1.22-.08-1.64-.16-3.28-.24-4.9,0-.14,0-.27,0-.41l0-.48,1.59-1.83c32.63-39.37,47-120,33.88-138.79-21.5-30.72-90.06-42.37-90.06-42.37,0,10.24-20,22.83-38.47,24.26,0,0-1.11-15.5-1.14-15.5-16.75,1.53-36.62,7.12-36.62,7.12L1175.25,689s-.21-2.56-28.14,6.68l7,19.68c-19.91,6.94-36.27,6.65-35.79,80.52.26,39.55-.54,72.89-1.27,101-.8,31.18-1.92,55.86-3.08,75.33-3.43,57.47-7.23,69.56-4.74,69.51,0,0,21.86,19.91,79.62,19.54a446.49,446.49,0,0,0,87.83-8.82c29.54-6.12,45.33-13.2,45.33-13.2,6.34-.1,5-21.89,4.49-27.88C1326.33,1008.92,1326.14,1006.58,1326,1004.25Z"/><path class="cls-4" d="M1192.73,686.62l-.17,22.22a6.74,6.74,0,0,0,4.91,6.53c3.65,1,9.92,2.36,20.63,3.71,27.24,3.41,47.92-8.64,47.18-25.72-2.46-13.23-5.15-22.31-5.34-33.26a77.62,77.62,0,0,1,1-13.26l-52.82-1.05-15.56,2.54Z"/><path class="cls-6" d="M1192.53,648.33l.2,38.29a44.65,44.65,0,0,0,19,4.21c24.28,0,40-17.81,48.17-30.73a77.62,77.62,0,0,1,1-13.26l-52.82-1.05Z"/><path class="cls-4" d="M1265,638.34c-6.13,33-48.69,31.91-67.09,29.83-5.17-.57-8.43-1.23-8.43-1.23-5.84-1.56-9.09-10.76-10.61-22.8-3-23.83.8-58.81,4.82-67.76,6.06-13.46,17.47-28,60.34-17.52S1272.83,596.08,1265,638.34Z"/><path class="cls-5" d="M1320.06,876.17h0C1320.07,876.24,1320.07,876.22,1320.06,876.17Z"/><path class="cls-2" d="M1123.6,711.86h0a2.72,2.72,0,0,1-.55-3.8l6.4-8.54,4.34,3.25-6.39,8.54A2.72,2.72,0,0,1,1123.6,711.86Z"/><path class="cls-3" d="M1127.76,706.76h0a5.83,5.83,0,0,1-1.31-8l36.49-52.93,13.37,10-40.53,49.91A5.83,5.83,0,0,1,1127.76,706.76Z"/><path class="cls-2" d="M1188,652.12a15.4,15.4,0,1,1-3.1-21.55A15.4,15.4,0,0,1,1188,652.12Z"/><path class="cls-4" d="M1173.78,690.65s-6.13-49.65-22.38-40.56-15.29,23.64-14.88,28.95,15,20.54,15,20.54Z"/><path class="cls-2" d="M1170.5,545a141.76,141.76,0,0,0,41.12-11.13c18.06-7.85,40.85.8,48.24,4.7a10.94,10.94,0,0,0-1.8-4.45s3.32,2.35,3.81,5.64c.34.26.49.43.41.49s3.76-.69,6.18.4c0,0-1.69-.24-2.3.84a.86.86,0,0,1-.27.3c28.17,13.62,30.78,58.14,21.71,68.45-10.91,12.39-24,40.31-24,40.31s-4.77-6.6-2.78-17.51-7.44-10.9-19.34-15.86-2-18.84-12.4-27.27S1180.5,586.42,1181,580C1166.83,574.81,1170.5,546.43,1170.5,545Z"/><path class="cls-7" d="M1259.88,902c-7.79-1.16-15.35-5.61-22.55-12.33-39.87-37.14-74.46-146.35-74.46-146.35,2.1,52.72,19.92,151.64,81.82,179.58h0c29.48-4.72,54.62-22,75.17-46.53C1308.18,889.52,1259.88,902,1259.88,902Z"/><path class="cls-7" d="M1294.14,790.25s-21.91,53.75-40.46,19C1253.68,809.29,1264,813.37,1294.14,790.25Z"/><path class="cls-5" d="M1147.11,695.64s13-7.64,27.36-8.15l10.67,16-34.56,1.83Z"/><path class="cls-7" d="M1117.63,875.24l1.45-105.81s-12.14,140.22-66.54,145C1052.54,914.41,1076.29,920.53,1117.63,875.24Z"/><path class="cls-8" d="M980.67,703.92l.18-.57a1.92,1.92,0,0,0-3.66-1.18l-1.4,4.32-1-.33.22-.71a2.22,2.22,0,0,0-1.43-2.8l-34.67-11.21a2.22,2.22,0,0,0-2.8,1.43l-.22.7-.85-.27,1.4-4.32a1.93,1.93,0,1,0-3.67-1.19l-.18.56a2.61,2.61,0,0,0-3.29,1.69l-5.69,17.57a2.61,2.61,0,0,0,1.69,3.29l-.19.57a1.93,1.93,0,0,0,3.67,1.18l1.4-4.32.84.28-.23.7a2.24,2.24,0,0,0,1.43,2.8l13.28,4.29-7.23,22.34a7.64,7.64,0,0,0-5.28,5l-15.81,48.86a7.65,7.65,0,0,0,14.56,4.71l15.81-48.86a7.65,7.65,0,0,0-1.34-7.16L953.41,719l13.46,4.36a2.23,2.23,0,0,0,2.79-1.43l.23-.71,1,.33-1.4,4.33a1.92,1.92,0,1,0,3.66,1.18l.19-.56a2.61,2.61,0,0,0,3.29-1.69l5.68-17.57A2.6,2.6,0,0,0,980.67,703.92Z"/><path class="cls-4" d="M944.32,758.27s-4.05-13.84-1.19-15.81,14.25,10.48,14.83,16.59-9.16,7.87-9.16,7.87Z"/><rect class="cls-9" x="875.34" y="1016.1" width="21.13" height="595.05"/><path class="cls-10" d="M927.62,1602.25H843a10.07,10.07,0,0,1,10.07-10.07h64.46a10.07,10.07,0,0,1,10.08,10.07Z"/><path class="cls-11" d="M976.1,1611.15H794.53a6.05,6.05,0,0,1-6-6.06h0a6.05,6.05,0,0,1,6-6H976.1a6.05,6.05,0,0,1,6,6h0A6.05,6.05,0,0,1,976.1,1611.15Z"/><polygon class="cls-12" points="1057.06 1062.45 806.27 1062.45 714.74 968.34 965.53 968.34 1057.06 1062.45"/><polygon class="cls-9" points="965.02 957.95 714.74 957.95 714.74 968.34 969.67 968.34 965.02 957.95"/><polygon class="cls-8" points="1057.06 1052.07 965.02 957.95 965.02 968.34 1057.06 1062.45 1057.06 1052.07"/><path class="cls-8" d="M896.47,1162.18V1016.1H875.34v80.35S896.47,1121.69,896.47,1162.18Z"/><path class="cls-13" d="M1995.38,1611.15h-1.75a4.49,4.49,0,0,1-4.36-5.49l216.15-947.09H2236L1999.44,1608A4.2,4.2,0,0,1,1995.38,1611.15Z"/><path class="cls-13" d="M1609,1611.13h-1.74a4.49,4.49,0,0,1-4.37-5.49L1819,658.55h30.54L1613,1608A4.16,4.16,0,0,1,1609,1611.13Z"/><path class="cls-11" d="M1962.7,1606.86l-140.24-948.3h34.71l114.53,948.13a4,4,0,0,1-4,4.43h0A4.93,4.93,0,0,1,1962.7,1606.86Z"/><path class="cls-11" d="M1822.46,658.56l-9.54,43,144.09,903a7.79,7.79,0,0,0,7.85,6.6h2.86Z"/><path class="cls-11" d="M2345.78,1606.86l-136.07-948.3h30.54l114.53,948.13a4.06,4.06,0,0,1-4,4.43h0A4.93,4.93,0,0,1,2345.78,1606.86Z"/><path class="cls-11" d="M2209.71,658.56l-13.72,43,144.09,903a7.79,7.79,0,0,0,7.86,6.6h2.86Z"/><polygon class="cls-11" points="2253.76 1018.04 1869.58 1018.04 1871.63 995.01 2255.82 995.01 2253.76 1018.04"/><polygon class="cls-10" points="1698.89 1224.55 1680.22 1224.55 1809.4 658.56 1822.46 658.56 1698.89 1224.55"/><polygon class="cls-9" points="2105.41 1224.55 1668.59 1224.55 1799.36 658.56 2240.35 658.56 2105.41 1224.55"/><rect class="cls-10" x="1641.79" y="1203.44" width="470.77" height="21.11" rx="4.54"/><rect class="cls-12" x="1606.1" y="1203.44" width="460.63" height="21.11" rx="4.5"/><path class="cls-9" d="M2146.07,708.57a2.73,2.73,0,1,0-2.72,2.73A2.72,2.72,0,0,0,2146.07,708.57Z"/><path class="cls-9" d="M1848.45,708.57a2.72,2.72,0,1,0-2.72,2.73A2.72,2.72,0,0,0,1848.45,708.57Z"/><rect class="cls-14" x="1419.6" y="600.1" width="972.59" height="599.7" transform="translate(3811.79 1799.9) rotate(180)"/><path class="cls-13" d="M1407.16,1203.44h985.73V590.6H1407.16Zm972.59-13.15H1420.31V603.74h959.44Z"/><path class="cls-1" d="M1487.17,1055.78q.16.78.36,1.56l205.57-.07,174.56,0h24l407.12-.12s.18-.45.51-1.32a273,273,0,0,0,16-80.1,208,208,0,0,0-.8-29c-.25-2.52-.55-5-.92-7.58q-1-7-2.6-14.06l0-.06q-1.53-6.64-3.68-13.24c-.45-1.37-.93-2.74-1.42-4.11s-1.12-3-1.72-4.5c-.33-.83-.67-1.66-1-2.48a132.7,132.7,0,0,0-10.35-19.71,128.79,128.79,0,0,0-17.17-21.46c-70.09-70.74-155.39-45.1-213.44-28.12-20.17,5.9-37,10.76-48.86,10.16-14.21-.72-24.26-10-35.45-22.85-8.71-10-18.12-22.08-30.71-33.93l0,0q-3.17-3-6.61-5.92c-23.18-19.71-56.64-37.53-112.39-42-41-3.27-83.55-.64-118.22,12.47-29.56,11.18-53.36,30-65.48,59.3a107.76,107.76,0,0,0-5,15.5c-5.56,22.67-5.09,50.55,3.35,84.58,2.47,10,3.08,18.35,2.16,25.45a36.45,36.45,0,0,1-6.8,17.43,37.32,37.32,0,0,1-6.12,6.45c-24.15,20.22-75.91,17.61-111.21,30.2C1494.8,997.4,1477.75,1014.9,1487.17,1055.78Z"/><path class="cls-15" d="M1880.12,838.49l434.41,108.14A172.26,172.26,0,0,0,2311,925s0,0,0-.06q-1.54-6.64-3.68-13.24Z"/><path class="cls-15" d="M1727.43,793.87a11.36,11.36,0,1,0-11.35,11.36A11.35,11.35,0,0,0,1727.43,793.87Z"/><path class="cls-15" d="M1638.1,951.49l534.87,62.4a151.2,151.2,0,0,0,6.57-55.13L1639.39,824c-5.56,22.67-5.09,50.55,3.35,84.58C1647.63,928.31,1645.24,941.87,1638.1,951.49Z"/><path class="cls-16" d="M1891.7,1057.22l407.12-.12S2326,989.92,2311,925c0,0,0,0,0-.06a203.33,203.33,0,0,0-110,26.53c-68.71,39.07-181.51,10.48-214.16,32.4s-40.15,44.61-64.43,48.51c-21.18,3.41-29.05,20.54-30.7,24.85Z"/><path class="cls-17" d="M1917.26,1049.55s57.12-19.18,90.16-9.85,140.43-7.39,155.91.62v16.79H1917.26Z"/><path class="cls-17" d="M2156.89,1055.78h142.44a273,273,0,0,0,16-80.1v0s-45.34-6.43-66.51,19.27-49,20-68.94,19S2141.91,1034.65,2156.89,1055.78Z"/><path class="cls-18" d="M1485.75,1049q.57,3.43,1.42,7.13h435.46c-6.2-48.32-77.13-26.75-99.17-48.79s-86.08,0-102.6-33.74-76-39.19-76-39.19a36.49,36.49,0,0,1-6.8,17.43,37.26,37.26,0,0,1-6.12,6.44c-24.15,20.22-75.91,17.61-111.21,30.2-13.21,4.71-24.1,11.55-30.39,22.51h0C1485.05,1020.3,1483,1032.56,1485.75,1049Z"/><path class="cls-19" d="M2235.39,868.27s51.65,102.34,12.4,187.51h39.76s4.65-93-39.25-183.38Z"/><path class="cls-19" d="M2253.4,918.12a62.33,62.33,0,0,1-49.35-25.56l-2.53,1s17.59,29.28,55.44,32Z"/><path class="cls-19" d="M2224.76,912.48a62.33,62.33,0,0,0-7.13-32.16l-1.23.63c.07.12,6.28,12.46,5.27,30.29Z"/><path class="cls-19" d="M1800.82,810.48a62.35,62.35,0,0,1-41.4-37.08l-2.7.37s9.71,32.75,45.69,44.81Z"/><path class="cls-19" d="M1774.5,797.86a62.15,62.15,0,0,0,1.13-32.92l-1.34.3c0,.13,3,13.63-2.47,30.64Z"/><path class="cls-19" d="M2272.28,949.84c11.08-11.08,15.62-31.55,14.43-50.61a94.7,94.7,0,0,0-5.17-25.63l-2.57,1a94.51,94.51,0,0,1,5,24.89,69,69,0,0,1-2,22.43,47.81,47.81,0,0,1-12.28,21.46Z"/><path class="cls-20" d="M2062.19,831.32s18.26,31.27,49.77,31.79,26.85,31.5,54.74,38.21,46.48-7.23,54.75-21.69,63.71,12.32,71.36,1.26a128.79,128.79,0,0,0-17.17-21.46c-70.09-70.74-155.39-45.1-213.44-28.12Z"/><path class="cls-19" d="M2285.75,914.55a42,42,0,0,0,18.42-11.47c-.33-.83-.67-1.66-1-2.48-4.21,4.3-10.07,7.62-17.07,9.77C2285.29,910.62,2285.54,914.61,2285.75,914.55Z"/><path class="cls-20" d="M2296.32,933.08c2.65,5.14,11.94,8.8,17.29,6q-1-7-2.6-14.06l0-.06q-1.53-6.64-3.68-13.24c-.45-1.37-.93-2.74-1.42-4.11a10.34,10.34,0,0,0-4.75,8.17C2300.69,921.61,2292.42,925.51,2296.32,933.08Z"/><path class="cls-20" d="M2098.92,886c0,7,6.37,12.62,14.23,12.62s18.82-5.42,18.82-12.39-15.09-15.15-22.95-15.15S2098.92,879.05,2098.92,886Z"/><path class="cls-19" d="M1766.35,1057.36l46.57,0a775.33,775.33,0,0,1-7.2-114.33,731,731,0,0,1,6.37-89.27c6.65-49.59,16.25-79.61,16.34-79.9l-21-6.8C1807.06,768.28,1759.64,935.65,1766.35,1057.36Z"/><path class="cls-19" d="M1810.47,866.7c63.74-9.76,98.45-71.35,98.81-72l-3-1.76a140.54,140.54,0,0,1-24.49,28.59,127.21,127.21,0,0,1-29.59,20.13,110,110,0,0,1-41.77,10.47Z"/><path class="cls-19" d="M1871.24,831.48l5.47-3.26,2-2.25c-.14-.13-16.4-12.85-13.44-31.91l-2.38-.37C1858.47,804.65,1871.08,831.34,1871.24,831.48Z"/><path class="cls-21" d="M1709.91,749.23c6.28,23.88,52.95,34.65,84.63,29.51s51.65,24.42,88.83,26.49,57.15-26.49,57.15-26.49c-23.18-19.71-56.64-37.53-112.39-42C1787.16,733.49,1744.58,736.12,1709.91,749.23Z"/><path class="cls-22" d="M1467.43,1056.13s22.21-17.6,67.65-10.89,111-12.83,136.35,10.89Z"/><path class="cls-22" d="M1613.58,1047s37.71-51.64,57.85-39.25S1613.58,1047,1613.58,1047Z"/><path class="cls-22" d="M1640.61,1044.36s33.76-14.64,41.68-8.78S1640.61,1044.36,1640.61,1044.36Z"/><path class="cls-22" d="M1485.75,1049.92l116.57-4.42c-5.35.18-45.33.92-63.62-14.94-19.63-17-48.32-19.91-48.32-19.91h0C1485.05,1020.26,1483,1032.93,1485.75,1049.92Z"/><path class="cls-22" d="M2313.54,1056.17s-15.28-10.23-44.3-6.35-112.48,6.8-153.11,2.67-124.5,3.65-124.5,3.65Z"/><rect class="cls-23" x="1442.98" y="1056.12" width="914.09" height="2.42" rx="1.04" transform="translate(3800.06 2114.67) rotate(180)"/><path class="cls-22" d="M2284.38,1053.11s-7.65-32.88-11.57-25.82S2284.38,1053.11,2284.38,1053.11Z"/><path class="cls-22" d="M2280.21,1052.54s-9.63-14.78-11.38-12.86S2280.21,1052.54,2280.21,1052.54Z"/><path class="cls-22" d="M2289.07,1051.06c.09-.17,4.82-15.67,8-12.68S2289.07,1051.06,2289.07,1051.06Z"/><path class="cls-22" d="M2083.42,1053.65c0-.52,11.53-21.27,15.67-18.07S2083.42,1053.65,2083.42,1053.65Z"/><path class="cls-22" d="M2082.22,1053.65c-.18-1-2.24-18.91,2.24-18.41s-2.42,17.38-2.42,17.38Z"/><polygon class="cls-13" points="2154.31 1030.42 2239.98 1030.42 2243.93 1010.28 2158.42 1010.28 2154.31 1030.42"/><polygon class="cls-24" points="2152.84 1030.42 2238.51 1030.42 2242.47 1010.28 2156.96 1010.28 2152.84 1030.42"/><path class="cls-13" d="M2216.57,1030.42H2240a0,0,0,0,1,0,0v2.46a0,0,0,0,1,0,0h-25.29a0,0,0,0,1,0,0v-.59A1.87,1.87,0,0,1,2216.57,1030.42Z" transform="translate(4454.67 2063.31) rotate(180)"/><rect class="cls-25" x="2137.07" y="1030.42" width="77.81" height="2.46" transform="translate(4351.95 2063.31) rotate(180)"/><path class="cls-3" d="M1890,873.74h1.72v-.13l-.52-4.59a.29.29,0,0,0-.29-.26h-.06a.42.42,0,0,0-.25.12.46.46,0,0,0-.15.29Z"/><path class="cls-26" d="M1891.54,872.7h.06l-.43-3.68a.29.29,0,0,0-.29-.26h-.06l0,0a.45.45,0,0,0-.12.31l0,2.65A.93.93,0,0,0,1891.54,872.7Z"/><rect class="cls-3" x="1888.89" y="894.16" width="3.32" height="146.49"/><rect class="cls-27" x="1890.67" y="894.16" width="1.53" height="146.49"/><rect class="cls-3" x="1885.26" y="1017.27" width="10.57" height="38.76"/><rect class="cls-27" x="1889.53" y="1017.27" width="6.3" height="38.76"/><path class="cls-3" d="M1884.77,876c0,1.81,2.72,3.28,6.07,3.28.26,0,.51,0,.76,0,3-.2,5.32-1.58,5.32-3.25s-2.33-3.05-5.32-3.25c-.25,0-.5,0-.76,0C1887.49,872.68,1884.77,874.14,1884.77,876Z"/><path class="cls-26" d="M1887.91,876c0,1.46,1.52,2.71,3.69,3.25,3-.2,5.32-1.58,5.32-3.25s-2.33-3.05-5.32-3.25C1889.43,873.24,1887.91,874.49,1887.91,876Z"/><polygon class="cls-26" points="1885.28 897.05 1895.84 897.05 1899.57 879.11 1882.12 879.11 1885.28 897.05"/><rect class="cls-3" x="1881.18" y="877.76" width="19.33" height="1.72"/><rect class="cls-26" x="1888.36" y="877.76" width="12.15" height="1.72"/><path class="cls-19" d="M1894.1,1017.27h-6.75l1-3a.66.66,0,0,1,.62-.44h3.16a.86.86,0,0,1,.79.52Z"/><polygon class="cls-28" points="1898.32 879.99 1883.42 879.99 1886.33 896.11 1894.88 896.11 1898.32 879.99"/><path class="cls-29" d="M1896.51,876.14s-1.13-2.48-3.37-2.4c0,0,1.42,1.27,1.29,2.4S1896.51,876.14,1896.51,876.14Z"/><polygon class="cls-3" points="1882.41 877.76 1899.27 877.76 1897.89 875.79 1883.72 875.79 1882.41 877.76"/><polygon class="cls-26" points="1886.57 877.76 1899.27 877.76 1897.89 875.79 1887.88 875.79 1886.57 877.76"/><polygon class="cls-30" points="1897.33 880.55 1893.91 880.55 1892.92 895.61 1893.91 895.61 1897.33 880.55"/><path class="cls-3" d="M2121.18,937.34h1.12v-.09l-.34-3a.19.19,0,0,0-.19-.17h0a.3.3,0,0,0-.16.08.27.27,0,0,0-.1.19Z"/><path class="cls-26" d="M2122.19,936.66h0l-.28-2.4a.19.19,0,0,0-.19-.17h0l0,0a.32.32,0,0,0-.07.2l0,1.72A.61.61,0,0,0,2122.19,936.66Z"/><rect class="cls-3" x="2120.46" y="950.63" width="2.16" height="95.38"/><rect class="cls-27" x="2121.63" y="950.63" width="1" height="95.38"/><rect class="cls-3" x="2118.1" y="1030.79" width="6.88" height="25.24"/><rect class="cls-27" x="2120.88" y="1030.79" width="4.1" height="25.24"/><path class="cls-3" d="M2117.78,938.77c0,1.18,1.77,2.14,4,2.14l.49,0c1.95-.13,3.46-1,3.46-2.12s-1.51-2-3.46-2.11l-.49,0C2119.55,936.64,2117.78,937.6,2117.78,938.77Z"/><path class="cls-26" d="M2119.83,938.77c0,1,1,1.77,2.4,2.12,1.95-.13,3.46-1,3.46-2.12s-1.51-2-3.46-2.11C2120.82,937,2119.83,937.82,2119.83,938.77Z"/><polygon class="cls-26" points="2118.11 952.51 2124.99 952.51 2127.42 940.83 2116.06 940.83 2118.11 952.51"/><rect class="cls-3" x="2115.44" y="939.95" width="12.59" height="1.12"/><rect class="cls-26" x="2120.12" y="939.95" width="7.91" height="1.12"/><path class="cls-19" d="M2123.86,1030.79h-4.4l.64-2a.43.43,0,0,1,.4-.29h2.06a.53.53,0,0,1,.51.34Z"/><polygon class="cls-28" points="2126.6 941.4 2116.9 941.4 2118.8 951.9 2124.37 951.9 2126.6 941.4"/><path class="cls-29" d="M2125.43,938.9s-.74-1.61-2.2-1.56c0,0,.93.82.84,1.56S2125.43,938.9,2125.43,938.9Z"/><polygon class="cls-3" points="2116.25 939.95 2127.23 939.95 2126.33 938.67 2117.1 938.67 2116.25 939.95"/><polygon class="cls-26" points="2118.95 939.95 2127.23 939.95 2126.33 938.67 2119.8 938.67 2118.95 939.95"/><polygon class="cls-30" points="2125.96 941.77 2123.74 941.77 2123.09 951.57 2123.74 951.57 2125.96 941.77"/><path class="cls-31" d="M2234.86,1032.89l1.47,5.76h0l4.34,17.09a.5.5,0,0,0,.49.37.7.7,0,0,0,.69-.83l-3.88-19.93-.48-2.47Z"/><path class="cls-13" d="M2236.33,1038.65c-.14-3,1.64-3.29,1.64-3.29l-.48-2.47h-2.63Z"/><path class="cls-31" d="M2216.28,1032.89l1.47,5.76h0l4.34,17.09a.5.5,0,0,0,.48.37.7.7,0,0,0,.69-.83l-3.87-19.93-.48-2.47Z"/><path class="cls-13" d="M2217.75,1038.65c-.14-3,1.64-3.29,1.64-3.29l-.48-2.47h-2.63Z"/><path class="cls-31" d="M2144.17,1032.89l-1.46,5.76h0l-4.34,17.09a.5.5,0,0,1-.49.37.7.7,0,0,1-.69-.83l3.87-19.93.49-2.47Z"/><path class="cls-13" d="M2142.71,1038.65c.14-3-1.65-3.29-1.65-3.29l.49-2.47h2.62Z"/><path class="cls-31" d="M2162.76,1032.89l-1.47,5.76h0l-4.34,17.09a.5.5,0,0,1-.49.37.7.7,0,0,1-.69-.83l3.88-19.93.48-2.47Z"/><path class="cls-13" d="M2161.29,1038.65c.14-3-1.64-3.29-1.64-3.29l.48-2.47h2.63Z"/><path class="cls-25" d="M2217.94,1030.42h17.76c1.77-2.61-.25-8.65-.84-11.32-.63-2.89,2.85-7.51,3.9-8.81h-14C2222.92,1015.52,2218.69,1026.34,2217.94,1030.42Z"/><path class="cls-25" d="M2154.79,1030.42h17.76c1.77-2.61-.25-8.65-.83-11.32-.64-2.89,2.84-7.51,3.89-8.81h-14C2159.78,1015.52,2155.54,1026.34,2154.79,1030.42Z"/><path class="cls-21" d="M1718.52,868.35s5.32,2.18,6.24,6.2S1717.8,877.76,1718.52,868.35Z"/><path class="cls-21" d="M1712.59,822.67s-8.43,7-12,3.22S1712.59,822.67,1712.59,822.67Z"/><path class="cls-21" d="M1669.38,906.28s11.88,2.41,10.33,6S1669.38,906.28,1669.38,906.28Z"/><path class="cls-21" d="M1739.68,903.93s-.32,7.58-6.93,7.46C1732.75,911.39,1730.61,906.11,1739.68,903.93Z"/><path class="cls-21" d="M1834.71,926.89s3.56,4.93,7.12,5.16,4.7,4.13,0,4.36S1833.68,928.84,1834.71,926.89Z"/><path class="cls-21" d="M1854,911.39s-2.41,6.77-5.28,4.94S1854,911.39,1854,911.39Z"/><rect class="cls-11" x="2392.89" y="590.6" width="17.06" height="612.84" transform="translate(4802.85 1794.03) rotate(180)"/><path class="cls-11" d="M2076.25,1224.55H2095l-6.19,24.83c-19.25,6-27.29,39.88-27.29,39.88Z"/><path class="cls-11" d="M1689.52,1224.55h18.71l-6.19,24.83c-19.25,6-27,39.88-27,39.88Z"/><rect class="cls-32" x="294.91" y="1608.4" width="2469.09" height="111.95"/><path class="cls-33" d="M350.1,1523.92l-13.5,37.76a11.06,11.06,0,0,0-9.91,9.53c-1.58,9.07-2.32,59.15-2.32,59.15L287.7,1616c.67-1.58,8-57.9,6.91-66.46s-13.54-22.79-2.71-40.42c5.89-9.59,5.45-21.32,3.85-30a72.2,72.2,0,0,0-2-8.06,3.13,3.13,0,0,1,.62-3,3.05,3.05,0,0,1,3.07-1,17.24,17.24,0,0,1,10.16,7.27c2.27,3.32,2.78,9,4.17,14.6,5.58-5.5,18.79-5.21,24.73-3.2C346.68,1489.26,350.1,1523.92,350.1,1523.92Z"/><path class="cls-34" d="M296.81,1478.72l-1.06.45c-.6-3.18-3.74-9.34-4.4-11.46-.34-1.1,1.88-.92,2.77-.2a5.68,5.68,0,0,1,1.57,1.93,33.85,33.85,0,0,1,2.67,5.86A2.76,2.76,0,0,1,296.81,1478.72Z"/><path class="cls-35" d="M338.85,1568.45l-1.11.33c-3.62,1.08-7.07.16-7.67-2l-37.18-135.82,8.17-2.43,43,134.17C344.75,1564.8,342.4,1567.4,338.85,1568.45Z"/><path class="cls-36" d="M386.39,1406.73l-177.28,52.64a9.51,9.51,0,0,1-11.79-6.39l-48.59-163.64a9.5,9.5,0,0,1,6.39-11.79L332.4,1224.9a9.51,9.51,0,0,1,11.79,6.39l48.6,163.65A9.52,9.52,0,0,1,386.39,1406.73Z"/><path class="cls-37" d="M351.72,1407.66l-113,33.57a33.43,33.43,0,0,1-41.45-22.47l-29.91-100.7a33.45,33.45,0,0,1,22.47-41.45l113-33.57a33.45,33.45,0,0,1,41.45,22.47l29.9,100.7A33.43,33.43,0,0,1,351.72,1407.66Z"/><path class="cls-32" d="M316,1377q-2.44-8.25-12-5.42l-9.84,2.93-19-64L271,1296.3q-2.19-7.36-3.89-8.83c-1.12-1-3.18-1-6.17-.13s-7.1,2.31-12,4.2a52.44,52.44,0,0,0-10.54,5q-6.15,4.18-4.6,9.39,2.15,7.23,10.82,4.65l9.54-2.84,5.34,18,16.12,54.3-11.28,3.35q-9.67,2.88-7.19,11.27a7.88,7.88,0,0,0,4.69,5.44,11.34,11.34,0,0,0,7.67.16L309,1388.51Q318.58,1385.67,316,1377Z"/><path class="cls-4" d="M339,1488l-27.23,13.44c-2.28,1.21-4.34.81-5.54-1.46l-2.25-4.24a4.7,4.7,0,0,1,1.94-6.33l21.43-12.73a6.9,6.9,0,0,1,8.32,1.5S343.54,1485.82,339,1488Z"/><path class="cls-4" d="M346.72,1500.63l-27.64,14.66a7.43,7.43,0,0,1-10-3.07h0a7.42,7.42,0,0,1,3.07-10l27.64-14.65c3.59-1.91,6.88-3.08,10,3.07h0C353.12,1495.46,350.31,1498.73,346.72,1500.63Z"/><path class="cls-4" d="M350.08,1512.39,327.66,1523c-3.1,1.65-6.34,1.37-8-1.73h0a6.39,6.39,0,0,1,2.65-8.63l21.77-11.54c3.1-1.65,6.15-3.44,8.63,2.64h0C354.78,1507.92,353.2,1510.81,350.08,1512.39Z"/><path class="cls-4" d="M354,1522.53l-12.77,6.76a5.52,5.52,0,0,1-7.44-2.28h0a5.53,5.53,0,0,1,2.28-7.45l12.77-6.77a5.52,5.52,0,0,1,7.44,2.29h0A5.53,5.53,0,0,1,354,1522.53Z"/><path class="cls-34" d="M304.52,1493a35.32,35.32,0,0,1,5.64-3.13,2.78,2.78,0,0,1,3.53,1.27l1.92,3.67a2.64,2.64,0,0,1-1.08,3.54,47.83,47.83,0,0,1-5.95,2.73,3.24,3.24,0,0,1-4-1.63l-1.16-2.36A3.22,3.22,0,0,1,304.52,1493Z"/><path class="cls-34" d="M309,1507.45a34.48,34.48,0,0,1,5.57-3.1,2.76,2.76,0,0,1,3.5,1.26l1.89,3.63a2.61,2.61,0,0,1-1.06,3.5,46.14,46.14,0,0,1-5.89,2.7,3.2,3.2,0,0,1-4-1.61l-1.15-2.34A3.17,3.17,0,0,1,309,1507.45Z"/><path class="cls-34" d="M319.05,1516.87a29.4,29.4,0,0,1,4.74-2.64,2.35,2.35,0,0,1,3,1.07l1.61,3.09a2.22,2.22,0,0,1-.9,3,40.84,40.84,0,0,1-5,2.29,2.72,2.72,0,0,1-3.37-1.37l-1-2A2.7,2.7,0,0,1,319.05,1516.87Z"/><path class="cls-34" d="M333.25,1523.59a24.85,24.85,0,0,1,4.11-2.29,2,2,0,0,1,2.58.93l1.4,2.68a1.92,1.92,0,0,1-.79,2.58,34,34,0,0,1-4.34,2,2.36,2.36,0,0,1-2.92-1.19l-.85-1.72A2.35,2.35,0,0,1,333.25,1523.59Z"/><path class="cls-22" d="M344.4,1720.35H270.14c3.32-42,20.15-154.92,20.15-154.92s1.35.35,3.53,1c7.59,2.4,25.27,8.85,31.81,18.56a15.51,15.51,0,0,1,1.65,3.11S345.78,1685.1,344.4,1720.35Z"/><path class="cls-33" d="M2059.12,1661.35c.58,18.81,3,49.42,3.45,50.57l-25.49,8.43h-10.24c.29-8,1-28.06,1-41.55,0-5.38-.07-9.71-.32-11.8a10.76,10.76,0,0,0-3.42-7,31.45,31.45,0,0,1-6.66-8.37,28.52,28.52,0,0,1-2.26-5.4l-3.72-12.44-3.74-12.5-.23-.77s.68-4.48,2-10.27a.75.75,0,0,1,0-.16h0a111.47,111.47,0,0,1,3.2-11.19c.08-.24.16-.49.25-.73,1.77-4.9,4-9.33,6.56-11.73h0a7,7,0,0,1,2.86-1.71,34,34,0,0,1,14.64-.09c3.56.77,6.84,2.17,8.89,4.41.26-.87.5-1.74.73-2.6,1.18-4.41,2-8.61,4-11.18a17.89,17.89,0,0,1,4.39-4.13,16.06,16.06,0,0,1,5.71-2.32,2.91,2.91,0,0,1,2.67.85l.22.26a2.93,2.93,0,0,1,.44,2.85,68.45,68.45,0,0,0-2.32,7.62c-2,8.23-3,19.45,2.17,28.93,9.48,17.43-3.14,30.43-4.64,38.58C2058.94,1650,2058.92,1655,2059.12,1661.35Z"/><path class="cls-34" d="M2060.8,1579.91l1,.48c.73-3,4.06-8.76,4.79-10.75.38-1-1.75-1-2.63-.33a5.41,5.41,0,0,0-1.61,1.77,33.23,33.23,0,0,0-2.85,5.48A2.64,2.64,0,0,0,2060.8,1579.91Z"/><path class="cls-35" d="M1998.42,1673.31l1,.52c3.39,1.67,6.94,1.35,7.91-.71L2067,1545.57l-7.64-3.77-65.14,124.93C1993.22,1668.71,1995.1,1671.67,1998.42,1673.31Z"/><path class="cls-36" d="M1979,1505.87l165.79,81.94a9.51,9.51,0,0,0,12.71-4.3l75.63-153a9.51,9.51,0,0,0-4.3-12.71L2063,1335.83a9.52,9.52,0,0,0-12.71,4.3l-75.64,153A9.51,9.51,0,0,0,1979,1505.87Z"/><path class="cls-37" d="M2013,1512.67l105.71,52.25a33.44,33.44,0,0,0,44.66-15.11l46.55-94.18A33.43,33.43,0,0,0,2194.8,1411l-105.72-52.26a33.45,33.45,0,0,0-44.66,15.12L1997.88,1468A33.44,33.44,0,0,0,2013,1512.67Z"/><path class="cls-32" d="M2148,1417.41l-32.21-13.61c-3.59-1.52-6.36-2-8.29-1.33s-3.91,2.64-5.9,6q-13,21.6-16.44,27.83-.24.57-2.51,4a41.22,41.22,0,0,0-2.05,3.65q-3.52,8.37,3,11.13a32.28,32.28,0,0,0,9.6,1.8,32.35,32.35,0,0,1,9.6,1.8q16.47,7,8.79,25.12-3.48,8.24-10.54,11.68t-15.29,0q-7.09-3-12.12-10.89c-3.35-5.26-5.83-8.24-7.44-8.91a6.84,6.84,0,0,0-6.12.25,9.17,9.17,0,0,0-4.33,4.69,12.22,12.22,0,0,0-.08,8.5q2.26,7.31,9.26,14.11a45.71,45.71,0,0,0,14.06,9.46,39.66,39.66,0,0,0,22.78,2.68,37.44,37.44,0,0,0,20.14-10.47,44.18,44.18,0,0,0,9.49-14.55q5.76-13.62,1.69-26.54-4.14-13.6-17.62-19.32a37.25,37.25,0,0,0-12.39-2.73l11.52-19.21,26.8,11.33q9.91,4.19,13.31-3.83Q2158.2,1421.73,2148,1417.41Z"/><path class="cls-4" d="M2019.92,1586.65l25.41,14.26c2.12,1.27,4.11,1,5.38-1.12l2.37-4a4.5,4.5,0,0,0-1.54-6.16l-19.88-13.28a6.63,6.63,0,0,0-8.05,1S2015.67,1584.35,2019.92,1586.65Z"/><path class="cls-4" d="M2011.88,1598.38l25.73,15.43a7.12,7.12,0,0,0,9.74-2.43h0a7.13,7.13,0,0,0-2.44-9.74l-25.73-15.43c-3.35-2-6.44-3.3-9.73,2.43h0C2006,1593.1,2008.53,1596.37,2011.88,1598.38Z"/><path class="cls-4" d="M2008.07,1609.47l20.94,11.32c2.88,1.73,6,1.63,7.73-1.26h0a6.14,6.14,0,0,0-2.1-8.4L2014.37,1599c-2.89-1.73-5.73-3.6-8.41,2.1h0C2003.79,1605,2005.15,1607.8,2008.07,1609.47Z"/><path class="cls-4" d="M2003.83,1619l11.89,7.13a5.31,5.31,0,0,0,7.25-1.81h0a5.3,5.3,0,0,0-1.81-7.25l-11.89-7.13a5.3,5.3,0,0,0-7.25,1.81h0A5.31,5.31,0,0,0,2003.83,1619Z"/><path class="cls-34" d="M2052.69,1593.19a33.8,33.8,0,0,0-5.24-3.28,2.67,2.67,0,0,0-3.45,1l-2,3.43a2.53,2.53,0,0,0,.85,3.44,44.09,44.09,0,0,0,5.56,2.91,3.1,3.1,0,0,0,3.92-1.35l1.23-2.21A3.08,3.08,0,0,0,2052.69,1593.19Z"/><path class="cls-34" d="M2047.7,1606.82a32.89,32.89,0,0,0-5.19-3.25,2.63,2.63,0,0,0-3.41,1l-2,3.39a2.5,2.5,0,0,0,.84,3.4,45.88,45.88,0,0,0,5.5,2.89,3.07,3.07,0,0,0,3.88-1.34l1.22-2.18A3,3,0,0,0,2047.7,1606.82Z"/><path class="cls-34" d="M2037.57,1615.33a28,28,0,0,0-4.41-2.76,2.24,2.24,0,0,0-2.9.87l-1.7,2.88a2.12,2.12,0,0,0,.71,2.89,39.06,39.06,0,0,0,4.68,2.46,2.62,2.62,0,0,0,3.3-1.14l1-1.86A2.6,2.6,0,0,0,2037.57,1615.33Z"/><path class="cls-34" d="M2023.62,1621.05a24.08,24.08,0,0,0-3.82-2.4,2,2,0,0,0-2.52.75l-1.47,2.5a1.83,1.83,0,0,0,.62,2.51,33.89,33.89,0,0,0,4,2.13,2.26,2.26,0,0,0,2.86-1l.9-1.61A2.23,2.23,0,0,0,2023.62,1621.05Z"/><path class="cls-22" d="M2069.51,1720.35h-50.88c4.11-22,7.72-38.88,7.72-38.88a14.53,14.53,0,0,1,1.46-2.67c6.4-9.42,24.06-15.34,31.31-17.45,2-.57,3.19-.86,3.19-.86S2065.77,1687.92,2069.51,1720.35Z"/><path class="cls-33" d="M1086,1546.91l11.22,36.14a10.44,10.44,0,0,1,9,9.38c1.13,8.61-8.67,59.59-8.67,59.59l48.53-7.27c-.57-1.52-10.15-63.4-8.75-71.43s13.67-20.94,4.18-38c-5.17-9.27-4.29-20.31-2.44-28.42a66.86,66.86,0,0,1,2.21-7.52,2.93,2.93,0,0,0-.46-2.81,2.89,2.89,0,0,0-2.86-1A16.27,16.27,0,0,0,1128,1502c-2.27,3-3,8.35-4.51,13.59-5-5.4-17.5-5.66-23.19-4C1090.57,1514.38,1086,1546.91,1086,1546.91Z"/><path class="cls-34" d="M1138,1506.43l1,.47c.69-3,3.9-8.66,4.61-10.62.36-1-1.74-1-2.6-.31a5.33,5.33,0,0,0-1.56,1.76,32,32,0,0,0-2.75,5.42A2.59,2.59,0,0,0,1138,1506.43Z"/><path class="cls-35" d="M1084.07,1614.58l1.08.38c3.56,1.26,7.06.52,7.77-1.64l46.67-140.8-8-2.83-52.41,138.85C1078.36,1610.63,1080.57,1613.35,1084.07,1614.58Z"/><path class="cls-36" d="M1047.44,1443.62l174.38,61.56a9.51,9.51,0,0,0,12.1-5.79l56.83-161a9.52,9.52,0,0,0-5.79-12.1l-174.38-61.56a9.51,9.51,0,0,0-12.1,5.79l-56.83,161A9.51,9.51,0,0,0,1047.44,1443.62Z"/><path class="cls-37" d="M1082,1446.31l111.2,39.25a33.42,33.42,0,0,0,42.53-20.34l35-99a33.45,33.45,0,0,0-20.34-42.54l-111.2-39.25a33.43,33.43,0,0,0-42.53,20.34l-35,99A33.44,33.44,0,0,0,1082,1446.31Z"/><path class="cls-32" d="M1146.7,1320.5c-.37-1.48-2.07-2.72-5.08-3.73s-7.3-2.23-12.54-3.55a53.42,53.42,0,0,0-11.77-2q-7.59-.1-9.35,5.16-2.45,7.3,6.32,10.23l9.64,3.23-24.42,73-11.4-3.81q-9.8-3.27-12.62,5.2a8.09,8.09,0,0,0,.72,7.31,11.63,11.63,0,0,0,6.33,4.63l40,13.39q9.63,3.23,12.57-5.54,2.77-8.34-6.86-11.55l-9.93-3.33,26.43-79Q1147.26,1322.72,1146.7,1320.5Z"/><path class="cls-32" d="M1248.42,1371.33q-3.15-17.74-17.84-25.63a45.07,45.07,0,0,0-6.87-2.94q-20.89-7-36.93,8-12.52,11.71-20.1,34.36t-4.52,39.74q3.83,21.6,24.57,28.52t36.78-8q12.72-11.82,20.3-34.47c.33-1,.64-2,.94-2.93h0Q1251.19,1387.12,1248.42,1371.33Zm-23.58,33.12q-4.85,14.49-11.24,22.93-9.72,13-21.11,9.21-19.71-6.6-6.79-45.23,4.79-14.34,11.38-22.88,9.62-12.72,21.16-8.87,11.25,3.77,11.37,19.92Q1229.58,1390.26,1224.84,1404.45Z"/><path class="cls-4" d="M1097.86,1513.48l25.14,13.77c2.1,1.23,4,.93,5.28-1.16l2.29-3.91a4.42,4.42,0,0,0-1.58-6l-19.69-12.86a6.5,6.5,0,0,0-7.9,1.08S1093.66,1511.26,1097.86,1513.48Z"/><path class="cls-4" d="M1090.08,1525.1l25.46,14.92a7,7,0,0,0,9.55-2.5h0a7,7,0,0,0-2.49-9.55l-25.47-14.92c-3.31-1.94-6.36-3.17-9.55,2.5h0C1084.25,1520,1086.76,1523.15,1090.08,1525.1Z"/><path class="cls-4" d="M1086.44,1536.05l20.71,10.91c2.85,1.68,5.92,1.55,7.59-1.31h0a6,6,0,0,0-2.15-8.24l-20.06-11.76c-2.86-1.67-5.67-3.48-8.25,2.15h0C1082.19,1531.64,1083.55,1534.43,1086.44,1536.05Z"/><path class="cls-4" d="M1082.37,1545.44l11.76,6.89a5.22,5.22,0,0,0,7.12-1.85h0a5.23,5.23,0,0,0-1.86-7.12l-11.76-6.89a5.21,5.21,0,0,0-7.11,1.86h0A5.21,5.21,0,0,0,1082.37,1545.44Z"/><path class="cls-34" d="M1130.16,1519.58a33.39,33.39,0,0,0-5.19-3.18,2.62,2.62,0,0,0-3.38,1.06l-1.95,3.38a2.48,2.48,0,0,0,.87,3.38,44.21,44.21,0,0,0,5.5,2.81,3.05,3.05,0,0,0,3.84-1.37l1.19-2.18A3,3,0,0,0,1130.16,1519.58Z"/><path class="cls-34" d="M1125.39,1533a33.41,33.41,0,0,0-5.13-3.15,2.6,2.6,0,0,0-3.35,1l-1.93,3.35a2.46,2.46,0,0,0,.86,3.34,44.67,44.67,0,0,0,5.44,2.78,3,3,0,0,0,3.81-1.36l1.17-2.15A3,3,0,0,0,1125.39,1533Z"/><path class="cls-34" d="M1115.51,1541.51a27.87,27.87,0,0,0-4.36-2.68,2.23,2.23,0,0,0-2.85.89l-1.64,2.85a2.09,2.09,0,0,0,.73,2.84,37.94,37.94,0,0,0,4.63,2.37,2.57,2.57,0,0,0,3.23-1.16l1-1.83A2.54,2.54,0,0,0,1115.51,1541.51Z"/><path class="cls-34" d="M1101.85,1547.27a23.66,23.66,0,0,0-3.78-2.32,1.93,1.93,0,0,0-2.47.77l-1.42,2.47a1.81,1.81,0,0,0,.63,2.47,33.65,33.65,0,0,0,4,2,2.24,2.24,0,0,0,2.81-1l.86-1.59A2.22,2.22,0,0,0,1101.85,1547.27Z"/><path class="cls-3" d="M1156.61,1720.35h-68.88c.62-10.95,2.27-24.74,4.33-38.92.86-5.92,1.78-11.89,2.74-17.75.2-1.27.41-2.55.61-3.8.24-1.42.47-2.83.71-4.22s.45-2.69.68-4q.72-4.2,1.43-8.19l.84-.07c9.36-.91,23.42-2.83,31.14-6.62,5.17-2.54,9.77-4.77,13.44-6.19.88-.35,1.71-.64,2.48-.88.9,7.07,1.86,14.61,2.82,22.32C1151.92,1676,1154.92,1701.77,1156.61,1720.35Z"/><path class="cls-2" d="M1149,1652s-50.86,16.76-56.89,29.4c.86-5.91,1.78-11.89,2.74-17.75.21-1.27.41-2.55.61-3.8a13.06,13.06,0,0,1,7.54-3.34Z"/><path class="cls-3" d="M1149,1652c-13.42,5.38-42,12.5-54.15,11.65a12.27,12.27,0,0,1-3.85-.76s-2.66-1.83-1.85-4.71a5.28,5.28,0,0,1,.37-.93c1.09-2.12-1.17-6.18-1.74-9.28-.35-1.88-.08-3.4,1.93-3.92,0,0,3.5-.16,8.57-.62,9.34-.87,24-2.78,32-6.69,6.42-3.15,12-5.83,15.92-7.07,3.61-1.12,5.91-1,6.37,1,1,4.21,1.26,12.39,3.6,16.66C1156.66,1648.37,1153.79,1650.08,1149,1652Z"/><path class="cls-2" d="M1104.93,1653.49c-1.49.32-13.88,3.11-15.83,4.72a5.28,5.28,0,0,1,.37-.93c1.09-2.12-1.17-6.18-1.74-9.28,1,.84,5.67,4.5,14.87,3.79C1113,1651,1106.57,1653.14,1104.93,1653.49Z"/><path class="cls-33" d="M1731.5,1601l25.25,31.68a11.19,11.19,0,0,1,12.59,5.88c4.48,8.15,21.55,55.79,21.55,55.79l30.38-25.66c-1.16-1.3-26.6-52.75-28.32-61.3s5.49-26.22-10.63-39.54c-8.76-7.24-12.18-18.59-13.48-27.41a72.65,72.65,0,0,1-.73-8.36,3.13,3.13,0,0,0-1.55-2.62,3.07,3.07,0,0,0-3.26.06,17.39,17.39,0,0,0-7.33,10.27c-1.09,3.91.27,9.5.78,15.32-7.13-3.43-19.67,1.16-24.7,5C1723.44,1566.71,1731.5,1601,1731.5,1601Z"/><path class="cls-34" d="M1767.68,1540.33l1.16.08c-.47-3.24.52-10.16.46-12.39,0-1.17-2.1-.27-2.71.7a6,6,0,0,0-.88,2.37,35.23,35.23,0,0,0-.63,6.47A2.79,2.79,0,0,0,1767.68,1540.33Z"/><path class="cls-38" d="M1774.31,1654.91s1.73,12.21,4.54,29.49c0,.12,0,.24.05.35.07.47.15.93.23,1.39a.25.25,0,0,0,0,.08c.07.44.14.89.22,1.33.22,1.33.44,2.67.69,4.17s.51,3.06.78,4.64.54,3.21.83,4.85c2.7,15.73,3.17,18,3.41,19.14h65.83c-11-22.57-13-24.95-26.88-50.68l-2.48-4.59c-11-20.4-19.42-35.65-20-36.67l0-.05s-24.45,5.52-27,22A18.19,18.19,0,0,0,1774.31,1654.91Z"/><path class="cls-35" d="M1763.36,1649.88l1.15-.11c3.76-.36,6.61-2.5,6.35-4.75l-17.56-151.26-8.48.81,11.53,151.91C1756.52,1648.71,1759.67,1650.24,1763.36,1649.88Z"/><path class="cls-36" d="M1657.54,1506.38l184.09-17.66a9.51,9.51,0,0,0,8.54-10.34l-16.3-169.93a9.5,9.5,0,0,0-10.34-8.53l-184.09,17.65a9.51,9.51,0,0,0-8.54,10.34l16.3,169.93A9.52,9.52,0,0,0,1657.54,1506.38Z"/><path class="cls-37" d="M1690,1494.24,1807.42,1483a33.45,33.45,0,0,0,30-36.37l-10-104.57a33.43,33.43,0,0,0-36.37-30l-117.38,11.25a33.44,33.44,0,0,0-30,36.37l10,104.57A33.44,33.44,0,0,0,1690,1494.24Z"/><path class="cls-32" d="M1720.27,1395.52q-13.1-6.75-14.42-22.26-1.14-13.2,7.83-22.16,8.55-8.46,22.06-9.62t23.22,5.74q10.36,7.3,11.49,20.5,1.32,15.35-10.27,24.38,18.38,6.93,20.11,27.19,1.38,16.11-8.67,26.87-9.49,10.08-25.92,11.49t-27.81-7.12q-11.4-8.52-12.8-24.8Q1703.34,1405.33,1720.27,1395.52Zm4.5,27.22q.76,8.77,5.73,13.55t13.72,4q8.6-.74,12.67-6.28t3.33-14.33q-.72-8.48-5.79-13.48a16.08,16.08,0,0,0-13.56-4.89q-8.28.72-12.55,6.82A21.46,21.46,0,0,0,1724.77,1422.74Zm-.42-50a16.34,16.34,0,0,0,4.7,10.65,14,14,0,0,0,20.47-2,16,16,0,0,0,2.61-11,12.46,12.46,0,0,0-4.73-9.26,14.12,14.12,0,0,0-10.21-2.76q-6.3.54-9.83,4.4T1724.35,1372.76Z"/><path class="cls-4" d="M1730.37,1563l30.44,4c2.57.41,4.41-.64,4.82-3.21l.76-4.79a4.74,4.74,0,0,0-3.93-5.41l-24.65-5.18a7,7,0,0,0-7.46,4.16S1725.32,1562.39,1730.37,1563Z"/><path class="cls-4" d="M1727.12,1577.59l31.21,5a7.48,7.48,0,0,0,8.56-6.2h0a7.49,7.49,0,0,0-6.2-8.56l-31.22-5c-4-.65-7.58-.69-8.55,6.21h0C1719.31,1574.74,1723.06,1577,1727.12,1577.59Z"/><path class="cls-4" d="M1727.75,1589.94l24.91,2.83c3.51.56,6.51-.76,7.07-4.27h0a6.46,6.46,0,0,0-5.36-7.38l-24.59-3.92c-3.5-.56-7-1.27-7.38,5.35h0C1721.79,1587.19,1724.25,1589.44,1727.75,1589.94Z"/><path class="cls-4" d="M1727.35,1600.89l14.42,2.3a5.58,5.58,0,0,0,6.37-4.62h0a5.58,5.58,0,0,0-4.62-6.37l-14.41-2.3a5.59,5.59,0,0,0-6.38,4.62h0A5.58,5.58,0,0,0,1727.35,1600.89Z"/><path class="cls-34" d="M1765,1556.5a34.53,34.53,0,0,0-6.41-1.16,2.81,2.81,0,0,0-3,2.37l-.64,4.14a2.66,2.66,0,0,0,2.18,3,48.49,48.49,0,0,0,6.58.66,3.27,3.27,0,0,0,3.31-2.86l.33-2.64A3.24,3.24,0,0,0,1765,1556.5Z"/><path class="cls-34" d="M1765.45,1571.77a34.87,34.87,0,0,0-6.35-1.14,2.78,2.78,0,0,0-2.93,2.34l-.63,4.1a2.64,2.64,0,0,0,2.16,3,46,46,0,0,0,6.51.65,3.23,3.23,0,0,0,3.27-2.83l.33-2.61A3.21,3.21,0,0,0,1765.45,1571.77Z"/><path class="cls-34" d="M1758.89,1584.07a31,31,0,0,0-5.4-1,2.37,2.37,0,0,0-2.49,2l-.53,3.49a2.22,2.22,0,0,0,1.83,2.54,41,41,0,0,0,5.54.57,2.77,2.77,0,0,0,2.78-2.42l.28-2.21A2.74,2.74,0,0,0,1758.89,1584.07Z"/><path class="cls-34" d="M1747.5,1595.14a25.07,25.07,0,0,0-4.68-.85,2.05,2.05,0,0,0-2.16,1.73l-.46,3a1.94,1.94,0,0,0,1.59,2.21,34.58,34.58,0,0,0,4.8.49,2.39,2.39,0,0,0,2.41-2.09l.25-1.93A2.36,2.36,0,0,0,1747.5,1595.14Z"/><path class="cls-3" d="M1778.55,1685c.07-.16.21-.43.3-.6,0,.12,0,.24.05.35.07.47.15.93.23,1.39a.25.25,0,0,0,0,.08c.07.44.14.89.22,1.33.22,1.33.44,2.67.69,4.17,0,.13,0,.77,0,.89a6.38,6.38,0,0,0,.66,3.49l.16.26a3.61,3.61,0,0,0,.33.44c1.72,1.94,5.43,2.14,10.18.55,5.29-1.77,11.18-5.46,16.58-10.41,5.7-5.24,10.7-12.11,12.7-17.73.13-.36.24-.71.34-1a13.69,13.69,0,0,0,.58-3.08v0a5.63,5.63,0,0,0-1.21-4.19,4.36,4.36,0,0,0-1.62-1.15c-.7-1.33-1.38-2.61-2.06-3.88a8.62,8.62,0,0,1,6.23,2.7c2.27,2.57,2.55,6.54,1.14,11.14a.06.06,0,0,0,0,0c-1.88,6.11-6.73,13.32-13.8,19.81-5.75,5.27-12.07,9.24-17.8,11.13a20.42,20.42,0,0,1-7.47,1.23,10.8,10.8,0,0,1-3.28-.67l-.13,0-.2-.08a7.6,7.6,0,0,1-2.72-1.95C1775.91,1696.08,1775.89,1691.07,1778.55,1685Z"/><path class="cls-33" d="M1500.67,1494a1,1,0,0,1,0,.17c-.37,6.19-1,10.87-1,10.87l-.47.71-17.32,26.41-4.2,6.42a11.09,11.09,0,0,0-9.92,3.73,13.28,13.28,0,0,0-2,3.21c-.81,1.87-2.06,5.7-3.5,10.53,0,0-1.59,34.68-4.8,70.69-.72,8-1.52,16.13-2.39,23.92h-69.22c5.8-14.91,12.81-32.21,19.75-49.05,15.84-38.43,31.31-74.5,31.33-74.54a68.79,68.79,0,0,0,2.71-10.11c.93-8.59-7.81-25.34,6.86-40,8-7.93,10.3-19.44,10.79-28.25.17-3.23-1.45-10-1.59-12.17-.06-1.16,2-.46,2.74.45a2.41,2.41,0,0,1,.39.5,3,3,0,0,1,2.93,0,17.24,17.24,0,0,1,8.16,9.46c1.2,3.15.8,7.6.67,12.35,0,.93,0,1.87,0,2.82l0,0c2.84-1.69,6.76-2.07,10.73-1.68a35.22,35.22,0,0,1,14,4.39,7.41,7.41,0,0,1,2.35,2.56h0c1.88,3.19,2.74,8.27,3,13.68,0,.27,0,.54,0,.8A115.68,115.68,0,0,1,1500.67,1494Z"/><path class="cls-35" d="M1475.29,1555.32h-1.16c-3.77-.06-6.79-2-6.71-4.23l5-140.73,8.52.12,1,140.89C1482,1553.59,1479,1555.38,1475.29,1555.32Z"/><path class="cls-36" d="M1568.92,1415.15,1384,1412.51a9.53,9.53,0,0,1-9.35-9.62l2.44-170.69a9.52,9.52,0,0,1,9.62-9.35l184.92,2.65a9.5,9.5,0,0,1,9.34,9.61l-2.44,170.69A9.51,9.51,0,0,1,1568.92,1415.15Z"/><path class="cls-37" d="M1535.54,1405.7,1417.63,1404a33.44,33.44,0,0,1-32.86-33.81l1.5-105a33.44,33.44,0,0,1,33.82-32.85L1538,1234a33.44,33.44,0,0,1,32.86,33.81l-1.5,105A33.45,33.45,0,0,1,1535.54,1405.7Z"/><path class="cls-32" d="M1507.39,1311.07a26.93,26.93,0,0,0-22.64-11.25,32.81,32.81,0,0,0-13.56,2.77h-.3q8.77-13.86,24-28.95,3.39-3.39,3.39-6.78a8.54,8.54,0,0,0-2.77-6.47,9.35,9.35,0,0,0-6.63-2.62q-3.86,0-13.86,10.17-34.65,35.28-34.65,66.23,0,16.78,9.7,28.19,10.31,12.17,26.8,12.17,17.1,0,27.73-10.78t10.62-27.88Q1515.24,1321.23,1507.39,1311.07Zm-16.79,39.12q-4.78,6-13.09,6a14.87,14.87,0,0,1-12.94-6.62q-4-5.85-4-14.63,0-6.78,2.62-10.93,4.77-7.71,14.79-7.71,8.31,0,12.63,5.63t4.31,14.09Q1494.91,1344.65,1490.6,1350.19Z"/><path class="cls-4" d="M1497.29,1467.5l-29.65,6.68c-2.49.63-4.4-.23-5-2.73l-1.19-4.65a4.69,4.69,0,0,1,3.38-5.69l23.83-7.35a6.89,6.89,0,0,1,7.73,3.41S1502.22,1466.47,1497.29,1467.5Z"/><path class="cls-4" d="M1501.83,1481.61l-30.32,7.76a7.42,7.42,0,0,1-9-5.33h0a7.42,7.42,0,0,1,5.33-9l30.32-7.75c3.94-1,7.41-1.38,9,5.33h0C1509.26,1478.09,1505.77,1480.61,1501.83,1481.61Z"/><path class="cls-4" d="M1502.33,1493.84l-24.3,5.07c-3.4.87-6.48-.16-7.35-3.57h0a6.39,6.39,0,0,1,4.61-7.76l23.87-6.12c3.41-.87,6.8-1.89,7.77,4.61h0C1508,1490.59,1505.74,1493,1502.33,1493.84Z"/><path class="cls-4" d="M1503.72,1504.6l-14,3.58a5.53,5.53,0,0,1-6.7-4h0a5.52,5.52,0,0,1,4-6.7l14-3.59a5.53,5.53,0,0,1,6.71,4h0A5.53,5.53,0,0,1,1503.72,1504.6Z"/><path class="cls-34" d="M1462.59,1464.27a34.93,34.93,0,0,1,6.22-1.72,2.77,2.77,0,0,1,3.13,2.06l1,4a2.63,2.63,0,0,1-1.87,3.18,47.73,47.73,0,0,1-6.42,1.26,3.24,3.24,0,0,1-3.52-2.53l-.57-2.56A3.21,3.21,0,0,1,1462.59,1464.27Z"/><path class="cls-34" d="M1463.52,1479.37a34.38,34.38,0,0,1,6.15-1.7,2.74,2.74,0,0,1,3.1,2l1,4a2.6,2.6,0,0,1-1.85,3.15,46.82,46.82,0,0,1-6.36,1.25,3.21,3.21,0,0,1-3.48-2.5l-.56-2.54A3.18,3.18,0,0,1,1463.52,1479.37Z"/><path class="cls-34" d="M1471.11,1490.9a29.34,29.34,0,0,1,5.22-1.45,2.34,2.34,0,0,1,2.64,1.74l.84,3.38a2.2,2.2,0,0,1-1.57,2.68,40.53,40.53,0,0,1-5.41,1.06,2.73,2.73,0,0,1-2.95-2.13l-.48-2.15A2.69,2.69,0,0,1,1471.11,1490.9Z"/><path class="cls-34" d="M1483.34,1500.77a25.67,25.67,0,0,1,4.53-1.26,2,2,0,0,1,2.29,1.51l.73,2.93a1.91,1.91,0,0,1-1.37,2.32,33.43,33.43,0,0,1-4.68.92,2.36,2.36,0,0,1-2.57-1.84l-.42-1.87A2.34,2.34,0,0,1,1483.34,1500.77Z"/><path class="cls-36" d="M1457.48,1626.75c-.72,8-7.1,85.8-8,93.6h-91.7c5.81-14.91,40.88-101.89,47.82-118.73C1405.62,1601.62,1419.21,1630.56,1457.48,1626.75Z"/><path class="cls-33" d="M2403,1679.42l-1.79.93h-34.1c-1.52-11.79-3.57-27-5.1-35.29-.39-2.11-.74-3.77-1.05-4.84a11.94,11.94,0,0,0-2.13-4.27,10.79,10.79,0,0,0-8.35-3.9l-3.77-7.83L2334,1597.83h0l-.36-.74s0-4.56.41-10.55a1.11,1.11,0,0,1,0-.17,112.44,112.44,0,0,1,1.41-11.65c0-.25.09-.51.14-.76h0c1-5.15,2.46-9.91,4.68-12.72h0a7.14,7.14,0,0,1,2.58-2.14,34.1,34.1,0,0,1,14.08-2.42c3.86.14,7.55,1,10,3,.13-.91.23-1.81.32-2.7.27-2.49.44-4.9.79-7v0a15.1,15.1,0,0,1,1.42-4.7,16.69,16.69,0,0,1,9-8,2.92,2.92,0,0,1,2.8.43l.26.21a3,3,0,0,1,.89,2.78,65.18,65.18,0,0,0-1.08,7.66c0,.1,0,.2,0,.3-.67,8.51.1,19.83,6.73,28.46,12.19,15.87,1.68,30.82,1.47,39.16-.06,2.31.87,8.06,2.27,15.22C2395.57,1650.09,2402.42,1678.37,2403,1679.42Z"/><path class="cls-32" d="M2380.38,1548.22l1.07.33c.25-3.12,2.65-9.37,3.07-11.47.22-1.09-1.9-.7-2.68.09a5.38,5.38,0,0,0-1.32,2,32.94,32.94,0,0,0-2,5.9A2.66,2.66,0,0,0,2380.38,1548.22Z"/><path class="cls-3" d="M2432.25,1720.35h-76.09c.24-5.33.53-50.2.84-54.44a77.83,77.83,0,0,1,5-20.85,69,69,0,0,0,29.91-13.67s9.21,2,13.79,14.15C2409.45,1655.46,2427.72,1707.54,2432.25,1720.35Z"/><path class="cls-35" d="M2348.34,1658.38l1.14.15c3.74.49,7-1,7.25-3.22l15.16-140-8.44-1.1-21.19,139.29C2341.93,1655.71,2344.66,1657.91,2348.34,1658.38Z"/><path class="cls-36" d="M2275.74,1506.25l183.38,23.86a9.51,9.51,0,0,0,10.63-8.19l22-169.28a9.51,9.51,0,0,0-8.18-10.62l-183.39-23.86a9.52,9.52,0,0,0-10.63,8.18l-22,169.28A9.5,9.5,0,0,0,2275.74,1506.25Z"/><path class="cls-37" d="M2310.12,1501.67l116.94,15.21a33.43,33.43,0,0,0,37.36-28.76L2478,1384a33.45,33.45,0,0,0-28.76-37.37l-116.94-15.21a33.44,33.44,0,0,0-37.36,28.76l-13.55,104.17A33.43,33.43,0,0,0,2310.12,1501.67Z"/><path class="cls-32" d="M2411.19,1398.13q1.53-12.84-6.19-21.74t-20.71-10.45a38.83,38.83,0,0,0-18.23,2,29.55,29.55,0,0,0-14.62,10.83,19.67,19.67,0,0,0-3.72,9.18,11.63,11.63,0,0,0,1.52,7.31,7.24,7.24,0,0,0,5.65,3.93c3.44.41,6-1.1,7.64-4.53,2.08-4.5,4.35-7.6,6.82-9.27,2.9-1.93,6.7-2.62,11.37-2.06a12.32,12.32,0,0,1,8.6,4.35q3,3.69,2.3,9.35-1.12,9.48-7.35,12.62-.18.13-11.42,2.83-6.06,1.6-6.71,7.12-.88,7.5,9,9.59,17.38,3.77,15.62,18.75a21.43,21.43,0,0,1-3.34,9.85q-5.53,7.41-16.24,6.14a17.2,17.2,0,0,1-12.37-6.89,118.67,118.67,0,0,1-5.42-10.57q-2.88-5.77-6.86-6.24a8,8,0,0,0-6.59,2,9.62,9.62,0,0,0-3.23,6.28q-1.57,13.32,11.37,24.46,8.16,7,20.71,8.51,16.22,1.92,27.85-6,12.3-8.31,14.2-24.22,2.43-20.51-15.35-30.21Q2409.36,1413.58,2411.19,1398.13Z"/><path class="cls-4" d="M2340.71,1561.26l27.11,11.33c2.27,1,4.23.52,5.26-1.75l1.91-4.22a4.53,4.53,0,0,0-2.26-6l-21.46-11a6.66,6.66,0,0,0-7.94,1.95S2336.18,1559.45,2340.71,1561.26Z"/><path class="cls-4" d="M2334.58,1574.34l28.06,11.31a7.19,7.19,0,0,0,9.32-4h0a7.18,7.18,0,0,0-4-9.31l-28.06-11.31c-3.65-1.47-6.94-2.26-9.31,4h0C2327.9,1570,2330.93,1572.87,2334.58,1574.34Z"/><path class="cls-4" d="M2332.53,1586l22.64,8c3.15,1.27,6.24.67,7.51-2.48h0a6.19,6.19,0,0,0-3.42-8l-22.11-8.91c-3.15-1.27-6.27-2.68-8,3.42h0C2327.56,1582.16,2329.36,1584.79,2332.53,1586Z"/><path class="cls-4" d="M2329.82,1596.13l13,5.23a5.36,5.36,0,0,0,6.94-2.95h0a5.36,5.36,0,0,0-2.95-6.94l-13-5.22a5.34,5.34,0,0,0-6.93,3h0A5.34,5.34,0,0,0,2329.82,1596.13Z"/><path class="cls-32" d="M2373.85,1563.94a33.69,33.69,0,0,0-5.63-2.69,2.71,2.71,0,0,0-3.34,1.44l-1.63,3.67a2.54,2.54,0,0,0,1.25,3.34,46.22,46.22,0,0,0,5.91,2.28,3.13,3.13,0,0,0,3.77-1.82l1-2.35A3.1,3.1,0,0,0,2373.85,1563.94Z"/><path class="cls-32" d="M2371.14,1577a32.45,32.45,0,0,0-5.68-2.42,2.66,2.66,0,0,0-3.24,1.56l-1.45,3.69a2.52,2.52,0,0,0,1.37,3.26,46.09,46.09,0,0,0,5.94,2,3.09,3.09,0,0,0,3.65-2l.87-2.36A3.07,3.07,0,0,0,2371.14,1577Z"/><path class="cls-32" d="M2362.84,1587.17a29,29,0,0,0-4.83-2.06,2.27,2.27,0,0,0-2.75,1.33l-1.24,3.14a2.15,2.15,0,0,0,1.17,2.77,40.06,40.06,0,0,0,5,1.7,2.62,2.62,0,0,0,3.1-1.66l.74-2A2.61,2.61,0,0,0,2362.84,1587.17Z"/><path class="cls-32" d="M2349.85,1595.07a24.35,24.35,0,0,0-4.18-1.79,2,2,0,0,0-2.39,1.15l-1.08,2.72a1.85,1.85,0,0,0,1,2.4,31.39,31.39,0,0,0,4.38,1.48,2.27,2.27,0,0,0,2.69-1.43l.64-1.75A2.25,2.25,0,0,0,2349.85,1595.07Z"/><path class="cls-33" d="M622.52,1720.35H584.14c-.16-.58-.31-1.15-.47-1.7-1.81-6.55-3.4-11.86-4.39-14.24a13.19,13.19,0,0,0-3.43-4.91,12.08,12.08,0,0,0-9.22-2.74l-4.38-6.89L544,1661.15h0l-.48-.76s-.62-5-.92-11.7a1.15,1.15,0,0,1,0-.19,123.77,123.77,0,0,1,0-13c0-.28,0-.57,0-.85.42-5.82,1.43-11.27,3.5-14.65v0a8,8,0,0,1,2.56-2.7,38.21,38.21,0,0,1,16.06-4.57c3.78-.21,7.44.26,10.2,1.81l.43.25c0-1,0-2,0-3-.07-5.12-.42-9.91.92-13.27a18.54,18.54,0,0,1,8.92-10,3.23,3.23,0,0,1,3.14.1l.32.2a3.31,3.31,0,0,1,1.34,3,79.52,79.52,0,0,0-.18,8.93c.38,9.47,2.71,21.88,11.15,30.53,15.53,15.92,5.88,33.79,6.75,43,.25,2.67,2.17,9.34,4.83,17.53C615.48,1700.51,619.19,1711.13,622.52,1720.35Z"/><path class="cls-34" d="M588.68,1600.34l1.21.22c-.13-3.47,1.71-10.68,1.9-13.06.09-1.23-2.2-.52-2.95.44a6.35,6.35,0,0,0-1.2,2.41,37,37,0,0,0-1.4,6.77A3,3,0,0,0,588.68,1600.34Z"/><path class="cls-3" d="M627.85,1720.35H583.1a17.85,17.85,0,0,1,.57-1.7c4.56-11.72,21.57-22.68,29-27,2.13-1.24,3.45-1.93,3.45-1.93S620.9,1702.14,627.85,1720.35Z"/><path class="cls-35" d="M568,1718.83h1.16c3.77.05,6.84-1.77,6.82-4L574.59,1574l-8.51-.1-4.65,140.82C561.36,1716.93,564.33,1718.79,568,1718.83Z"/><path class="cls-36" d="M478,1576.3,663,1578.41a9.51,9.51,0,0,0,9.59-9.37l2-170.7a9.51,9.51,0,0,0-9.37-9.59l-184.93-2.11a9.51,9.51,0,0,0-9.59,9.37l-1.95,170.7A9.52,9.52,0,0,0,478,1576.3Z"/><path class="cls-37" d="M511.64,1567.71l117.92,1.34a33.43,33.43,0,0,0,33.72-33l1.2-105a33.44,33.44,0,0,0-33-33.72L513.6,1396a33.45,33.45,0,0,0-33.71,33l-1.2,105A33.44,33.44,0,0,0,511.64,1567.71Z"/><path class="cls-32" d="M598.33,1425H545.19q-11.09,0-11.09,8.85t11.25,8.86h42.5l-.76,1.55L551,1522.74a19.28,19.28,0,0,0-2.27,8.45,7.54,7.54,0,0,0,3.23,6.29,11.41,11.41,0,0,0,7.08,2.46q5.85,0,9.86-8.93l40.2-89.49q2.16-4.77,2.16-7.55Q611.27,1425,598.33,1425Z"/><path class="cls-4" d="M546.64,1620.06l31.75,7.64c2.67.72,4.73-.18,5.46-2.85l1.35-5a5,5,0,0,0-3.54-6.18l-25.49-8.27a7.42,7.42,0,0,0-8.37,3.54S541.36,1618.87,546.64,1620.06Z"/><path class="cls-4" d="M541.54,1635.16,574,1644a8,8,0,0,0,9.76-5.59h0a8,8,0,0,0-5.59-9.76l-32.45-8.81c-4.22-1.15-8-1.6-9.76,5.59h0C533.6,1631.25,537.32,1634,541.54,1635.16Z"/><path class="cls-4" d="M540.81,1648.28l26,5.83c3.65,1,7-.07,8-3.71h0A6.88,6.88,0,0,0,570,1642L544.4,1635c-3.64-1-7.27-2.14-8.42,4.82h0C534.82,1644.7,537.15,1647.37,540.81,1648.28Z"/><path class="cls-4" d="M539.14,1659.82l15,4.07a5.92,5.92,0,0,0,7.26-4.16h0a5.93,5.93,0,0,0-4.16-7.26l-15-4.07a5.93,5.93,0,0,0-7.26,4.16h0A5.93,5.93,0,0,0,539.14,1659.82Z"/><path class="cls-34" d="M584,1617.14a36.82,36.82,0,0,0-6.65-2,3,3,0,0,0-3.4,2.17l-1.14,4.3a2.81,2.81,0,0,0,2,3.45,52,52,0,0,0,6.89,1.46,3.48,3.48,0,0,0,3.81-2.66l.66-2.75A3.44,3.44,0,0,0,584,1617.14Z"/><path class="cls-34" d="M582.74,1633.35a36.05,36.05,0,0,0-6.58-1.93,3,3,0,0,0-3.37,2.15l-1.13,4.26a2.79,2.79,0,0,0,2,3.41,49.29,49.29,0,0,0,6.81,1.44,3.46,3.46,0,0,0,3.78-2.63l.64-2.72A3.41,3.41,0,0,0,582.74,1633.35Z"/><path class="cls-34" d="M574.41,1645.62a31.5,31.5,0,0,0-5.6-1.64,2.5,2.5,0,0,0-2.86,1.82l-1,3.63a2.38,2.38,0,0,0,1.65,2.9,42.44,42.44,0,0,0,5.79,1.22,2.92,2.92,0,0,0,3.21-2.23l.55-2.32A2.89,2.89,0,0,0,574.41,1645.62Z"/><path class="cls-34" d="M561.11,1656a27,27,0,0,0-4.86-1.43,2.19,2.19,0,0,0-2.48,1.59l-.83,3.14a2.07,2.07,0,0,0,1.43,2.52,38.11,38.11,0,0,0,5,1.06,2.54,2.54,0,0,0,2.78-1.94l.48-2A2.51,2.51,0,0,0,561.11,1656Z"/><path class="cls-33" d="M2677.77,1582.36l-24,22.75h-4.66c-3-7-10.49-24.36-16.13-36.49-2.54-5.49-4.71-9.91-5.93-11.85a12.39,12.39,0,0,0-2.22-2.67h0a10.59,10.59,0,0,0-10-2.18l-4.61-5.14L2589.85,1524l-.54-.6s-1.29-4.32-2.52-10.12a.85.85,0,0,1,0-.17,113.18,113.18,0,0,1-1.87-11.43c0-.26-.05-.51-.07-.77-.49-5.15-.4-10.08.92-13.35v0a7.13,7.13,0,0,1,1.85-2.74,34,34,0,0,1,13.61-6.4c3.39-.73,6.76-.8,9.43.3-.13-.9-.28-1.78-.44-2.65-.8-4.38-1.78-8.44-1.17-11.56h0a1.42,1.42,0,0,1,0-.2,16.44,16.44,0,0,1,6.35-10.1,2.88,2.88,0,0,1,2.77-.37h0a2.08,2.08,0,0,1,.3.13,3,3,0,0,1,1.61,2.39,68.08,68.08,0,0,0,1.11,7.63,1.43,1.43,0,0,0,0,.22c1.71,8.26,5.56,18.79,14.23,25.14,16,11.7,10.09,28.77,12.2,36.75.61,2.3,3.27,7.87,6.79,14.66C2663.12,1557.43,2676.94,1581.54,2677.77,1582.36Z"/><path class="cls-3" d="M2620.14,1464.15h1.1c-.62-3-.07-9.61-.24-11.72-.1-1.1-2-.14-2.52.82a5.35,5.35,0,0,0-.7,2.28,32.53,32.53,0,0,0-.24,6.14A2.63,2.63,0,0,0,2620.14,1464.15Z"/><path class="cls-5" d="M2763.28,1720.35H2667c-4.3-19-34.32-148.38-34.32-148.38a14.83,14.83,0,0,1,.34-3.35c2.29-10.95,15.6-23,21.44-27.91,1.69-1.4,2.75-2.2,2.75-2.2S2743.72,1686.26,2763.28,1720.35Z"/><path class="cls-35" d="M2622,1583.93l1.14-.17c3.73-.58,6.46-2.88,6.06-5.12L2604.69,1440l-8.42,1.31,18.55,139.66C2615.11,1583.16,2618.35,1584.5,2622,1583.93Z"/><path class="cls-36" d="M2509.83,1458.12l182.75-28.29a9.52,9.52,0,0,0,7.93-10.82l-26.12-168.7a9.5,9.5,0,0,0-10.82-7.92l-182.75,28.28a9.52,9.52,0,0,0-7.93,10.83L2499,1450.19A9.51,9.51,0,0,0,2509.83,1458.12Z"/><path class="cls-37" d="M2541.56,1444.12l116.54-18a33.43,33.43,0,0,0,27.85-38l-16.07-103.81a33.43,33.43,0,0,0-38-27.85l-116.54,18a33.43,33.43,0,0,0-27.85,38l16.07,103.82A33.43,33.43,0,0,0,2541.56,1444.12Z"/><path class="cls-32" d="M2624.58,1325.5q-1.95-17.76-12.19-27.64-11.08-10.54-28.53-8.62-16.55,1.82-26.11,14.11t-7.74,28.82q1.57,14.4,10.66,23.62a27.72,27.72,0,0,0,23.87,8.53,35,35,0,0,0,14.25-4.37h.15a119.73,119.73,0,0,1-16.88,25.41q-4.51,5.46-5.86,7.31a8.91,8.91,0,0,0-1.82,5.93,9.42,9.42,0,0,0,3.16,6.17,7.9,7.9,0,0,0,6.42,2.08q11.94-1.32,31.06-36a84,84,0,0,0,8.47-21.54A70.52,70.52,0,0,0,2624.58,1325.5Zm-23.51,15.14q-4.25,5.74-12.36,6.64-8.27.9-13.2-4.44-4.4-4.78-5.34-13.36a22.47,22.47,0,0,1,3-14.67q3.95-6.39,12.05-7.29a15,15,0,0,1,13.74,5.15c3,3.49,4.78,8.21,5.43,14.12Q2605.32,1334.91,2601.07,1340.64Z"/><path class="cls-4" d="M2586.16,1487.58l29,2.06c2.44.25,4.12-.85,4.37-3.3l.46-4.55a4.49,4.49,0,0,0-4-4.9l-23.55-3.53a6.59,6.59,0,0,0-6.83,4.33S2581.36,1487.3,2586.16,1487.58Z"/><path class="cls-4" d="M2583.9,1501.56l29.74,3a7.09,7.09,0,0,0,7.74-6.32h0a7.1,7.1,0,0,0-6.33-7.74l-29.74-3c-3.87-.39-7.2-.24-7.74,6.33h0C2576.36,1499.29,2580,1501.17,2583.9,1501.56Z"/><path class="cls-4" d="M2585.17,1513.17l23.67,1.31c3.34.34,6.1-1.08,6.44-4.41h0a6.12,6.12,0,0,0-5.46-6.68l-23.43-2.36c-3.34-.33-6.69-.81-6.68,5.46h0C2579.39,1510.91,2581.83,1512.9,2585.17,1513.17Z"/><path class="cls-4" d="M2585.39,1523.54l13.74,1.38a5.28,5.28,0,0,0,5.76-4.71h0a5.28,5.28,0,0,0-4.71-5.77l-13.74-1.38a5.28,5.28,0,0,0-5.76,4.71h0A5.28,5.28,0,0,0,2585.39,1523.54Z"/><path class="cls-3" d="M2618.47,1479.56a33.83,33.83,0,0,0-6.12-.74,2.65,2.65,0,0,0-2.66,2.4l-.37,4a2.5,2.5,0,0,0,2.22,2.73,44.18,44.18,0,0,0,6.25.27,3.09,3.09,0,0,0,3-2.88l.17-2.51A3.07,3.07,0,0,0,2618.47,1479.56Z"/><path class="cls-3" d="M2619.76,1494a32.42,32.42,0,0,0-6.06-.73,2.62,2.62,0,0,0-2.63,2.37l-.37,3.9a2.48,2.48,0,0,0,2.2,2.71,44.74,44.74,0,0,0,6.18.27,3.06,3.06,0,0,0,2.93-2.86l.17-2.48A3,3,0,0,0,2619.76,1494Z"/><path class="cls-3" d="M2614.24,1505.93a28,28,0,0,0-5.15-.62,2.23,2.23,0,0,0-2.24,2l-.31,3.32a2.1,2.1,0,0,0,1.87,2.3,36.79,36.79,0,0,0,5.26.22,2.6,2.6,0,0,0,2.49-2.42l.14-2.11A2.58,2.58,0,0,0,2614.24,1505.93Z"/><path class="cls-3" d="M2604.1,1517a24.3,24.3,0,0,0-4.47-.54,1.94,1.94,0,0,0-1.94,1.75l-.27,2.88a1.84,1.84,0,0,0,1.62,2,33.45,33.45,0,0,0,4.56.19,2.25,2.25,0,0,0,2.16-2.1l.13-1.83A2.25,2.25,0,0,0,2604.1,1517Z"/><path class="cls-33" d="M862.14,1425.63l-8.61,42.2a11.87,11.87,0,0,0-9.07,11.64c-.31,9.89,6.54,63.23,6.54,63.23l-41.16-9.62c.47-1.79-.3-62.79-2.8-71.72s-17.85-22.16-9-42.56c4.63-10.67,2.71-22.58-.14-31.46-.11-.35-.22-.68-.33-1a74.44,74.44,0,0,0-3.35-8.27,2.48,2.48,0,0,1-.17-.48,3.32,3.32,0,0,1,3.49-4.27,18.48,18.48,0,0,1,11.9,6.19c2.93,3.18,4.34,9.12,6.67,14.88,5.09-6.69,19.18-8.4,25.81-7.17C853.21,1389.3,862.14,1425.63,862.14,1425.63Z"/><path class="cls-34" d="M800.58,1384c.44,1.12-.3,2.38-1.75,2.94l-1,.38c-.11-.35-.22-.68-.33-1a74.44,74.44,0,0,0-3.35-8.27,2.48,2.48,0,0,1-.17-.48,3.83,3.83,0,0,1,2.29.31,4.46,4.46,0,0,1,1.62,1.49A22.88,22.88,0,0,1,800.58,1384Z"/><path class="cls-38" d="M804.88,1478.87s34.64,4,42.78,18.52c0,0,49,142.53,36.74,151.58s-70.82,30.08-75.64,12.7S804.88,1478.87,804.88,1478.87Z"/><path class="cls-35" d="M857.49,1468.89l-1,.5c-3.4,1.63-7,1.28-7.89-.79l-58.11-128.28,7.68-3.68,63.61,125.72C862.75,1464.36,860.84,1467.29,857.49,1468.89Z"/><path class="cls-36" d="M879,1301.7l-166.78,79.92a9.51,9.51,0,0,1-12.65-4.46l-73.77-153.94a9.51,9.51,0,0,1,4.46-12.65L797,1130.65a9.51,9.51,0,0,1,12.65,4.45l73.77,154A9.51,9.51,0,0,1,879,1301.7Z"/><path class="cls-37" d="M844.87,1308.08l-106.34,51a33.43,33.43,0,0,1-44.47-15.65l-45.4-94.74a33.44,33.44,0,0,1,15.66-44.47l106.35-51a33.45,33.45,0,0,1,44.47,15.66l45.39,94.73A33.42,33.42,0,0,1,844.87,1308.08Z"/><path class="cls-32" d="M792.87,1257.8q-3-6.22-8.28-4.7-1.46-.15-7,2.55l-22.46-46.12q-4.1-8.41-9.52-10.9c-3.53-1.63-7.48-1.37-11.86.75a15.63,15.63,0,0,0-7.28,6.59l-.16.29q-1.91,3.49-2.51,10l-6,58.76q-1.06,10.13,2.1,16.63,4.25,8.72,16,3l32.26-15.71,7.69,15.79q4.73,9.69,12.62,5.85,8.85-4.32,4.2-13.87L785,1270.74q5.4-2.62,7.21-4.88Q795.18,1262.52,792.87,1257.8ZM734,1276.86q5.46-55.84,5.74-56.33l21.07,43.27Z"/><path class="cls-4" d="M845.1,1388.94l-.25.17-26.91,18.45c-1.71,1.25-3.44,1.48-4.89.5a5,5,0,0,1-1.22-1.21l-3-4.16a4.86,4.86,0,0,1-.77-1.61,5,5,0,0,1,1.87-5.42l20.84-16.8a7.4,7.4,0,0,1,9.08.33S849,1385.86,845.1,1388.94Z"/><path class="cls-4" d="M858.5,1392.89c1.19,2.74.09,5.15-1.81,7.07a15.56,15.56,0,0,1-1.69,1.43l-26.28,19.16-.87.63a8,8,0,0,1-11.11-1.75,8.47,8.47,0,0,1-.86-1.52,7.71,7.71,0,0,1-.63-2.74,7.93,7.93,0,0,1,3.24-6.83l26.36-19.23.25-.17.54-.39c3.53-2.58,6.85-4.33,11.1,1.74A9.12,9.12,0,0,1,858.5,1392.89Z"/><path class="cls-4" d="M862.85,1405.55c1.38,3.19.23,5.8-2.23,7.63l-.26.19-4.9,3.25-17.32,11.47a7.08,7.08,0,0,1-5.58,1.55,5.29,5.29,0,0,1-3.17-2.17,7.22,7.22,0,0,1-.75-1.32,6.67,6.67,0,0,1-.52-3.34,6.85,6.85,0,0,1,2.77-4.92l21.39-15.6c1.46-1.06,2.9-2.16,4.41-2.33,0,0,0,0,0,0,1.62-.2,3.31.68,5.16,3.84A11.34,11.34,0,0,1,862.85,1405.55Z"/><path class="cls-4" d="M868,1416.42a5.94,5.94,0,0,1-1.94,7.14l-12.54,9.14a5.91,5.91,0,0,1-5.14.88,5.78,5.78,0,0,1-3.13-2.18,6.06,6.06,0,0,1-.64-1.13,5.86,5.86,0,0,1-.49-2.35,5.94,5.94,0,0,1,2.43-4.79l8.94-6.51,0,0,3.56-2.6a5.8,5.8,0,0,1,1.56-.81h0a5.93,5.93,0,0,1,6.7,2.11A6.06,6.06,0,0,1,868,1416.42Z"/><path class="cls-34" d="M820.42,1403.85a50.21,50.21,0,0,1-5.9,3.81,3.45,3.45,0,0,1-1.47.4,5,5,0,0,1-1.22-1.21l-3-4.16a4.86,4.86,0,0,1-.77-1.61,3.31,3.31,0,0,1,.94-1.39,36.75,36.75,0,0,1,5.51-4.19,3,3,0,0,1,3.95.81l2.6,3.62A2.82,2.82,0,0,1,820.42,1403.85Z"/><path class="cls-34" d="M827.23,1418.5a51.58,51.58,0,0,1-5.85,3.77l-.3.14a7.86,7.86,0,0,1-4.34-3,8.47,8.47,0,0,1-.86-1.52,7.71,7.71,0,0,1-.63-2.74,3.26,3.26,0,0,1,.64-.79,37.77,37.77,0,0,1,5.46-4.14,3,3,0,0,1,3.91.8l2.57,3.58A2.8,2.8,0,0,1,827.23,1418.5Z"/><path class="cls-34" d="M837.69,1426.36a44,44,0,0,1-5,3.21l-.16.07a5.29,5.29,0,0,1-3.17-2.17,7.22,7.22,0,0,1-.75-1.32,6.67,6.67,0,0,1-.52-3.34,31.88,31.88,0,0,1,4.57-3.47,2.51,2.51,0,0,1,3.32.69l2.18,3A2.36,2.36,0,0,1,837.69,1426.36Z"/><path class="cls-34" d="M852.53,1430.88a36.34,36.34,0,0,1-4.18,2.7,5.78,5.78,0,0,1-3.13-2.18,6.06,6.06,0,0,1-.64-1.13,5.86,5.86,0,0,1-.49-2.35l.08-.08a27.75,27.75,0,0,1,4-3.06,2.19,2.19,0,0,1,2.89.6L853,1428A2.07,2.07,0,0,1,852.53,1430.88Z"/><path class="cls-39" d="M808.35,1472.23s-8.58,10.61-9.84,24.8c0,0,20.18,6.73,29.25,6.42l7.74-16.12,5.26,15.76s10.5-.43,14.23-3.19c0,0-5-17.1-10.31-22.6C844.68,1477.3,818.74,1481.39,808.35,1472.23Z"/><path class="cls-38" d="M822,1498.13a2,2,0,1,1,2.62,1A2,2,0,0,1,822,1498.13Z"/><path class="cls-38" d="M917.12,1719.73l-90.74.62c-9.59-30.12-17.62-58.68-17.62-58.68L886,1635.06a14.15,14.15,0,0,0,.25,2.8s0,0,0,0C887.88,1647.72,908.07,1698.12,917.12,1719.73Z"/><path class="cls-23" d="M2938.27,1727.73H61.73A5.75,5.75,0,0,1,56,1722h0a5.75,5.75,0,0,1,5.73-5.73H2938.27A5.75,5.75,0,0,1,2944,1722h0A5.75,5.75,0,0,1,2938.27,1727.73Z"/></svg>