<svg xmlns="http://www.w3.org/2000/svg" xmlns:xlink="http://www.w3.org/1999/xlink" viewBox="0 0 500 500"><defs><style>.cls-1,.cls-10,.cls-14,.cls-15,.cls-6{fill:none;}.cls-2{fill:#fcb28d;}.cls-3{fill:#49688a;}.cls-4{fill:#415c7a;}.cls-5,.cls-9{fill:#fff;}.cls-6{stroke:#1a3954;stroke-width:1.66px;}.cls-10,.cls-14,.cls-15,.cls-6{stroke-linecap:round;stroke-linejoin:round;}.cls-7{fill:#fa4614;}.cls-8{fill:#567ba3;}.cls-9{opacity:0.57;}.cls-10,.cls-14{stroke-width:2.97px;}.cls-10{stroke:url(#New_Pattern_Swatch_53);}.cls-11{fill:#3c2415;}.cls-12{fill:url(#linear-gradient);}.cls-13{fill:url(#linear-gradient-2);}.cls-14{stroke:url(#New_Pattern_Swatch_53-3);}.cls-15{stroke:#fcb28d;stroke-width:3.33px;}.cls-16{fill:#1f1d38;}.cls-17{fill:#534741;}.cls-18{fill:url(#linear-gradient-3);}.cls-19{fill:url(#linear-gradient-4);}.cls-20{fill:#f6921e;}.cls-21{fill:url(#linear-gradient-5);}.cls-22{fill:url(#linear-gradient-6);}.cls-23{fill:#a57c52;}.cls-24{fill:url(#linear-gradient-7);}.cls-25{fill:url(#linear-gradient-8);}.cls-26{fill:#2a3c4f;}</style><pattern id="New_Pattern_Swatch_53" data-name="New Pattern Swatch 53" width="29" height="29" patternTransform="translate(49.96 -7.3) rotate(-62.47) scale(0.32)" patternUnits="userSpaceOnUse" viewBox="0 0 29 29"><rect class="cls-1" width="29" height="29"/><rect class="cls-2" width="29" height="29"/></pattern><linearGradient id="linear-gradient" x1="-181.72" y1="-485.98" x2="-177.71" y2="-481.97" gradientTransform="translate(400.43 783.64) rotate(10.49)" gradientUnits="userSpaceOnUse"><stop offset="0" stop-color="#d8654e"/><stop offset="0.24" stop-color="#de7259"/><stop offset="0.68" stop-color="#ef9575"/><stop offset="1" stop-color="#fcb28d"/></linearGradient><linearGradient id="linear-gradient-2" x1="-2183.08" y1="520.94" x2="-2184.82" y2="521.35" gradientTransform="matrix(-0.87, 0.49, 0.49, 0.87, -1853.01, 887.45)" gradientUnits="userSpaceOnUse"><stop offset="0" stop-color="#d8654e"/><stop offset="0.18" stop-color="#e0765c"/><stop offset="0.54" stop-color="#f4a17f"/><stop offset="0.67" stop-color="#fcb28d"/></linearGradient><pattern id="New_Pattern_Swatch_53-3" data-name="New Pattern Swatch 53" width="29" height="29" patternTransform="translate(0.86 85.77) rotate(49.35) scale(0.32)" patternUnits="userSpaceOnUse" viewBox="0 0 29 29"><rect class="cls-1" width="29" height="29"/><rect class="cls-2" width="29" height="29"/></pattern><linearGradient id="linear-gradient-3" x1="-284.19" y1="-393.79" x2="-280.18" y2="-389.78" gradientTransform="translate(228.23 831.78) rotate(32.03)" xlink:href="#linear-gradient"/><linearGradient id="linear-gradient-4" x1="-2042.88" y1="526.32" x2="-2044.62" y2="526.73" gradientTransform="matrix(-0.89, 0.45, 0.45, 0.89, -1867.61, 804.56)" xlink:href="#linear-gradient-2"/><linearGradient id="linear-gradient-5" x1="-225.7" y1="-359.72" x2="-221.69" y2="-355.71" gradientTransform="translate(286.05 811.27) rotate(26.72)" xlink:href="#linear-gradient"/><linearGradient id="linear-gradient-6" x1="-2068.38" y1="589.95" x2="-2070.11" y2="590.36" gradientTransform="matrix(-0.97, 0.23, 0.23, 0.97, -1906.5, 280.97)" xlink:href="#linear-gradient-2"/><linearGradient id="linear-gradient-7" x1="-379.83" y1="-375.43" x2="-375.82" y2="-371.42" gradientTransform="matrix(0.93, 0.38, -0.38, 0.93, 309.37, 835.66)" xlink:href="#linear-gradient"/><linearGradient id="linear-gradient-8" x1="-1958.46" y1="477.15" x2="-1960.2" y2="477.56" gradientTransform="matrix(-0.81, 0.58, 0.58, 0.81, -1774.8, 1098.92)" xlink:href="#linear-gradient-2"/></defs><g id="OBJECTS"><rect class="cls-3" x="-1" y="421.28" width="491.24" height="79.33"/><polygon class="cls-3" points="16.13 429 109.12 395.64 156.09 424.47 234.38 368.63 233.09 448.44 110.79 461.95 16.13 429"/><path class="cls-3" d="M499,373.52V500.61H155.61l32.83-47.24L201.19,435l6.32-13.75,22.91-49.82h0L262,302.77s23.06-5.34,37-8.5L336,241l4.66-6.7,56.76-81.69,16.87,36.7,2,4.28,17.36,37.77h0l2,4.43,8.52,6.08L470,260.3v50.2l8,17.37,6.18,13.46,3.86,8.39,6.18,13.45Z"/><polygon class="cls-4" points="470.03 260.3 470.03 282.97 461.67 271.79 454.61 302.94 448.75 264.24 447.9 264.6 442.13 250.04 444.22 241.88 470.03 260.3"/><polygon class="cls-4" points="416.29 193.59 408.05 231.36 403.67 208.28 397.77 241.61 391 199.61 346.33 257.73 336.03 241 397.45 152.61 416.29 193.59"/><polygon class="cls-5" points="416.29 111.98 417.25 116.3 421.57 117.26 417.25 118.23 416.29 122.54 415.32 118.23 411.01 117.26 415.32 116.3 416.29 111.98"/><polygon class="cls-5" points="367.37 122.54 368.91 129.43 375.79 130.97 368.91 132.51 367.37 139.39 365.83 132.51 358.94 130.97 365.83 129.43 367.37 122.54"/><polygon class="cls-5" points="395.39 79.68 397.93 91.02 409.27 93.56 397.93 96.1 395.39 107.44 392.86 96.1 381.51 93.56 392.86 91.02 395.39 79.68"/><polygon class="cls-5" points="421.57 100.64 422.14 103.19 424.69 103.76 422.14 104.33 421.57 106.89 421 104.33 418.45 103.76 421 103.19 421.57 100.64"/><line class="cls-6" x1="395.39" y1="144.85" x2="395.39" y2="123.38"/><polygon class="cls-7" points="409.23 132.28 394.44 132.28 394.44 124.07 409.23 124.07 405.08 128.17 409.23 132.28"/><polygon class="cls-5" points="335.96 223.74 345 243.95 392.15 188.5 420 189.52 401.45 144.94 386.07 144.2 335.96 223.74"/><polygon class="cls-5" points="433.65 231.36 444.5 255.27 462.5 264.85 474.27 278.91 474.27 258.79 433.65 231.36"/><polygon class="cls-5" points="450.5 255.14 455.18 295.27 458.73 255.8 450.5 255.14"/><polygon class="cls-5" points="405.18 182.07 408.44 210.03 410.91 182.53 405.18 182.07"/><polygon class="cls-5" points="393.7 182.07 398.33 221.78 401.84 182.73 393.7 182.07"/><polygon class="cls-8" points="378.8 354.77 375.17 403.71 374.17 417.17 373.86 421.28 373.54 425.56 370.98 460.11 367.97 500.61 338.7 500.61 349.83 460.11 353.73 445.93 353.73 445.92 354.95 441.5 359.33 425.56 360.51 421.28 361.64 417.17 365.34 403.71 378.8 354.77"/><polygon class="cls-4" points="383.44 332.11 386.53 282.95 401.84 242.89 397.77 300.18 401.84 339.56 386.53 414.95 392.64 345.12 383.44 332.11"/><polygon class="cls-4" points="355.35 262.54 303.33 324.96 283.33 328.92 266.67 395.64 290.67 339.56 314.67 337.28 355.35 262.54"/><path class="cls-9" d="M183.57,313h0a4.2,4.2,0,0,1,4.19-4.2h7.09a6.73,6.73,0,0,0,6.73-6.73h0a6.73,6.73,0,0,0-6.73-6.72H85a6.73,6.73,0,0,0-6.73,6.72h0A6.73,6.73,0,0,0,85,308.81h64.64a4.2,4.2,0,0,1,4.19,4.2h0a4.2,4.2,0,0,1-4.19,4.19h-7.42a6.73,6.73,0,0,0-6.73,6.73h0a6.73,6.73,0,0,0,6.73,6.73h79a6.73,6.73,0,0,0,6.73-6.73h0a6.74,6.74,0,0,0-6.73-6.73H187.76A4.2,4.2,0,0,1,183.57,313Z"/><path class="cls-9" d="M347.38,222h0a6.72,6.72,0,0,0-6.72-6.73H172.92a6.73,6.73,0,0,0-6.73,6.73h0a6.73,6.73,0,0,0,6.73,6.73h64.63a4.2,4.2,0,0,1,4.2,4.19h0a4.2,4.2,0,0,1-4.2,4.2h-7.42a6.72,6.72,0,0,0-6.72,6.73h0a6.72,6.72,0,0,0,6.72,6.72h79a6.72,6.72,0,0,0,6.73-6.72h0a6.73,6.73,0,0,0-6.73-6.73H275.71a4.2,4.2,0,0,1-4.2-4.2h0a4.2,4.2,0,0,1,4.2-4.19h65A6.72,6.72,0,0,0,347.38,222Z"/><path class="cls-9" d="M89.6,369.37a6.73,6.73,0,0,1-6.73,6.72H17.92a4.2,4.2,0,0,0,0,8.39H51.36a6.73,6.73,0,0,1,0,13.46H-1v-35.3H82.87A6.73,6.73,0,0,1,89.6,369.37Z"/><path class="cls-9" d="M195.77,117.92h0a6.73,6.73,0,0,0-6.73-6.73H61.48a6.73,6.73,0,0,0-6.73,6.73h0a6.73,6.73,0,0,0,6.73,6.73H84.94a3.49,3.49,0,0,1,3.49,3.49v1.41A3.49,3.49,0,0,1,84.94,133H76.81a6.73,6.73,0,0,0-6.73,6.73h0a6.74,6.74,0,0,0,6.73,6.73h38.05a3.48,3.48,0,0,1,3.49,3.48v.67a3.48,3.48,0,0,1-3.49,3.48h-7.69a6.73,6.73,0,0,0-6.73,6.73h0a6.73,6.73,0,0,0,6.73,6.73h79a6.73,6.73,0,0,0,6.73-6.73h0a6.73,6.73,0,0,0-6.73-6.73H147.54a3.48,3.48,0,0,1-3.49-3.48V150a3.48,3.48,0,0,1,3.49-3.48h8.28a6.73,6.73,0,0,0,6.73-6.73h0a6.73,6.73,0,0,0-6.73-6.73H121.68a3.49,3.49,0,0,1-3.49-3.49v-1.41a3.49,3.49,0,0,1,3.49-3.49H189A6.73,6.73,0,0,0,195.77,117.92Z"/><polygon class="cls-8" points="248.69 395.63 208 452.12 166.19 470.61 151.27 500.61 36.66 500.61 105.73 443.4 159 448.44 248.69 395.63"/><polygon class="cls-8" points="279.23 421.28 268.89 438.85 249.5 446.18 217.24 500.61 232.53 500.61 267.23 500.61 311.87 500.61 326.77 439.01 331.06 421.28 335.31 403.71 367.23 271.79 279.23 421.28"/><polygon class="cls-8" points="482.26 389.01 471.37 383.49 463.91 363.17 450.96 327.87 433.65 280.7 431.56 327.87 430.96 341.33 430.59 349.72 429.99 363.17 429 385.52 425.18 363.17 422.9 349.83 421.45 341.33 419.15 327.87 414.67 301.66 410.75 327.87 408.74 341.33 399.41 403.71 397.4 417.17 396.79 421.28 396.01 426.51 394.17 438.81 392.99 446.65 390.98 460.11 384.93 500.61 499 500.61 499 471.4 499 458.78 499 409.63 482.26 389.01"/><path class="cls-9" d="M466.68,342.56a4.19,4.19,0,0,0,3,7.16H499v13.45H424.07a6.72,6.72,0,0,1-1.17-13.34,5.66,5.66,0,0,1,1.17-.11h7.42a4.2,4.2,0,0,0,0-8.39H366.85a6.73,6.73,0,0,1,0-13.46H499v13.46H469.64A4.16,4.16,0,0,0,466.68,342.56Z"/><path class="cls-9" d="M432.52,410.44h0a6.74,6.74,0,0,0-6.73-6.73H298.23a6.73,6.73,0,0,0-6.73,6.73h0a6.73,6.73,0,0,0,6.73,6.73h23.46a3.48,3.48,0,0,1,3.48,3.49v1.41a3.48,3.48,0,0,1-3.48,3.49h-8.13a6.73,6.73,0,0,0-6.73,6.73h0a6.73,6.73,0,0,0,6.73,6.73h38.05a3.49,3.49,0,0,1,3.49,3.49v.66a3.49,3.49,0,0,1-3.49,3.49h-7.7a6.72,6.72,0,0,0-6.72,6.72h0a6.72,6.72,0,0,0,6.72,6.73h79a6.73,6.73,0,0,0,6.73-6.73h0a6.72,6.72,0,0,0-6.73-6.72H384.29a3.49,3.49,0,0,1-3.49-3.49v-.66a3.49,3.49,0,0,1,3.49-3.49h8.28a6.73,6.73,0,0,0,6.73-6.73h0a6.73,6.73,0,0,0-6.73-6.73H358.43a3.49,3.49,0,0,1-3.49-3.49v-1.41a3.49,3.49,0,0,1,3.49-3.49h67.36A6.73,6.73,0,0,0,432.52,410.44Z"/><path class="cls-10" d="M315.75,280c7.24,5,16.8,3.81,16.55-7.61"/><path class="cls-2" d="M334.35,267.31h0a1.4,1.4,0,0,0-1.85.67L331,271.27a1.37,1.37,0,0,0,.84,1.89l.41.13a1.39,1.39,0,0,0,1.75-.89l1.11-3.42A1.37,1.37,0,0,0,334.35,267.31Z"/><path class="cls-7" d="M317.55,282a5.63,5.63,0,0,0-11.25,0v19.24h11.25Z"/><path class="cls-7" d="M306.3,301.22v3a5.63,5.63,0,0,0,11.25,0v-3Z"/><path class="cls-2" d="M344.64,310.83l5-6a.89.89,0,0,0-.12-1.25h0a.88.88,0,0,0-1.12,0l-6.7,5.35a.89.89,0,0,0,0,1.38l.91.75A1.43,1.43,0,0,0,344.64,310.83Z"/><path class="cls-11" d="M311.37,261.08a4.29,4.29,0,0,1,2.76,1.61,2.32,2.32,0,0,0-.33-1.17c-.5-.89-1.39-1.34-2-1A.93.93,0,0,0,311.37,261.08Z"/><path class="cls-12" d="M313.32,273.08a1.25,1.25,0,1,0-2.48-.28l-.46,4.17a1.25,1.25,0,1,0,2.48.28Z"/><path class="cls-2" d="M314.68,275.22l.93-.53a4.73,4.73,0,0,0,1.81-6.43l-3.14-5.58a4,4,0,0,0-5.46-1.53l-2.6,1.46a4,4,0,0,0-1.53,5.46l2.9,5.16A5.21,5.21,0,0,0,314.68,275.22Z"/><path d="M314.67,265.84h0a.31.31,0,0,0,.12-.43l-.35-.63a.31.31,0,0,0-.43-.12.32.32,0,0,0-.12.43l.35.63A.32.32,0,0,0,314.67,265.84Z"/><path d="M310.79,268h0a.31.31,0,0,0,.12-.43l-.35-.63a.32.32,0,1,0-.55.31l.35.63A.32.32,0,0,0,310.79,268Z"/><path class="cls-11" d="M302.89,264.9a1.21,1.21,0,0,1,.73-.63l-.05-.08a2,2,0,0,1,.79-2.78l4.06-2.29,1.51-.85a2.05,2.05,0,0,1,2.79.79l0,.09a2,2,0,0,1-.78,2.78l-.32.18-5,2.82a1.2,1.2,0,0,0-.46,1.63l1.77,3.15a1.43,1.43,0,0,1-.43,1.92,1.39,1.39,0,0,1-2-.49l-2.65-4.72A1.61,1.61,0,0,1,302.89,264.9Z"/><path class="cls-2" d="M307.53,271.48a1.4,1.4,0,1,1-2.44,1.37,1.4,1.4,0,0,1,2.44-1.37Z"/><path class="cls-13" d="M306.74,271.55a.75.75,0,0,0-1,.19.74.74,0,0,0,.18,1,.75.75,0,0,0,1.05-.18A.76.76,0,0,0,306.74,271.55Z"/><path class="cls-14" d="M308.18,280.31c-8.69-1.56-16.86,3.56-11.86,13.83"/><path class="cls-2" d="M296.6,299.65h0a1.38,1.38,0,0,0,1.39-1.38v-3.63a1.37,1.37,0,0,0-1.55-1.36l-.43.05a1.4,1.4,0,0,0-1.21,1.54l.42,3.57A1.37,1.37,0,0,0,296.6,299.65Z"/><path class="cls-15" d="M316.08,305.32s12.79-13.81,26.28,3.07"/><path class="cls-15" d="M308.79,305.35s9.28,16.37-10.89,24.11"/><path class="cls-16" d="M350.09,303.38l0,0a1.67,1.67,0,0,0-2.35.16,11.89,11.89,0,0,1-1,1.09,5.72,5.72,0,0,1-2.61.51c-.76.05-1.24.43-1.05.82a2.46,2.46,0,0,1-.27,2.36,2.07,2.07,0,0,1-2,.8c-.16-.05-.19,0-.19,0-.39.46.24.95.24.95l2.18,1.83.13.1.35.29a.26.26,0,0,0,.37,0l6.62-7.95C350.7,303.86,350.23,303.48,350.09,303.38Z"/><path class="cls-16" d="M301.83,337.7l0,0a1.67,1.67,0,0,0,.09-2.36,12.32,12.32,0,0,1-1-1.15,5.77,5.77,0,0,1-.24-2.64c0-.77-.3-1.28-.71-1.13a2.46,2.46,0,0,1-2.31-.52,2.08,2.08,0,0,1-.6-2.05c.08-.15,0-.19,0-.19-.42-.43-1,.14-1,.14l-2,2-.11.12-.33.32a.27.27,0,0,0,0,.37l7.22,7.4C301.3,338.26,301.72,337.83,301.83,337.7Z"/><path class="cls-7" d="M330.52,273.86c-.19,3.19-1.34,5.43-3.36,6.51-2.71,1.45-6.79.76-10.41-1.76a1.75,1.75,0,1,0-2,2.87,16.32,16.32,0,0,0,9.15,3.15,10.41,10.41,0,0,0,4.91-1.17c1.85-1,4.83-3.51,5.2-9.39Z"/><path class="cls-7" d="M308.49,278.59c-5.71-1-10.93.54-13.6,4.08-1.25,1.64-2.86,5.06-.93,10.36l3.26-1.27c-1-2.83-.87-5.22.46-7,1.85-2.45,5.85-3.52,10.19-2.74a1.75,1.75,0,0,0,.62-3.45Z"/><path class="cls-7" d="M328.54,298c-8.05-.28-13.69,5.7-13.92,5.95a2,2,0,0,0,2.93,2.72c0-.05,4.66-4.92,10.88-4.67,3.79.15,7.47,2.17,11,6l2.72-3C337.93,300.55,333.37,298.18,328.54,298Z"/><path class="cls-7" d="M310.53,304.37a2,2,0,1,0-3.48,2c0,.06,3.27,5.88,1.16,11.75-1.25,3.49-4.18,6.34-8.71,8.51l2.33,3.31c5.17-2.6,8.59-6.11,10.15-10.47C314.7,311.86,310.7,304.67,310.53,304.37Z"/><path class="cls-10" d="M198.27,355.88c7.23,5.06,16.8,3.83,16.56-7.59"/><path class="cls-2" d="M216.89,343.17h0a1.4,1.4,0,0,0-1.85.67l-1.53,3.29a1.38,1.38,0,0,0,.84,1.89l.41.13a1.39,1.39,0,0,0,1.75-.89l1.11-3.42A1.37,1.37,0,0,0,216.89,343.17Z"/><path class="cls-16" d="M199.55,358.51a5.63,5.63,0,0,0-10.47-4.13L182,372.28l10.46,4.13Z"/><path class="cls-16" d="M182,372.28,180.93,375a5.63,5.63,0,1,0,10.47,4.13l1.08-2.75Z"/><path class="cls-2" d="M218.39,376.22l3.22-7.17a.88.88,0,0,0-.45-1.17h0a.9.9,0,0,0-1.09.29l-5,7a.88.88,0,0,0,.36,1.33l1.07.48A1.42,1.42,0,0,0,218.39,376.22Z"/><path class="cls-17" d="M198.11,336.37a4.3,4.3,0,0,1,2.69,1.73,2.44,2.44,0,0,0-.28-1.19c-.46-.91-1.34-1.4-2-1.08A1,1,0,0,0,198.11,336.37Z"/><path class="cls-18" d="M198.88,348.68a1.25,1.25,0,1,0-2.21-1.17l-2,3.71a1.25,1.25,0,0,0,2.21,1.16Z"/><path class="cls-2" d="M200.83,350.63l.95-.48a4.72,4.72,0,0,0,2.07-6.35l-2.9-5.71a4,4,0,0,0-5.4-1.75l-2.65,1.35a4,4,0,0,0-1.76,5.39l2.69,5.27A5.19,5.19,0,0,0,200.83,350.63Z"/><path d="M201.21,341.26h0a.31.31,0,0,0,.14-.42l-.33-.65a.31.31,0,0,0-.42-.13.3.3,0,0,0-.14.42l.33.64A.31.31,0,0,0,201.21,341.26Z"/><path d="M197.24,343.28h0a.31.31,0,0,0,.14-.42l-.33-.65a.33.33,0,0,0-.42-.14.32.32,0,0,0-.14.43l.33.64A.3.3,0,0,0,197.24,343.28Z"/><path class="cls-17" d="M189.48,339.84a1.18,1.18,0,0,1,.75-.6l0-.08a2.05,2.05,0,0,1,.89-2.75l4.16-2.11,1.55-.79a2,2,0,0,1,2.74.9l.05.09a2,2,0,0,1-.89,2.75l-.33.17-5.12,2.6a1.19,1.19,0,0,0-.52,1.61l1.63,3.22a1.44,1.44,0,0,1-.5,1.91,1.4,1.4,0,0,1-1.94-.57l-2.46-4.83A1.61,1.61,0,0,1,189.48,339.84Z"/><path class="cls-2" d="M193.84,346.61A1.4,1.4,0,1,1,192,346,1.4,1.4,0,0,1,193.84,346.61Z"/><path class="cls-19" d="M193.05,346.64a.75.75,0,1,0,.14,1.06A.76.76,0,0,0,193.05,346.64Z"/><path class="cls-14" d="M191.44,353.52c-7.51-4.64-17-2.88-16.1,8.51"/><path class="cls-2" d="M173.57,367.25h0a1.39,1.39,0,0,0,1.81-.77l1.34-3.37a1.37,1.37,0,0,0-.95-1.83l-.41-.11a1.39,1.39,0,0,0-1.7,1l-.92,3.48A1.36,1.36,0,0,0,173.57,367.25Z"/><path class="cls-15" d="M189.41,378.62s8.59-16.75,26.13-4.13"/><path class="cls-15" d="M182.76,378.14s9.29,16.37-10.89,24.12"/><path class="cls-16" d="M221.63,367.58h0a1.68,1.68,0,0,0-2.23.79,10.8,10.8,0,0,1-.7,1.33c-.35.53-1.66.94-2.38,1.2s-1.07.75-.78,1.07a2.46,2.46,0,0,1,.37,2.34,2.09,2.09,0,0,1-1.69,1.31c-.17,0-.17.08-.17.08-.25.56.48.86.48.86l2.6,1.17.15.06.42.19a.26.26,0,0,0,.34-.13l4.23-9.44C222.34,367.88,221.79,367.64,221.63,367.58Z"/><path class="cls-16" d="M175.81,410.5l0,0a1.68,1.68,0,0,0,.08-2.36,13,13,0,0,1-1-1.15,5.64,5.64,0,0,1-.24-2.64c0-.77-.31-1.28-.71-1.13a2.46,2.46,0,0,1-2.31-.52,2.08,2.08,0,0,1-.6-2.05c.07-.15,0-.19,0-.19-.42-.43-1,.14-1,.14l-2,2-.12.12-.33.32a.27.27,0,0,0,0,.37l7.22,7.4C175.27,411.05,175.7,410.62,175.81,410.5Z"/><path class="cls-16" d="M213.05,349.72c-.2,3.19-1.35,5.42-3.37,6.51-2.71,1.44-6.79.75-10.41-1.78a1.75,1.75,0,1,0-2,2.87,16.29,16.29,0,0,0,9.16,3.16,10.29,10.29,0,0,0,4.91-1.17c1.85-1,4.83-3.5,5.21-9.37Z"/><path class="cls-16" d="M192.36,352c-4.93-3-10.36-3.51-14.15-1.2-1.76,1.07-4.51,3.66-4.67,9.29l3.51,0c.09-3,1.1-5.18,3-6.32,2.62-1.6,6.74-1.13,10.49,1.19a1.76,1.76,0,0,0,2.41-.57A1.74,1.74,0,0,0,192.36,352Z"/><path class="cls-16" d="M199.43,368.22c-7.83,1.9-11.64,9.18-11.8,9.49a2,2,0,0,0,3.55,1.83c0-.06,3.17-6,9.22-7.44,3.69-.88,7.79.07,12.19,2.82l1.82-3.58C209.16,368.14,204.13,367.09,199.43,368.22Z"/><path class="cls-16" d="M184.5,377.16a2,2,0,1,0-3.48,2c0,.06,3.27,5.88,1.17,11.75-1.26,3.49-4.19,6.35-8.72,8.51l2.33,3.31c5.18-2.6,8.59-6.11,10.15-10.47C188.67,384.65,184.67,377.46,184.5,377.16Z"/><path class="cls-17" d="M194,343.36h0a.59.59,0,0,1-.81-.26L192.11,341a.6.6,0,0,1,.27-.81h0a.59.59,0,0,1,.81.26l1.08,2.11A.6.6,0,0,1,194,343.36Z"/><path class="cls-17" d="M194.24,341.57h0a.6.6,0,0,1-.81-.26l-1.09-2.11a.62.62,0,0,1,.26-.82h0a.61.61,0,0,1,.82.27l1.08,2.11A.6.6,0,0,1,194.24,341.57Z"/><path class="cls-17" d="M191.24,345.3h0a.61.61,0,0,1-.82-.27l-1.08-2.11a.6.6,0,0,1,.26-.81h0a.6.6,0,0,1,.81.26l1.09,2.11A.62.62,0,0,1,191.24,345.3Z"/><path class="cls-20" d="M243.29,386.46a1.87,1.87,0,0,0-.4-.13,4.08,4.08,0,0,1-1.56,3.52,1.62,1.62,0,0,0,.36.21,2,2,0,1,0,1.6-3.6Z"/><path class="cls-10" d="M249,397.86c-1.07,8.76,4.51,16.63,14.48,11.06"/><path class="cls-2" d="M269,408.33h0a1.38,1.38,0,0,0-1.46-1.31l-3.61.19a1.37,1.37,0,0,0-1.28,1.62l.08.43a1.39,1.39,0,0,0,1.6,1.13l3.54-.62A1.37,1.37,0,0,0,269,408.33Z"/><path class="cls-16" d="M250.6,399.46a5.63,5.63,0,1,0-10.8-3.15l-5.38,18.47,10.81,3.15Z"/><path class="cls-16" d="M234.42,414.78l-.83,2.85a5.63,5.63,0,0,0,10.81,3.14l.83-2.84Z"/><path class="cls-20" d="M250.51,377.66a4.31,4.31,0,0,1,2.2,2.32,2.5,2.5,0,0,0,0-1.22c-.23-1-1-1.68-1.64-1.52A.91.91,0,0,0,250.51,377.66Z"/><path class="cls-21" d="M249,389.73a1.25,1.25,0,1,0-2.31-1l-1.61,3.87a1.25,1.25,0,0,0,2.31,1Z"/><path class="cls-2" d="M249.73,392.16l1.05-.25a4.71,4.71,0,0,0,3.52-5.66L252.85,380a4,4,0,0,0-4.81-3l-2.9.68a4,4,0,0,0-3,4.81l1.34,5.77A5.21,5.21,0,0,0,249.73,392.16Z"/><path d="M252.35,383.15h0a.32.32,0,0,0,.24-.38l-.17-.7a.32.32,0,0,0-.38-.24.31.31,0,0,0-.23.38l.16.7A.32.32,0,0,0,252.35,383.15Z"/><path d="M248,384.16h0a.32.32,0,0,0,.24-.38l-.17-.7a.32.32,0,0,0-.38-.24.31.31,0,0,0-.23.38l.16.7A.32.32,0,0,0,248,384.16Z"/><path class="cls-20" d="M241.3,379a1.16,1.16,0,0,1,.87-.39l0-.09a2,2,0,0,1,1.53-2.46l4.54-1.05,1.69-.4a2.06,2.06,0,0,1,2.46,1.53l0,.1a2.07,2.07,0,0,1,0,1,2,2,0,0,1-1.52,1.47l-.35.08-5.6,1.31a1.2,1.2,0,0,0-.9,1.44l.82,3.51a1.44,1.44,0,0,1-1,1.73,1.39,1.39,0,0,1-1.74-1l-1.23-5.27A1.6,1.6,0,0,1,241.3,379Z"/><path class="cls-2" d="M243.91,386.57a1.4,1.4,0,1,1-1.68-1A1.39,1.39,0,0,1,243.91,386.57Z"/><path class="cls-22" d="M243.14,386.42a.76.76,0,0,0-1.06-.11.75.75,0,1,0,1.06.11Z"/><path class="cls-14" d="M242,395.39c-8.7-1.45-16.81,3.78-11.67,14"/><path class="cls-2" d="M230.63,414.88h0a1.41,1.41,0,0,0,1.39-1.41l0-3.62a1.38,1.38,0,0,0-1.57-1.34l-.43.06a1.39,1.39,0,0,0-1.2,1.55l.47,3.56A1.37,1.37,0,0,0,230.63,414.88Z"/><path class="cls-15" d="M243.29,420.41s15.28-11,25.14,8.25"/><path class="cls-15" d="M237.24,422.35s16.68,8.72,3.93,26.17"/><path class="cls-16" d="M276.27,424l0,0a1.67,1.67,0,0,0-2.34.29,14.16,14.16,0,0,1-1,1.14,5.91,5.91,0,0,1-2.58.65c-.76.09-1.21.49-1,.87a2.47,2.47,0,0,1-.16,2.37,2.08,2.08,0,0,1-1.93.91c-.16-.05-.18,0-.18,0-.37.48.28.94.28.94l2.28,1.71.13.1.37.27a.26.26,0,0,0,.36-.05l6.2-8.28C276.9,424.48,276.41,424.13,276.27,424Z"/><path class="cls-16" d="M246.21,455.82l0,0a1.67,1.67,0,0,0-.38-2.33,12.37,12.37,0,0,1-1.18-.93,5.75,5.75,0,0,1-.74-2.55c-.13-.76-.55-1.2-.92-1a2.45,2.45,0,0,1-2.37-.06,2.07,2.07,0,0,1-1-1.9c0-.16,0-.18,0-.18-.5-.34-.94.32-.94.32l-1.61,2.35-.09.14-.26.37a.26.26,0,0,0,.07.36l8.52,5.87C245.79,456.47,246.12,456,246.21,455.82Z"/><path class="cls-16" d="M261.42,408c-2.91,1.32-5.43,1.35-7.34.07-2.54-1.71-3.84-5.64-3.31-10a1.75,1.75,0,1,0-3.47-.43,16.34,16.34,0,0,0,1.5,9.57,10.31,10.31,0,0,0,3.33,3.79c1.75,1.17,5.37,2.63,10.73.2Z"/><path class="cls-16" d="M242.25,393.66c-5.72-1-10.92.68-13.55,4.25-1.22,1.67-2.79,5.1-.79,10.38l3.25-1.32c-1.06-2.81-.95-5.2.36-7,1.82-2.47,5.8-3.6,10.16-2.88a1.75,1.75,0,1,0,.57-3.45Z"/><path class="cls-16" d="M257,415.73c-7.84-1.88-14.55,2.85-14.84,3.06a2,2,0,0,0,2.33,3.25c.06,0,5.56-3.89,11.6-2.41,3.68.9,6.89,3.62,9.56,8.07l3.25-2.36C265.65,420.09,261.65,416.87,257,415.73Z"/><path class="cls-16" d="M238.17,420.58a2,2,0,1,0-1.85,3.55c.06,0,5.93,3.16,7.35,9.24.84,3.61-.08,7.6-2.71,11.87l3.76,1.52c2.93-5,3.89-9.79,2.84-14.3C245.73,424.61,238.48,420.74,238.17,420.58Z"/><path class="cls-20" d="M250.69,372.81a3.47,3.47,0,0,0-.63-.11,6,6,0,0,1-.12,3,5.89,5.89,0,0,1-1.52,2.61,3.13,3.13,0,0,0,.6.24,3,3,0,0,0,1.67-5.75Z"/><path class="cls-20" d="M248.35,373a1.93,1.93,0,0,0-.42.05,4,4,0,0,1,.48,1.92,4,4,0,0,1-.48,1.93,1.93,1.93,0,0,0,.42,0,2,2,0,0,0,0-3.94Z"/><path class="cls-10" d="M102.78,354.32c.22,8.82,6.89,15.79,15.94,8.81"/><path class="cls-2" d="M124.06,361.75h0a1.4,1.4,0,0,0-1.64-1.09l-3.55.73a1.37,1.37,0,0,0-1,1.79l.13.41a1.4,1.4,0,0,0,1.76.88l3.41-1.13A1.38,1.38,0,0,0,124.06,361.75Z"/><path class="cls-16" d="M104.62,355.25a5.63,5.63,0,0,0-11-2.28l-3.9,18.84,11,2.28Z"/><path class="cls-16" d="M89.7,371.81l-.6,2.91a5.63,5.63,0,0,0,11,2.27l.6-2.9Z"/><path class="cls-2" d="M116.79,399.16l7.75-1.33a.88.88,0,0,0,.72-1h0a.9.9,0,0,0-.85-.74l-8.56-.26a.89.89,0,0,0-.91,1l.2,1.16A1.43,1.43,0,0,0,116.79,399.16Z"/><path class="cls-23" d="M99.29,333.19a4.3,4.3,0,0,1,2.92,1.3,2.45,2.45,0,0,0-.45-1.13c-.6-.83-1.53-1.18-2.1-.78A1,1,0,0,0,99.29,333.19Z"/><path class="cls-24" d="M102.28,345.68a1.25,1.25,0,0,0-2.38-.78l-1.29,4a1.25,1.25,0,1,0,2.37.77Z"/><path class="cls-2" d="M104.14,346.88l.87-.63a4.71,4.71,0,0,0,1.08-6.58l-3.73-5.2a4,4,0,0,0-5.6-.93l-2.41,1.74a4,4,0,0,0-.93,5.6l3.45,4.8A5.22,5.22,0,0,0,104.14,346.88Z"/><path d="M103.1,337.56h0a.32.32,0,0,0,.07-.44l-.42-.59a.31.31,0,0,0-.44-.07.32.32,0,0,0-.07.44l.42.58A.31.31,0,0,0,103.1,337.56Z"/><path d="M99.48,340.15h0a.32.32,0,0,0,.07-.44l-.42-.58a.31.31,0,0,0-.44-.08.32.32,0,0,0-.07.44l.42.59A.32.32,0,0,0,99.48,340.15Z"/><path class="cls-23" d="M91.29,337.92a1.16,1.16,0,0,1,.65-.7l0-.07a2,2,0,0,1,.47-2.86l3.79-2.72,1.41-1a2,2,0,0,1,2.85.47l.06.09a2,2,0,0,1,.36.91A2,2,0,0,1,100,334l-.3.21L95,337.53a1.21,1.21,0,0,0-.27,1.68l2.1,2.93a1.44,1.44,0,0,1-.21,2,1.39,1.39,0,0,1-2-.27l-3.16-4.4A1.6,1.6,0,0,1,91.29,337.92Z"/><path class="cls-2" d="M96.62,344a1.4,1.4,0,1,1-2-.32A1.41,1.41,0,0,1,96.62,344Z"/><path class="cls-25" d="M95.85,344.11a.75.75,0,1,0-.72,1.32.74.74,0,0,0,1-.3A.75.75,0,0,0,95.85,344.11Z"/><path class="cls-14" d="M94.88,351.64c-8.79-.84-16.51,4.94-10.67,14.76"/><path class="cls-2" d="M84.94,371.87h0a1.39,1.39,0,0,0,1.28-1.49l-.29-3.62a1.38,1.38,0,0,0-1.66-1.23l-.42.09a1.4,1.4,0,0,0-1.09,1.64l.72,3.52A1.36,1.36,0,0,0,84.94,371.87Z"/><path class="cls-15" d="M98.63,376.45s18.69-2.22,18,19.38"/><path class="cls-15" d="M91.3,376.36s5.78,17.91-15.54,21.41"/><path class="cls-16" d="M125.77,397v0a1.69,1.69,0,0,0-1.9-1.41,11.79,11.79,0,0,1-1.5.16c-.63,0-1.7-.85-2.31-1.3s-1.23-.48-1.33-.05A2.5,2.5,0,0,1,117,396a2.11,2.11,0,0,1-2-.67c-.08-.15-.16-.1-.16-.1-.6.1-.45.88-.45.88l.49,2.81,0,.16.07.45a.26.26,0,0,0,.3.21l10.2-1.75C125.92,397.79,125.81,397.19,125.77,397Z"/><path class="cls-16" d="M77.94,406.64l0,0a1.69,1.69,0,0,0,.56-2.3,10.76,10.76,0,0,1-.72-1.32,5.69,5.69,0,0,1,.3-2.64c.18-.74,0-1.31-.47-1.24a2.48,2.48,0,0,1-2.16-1,2.1,2.1,0,0,1-.17-2.13c.1-.13,0-.19,0-.19-.33-.51-1-.06-1-.06L72,397.28l-.14.09-.38.24a.26.26,0,0,0-.08.36l5.57,8.72C77.31,407.07,77.81,406.74,77.94,406.64Z"/><path class="cls-16" d="M116.51,362.55c-2.68,1.74-5.16,2.14-7.24,1.15-2.76-1.32-4.63-5-4.74-9.43a1.75,1.75,0,0,0-3.5.09,16.28,16.28,0,0,0,2.89,9.24,10.25,10.25,0,0,0,3.85,3.26c1.9.91,5.69,1.82,10.64-1.37Z"/><path class="cls-16" d="M95.05,349.9c-5.78-.55-10.85,1.44-13.22,5.19-1.1,1.74-2.43,5.28-.07,10.4L84.91,364c-1.25-2.73-1.31-5.13-.13-7,1.65-2.59,5.54-4,9.94-3.58a1.75,1.75,0,0,0,.33-3.48Z"/><path class="cls-16" d="M112.85,379c-5.95-5.43-14.11-4.54-14.46-4.5a2,2,0,0,0,.47,4c.07,0,6.75-.72,11.32,3.5,2.78,2.57,4.28,6.5,4.46,11.68l4-.48C118.35,387,116.41,382.23,112.85,379Z"/><path class="cls-16" d="M93.21,375.75A2,2,0,1,0,89.4,377c0,.06,2,6.41-1.24,11.74-1.93,3.17-5.38,5.36-10.26,6.57L79.51,399c5.6-1.5,9.65-4.25,12.06-8.2C95.77,383.93,93.31,376.08,93.21,375.75Z"/><circle class="cls-23" cx="91.42" cy="336.86" r="1.25"/><circle class="cls-23" cx="96.39" cy="336.26" r="1.25"/><circle class="cls-23" cx="100.44" cy="332.79" r="1.25"/><circle class="cls-23" cx="96.69" cy="331.54" r="1.25"/><circle class="cls-23" cx="94.51" cy="332.42" r="1.67"/><circle class="cls-23" cx="95.49" cy="340.61" r="1.25"/><circle class="cls-23" cx="94.77" cy="338.19" r="1.93"/><polygon class="cls-7" points="387.68 170.67 384.8 163.93 377.71 165.82 380.63 167.24 363.36 202.68 367.5 204.69 384.76 169.25 387.68 170.67"/><polygon class="cls-26" points="278.82 327.43 275.94 320.68 268.86 322.57 271.78 323.99 254.51 359.43 258.64 361.44 275.91 326 278.82 327.43"/><polygon class="cls-26" points="304.39 361.6 301.51 354.86 294.43 356.75 297.34 358.17 280.08 393.6 284.21 395.62 301.48 360.18 304.39 361.6"/><polygon class="cls-26" points="381.56 239.22 378.68 232.47 371.59 234.36 374.51 235.78 357.24 271.22 361.37 273.24 378.64 237.8 381.56 239.22"/><polygon class="cls-26" points="370.71 356.14 367.83 349.4 360.74 351.29 363.66 352.71 346.39 388.15 350.52 390.16 367.79 354.72 370.71 356.14"/><polygon class="cls-26" points="98.38 415.02 95.5 408.28 88.42 410.16 91.33 411.58 74.07 447.02 78.2 449.04 95.47 413.6 98.38 415.02"/><polygon class="cls-26" points="207.66 414.06 204.78 407.31 197.69 409.2 200.61 410.62 183.34 446.06 187.47 448.07 204.74 412.64 207.66 414.06"/></g></svg>