<svg xmlns="http://www.w3.org/2000/svg" xmlns:xlink="http://www.w3.org/1999/xlink" viewBox="0 0 450 450"><defs><style>.cls-1{isolation:isolate;}.cls-2{fill:#931f00;}.cls-3{fill:#c12900;}.cls-4{fill:#e0ac9b;}.cls-5{fill:#fff;}.cls-6{fill:#4a75dd;}.cls-7{fill:#d5a092;}.cls-8{fill:#26282d;}.cls-9{fill:#cc9483;}.cls-10{fill:#5b250e;}.cls-11{fill:#6597ef;}.cls-12{fill:#1f3e93;}.cls-13{fill:#0d2263;}.cls-14{fill:#873f26;}.cls-15,.cls-16,.cls-18{mix-blend-mode:multiply;}.cls-15{fill:url(#linear-gradient);}.cls-16{fill:url(#linear-gradient-2);}.cls-17,.cls-18,.cls-20{fill:#d4d5d6;}.cls-18{opacity:0.55;}.cls-19{fill:#afb3bc;}.cls-20{opacity:0.4;}.cls-21{fill:#282626;}</style><linearGradient id="linear-gradient" x1="282.43" y1="258.62" x2="308.43" y2="240.68" gradientTransform="translate(-58.32 21.09) rotate(-15.63)" gradientUnits="userSpaceOnUse"><stop offset="0" stop-color="#fff"/><stop offset="0.52" stop-color="#c6c0b9"/></linearGradient><linearGradient id="linear-gradient-2" x1="278.4" y1="281.44" x2="303.95" y2="269.76" gradientTransform="translate(-58.32 21.09) rotate(-15.63)" gradientUnits="userSpaceOnUse"><stop offset="0" stop-color="#fff"/><stop offset="1" stop-color="#c6c0b9"/></linearGradient></defs><g class="cls-1"><g id="Layer_6" data-name="Layer 6"><path class="cls-2" d="M193.71,196.9s3.81,1.86,11.77-22.15c3.24-9.77,1.54-6.21,7.19-8.29,15.05-5.56,18.77,4,19.47,5.18l1.15,7.67-2.49,34.57-4.24-1.72a7.53,7.53,0,0,0,1.25,3.18c-1.36,1-6.29-1.61-7.62-3.7,1.19,2.35,3.13,3.91,2.23,4-7.6,1.1-14.88-7.59-17.16-13.41Z"/><path class="cls-3" d="M230.21,167.77a125.59,125.59,0,0,1-1.29,36.08c-.93,5.15,5.88,5.5,7.81,3.47-2.11.3-3.27-5.32-2.94-8.92.53-5.81,1.19-21-1.48-27.25Z"/><path class="cls-3" d="M229.72,168.59c3.07,2.78,1.79,18.67-.43,33.28-1,6.76,4.61,7.75,6.36,7.51-2.12,1.37-5.43,4-8.09-2.14-3.43-8,3.47-17.5,1.52-31.11C227.77,166.9,229.72,168.59,229.72,168.59Z"/><path class="cls-4" d="M243.92,216.7c1.41-2.07,2.37-4.82,3.9-5.94,2.15-1.93,1.69-1.73,2.27-2.15,1.23-.9,3.32-3,3.59-2.09.11.4-1.27,1.93-2.33,3l-1,1.06c1.46-.13,6-.42,6.34.08.64,1-2.37.71-4.49,1.74l-.06.25c1.62-.64,4.19-.39,4.17,0s-3.15,1.1-4.7,2a2.29,2.29,0,0,1-.09.28c1.43-.45,4-1.18,4-.79s-2.41,1.38-4,2.39a7.6,7.6,0,0,1-3.47,3.27c-1.8.79-2.7.15-2.7.15Z"/><path d="M243.7,215.61,229,222.2l-12.5-14.68s-8.28-11.08-15.4-1.43c-5,6.75,17,24.45,26.19,28.51,5.76,2.53,20.39-11.21,20.39-11.21Z"/><polygon class="cls-5" points="214.96 198.73 217.83 204.46 217.21 211.81 211.99 204.24 214.96 198.73"/><polygon points="213.31 287.27 229.95 276.44 228.9 265.1 210.01 272.42 213.31 287.27"/><polygon class="cls-6" points="235.82 343.19 238.22 343.19 230.51 274.1 225.78 265.93 170.19 264.9 170.19 279.29 170.35 279.29 162.41 343.6 164.81 343.6 178.59 279.29 223.07 279.29 235.82 343.19"/><path class="cls-6" d="M183.89,202c-3.59-9.95-12-8.12-22.86-8.71-9.09-.49-12,3.33-11.75,9.92l8.78,59.73c.24,6.19,6.26,10.62,13.37,9.9s28-2.74,27.71-8.91Z"/><polygon class="cls-6" points="219.78 350.45 223.6 350.45 216.1 285.81 226.57 280.7 227.32 264.04 154.96 272.59 154.86 283.33 155.01 283.33 146.49 350.89 148.89 350.89 163.77 283.33 208.68 285.81 219.78 350.45"/><path class="cls-6" d="M157.4,273.49c-3,0-3.17-1-.5-2.27l19.67-9.06c2.68-1.24,2.1-1.55,5-1.54l43.27,1.93c3,0,5.5,1.73,3.19,3.55l-8.47,3.53c-2.31,1.81-4.69,6.59-7.63,6.58Z"/><path class="cls-7" d="M228.36,192.94c-15.47,2.28-15.08,13.75-15.78,16.19-1.07,3.73-3.35-1.65-7.39-6.68-3.54-4.44-3.64-5.88-6.33-8,3.15-1.4,17.26-15.91,19-23.93S228.36,192.94,228.36,192.94Z"/><path class="cls-8" d="M207.58,199c2,2.31,7.51,5.92,7.51,5.92-.83,6,1.79,22.81,1,25.69-1.06,4-5,4.84-6.58,6.59-5.44,5.82-5.81,11.23-3.7,15,1.28,2.3-26.44,6.56-26.44,6.56s-10,1.45-12.12-1.15c-1.35-1.62,14.5-32.75,19.55-42.1s7.31-13.9,18.08-20.71C205.76,199.94,205.23,196.3,207.58,199Z"/><path d="M185.27,211.92c-7.34,16.33-18.88,39.08-19.2,47l13.33-.09s2.76-8,8.3-21.41c11.09-26.88,11.32-30.64,12.45-31.11,1.51-.62,4.27-6.43,7.26-7.53-2.27-1.57-1.94-1.46-4.81-5.3C191.74,202.44,189,203.55,185.27,211.92Z"/><path class="cls-7" d="M214.34,164.8c-8.58,1.31-8.09,7.9-5.2,18.41s8.05,14.95,15.32,14.58c2.48-.11,4.4-2.07,5.65-6.81,1.22-.35,2.33-.87,2.17-1.75a13.9,13.9,0,0,1-1.05-5.48,26.94,26.94,0,0,0-.71-11.17C227.61,162.07,219.68,164,214.34,164.8Z"/><path class="cls-9" d="M249,304.73a59.53,59.53,0,0,0,1.57,8.07s17.51,6,21.44,4.52-7.87-3.54-13.91-16.26C254.93,294.34,249,302.64,249,304.73Z"/><path d="M249.05,307.52c-.18-3.06-2.81-9.67-2.81-9.67l10.65-2.5s-2.52-.38,1.47,5.93c1.22,1.92,1.57,2.58,2.63,4.08.47.69-4.89,4.1,3.55,10.46,1.59,1.46,5.28-.72,7.52-.56,0,0,5,0,4.05,3.7-.47,1.92-10.67,4.75-13.92,1a10.88,10.88,0,0,0-7.48-4.12c-.3,2,1,8.37,1,8.37a5.85,5.85,0,0,1-1.86.32c-.14-1.71-2.05-8-3.41-8.88C248.73,314.7,249.19,310.23,249.05,307.52Z"/><path d="M232.27,249.7c3.66-1.55,11.48-3.52,15.16,1,2.14,2.62,2.82,4.78,3.93,12.07.73,4.73,12.93,46.21,12.93,46.21l-17.7,5.62s-9-48.79-12.43-49.31S224.1,254.68,224,253.84,232.27,249.7,232.27,249.7Z"/><path class="cls-9" d="M233.13,327.33c-.32,4.86,5.24,12.55,11.79,17.42,0,0-5.67,5.15-15-6-2.8-3.36-6-15.7-6-15.7S234.14,311.61,233.13,327.33Z"/><path d="M222.92,339.42c-1.52-1.21-.18-5.53.2-8.24.42-3-.88-10-.88-10l13.34-.07s-3.76,3.44-.22,10.08c.35.66-4.87,6.13-3.35,8.16,1.14,1.55,10,3.32,12.18,3.91,0,0,4.87,1,3.25,4.44-.83,1.78-11.39,2.58-13.83-1.77a10.82,10.82,0,0,0-6.55-5.49c-.68,1.91-.67,8.38-.67,8.38a5.93,5.93,0,0,1-1.88,0C224.7,347.08,224.06,340.65,222.92,339.42Z"/><path class="cls-8" d="M211,269.1c4.5,2.24,15.23,3.24,14.8,5.52-3.38,17.56-6.19,41.29-5.34,50.84L236.78,328s7.9-47.35,8.7-54.77a13.51,13.51,0,0,0-13.75-15.16C226.58,258.14,211,269.1,211,269.1Z"/><path class="cls-5" d="M205.53,192l9.14,11.37a20.55,20.55,0,0,0-4,9.61c-1.65-3.19-7.33-18.18-7.77-18.52S205.53,192,205.53,192Z"/><path class="cls-9" d="M87.3,203.37c-.24-4.14,5.51-13,9.25-15.48,0,0-20.24-12.32-19.64-5.78.46,5.08-2.44,16.95-6,18.48-7.82,3.38-7.2,23.71-1.62,29.28,3.79,3.79,23.82-3.87,24.15-4.09C94.89,224.81,86.42,213.22,87.3,203.37Z"/><path class="cls-9" d="M75.91,176.31c-1-10.41,5.48-14.82,13.74-15.62s13.59,4.88,14.61,15.27c.19,2-1.26,3-1.37,4.85a47.64,47.64,0,0,0,2,4.76c.11.85-1.35,2.05-2.52,2.33-1.4,5.24-2.61,9.8-8.37,8.63C85.87,194.89,76.93,186.71,75.91,176.31Z"/><path class="cls-10" d="M100.07,175.44l3.06-5.46c4.33-4.85-9.64-14.8-21.14-10.71-10.69,3.8-11.54,9.84-11.16,16.47s4.34,15.85,4.34,15.85a17,17,0,0,0,8.32-.12c3.63-.95,8.6-4.13,7.74-5-1.2-1.17-1.75-6.51.47-7.05,1.07-.27,3.11,1.73,3.11,1.73Z"/><polygon points="104.92 307.52 123.14 295.66 122.59 281.36 101.31 291.25 104.92 307.52"/><polygon class="cls-6" points="129.58 368.79 132.2 368.79 123.76 293.09 119.17 282.27 57.69 283.02 57.69 298.78 57.85 298.78 49.16 369.24 51.78 369.24 66.88 298.78 115.61 298.78 129.58 368.79"/><path class="cls-11" d="M60,211.69c-2.31-9.24-7.4-6.93-21-5.85-10.85.3-13.19,3.59-12.92,10.81l9.35,65.46c.24,6.78,6.81,11.68,14.61,10.92s18.75-4.31,18.4-11.09Z"/><polygon class="cls-6" points="112.01 376.74 116.19 376.74 107.98 305.92 135.27 292.53 87.8 283.99 40.99 291.44 40.99 305.92 41.16 305.92 31.72 377.22 34.35 377.22 50.76 305.92 99.84 305.92 112.01 376.74"/><path class="cls-6" d="M43.67,292.43c-3.23,0-3.48-1.15-.54-2.48L64.67,280c2.94-1.36,2.29-1.7,5.52-1.69l48,.23c3.22,0,6,1.89,3.49,3.9l-9.87,5.74a19.91,19.91,0,0,1-10.5,3.59Z"/><path class="cls-9" d="M144.81,294.62c-3.07,2.21-23.35,42.92-24,46-2.32,10.2,2.24,20.71,7.62,27.48-5.42,1.1-10.53-1.53-16.28-11.56-2.35-4.08-6-7.51-5.85-10.43.23-6.63,1.75-2.13,5-11s6.08-37,17.43-48.46C135.67,279.68,147.87,292.4,144.81,294.62Z"/><path class="cls-8" d="M108.58,340.32c-2.23.81-4.76,4.34-4.87,8.22s2.15,6.71-.84,15.24c1.74,1.07,1.93.67,1.93.67s3-10.71,4.57-9.41,2.49,6.92,4.48,11.48,13.91,7.35,15,6.55,2.91-3.95.45-5.94-2.82-3.09-2.82-3.09a8.08,8.08,0,0,1-8.57-3.72C114.1,354,108.58,340.32,108.58,340.32Z"/><path class="cls-9" d="M131.74,268.94c1.6,7.25,7.29,20.07,5.44,23.37s-4.47,55.14-3.81,58.21c2.17,10.25,10.71,17.88,18.45,21.76-4.45,3.28-10.21,3-19.63-3.67-3.83-2.72-8.56-4.31-9.69-7-2.57-6.12.7-2.69,0-12.1s-10-36.16-4.52-51.3c3.37-9.26.46-21.78,1.28-25S131.74,268.94,131.74,268.94Z"/><path d="M122.19,355.37c-1.69,1.67-2.49,5.93-1,9.49s4.77,5.2,5.65,14.2c2,.25,2-.2,2-.2s-1.74-11,.21-10.46,5.14,5.23,8.87,8.55,15.71.85,16.33-.33,1-4.8-2.09-5.58-3.85-1.62-3.85-1.62a8.12,8.12,0,0,1-9.35.2C133,365.48,122.19,355.37,122.19,355.37Z"/><path class="cls-12" d="M85.86,252.24c0,5.7,6.06,8.07,11,11.46s30.82-4.78,35.93-2.31,6.58,5.34,12.09,25.93c4.66,17.41,6.86,23.36,6.86,23.36l-32.95,12S127,286.59,104,286.16c-9.67-.19-45.62-2.48-44.81-13.05S57.78,249,57.78,249Z"/><path class="cls-13" d="M65,290.72c16.51,2.09,38.91-7.72,45.79-2.13.67,7.17-.19,38.16-.19,38.16L137,316c-.73-12.94-5.16-42.78-9.39-45.82-10.55-7.58-50.44,8.9-56.09-4.2-2.86-6.65.54-14.56,5-21.1L57.78,249C49.59,263.1,44.37,288.11,65,290.72Z"/><path class="cls-8" d="M83.55,203.08c2.59,2.07,10.73,16.71,10.73,16.71a37.73,37.73,0,0,1,4.18,10.62,12.35,12.35,0,0,1-2.55,10.16c-1.55,2.08-2.18,12.2-2.51,15s-.46,16.27-.46,16.27-32,.34-35.41-1.21c-2.08-1,3.28-27.4,3.88-38.8s-.7-22.58,11-33.81C75.75,199.44,79.68,200,83.55,203.08Z"/><path d="M59.43,228.16c-3.52,33-12.35,39.62-10.26,40.61,0,0,34.54,3.24,34.87,1.54,6.37-32.83-7.56-52.43-6.92-57.87.47-4,3-5.78,5.73-10.31-3.44-2.75-6.15-2.3-10.91-4.6C60.12,214,60.68,216.54,59.43,228.16Z"/><polygon points="72.98 194.41 91.91 205.06 89.65 209.71 69.69 200.83 72.98 194.41"/><path d="M81.38,205.07,94,210.65s4.62,20,3.91,17.9A49,49,0,0,0,81.38,205.07Z"/><path class="cls-10" d="M75.17,191.59c-1.33-4.17-16.23-19.53-10.68-26.46s13.69-7.63,14-.35C78.9,172.6,79.74,171.45,75.17,191.59Z"/><path class="cls-14" d="M71.88,160.05c3.12-.52,11.09.69,7.63,4.85s-13.52,4-12,1.56-1.39.69,1.56.35,9.88-4.16,7.1-4.86-6.76-1.38-10,2.6C67.38,162.47,71.88,160.05,71.88,160.05Z"/><path class="cls-14" d="M104,167c1.21,1.74,1.56,4.34-3.29,7.8-4.32,3.09-5.38,7.8-4.51,9.71-1.21-1.74-1.91-3.3,2.08-9.36S104,167,104,167Z"/><path class="cls-8" d="M315.93,296.08a37.79,37.79,0,0,1-4.4,17.79s13.15,4,14.21,3.94-.66-13.8-.85-17S315.93,296.08,315.93,296.08Z"/><path d="M312.58,311.48c-1,.95-2.88,2.87-2.37,7.27a20.7,20.7,0,0,0,1,4.76s6.31.42,7.2.36c.39,0,.29-1.63,1.91-1.37s5.8,2.37,9,2.53,10.21-.76,10.7-1.71c.3-.57,1.49-4.7-.83-5.09s-10.49-3.43-11.6-4.43-.63-2.93-2.07-3.38-3.85.94-3.43,1.81a1.68,1.68,0,0,1,.16,1.36s-6.46,1.1-7.6-.25A8.05,8.05,0,0,0,312.58,311.48Z"/><polygon class="cls-11" points="349.19 313.3 351.22 313.3 343.67 264.86 341.1 258.52 293.29 256.95 293.29 269.19 293.42 269.19 289.42 316.41 291.46 316.41 300.44 269.19 338.75 266.78 349.19 313.3"/><path class="cls-6" d="M298.18,196.47c-5.52-5.86-19.6-1.61-28.82-1.43-7.76.17-11.08,2.56-10.42,8.14l5.86,46.38c.6,5.23,6.35,11.8,12.34,10.72s25.18-2,32.08-7.93Z"/><polygon class="cls-6" points="315.32 328 318.58 328 312.19 273.55 344.04 266.49 343.07 256.78 270.12 261.78 269.79 272.08 269.93 272.08 262.58 326.91 264.63 326.91 277.39 272.08 305.86 273.55 315.32 328"/><path class="cls-11" d="M271.57,262.33c-2.51,0-2.7-.89-.41-1.93L306,254.54c2.28-1.07,7.14-.36,9.66-.35l24.48,2.07c2.51,0,4,.21,2,1.77l-29.79,6.16c-3.8,1.56-4.39.88-6.9.86Z"/><path class="cls-8" d="M347,289a36.37,36.37,0,0,1-4.88,16.88s12.45,4.33,13.47,4.31-.11-13.24-.18-16.3S347,289,347,289Z"/><path d="M343.2,303.66c-1,.86-2.86,2.63-2.55,6.87a20.05,20.05,0,0,0,.82,4.61s6,.64,6.88.62c.39,0,.36-1.56,1.88-1.25s5.49,2.49,8.55,2.76,9.8-.34,10.32-1.24c.3-.53,1.6-4.44-.62-4.9s-9.91-3.69-11-4.69-.48-2.83-1.85-3.31-3.72.75-3.36,1.6a1.6,1.6,0,0,1,.11,1.31s-6.24.81-7.28-.52A8,8,0,0,0,343.2,303.66Z"/><path d="M302,236.83s6.7,9.82,8.62,11.55,32.61,10.7,30.44,15.33-1.95,34.34-1.47,37.92c.21,1.5,13.44,1.29,17.26.49-.23-14.89,2.35-44.25,1.2-50-2-9.84-32.44-9.74-35-12.06l-7.07-7.6Z"/><path d="M281.73,240.75c-5.46,5.45-2.07,19.77,6.9,21.61,4.28.87,30.53,2.58,30,4.76-.34,1.42-3.15,13-1.73,38.85,9.19,1.41,14.15,1.21,19.1,1.74,0,0,.51-27.07.87-42.54.1-4.67,1.75-8.31,1.3-9.77-2.61-8.46-22.38-10.43-25-11.49s-4.49-7.6-4.49-7.6S284.39,238.09,281.73,240.75Z"/><path class="cls-9" d="M299.44,182.91c0,2.87-2.51,6.91-.95,9s-1.52,5.22-3,5.51-14.61-7.65-14.61-7.65,5-9.38,4.72-11.57S299.44,182.91,299.44,182.91Z"/><path class="cls-15" d="M298.74,187.4c-.87,2-9.1,8.78-11.45,9.22-2,.37-4.74-6.41-6.23-7.48,2.69-5,4.49-9.12,4.41-9.58C285.47,179.56,298.25,185.84,298.74,187.4Z"/><path class="cls-5" d="M281.8,192.74l17.56,48.14,16.73-4L303.48,196l-4.78-5a4.51,4.51,0,0,1-4.3,2.54C292.36,193.57,281.8,192.74,281.8,192.74Z"/><path class="cls-16" d="M298.54,190.46c-.56,1-.8,2.83-3,3s-11.5-.88-12.5-2.22c-.49.74-1.95.86-1.95.86l23.41,38,3.93-11.31-5.25-23.7Z"/><polygon class="cls-13" points="296.03 193.15 292.31 193.16 292.09 196.02 295.04 198.41 304.04 232.57 310.48 234.37 311.3 232.34 296.03 193.15"/><polygon class="cls-12" points="313.12 230.51 298.49 197.03 299.01 193.93 297.71 192.37 295.9 193.1 296.94 196.38 310.48 234.37 313.12 230.51"/><path class="cls-5" d="M282.59,185.41c1,2.28,12.4,7.79,12.4,7.79l-3.87,6.66-11.37-9.51Z"/><path class="cls-5" d="M297.37,192.54l4.37,5.32s-.53-5.59-1.27-6.67a22,22,0,0,0-3.62-3.48A26,26,0,0,1,298,190.3,2.14,2.14,0,0,1,297.37,192.54Z"/><path d="M314,251.13s-38,10.08-37.79,6.8a119.69,119.69,0,0,0-1.42-22.71c-.66-4.28-2.73-18.93-3.7-20.64s-6.42-12.93-6.42-12.93,0-1.88,3.29-3.87a95.81,95.81,0,0,0,13.07-9s2.61,7.47,4.68,10.13,14.61,26.12,16.41,27.48C304.07,228.39,314,251.13,314,251.13Z"/><path class="cls-8" d="M315.35,242.53,309,220.42a113.89,113.89,0,0,1-5.13-24.91l-3.47-3.74c2.77,2.59,6,4.16,10.08,6.21,1.2.6,2.75,15.23,3.45,17.07,2.37,6.17,7.74,19.68,11.27,25.93Z"/><path class="cls-8" d="M281.18,186.72a57.47,57.47,0,0,1-3.91,4.66l1,5.73,6.37.52L282,204l20.18,23.11S285.68,195,283.87,192A30.8,30.8,0,0,1,281.18,186.72Z"/><path d="M298.23,190.3c.95.08,5.58,3.36,5.58,3.36l4.29,3.58-3.89.57,4.88,5.16,2.51,25.7s-8.54-29.95-9.62-33.35A12.09,12.09,0,0,0,298.23,190.3Z"/><path d="M279.53,172.68c0,2,2.47,7.86,2.25,9.34-.06.47-.5,1.84-.9,1.72s3,1.78,3.65,1.15c1.44-1.38,1.7-10.23,1.34-10.74S279.53,172.68,279.53,172.68Z"/><path class="cls-9" d="M284.72,174.17c-.35-5.5-1.86-10.72,6.59-11.37,10.52-.82,10.09,5.27,10.75,11.95s-1.46,14.8-6.84,14.66c-6-.18-9.42-3.51-10.44-8.18-1.16-.47-2.17-2.28-2.4-3.94C282.06,175.12,282.72,173.19,284.72,174.17Z"/><path class="cls-9" d="M290.11,172.1c-.11,6.9,2.34,16.67,6.22,17.25,4.62.15,5.14-4.8,6.18-9.5.73-3.71,1.14-9.76-.69-13.57-1.2-2.44-2.4-3.63-4.35-3.81C293.81,163.58,290.2,166.4,290.11,172.1Z"/><path class="cls-8" d="M294.24,162.19l-.22-.47s-2.29-1.18-1.87-1.2c.23,0,1-.76,1.57.33l-1.1-1.82,5.17,1.36a2.89,2.89,0,0,1,2,.38c.86.58,1.52,1,1.52,1s-.13.82-.32-.31c1.15.29,2.28,2.78,2.35,4.72.13.58.25,1.38.34,2.09a30,30,0,0,1-.07,6.24l-.55.37s.44-7.13-2.29-9-8.85.12-8.85.12Z"/><path d="M279.51,167.08c.79-1.74,2.65-5.25,3.92-5.9.6-1.38,5.19-1,9.63-2.78,0,0-3.93,1.6-3.94,2.66h0c.53-.87,7.05-3.28,6.74-2.75-1.73,3-1.4,1-.91,2.26.13,0-.22.11-.09.09-.22-1.25,1.14-2.51,2.12-2.81-.34,1.7,1.63,1.52,3,3.33,1.69,1.48,3,4.36,1.37,5.67-3.81,3.05-7,.73-9.52,1a4.84,4.84,0,0,0-4,2.44c-.6,1.17-.82,6.61-.82,6.61l-1.66-1-1.72-2.16L281,177.55S277.92,170.57,279.51,167.08Z"/><path class="cls-8" d="M305.81,245.92c9,.69,23.78,5.07,26,8.35,2.41,3.62,1.3,10.12.69,11.87s-1,44.43-1,44.43l-5.27-.92s2.52-43.47,3.2-45.71-.28-7.34-2.32-8.87c-4.83-3.62-25.79-7.77-27.17-7.77S305.81,245.92,305.81,245.92Z"/><path class="cls-9" d="M330.82,237c2.86.49,5.29.66,6.26,1.08s3.18,3.57,3.18,3.57,1.35,3.75.63,4.19c-.43.28-3.05-3-3.51-3.43s-4.11-1.25-4.11-1.25,5.38,2.53,4,3.94c-.37.38-1.91-1.22-4.11-1.46-2.52-.29-5.49.67-10.12-3.53-1.16-1.06,2.24-6,2.24-6Z"/><path d="M310.13,198.06c-.35-2.44,4.54,8.08,10.52,25.95L332,236.43l-8.8,4.83s-6-13.28-7.76-17.25S310.3,199.27,310.13,198.06Z"/><path class="cls-17" d="M190.52,380.77l4.18,1c5.91-11.81,157.76-57.39,224.93-53V243.17S286.71,237.33,188.06,273C189.71,324.32,190.48,368.85,190.52,380.77Z"/><path class="cls-18" d="M203.85,364.53s-.1-22.91-.1-52.24h0c0-14.49,0-30.55.1-46.19h0v-.82l.77-.27C252.83,247.35,309,243.28,350.8,243.27h0a570.36,570.36,0,0,1,61.74,3.08h0l1,.13v75.07l-1.25-.08c-3-.21-6.2-.3-9.57-.3h0c-48.36,0-131.35,19.89-172.62,33.66h0c-13.68,4.5-23.06,8.73-24.18,10.41h0L203.86,368v-3.44Zm1.17,0h0Zm1.07-52.24c0,23.69.07,43.15.1,49.79h0c3.92-2.57,11.95-5.66,23.2-9.47h0c13.84-4.61,32.28-9.9,52.53-14.91h0c40.51-10,88.21-18.87,120.83-18.87h0c2.95,0,5.78.06,8.47.22h0V248.57a582.17,582.17,0,0,0-60.42-2.95h0c-41.43,0-97,4-144.61,21.31h0c-.07,15.37-.1,31.13-.1,45.36Z"/><rect class="cls-19" x="78.57" y="269.56" width="116.13" height="112.19"/><path class="cls-20" d="M92.32,369.72V266.33H179V369.72Zm85.16-1.5v0Zm-82.15-1.51H176V269.34H95.33v97.37Z"/><path class="cls-6" d="M55,275.47H221.76S306.65,255,376,251.53c45.72-2.27,61.55-2.46,61.55-2.46V241.6l-68.94-2.12s-129.17,3.51-265,15.32C64.43,258.21,55,264.39,55,264.39Z"/><path class="cls-11" d="M357.56,239.48S239.6,243,103.79,254.8c-39.24,3.41-48.65,9.59-48.65,9.59l-.06.74H220.9s94.33-25,216.81-23.53Z"/><polygon class="cls-21" points="112.32 261.31 154.31 261.6 168.99 252.13 128.9 252.47 112.32 261.31"/><polygon class="cls-17" points="117.69 258.83 151.88 259.29 161.13 253.74 126.12 253.28 117.69 258.83"/><path class="cls-9" d="M123,250.4c1.49.53,8.28-.72,9.5-.8a13.78,13.78,0,0,1,3.38,1.29c.56.34,3.59,1.82,2.67,2.37-.53.32-2.26-.74-3.47-1a17.88,17.88,0,0,0-3.57-.37,24.53,24.53,0,0,1,3.51.54c.9.34,4.45,2.09,3.51,2.73s-3.65-1.15-3.65-1.15l-4.27-.14a29,29,0,0,1,3.49.45c.74.33,3.42,1,2.89,1.74-.25.33-2.48-.19-3.74-.31a13.35,13.35,0,0,0-3,.2s4.44-.23,5,.36-3.05,1.11-4.8,1.13-7.65-.4-9.08-.21S123,250.4,123,250.4Z"/><path class="cls-5" d="M124.74,249.72c-1.34,2.35-.93,5.87.05,10l-7.1-.92a7.06,7.06,0,0,1,2.54-8.9C120.8,249.51,124.74,249.72,124.74,249.72Z"/><path d="M76.8,209.21c-4.13-1.23-13,4.78-11.1,12.84,3.81,15.75,16.78,30.69,19.76,34.24,5.32,6.33,32.58,3.46,32.58,3.46l3.81-10.52s-27-6.64-27.76-7.9c-2.21-3.78-6.72-20.78-9.38-25.63A15,15,0,0,0,76.8,209.21Z"/><path class="cls-8" d="M70.9,221.45c2.25,5.72,2.54,23.28,13.75,34.14,3.26,3.16-5.84-3.32-9.07-12.13A93.32,93.32,0,0,1,70.9,221.45Z"/><path class="cls-4" d="M317.82,235c1.31.68,6.82.17,8.44.37a9.74,9.74,0,0,1,3.65,1.31c.46.38,2.79,2.48,1.87,2.87-.53.23-1.55-1.29-2.63-1.72a23.15,23.15,0,0,0-3.65-.92s3.07.57,3.88,1.4c.62.64,3.08,2.48,2.15,2.95s-3.83-1.61-3.83-1.61l-3.29-.55a28.48,28.48,0,0,1,3.15.83c.63.41,3.15,1.18,2.28,2.11-.26.29-2.09-.62-3.24-.89s-2.9-.64-2.9-.64,4,1.21,4.45,1.82-2.74.23-4.36,0-7-1.31-8.32-1.31S317.82,235,317.82,235Z"/><path class="cls-5" d="M319,234.71c-1.85,6.72-1.78,9.14-1.78,9.14l-4.36-.35c.57-7.36.51-9.42,1.38-9.33C315.35,234.28,319,234.71,319,234.71Z"/><path d="M276.21,201.2c.11.31,11.38,27.35,13.54,28.65s25.92,4.43,25.92,4.43l-1.73,11.56s-32.44-.73-36.81-3.26S261,206.94,264.71,201.65,275.75,199.81,276.21,201.2Z"/><path class="cls-8" d="M277.22,205.87c1.84,3,11.15,22.6,12.53,24s27.89,3.25,26.56,4a3.53,3.53,0,0,0-1.18,1.83s-24.89-1.37-27.41-3.22-15.79-28.67-14-29.83S277.22,205.87,277.22,205.87Z"/><path class="cls-8" d="M185.23,256.9c0,1.27.91,1.92-4.62,1.92s-15.41-.65-15.41-1.92,9.88-2.7,15.41-2.7S185.23,255.62,185.23,256.9Z"/><path d="M165.2,256.9c0,1.27,9.88,1.92,15.41,1.92s4.62-.65,4.62-1.92c0-.38.07-.77,0-1.13-5.55,1.71-14.31.63-17.7,0C166.13,256.11,165.2,256.51,165.2,256.9Z"/><path class="cls-8" d="M178.3,255.59S162,219.76,159.48,214.84h0c-3.22-6.14-5.7-6.76-8.86-8.19h0a.55.55,0,0,1-.28-.73h0a.56.56,0,0,1,.73-.29h0c3.08,1.35,6.14,2.35,9.39,8.7h0c2.6,5,18.84,40.79,18.85,40.8h0a.55.55,0,0,1-.28.73h0a.48.48,0,0,1-.23,0h0a.55.55,0,0,1-.5-.32Z"/><path class="cls-8" d="M152.71,206.74a1.35,1.35,0,0,1-1.58,1l-9.38-3.28a1.35,1.35,0,0,1-.59-1.79h0a1.35,1.35,0,0,1,1.58-1l9.38,3.28a1.36,1.36,0,0,1,.59,1.8Z"/><path class="cls-8" d="M347.45,240.05c0,1,.75,1.59-3.81,1.59S331,241.1,331,240.05s8.14-2.22,12.69-2.22S347.45,239,347.45,240.05Z"/><path d="M331,240.05c0,1,8.14,1.59,12.69,1.59s3.81-.54,3.81-1.59c0-.31.05-.63,0-.93-4.57,1.41-11.78.52-14.57,0C331.72,239.4,331,239.73,331,240.05Z"/><path class="cls-8" d="M341.73,239s-13.39-29.51-15.5-33.56h0c-2.64-5-4.69-5.57-7.29-6.74h0a.46.46,0,0,1-.23-.61h0a.45.45,0,0,1,.6-.23h0c2.53,1.11,5.06,1.93,7.74,7.16h0c2.14,4.12,15.52,33.6,15.52,33.61h0a.45.45,0,0,1-.23.6h0a.43.43,0,0,1-.19,0h0a.47.47,0,0,1-.42-.27Z"/><path class="cls-8" d="M320.66,198.74a1.12,1.12,0,0,1-1.3.85l-7.72-2.7a1.11,1.11,0,0,1-.49-1.48h0a1.11,1.11,0,0,1,1.3-.85l7.72,2.7a1.11,1.11,0,0,1,.49,1.48Z"/><path class="cls-8" d="M274.26,247.25c0,1.24.89,1.87-4.51,1.87s-15-.63-15-1.87,9.64-2.64,15-2.64S274.26,246,274.26,247.25Z"/><path d="M254.72,247.25c0,1.24,9.64,1.87,15,1.87s4.51-.63,4.51-1.87c0-.37.06-.75,0-1.11-5.41,1.67-14,.61-17.26,0C255.63,246.47,254.72,246.86,254.72,247.25Z"/><path class="cls-8" d="M262.74,246.59C255.31,225,252,211.93,249.36,206.94h0c-3.16-6-4.77-6.3-7.85-7.69h0a.55.55,0,0,1-.27-.72h0a.55.55,0,0,1,.71-.28h0c3,1.31,5.24,2.05,8.38,8.19h0c2.71,5.27,6,18.17,13.44,39.8h0a.56.56,0,0,1-.34.69h0l-.18,0h0a.56.56,0,0,1-.51-.37Z"/><path class="cls-8" d="M242.54,199.33a1.32,1.32,0,0,1-1.55,1l-9.14-3.19a1.33,1.33,0,0,1-.58-1.76h0a1.32,1.32,0,0,1,1.55-1l9.14,3.19a1.32,1.32,0,0,1,.58,1.75Z"/><polygon class="cls-17" points="252.2 239.85 249.38 251.57 257.68 249.85 252.2 239.85"/><polygon class="cls-5" points="255.02 253.45 278.67 249.22 275.12 237.84 252.2 239.85 255.02 253.45"/><polygon class="cls-17" points="257.22 242.98 273.19 241.14 273.5 242.1 257.67 244.32 257.22 242.98"/><polygon class="cls-17" points="261.79 245.99 271.46 244.55 271.77 245.54 262.25 247.31 261.79 245.99"/><polygon class="cls-17" points="344.18 243.32 364.05 241.33 360.94 231.8 341.62 232.9 344.18 243.32"/><polygon class="cls-17" points="341.61 233.06 339.31 242.13 347 240.88 341.61 233.06"/><polygon class="cls-5" points="344.01 243.53 363.87 241.38 360.78 232.01 341.61 233.06 344.01 243.53"/><polygon class="cls-17" points="345.82 235.26 358.46 234.29 358.67 235.15 346.14 236.32 345.82 235.26"/><polygon class="cls-17" points="349.78 237.81 357.39 237.18 357.6 238.04 350.1 238.88 349.78 237.81"/><path class="cls-4" d="M231.29,243.12c2.51.09,6.75.38,8.52,1.07a21.66,21.66,0,0,1,2.55,1.61c1.17.73,2.52,2.12,2,2.42S243,247.49,242,247l-2.22-.85c2.18,1.15,4.55,2.82,4.22,3.32-.44.65-2.69-1.3-5-1.91l-.23.08c2.05.79,3.86,2.22,3.57,2.48-.74.65-3.59-.7-5.14-1.55l-.28.07c1.14,1,3.59,2.11,3.25,2.3s-2.92-.65-4.62-1.46a7.53,7.53,0,0,1-4.61-1.19c-1.63-1.09-1.57-2.2-1.57-2.2Z"/><path d="M232.88,242.94l-20.74-10.23-9-25.12s-6.75-5.38-10.57,3.46c-3.32,7.7,3.12,16.59,8.5,31.37,1.38,3.81,26.28,11,26.28,11Z"/><polygon class="cls-17" points="192.81 246.2 189.2 260.01 200.86 257.23 192.81 246.2"/><polygon class="cls-5" points="200.75 261.27 223.63 255.38 216.7 242.47 192.81 246.2 200.75 261.27"/><polygon class="cls-17" points="198.9 248.45 215.74 244.64 216.17 245.76 199.51 249.84 198.9 248.45"/><polygon class="cls-17" points="204.71 251.23 214.79 248.74 215.22 249.87 205.31 252.61 204.71 251.23"/><path class="cls-2" d="M184.81,201.11c-.2,0-.39,0-.59-.08A3.11,3.11,0,0,0,184.81,201.11ZM228,165.82c-4.74-4-15.85-3.91-21.09,1.16-4.22,4.07-9.23,16.59-12.1,23.64-4,9.81-8.7,13.92-10.27,13.85,4.72.88,8.45-1.05,12.65-2.95-1.15,1.37-1.88,3.77-4.33,4.74,8.77.7,18.22-14.63,20.78-18.81a9.85,9.85,0,0,0,1.61-2.1c-.13-.52-.94-.45-2-2.62s1.92-3.65,3.32-2.51c.05-.84,3.27-2.64,6.79-3.83s9,.59,8.68-3.89C232,172.5,232.77,169.78,228,165.82Z"/></g></g></svg>